<svg data-name="Vector Smart Object" xmlns="http://www.w3.org/2000/svg" width="93.018" height="78.522" viewBox="0 0 93.018 78.522">
    <defs>
        <clipPath id="k9sd9ngq8a">
            <path data-name="Rectángulo 67" style="fill:none" d="M0 0h93.018v78.522H0z"/>
        </clipPath>
    </defs>
    <g data-name="Grupo 125">
        <g data-name="Grupo 124" style="clip-path:url(#k9sd9ngq8a)">
            <path data-name="Trazado 397" d="M61.727 58.539H51.45a1.757 1.757 0 0 1 0-3.514h10.277a1.757 1.757 0 0 1 0 3.514m11.079 0h-.831a1.757 1.757 0 0 1 0-3.514h.831a1.757 1.757 0 0 1 0 3.514m-48.9 0h-10.18a1.757 1.757 0 0 1 0-3.514H23.9a1.757 1.757 0 0 1 0 3.514" transform="translate(3.316 15.199)" style="fill:#fff"/>
            <path data-name="Trazado 398" d="M41.188 60.475H23.243a1.757 1.757 0 0 1 0-3.514h17.945a1.757 1.757 0 0 1 0 3.514m6.335-8.946h-33.8a1.757 1.757 0 0 1 0-3.514h33.8a1.757 1.757 0 0 1 0 3.514" transform="translate(3.316 13.263)" style="fill:#94d040"/>
            <path data-name="Trazado 399" d="M72.806 51.529H46.491a1.757 1.757 0 0 1 0-3.514h26.315a1.757 1.757 0 0 1 0 3.514m-58.464 0h-.616a1.757 1.757 0 0 1 0-3.514h.616a1.757 1.757 0 0 1 0 3.514" transform="translate(3.316 13.263)" style="fill:#fff"/>
            <path data-name="Trazado 400" d="M26.922 7.357a4.61 4.61 0 0 1 .172 3.324 4.483 4.483 0 0 1-2.379 2.709 4.414 4.414 0 0 1-5.905-2.255 4.59 4.59 0 0 1 2.2-6.028h.011a4.426 4.426 0 0 1 5.901 2.25z" transform="translate(5.084 1.296)" style="stroke-width:1.816px;stroke-linecap:round;stroke-linejoin:round;stroke:#94d040;fill:none"/>
            <path data-name="Trazado 401" d="M80.748 40.277c-4.544 0-4.544-4.539-9.087-4.539s-4.544 4.539-9.087 4.539-4.544-4.539-9.087-4.539-4.544 4.539-9.087 4.539-4.544-4.539-9.087-4.539-4.544 4.539-9.1 4.539-4.544-4.539-9.1-4.539-4.544 4.539-9.1 4.539" transform="translate(2.212 9.872)" style="stroke:#fff;stroke-width:1.816px;stroke-linecap:round;stroke-linejoin:round;fill:none"/>
            <path data-name="Línea 3" transform="translate(25.083 41.481)" style="stroke-width:1.797px;stroke:#fff;stroke-linecap:round;stroke-linejoin:round;fill:none" d="M8.829 0H0"/>
            <path data-name="Trazado 402" d="M20.62 17.721v4.759h26.616m11.38 0h4.7V8.131a1.775 1.775 0 0 0-1.749-1.786H30.7" transform="translate(5.696 1.753)" style="stroke:#fff;stroke-width:1.816px;stroke-linecap:round;stroke-linejoin:round;fill:none"/>
            <path data-name="Trazado 403" d="M51.549.918H33.39a1.682 1.682 0 0 0-1.663 1.7v5.24h21.256V2.382A1.435 1.435 0 0 0 51.549.918z" transform="translate(8.764 .253)" style="stroke:#fff;stroke-width:1.816px;stroke-linecap:round;stroke-linejoin:round;fill:none"/>
            <path data-name="Línea 4" transform="translate(35.861 14.115)" style="stroke-width:1.797px;stroke:#fff;stroke-linecap:round;stroke-linejoin:round;fill:none" d="M0 0h33.21"/>
            <path data-name="Trazado 404" d="M48.744 19h-31.59a2.01 2.01 0 0 0-1.992 2.035v18.8m57.031 1.215V20.759A1.744 1.744 0 0 0 70.473 19l-10.348-.015m-24.7 5.505H15.162" transform="translate(4.188 5.245)" style="stroke:#fff;stroke-width:1.816px;stroke-linecap:round;stroke-linejoin:round;fill:none"/>
            <path data-name="Línea 5" transform="translate(33.912 29.709)" style="stroke-width:1.836px;stroke:#fff;stroke-linecap:round;stroke-linejoin:round;fill:none" d="M0 0v17.146"/>
            <path data-name="Trazado 405" d="M28.489 28.652H19.66m-.029-5.374v18.933" transform="translate(5.423 6.43)" style="stroke:#fff;stroke-width:1.816px;stroke-linecap:round;stroke-linejoin:round;fill:none"/>
            <path data-name="Línea 6" transform="translate(39.616 24.233)" style="stroke-width:1.836px;stroke:#fff;stroke-linecap:round;stroke-linejoin:round;fill:none" d="M0 0v21.26"/>
            <path data-name="Trazado 406" d="m43 24.023-.033 8.877h11.394v-8.892M35.972.918v6.926M41.189.918v6.926m5.39-6.926v6.926" transform="translate(9.936 .253)" style="stroke:#fff;stroke-width:1.816px;stroke-linecap:round;stroke-linejoin:round;fill:none"/>
            <path data-name="Trazado 407" d="M60.332 19.011V28.5m-24.079-9.489V28.5" transform="translate(10.014 5.251)" style="stroke:#fff;stroke-width:1.816px;stroke-linecap:round;stroke-linejoin:round;fill:none"/>
        </g>
    </g>
</svg>
