<svg data-name="Vector Smart Object" xmlns="http://www.w3.org/2000/svg" width="71.941" height="68.569" viewBox="0 0 71.941 68.569">
    <defs>
        <clipPath id="dxcg6m2cba">
            <path data-name="Rectángulo 63" style="fill:none" d="M0 0h71.941v68.569H0z"/>
        </clipPath>
    </defs>
    <g data-name="Grupo 114">
        <g data-name="Grupo 113" style="clip-path:url(#dxcg6m2cba)">
            <path data-name="Trazado 354" d="M48.92 57.563h-7.936a1.371 1.371 0 0 1 0-2.741h7.936a1.371 1.371 0 0 1 0 2.741m8.555 0h-.642a1.371 1.371 0 0 1 0-2.741h.642a1.371 1.371 0 0 1 0 2.741m-37.763 0h-7.858a1.371 1.371 0 0 1 0-2.741h7.858a1.371 1.371 0 0 1 0 2.741" transform="translate(1.306 6.802)" style="fill:#fff"/>
            <path data-name="Trazado 355" d="M33.06 58.333H19.2a1.371 1.371 0 0 1 0-2.741h13.86a1.371 1.371 0 0 1 0 2.741m4.892-6.979h-26.1a1.371 1.371 0 0 1 0-2.741h26.1a1.371 1.371 0 0 1 0 2.741" transform="translate(1.306 6.032)" style="fill:#94d040"/>
            <path data-name="Trazado 356" d="M57.475 51.354h-20.32a1.371 1.371 0 0 1 0-2.741h20.32a1.371 1.371 0 0 1 0 2.741m-45.146 0h-.476a1.371 1.371 0 0 1 0-2.741h.476a1.371 1.371 0 0 1 0 2.741" transform="translate(1.306 6.032)" style="fill:#fff"/>
            <path data-name="Trazado 357" d="M26.289 42.794c3.077 0 3.077 2.9 6.154 2.9s3.077-2.9 6.154-2.9 3.077 2.9 6.154 2.9 3.077-2.9 6.154-2.9 3.077 2.9 6.154 2.9 3.077-2.9 6.154-2.9M50.03 40.155h5.589m-.775-12.2v3.05H41.64m-5.379 0h-2.977v-9.171a1.128 1.128 0 0 1 1.107-1.142h14.067M36.97 16.248h7.847a1.068 1.068 0 0 1 1.051 1.085v3.358h-9.806V17.2a.922.922 0 0 1 .908-.952z" transform="translate(3.262 2.016)" style="stroke-linecap:round;stroke-linejoin:round;stroke-width:1.6px;stroke:#fff;fill:none"/>
            <path data-name="Trazado 358" d="M43.937 32.933h16.347a1.282 1.282 0 0 1 1.262 1.3v12.11m-28.8 0V34.052a1.1 1.1 0 0 1 1.085-1.119l4.726-.011m13.768.457v11.376m0-7.447h5.589m.011-3.929v13.535m-9.218-13.993v13.993m-4.77-13.97.022 3.8h-4.737v-3.8m3.951-14.781v4.443M18.326.813h-4.372a.423.423 0 0 0-.41.423v1.873a.423.423 0 0 0 .41.423h4.372a.423.423 0 0 0 .41-.423V1.236a.417.417 0 0 0-.41-.423zM9.317 6.124v5.014h-.686a.867.867 0 0 0-.852.88v.423a.867.867 0 0 0 .852.88h.686v4.226h-.686a.867.867 0 0 0-.852.88v.423a.867.867 0 0 0 .852.88h.686v5.437h14.51v-5.439h.686a.866.866 0 0 0 .852-.88v-.423a.867.867 0 0 0-.852-.88h-.686V13.32h.686a.866.866 0 0 0 .852-.88v-.423a.867.867 0 0 0-.852-.88h-.686V6.124H13.146m11.6 21.634H8.4a.63.63 0 0 1-.62-.64v-1.313a.629.629 0 0 1 .62-.64h16.345a.629.629 0 0 1 .62.64v1.314a.636.636 0 0 1-.62.639z" transform="translate(.965 .101)" style="stroke-linecap:round;stroke-linejoin:round;stroke-width:1.6px;stroke:#fff;fill:none"/>
            <path data-name="Trazado 359" d="M11.884 3.231h12.341a.629.629 0 0 1 .62.64v1.314a.629.629 0 0 1-.62.64H12.084" transform="translate(1.475 .401)" style="stroke-linecap:round;stroke-linejoin:round;stroke-width:1.6px;stroke:#fff;fill:none"/>
            <path data-name="Trazado 360" d="M21.061 5.824H8.522a.63.63 0 0 1-.62-.64V3.871a.629.629 0 0 1 .62-.64h12.34m-9.418 8.659 10.5-.011m-10.5 6.271 10.5-.011m-6.84 19.247h-8.32m25.888 0H18.97m-3.863 3.906H6.784m25.888 0H19.114m-.387 0V42.4h-3.62v-6.546h3.619v5.437" transform="translate(.842 .401)" style="stroke-linecap:round;stroke-linejoin:round;stroke-width:1.6px;stroke:#fff;fill:none"/>
            <path data-name="Línea 2" transform="translate(17.753 28.487)" style="stroke-dasharray:2 2;stroke-linecap:round;stroke-linejoin:round;stroke-width:1.6px;stroke:#fff;fill:none" d="M8.91 9.298 0 0"/>
            <path data-name="Trazado 361" d="M48.511 20.7a2.948 2.948 0 0 0-.111 2.125 2.908 2.908 0 0 0 1.505 1.736 2.787 2.787 0 0 0 3.741-1.439 2.951 2.951 0 0 0-1.393-3.86h0a2.774 2.774 0 0 0-3.742 1.438z" transform="translate(5.987 2.357)" style="stroke:#94d040;stroke-linecap:round;stroke-linejoin:round;stroke-width:1.6px;fill:none"/>
        </g>
    </g>
</svg>
