<svg xmlns="http://www.w3.org/2000/svg" width="61" height="58" viewBox="0 0 61 58">
    <defs>
        <clipPath id="x7tjnwygga">
            <path data-name="Rectángulo 64" style="fill:none" d="M0 0h61v58H0z"/>
        </clipPath>
    </defs>
    <g data-name="Vector Smart Object">
        <g data-name="Grupo 119">
            <g data-name="Grupo 118" style="clip-path:url(#x7tjnwygga)">
                <path data-name="Trazado 366" d="M11.731 8.861a3.645 3.645 0 0 1-3.576-3.718 3.59 3.59 0 0 1 .209-1.116 3.7 3.7 0 0 1 4.692-2.115 3.246 3.246 0 0 1 1.938 1.913 3.284 3.284 0 0 1 .2 2.618 3.642 3.642 0 0 1-1.938 2.115 4.125 4.125 0 0 1-1.53.3m0-5.538-.816.2a2.227 2.227 0 0 0-1.02 1.108 2.018 2.018 0 0 0 1.736 2.275 2.05 2.05 0 0 0 2.038-.966 2.59 2.59 0 0 0-.1-1.51 2.235 2.235 0 0 0-1.122-1.007z" style="fill:#96d200"/>
                <path data-name="Trazado 367" d="M14.179 38.566H5.2a.912.912 0 0 0-.816.806.811.811 0 0 0 .816.806h8.977a.811.811 0 0 0 .816-.806.912.912 0 0 0-.816-.806" style="fill:#fff"/>
                <path data-name="Trazado 368" d="M14.179 46.42H5.2a.806.806 0 1 0 0 1.611h8.977a.806.806 0 1 0 0-1.611" style="fill:#fff"/>
                <path data-name="Trazado 369" d="M26.216 40.177h8.874a.811.811 0 0 0 .816-.806.912.912 0 0 0-.816-.806h-8.874a.811.811 0 0 0-.816.806.706.706 0 0 0 .816.806" style="fill:#fff"/>
                <path data-name="Trazado 370" d="M35.09 46.42h-8.874a.806.806 0 1 0 0 1.611h8.877a.806.806 0 1 0 0-1.611" style="fill:#fff"/>
                <path data-name="Trazado 371" d="M15.505 13.292h8.875a.806.806 0 1 0 0-1.611h-8.875a.806.806 0 1 0 0 1.611" style="fill:#fff"/>
                <path data-name="Trazado 372" d="M36.416 13.292h8.875a.806.806 0 1 0 0-1.611h-8.875a.806.806 0 1 0 0 1.611" style="fill:#fff"/>
                <path data-name="Trazado 373" d="M15.505 21.146h8.875a.912.912 0 0 0 .816-.806.811.811 0 0 0-.816-.806h-8.875a.741.741 0 0 0-.221 0 .706.706 0 0 0-.595.806.811.811 0 0 0 .816.806" style="fill:#fff"/>
                <path data-name="Trazado 374" d="M36.416 21.146h8.875a.811.811 0 0 0 .816-.806.706.706 0 0 0-.816-.806h-8.875a.741.741 0 0 0-.221 0 .706.706 0 0 0-.595.806.811.811 0 0 0 .816.806" style="fill:#fff"/>
                <path data-name="Trazado 375" d="M61 39.875v-.4a1.7 1.7 0 0 0-.51-1.208 1.953 1.953 0 0 0-1.02-.5v-3.128a1.419 1.419 0 0 0 1.428-1.41v-2.316A1.419 1.419 0 0 0 59.47 29.5h-8.977v-2.111a1.521 1.521 0 0 0-1.428-1.41h-.306v-3.625a1.62 1.62 0 0 0 1.53-1.611v-.4a1.721 1.721 0 0 0-1.53-1.611V14.6a1.72 1.72 0 0 0 1.53-1.712v-.4a1.6 1.6 0 0 0-.51-1.108 1.437 1.437 0 0 0-1.02-.5V7.653h.2a1.419 1.419 0 0 0 1.428-1.41V4.028a1.419 1.419 0 0 0-1.428-1.41h-5.1v-1.41A1.216 1.216 0 0 0 42.639 0h-4.387a1.216 1.216 0 0 0-1.224 1.208v1.41h-4.386a1.419 1.419 0 0 0-1.428 1.41v2.215a1.419 1.419 0 0 0 1.428 1.41h.1v3.222a1.721 1.721 0 0 0-1.53 1.611v.4a1.72 1.72 0 0 0 1.53 1.712v4.128a1.721 1.721 0 0 0-1.53 1.611v.4a1.7 1.7 0 0 0 .51 1.208 1.333 1.333 0 0 0 1.02.4v3.625h-.1a1.521 1.521 0 0 0-1.428 1.41v2.12h-1.632v-2.111a1.521 1.521 0 0 0-1.428-1.41h-.306v-3.625a1.62 1.62 0 0 0 1.53-1.611v-.4a1.721 1.721 0 0 0-1.53-1.611V14.6a1.72 1.72 0 0 0 1.53-1.712v-.4a1.721 1.721 0 0 0-1.53-1.611V7.653h.2a1.419 1.419 0 0 0 1.428-1.41V4.028a1.419 1.419 0 0 0-1.428-1.41h-3.974v-1.41A1.216 1.216 0 0 0 22.849 0h-4.386a1.216 1.216 0 0 0-1.224 1.208v1.41h-.816a.811.811 0 0 0-.816.806.912.912 0 0 0 .816.806h11.425v1.812H16.525a.811.811 0 0 0-.816.806.706.706 0 0 0 .816.806h9.691v4.028a.811.811 0 0 0 .816.806h.714v.5h-.612a.741.741 0 0 0-.221 0 .706.706 0 0 0-.595.806v5.74a.811.811 0 0 0 .816.806h.714v.5h-.612a.741.741 0 0 0-.221 0 .706.706 0 0 0-.595.806v4.33H13.465v-4.528a.706.706 0 0 0-.816-.806h-.714v-.4h.714a.811.811 0 0 0 .816-.806v-5.74a.706.706 0 0 0-.816-.806h-.714v-.4h.714a.811.811 0 0 0 .816-.806V9.969a.811.811 0 0 0-.816-.806.912.912 0 0 0-.816.806v.906a1.721 1.721 0 0 0-1.53 1.611v.4a1.72 1.72 0 0 0 1.53 1.712v4.128A1.721 1.721 0 0 0 10.3 20.34v.4a1.7 1.7 0 0 0 .51 1.208 1.333 1.333 0 0 0 1.02.4v3.625h-.1a1.419 1.419 0 0 0-1.428 1.41V29.5H1.428A1.419 1.419 0 0 0 0 30.913v2.316a1.419 1.419 0 0 0 1.428 1.41h.2v3.121h-.002A1.619 1.619 0 0 0 .1 39.472v.4a1.62 1.62 0 0 0 1.53 1.611v4.128h-.004A1.619 1.619 0 0 0 .1 47.326v.4a1.5 1.5 0 0 0 .41 1.111 1.639 1.639 0 0 0 1.122.5v3.625h-.1A1.419 1.419 0 0 0 .1 54.375v2.215A1.419 1.419 0 0 0 1.53 58h16.321a1.419 1.419 0 0 0 1.428-1.41v-2.215a1.419 1.419 0 0 0-1.428-1.41h-.1V49.34a1.62 1.62 0 0 0 1.53-1.611v-.409a1.618 1.618 0 0 0-1.53-1.706v-4.128a1.62 1.62 0 0 0 1.53-1.611v-.409a1.618 1.618 0 0 0-1.53-1.706v-3.121h.1a1.521 1.521 0 0 0 1.428-1.41v-2.114h1.632v2.115a1.521 1.521 0 0 0 1.428 1.41h.2v3.12a1.72 1.72 0 0 0-1.53 1.712v.4a1.721 1.721 0 0 0 1.53 1.611v4.128a1.72 1.72 0 0 0-1.53 1.712v.4a1.6 1.6 0 0 0 .51 1.108 1.232 1.232 0 0 0 1.02.5v3.625h-.1a1.419 1.419 0 0 0-1.428 1.41v2.224a1.419 1.419 0 0 0 1.43 1.41h16.322a1.522 1.522 0 0 0 1.53-1.41v-2.215a1.522 1.522 0 0 0-1.53-1.41h-.1V49.34a1.62 1.62 0 0 0 1.53-1.611v-.409a1.618 1.618 0 0 0-1.53-1.706v-4.128a1.62 1.62 0 0 0 1.53-1.611v-.409a1.618 1.618 0 0 0-1.53-1.706v-3.121h.1a1.419 1.419 0 0 0 1.428-1.41v-2.114h1.53v2.115a1.419 1.419 0 0 0 1.428 1.41h.1v3.12a1.72 1.72 0 0 0-1.53 1.712v.4a1.721 1.721 0 0 0 1.53 1.611v4.128a1.72 1.72 0 0 0-1.53 1.712v.4a1.721 1.721 0 0 0 1.53 1.611v3.625h-.1a1.419 1.419 0 0 0-1.428 1.41v2.221A1.419 1.419 0 0 0 43.149 58h16.423A1.419 1.419 0 0 0 61 56.59v-2.215a1.419 1.419 0 0 0-1.428-1.41h-.1V49.34A1.721 1.721 0 0 0 61 47.729v-.4a1.72 1.72 0 0 0-1.53-1.712v-4.131A1.721 1.721 0 0 0 61 39.875M18.871 1.611h3.57v1.007h-3.57zm40.395 29.5v1.913h-.612a.742.742 0 0 0-.221 0h-15.08v-1.909h15.913zm-20.605-29.5h3.57v1.007h-3.57zm-5.815 2.618h15.913v1.813H32.846zm14.281 3.424v4.028a.811.811 0 0 0 .816.806h.714v.5h-.612a.741.741 0 0 0-.221 0 .706.706 0 0 0-.595.806v5.74a.811.811 0 0 0 .816.806h.714v.5h-.612a.741.741 0 0 0-.221 0 .706.706 0 0 0-.595.806v4.33H34.376v-4.527a.706.706 0 0 0-.816-.806h-.612v-.4h.612a.811.811 0 0 0 .816-.806v-5.74a.706.706 0 0 0-.816-.806h-.612v-.4h.612a.811.811 0 0 0 .816-.806V7.653zm-29.48 48.736H1.734v-1.813h15.913zm0-16.514h-.714a.912.912 0 0 0-.816.806v5.84a.811.811 0 0 0 .816.806h.714v.4h-.714a.811.811 0 0 0-.816.806v4.431H3.264v-4.429a.811.811 0 0 0-.816-.806h-.714v-.5h.714a.811.811 0 0 0 .816-.806v-5.74a.912.912 0 0 0-.816-.806h-.714v-.5h.714a.811.811 0 0 0 .816-.806v-3.932h12.853v4.028a.811.811 0 0 0 .816.806h.714zm0-6.847H2.448a.742.742 0 0 0-.221 0h-.595v-1.913h16.015zm4.692-3.528h-10.4v-1.91H27.95v1.91zm.2 1.611h16.019v1.913H22.543zm15.3 16.212h.714v.4h-.714a.811.811 0 0 0-.816.806v4.431H24.176v-4.425a.811.811 0 0 0-.816-.806h-.714v-.5h.714a.811.811 0 0 0 .816-.806v-5.74a.912.912 0 0 0-.816-.806h-.714v-.5h.714a.811.811 0 0 0 .816-.806v-3.932h12.852v4.028a.811.811 0 0 0 .816.806h.714v.4h-.714a.912.912 0 0 0-.816.806v5.84a.811.811 0 0 0 .816.806m.816 9.062H22.645v-1.811h16.016zM43.149 29.5h-10.3v-1.91h16.012v1.91zm16.219 26.889H43.353v-1.813h16.015zm0-16.514h-.714a.811.811 0 0 0-.816.806v5.84a.706.706 0 0 0 .816.806h.714v.4h-.714a.741.741 0 0 0-.221 0 .706.706 0 0 0-.595.806v4.431H45.087v-4.429a.706.706 0 0 0-.816-.806h-.714v-.5h.612a.742.742 0 0 0 .221 0 .706.706 0 0 0 .595-.806v-5.74a.811.811 0 0 0-.816-.806h-.714v-.5h.612a.741.741 0 0 0 .221 0 .706.706 0 0 0 .595-.806v-3.932h12.955v4.028a.706.706 0 0 0 .816.806h.714z" style="fill:#fff"/>
                <path data-name="Trazado 376" d="M46.923 40.177H55.8a.742.742 0 0 0 .221 0 .706.706 0 0 0 .595-.806.811.811 0 0 0-.816-.806h-8.877a.912.912 0 0 0-.816.806.811.811 0 0 0 .816.806" style="fill:#fff"/>
                <path data-name="Trazado 377" d="M55.8 46.42h-8.879a.806.806 0 1 0 0 1.611H55.8a.806.806 0 1 0 0-1.611" style="fill:#fff"/>
            </g>
        </g>
    </g>
</svg>
