<svg data-name="Grupo 1204" xmlns="http://www.w3.org/2000/svg" width="71.941" height="68.569" viewBox="0 0 71.941 68.569">
    <defs>
        <clipPath id="r3phv7nrna">
            <path data-name="Rectángulo 437" style="fill:none" d="M0 0h71.941v68.569H0z"/>
        </clipPath>
    </defs>
    <g data-name="Grupo 1203" style="clip-path:url(#r3phv7nrna)">
        <path data-name="Trazado 2291" d="M50.226 64.365H42.29a1.371 1.371 0 0 1 0-2.741h7.936a1.371 1.371 0 0 1 0 2.741m8.555 0h-.642a1.371 1.371 0 0 1 0-2.741h.642a1.371 1.371 0 0 1 0 2.741m-37.763 0H13.16a1.371 1.371 0 0 1 0-2.741h7.858a1.371 1.371 0 0 1 0 2.741" style="fill:#fff"/>
        <path data-name="Trazado 2292" d="M34.366 64.365h-13.86a1.371 1.371 0 0 1 0-2.741h13.86a1.371 1.371 0 0 1 0 2.741m4.892-6.979h-26.1a1.371 1.371 0 0 1 0-2.741h26.1a1.371 1.371 0 0 1 0 2.741" style="fill:#94d040"/>
        <path data-name="Trazado 2293" d="M58.781 57.386h-20.32a1.371 1.371 0 0 1 0-2.741h20.32a1.371 1.371 0 0 1 0 2.741m-45.146 0h-.476a1.371 1.371 0 0 1 0-2.741h.476a1.371 1.371 0 0 1 0 2.741" style="fill:#fff"/>
        <path data-name="Trazado 2294" d="M29.551 44.81c3.077 0 3.077 2.9 6.154 2.9s3.077-2.9 6.154-2.9 3.077 2.9 6.154 2.9 3.077-2.9 6.154-2.9 3.077 2.9 6.154 2.9 3.077-2.9 6.154-2.9m-13.183-2.639h5.589m-.775-12.2v3.05H44.9m-5.379 0h-2.975V23.85a1.129 1.129 0 0 1 1.107-1.142H51.72m-11.488-4.444h7.847a1.068 1.068 0 0 1 1.051 1.085v3.358h-9.806v-3.491a.922.922 0 0 1 .891-.952z" style="stroke-linecap:round;stroke-linejoin:round;stroke-width:1.6px;stroke:#fff;fill:none"/>
        <path data-name="Trazado 2295" d="M44.9 33.034h16.349a1.282 1.282 0 0 1 1.262 1.3v12.11m-28.8 0V34.153a1.1 1.1 0 0 1 1.081-1.119h0l4.726-.011m13.768.457v11.376m0-7.447h5.589m.011-3.929v13.535m-9.214-13.993v13.993M44.9 33.045l.022 3.8h-4.735v-3.8m3.951-14.781v4.443M19.291.914h-4.372a.422.422 0 0 0-.41.423V3.21a.422.422 0 0 0 .41.423h4.372a.422.422 0 0 0 .41-.423V1.337a.417.417 0 0 0-.41-.423zm-9.009 5.311v5.014H9.6a.867.867 0 0 0-.852.88v.423a.867.867 0 0 0 .852.88h.686v4.226H9.6a.867.867 0 0 0-.852.88v.423a.867.867 0 0 0 .852.88h.686v5.437h14.51v-5.439h.686a.866.866 0 0 0 .852-.88v-.423a.867.867 0 0 0-.852-.88h-.686v-4.225h.686a.866.866 0 0 0 .852-.88v-.423a.867.867 0 0 0-.852-.88h-.686V6.225H14.111m11.6 21.634H9.365a.63.63 0 0 1-.62-.64v-1.313a.63.63 0 0 1 .618-.64H25.71a.629.629 0 0 1 .62.638v1.316a.636.636 0 0 1-.62.639z" style="stroke-linecap:round;stroke-linejoin:round;stroke-width:1.6px;stroke:#fff;fill:none"/>
        <path data-name="Trazado 2296" d="M13.359 3.632H25.7a.629.629 0 0 1 .62.638v1.316a.63.63 0 0 1-.618.64H13.559" style="stroke-linecap:round;stroke-linejoin:round;stroke-width:1.6px;stroke:#fff;fill:none"/>
        <path data-name="Trazado 2297" d="M21.9 6.225H9.364a.63.63 0 0 1-.62-.64V4.272a.629.629 0 0 1 .618-.64H21.7m-9.418 8.659 10.5-.011m-10.5 6.271 10.5-.011m-6.84 19.247H7.626m25.888 0h-13.7m-3.863 3.906H7.626m25.888 0H19.956m-.387 0V42.8h-3.62v-6.545h3.619v5.437" style="stroke-linecap:round;stroke-linejoin:round;stroke-width:1.6px;stroke:#fff;fill:none"/>
        <path data-name="Línea 21" transform="translate(17.753 28.487)" style="stroke-dasharray:2 2;stroke-linecap:round;stroke-linejoin:round;stroke-width:1.6px;stroke:#fff;fill:none" d="M8.91 9.298 0 0"/>
        <path data-name="Trazado 2298" d="M54.5 23.057a2.949 2.949 0 0 0-.111 2.125 2.907 2.907 0 0 0 1.5 1.736 2.786 2.786 0 0 0 3.7-1.352q.021-.043.039-.087a2.951 2.951 0 0 0-1.393-3.86 2.774 2.774 0 0 0-3.692 1.326c-.013.037-.029.074-.043.112z" style="stroke:#94d040;stroke-linecap:round;stroke-linejoin:round;stroke-width:1.6px;fill:none"/>
    </g>
</svg>
