<svg data-name="Grupo 1176" xmlns="http://www.w3.org/2000/svg" width="74.703" height="74.749" viewBox="0 0 74.703 74.749">
    <defs>
        <clipPath id="nni4n1f89a">
            <path data-name="Rectángulo 427" style="fill:none" d="M0 0h74.703v74.749H0z"/>
        </clipPath>
    </defs>
    <g data-name="Grupo 1175" style="clip-path:url(#nni4n1f89a)">
        <path data-name="Trazado 2279" d="M52.177 70.453H43.9a1.378 1.378 0 0 1-1.379-1.379 1.494 1.494 0 0 1 1.379-1.379h8.275a1.494 1.494 0 0 1 1.379 1.379 1.378 1.378 0 0 1-1.377 1.379zm8.849 0h-.686a1.378 1.378 0 0 1-1.379-1.379 1.494 1.494 0 0 1 1.379-1.379h.689a1.379 1.379 0 0 1 0 2.758m-39.19 0h-8.16a1.379 1.379 0 0 1 0-2.758h8.16a1.379 1.379 0 0 1 0 2.758" style="fill:#fff"/>
        <path data-name="Trazado 2280" d="M35.627 70.451H21.261a1.378 1.378 0 0 1-1.379-1.379 1.494 1.494 0 0 1 1.379-1.379h14.366a1.379 1.379 0 0 1 0 2.758M40.8 63.44H13.676a1.379 1.379 0 0 1-.005-2.758H40.8a1.379 1.379 0 0 1 0 2.758" style="fill:#82d400"/>
        <path data-name="Trazado 2281" d="M61.026 63.44H39.88a1.379 1.379 0 0 1-.005-2.758h21.152a1.379 1.379 0 0 1 .005 2.758h-.005m-46.891 0h-.46a1.379 1.379 0 0 1-.005-2.758h.465a1.379 1.379 0 0 1 .005 2.758h-.005" style="fill:#fff"/>
        <path data-name="Trazado 2282" d="M7.585 27.695a4.591 4.591 0 0 1-1.724-.345 4.713 4.713 0 0 1-2.643-2.528 4.6 4.6 0 0 1-.118-3.678 4.483 4.483 0 0 1 2.414-2.758 5.4 5.4 0 0 1 3.793-.115 5.178 5.178 0 0 1 2.646 2.529 4.826 4.826 0 0 1 .23 3.563 4.939 4.939 0 0 1-2.643 2.872 5.408 5.408 0 0 1-1.954.46m0-7.815a2.537 2.537 0 0 0-1.264.23 2.964 2.964 0 0 0 .23 5.517 3.215 3.215 0 0 0 2.3-.115 3.331 3.331 0 0 0 1.609-1.724 3.562 3.562 0 0 0-.115-2.184A2.988 2.988 0 0 0 8.622 20z" style="fill:#82d400"/>
        <path data-name="Trazado 2283" d="M36.662 39.191H15.285A10.918 10.918 0 0 1 4.6 29.882a1.148 1.148 0 0 1 .8-1.034c.46-.115.919.345 1.034.8a8.964 8.964 0 0 0 8.849 7.7h21.379a8.964 8.964 0 1 0 0-17.929H15.285l-2.184.23a.919.919 0 0 1-.345-1.724 8.966 8.966 0 0 1 2.528-.345h21.378a10.8 10.8 0 1 1 0 21.606m32.41 6.206h-6.091a.919.919 0 0 1 0-1.839h6.091a.919.919 0 1 1 0 1.839" style="fill:#fff"/>
        <path data-name="Trazado 2284" d="M51.255 45.4h-4.71a1.036 1.036 0 0 1-.919-.919v-18.5a5.632 5.632 0 0 1 5.631-5.632h7.7a4.253 4.253 0 0 1 3.908 2.413l2.184 5.057a5.058 5.058 0 0 0 1.839 1.954 5.746 5.746 0 0 1 3.1 5.172v5.976a.8.8 0 0 1-.919.919.918.918 0 0 1-.919-.919v-5.98a4.023 4.023 0 0 0-2.069-3.563 5.864 5.864 0 0 1-2.643-2.878l-2.183-4.94a2.757 2.757 0 0 0-2.3-1.379h-7.7a3.793 3.793 0 0 0-3.793 3.793v17.584h3.793a.92.92 0 0 1 0 1.839" style="fill:#fff"/>
        <path data-name="Trazado 2285" d="M46.545 45.4H23.33a.92.92 0 0 1 0-1.839h22.3v-4.37H8.506a2.069 2.069 0 0 0-2.184 1.947 1.874 1.874 0 0 0 0 .237 2.184 2.184 0 0 0 .578 1.494 2.3 2.3 0 0 0 1.609.692h2.988a.92.92 0 0 1 0 1.839H8.506a4.482 4.482 0 0 1-2.873-1.149 4.022 4.022 0 0 1 2.873-6.9h38.039a.8.8 0 0 1 .919.919v6.206a.918.918 0 0 1-.919.919" style="fill:#fff"/>
        <path data-name="Trazado 2286" d="M17.354 50.913a6.782 6.782 0 1 1 4.868-1.945 6.78 6.78 0 0 1-4.868 1.945m0-11.723a4.942 4.942 0 1 0 4.946 4.942 4.943 4.943 0 0 0-4.942-4.942" style="fill:#fff"/>
        <path data-name="Trazado 2287" d="M17.354 47.581a3.449 3.449 0 1 1 2.512-.969 3.449 3.449 0 0 1-2.512.969m0-5.057a1.609 1.609 0 1 0 1.609 1.609 1.609 1.609 0 0 0-1.609-1.609m39.765 8.39a6.781 6.781 0 1 1 6.781-6.781 6.781 6.781 0 0 1-6.781 6.781zm0-11.723a4.942 4.942 0 1 0 4.942 4.942 4.942 4.942 0 0 0-4.942-4.942" style="fill:#fff"/>
        <path data-name="Trazado 2288" d="M57.119 47.582a3.448 3.448 0 1 1 3.448-3.448 3.333 3.333 0 0 1-3.214 3.448zm0-5.057a1.609 1.609 0 1 0 1.609 1.609 1.609 1.609 0 0 0-1.609-1.609zM69.072 45.4a.92.92 0 0 1 0-1.839.8.8 0 0 0 .919-.919V40a.8.8 0 0 0-.787-.813h-.013a.847.847 0 0 0-.123.008 1.032 1.032 0 0 1-.919-.919.918.918 0 0 1 .919-.919 2.643 2.643 0 0 1 2.756 2.525v2.76a2.759 2.759 0 0 1-2.753 2.758z" style="fill:#fff"/>
        <path data-name="Trazado 2289" d="M69.072 41.834a3.678 3.678 0 0 1 0-7.24.8.8 0 0 1 .919.919.918.918 0 0 1-.919.919 1.84 1.84 0 0 0-1.724 1.839 1.724 1.724 0 0 0 1.724 1.724.918.918 0 0 1 .919.919.8.8 0 0 1-.919.919m-9.424-10.114h-8.275a.918.918 0 0 1-.919-.919v-6.321a.918.918 0 0 1 .919-.919h6.781a.918.918 0 0 1 .919.69l1.494 6.436a.8.8 0 0 1-.115.69 1.037 1.037 0 0 1-.8.345M52.3 29.882h6.2L57.469 25.4H52.29zm2.069 4.942H51.49a.918.918 0 0 1-.919-.919 1.036 1.036 0 0 1 .919-.919h2.873a1.032 1.032 0 0 1 .919.919.918.918 0 0 1-.919.919m-33.214-15.4H15.29a1.032 1.032 0 0 1-.919-.919v-2.993a.918.918 0 0 1 .919-.919h5.861a.8.8 0 0 1 .919.919V18.5a.918.918 0 0 1-.919.919m-4.942-1.839h4.023v-1.149h-4.023zm16.55 1.839h-5.976a1.032 1.032 0 0 1-.919-.919v-2.988a.918.918 0 0 1 .919-.919h5.976a.918.918 0 0 1 .919.919V18.5a1.032 1.032 0 0 1-.919.919M27.7 17.58h4.137v-1.149H27.7zm8.16 21.606a1.032 1.032 0 0 1-.919-.919V16.894a.918.918 0 0 1 .919-.919.8.8 0 0 1 .919.919v21.377a.918.918 0 0 1-.919.919m4.6 0a.918.918 0 0 1-.919-.919V16.894a.8.8 0 0 1 .919-.919.918.918 0 0 1 .919.919v21.377a1.032 1.032 0 0 1-.919.919" style="fill:#fff"/>
        <path data-name="Trazado 2290" d="M40.455 23.1h-4.137a1.036 1.036 0 0 1-.919-.919.918.918 0 0 1 .919-.919h4.137a.918.918 0 0 1 .919.919 1.036 1.036 0 0 1-.919.919m0 4.252h-4.137a.918.918 0 0 1-.919-.919 1.036 1.036 0 0 1 .919-.919h4.137a1.036 1.036 0 0 1 .919.919.918.918 0 0 1-.919.919m0 4.367h-4.137a.921.921 0 0 1-.918-.919 1.036 1.036 0 0 1 .919-.919h4.137a1.036 1.036 0 0 1 .919.919.918.918 0 0 1-.919.919m0 4.367h-4.138a1.032 1.032 0 0 1-.919-.919.921.921 0 0 1 .919-.919h4.137a.918.918 0 0 1 .919.919 1.032 1.032 0 0 1-.919.919" style="fill:#fff"/>
    </g>
</svg>
