<svg xmlns="http://www.w3.org/2000/svg" width="56.904" height="60.506" viewBox="0 0 56.904 60.506">
    <g data-name="Grupo 1243">
        <path data-name="Trazado 2242" d="M54.719 73.884h-8.674a1.447 1.447 0 0 1-1.445-1.446 1.567 1.567 0 0 1 1.446-1.447h8.674a1.568 1.568 0 0 1 1.447 1.447 1.447 1.447 0 0 1-1.447 1.446m9.281 0h-.723a1.446 1.446 0 0 1-1.446-1.446 1.566 1.566 0 0 1 1.446-1.447H64a1.447 1.447 0 0 1 0 2.893m-41.1 0h-8.557a1.447 1.447 0 0 1 0-2.893H22.9a1.447 1.447 0 0 1 0 2.893" transform="translate(-10.723 -13.378)" style="fill:#fff"/>
        <path data-name="Trazado 2243" d="M37.364 73.883H22.3a1.446 1.446 0 0 1-1.446-1.446A1.566 1.566 0 0 1 22.3 70.99h15.064a1.447 1.447 0 0 1 0 2.893m5.424-7.355H14.344a1.447 1.447 0 1 1 0-2.893h28.444a1.447 1.447 0 0 1 0 2.893" transform="translate(-10.723 -13.378)" style="fill:#82d400"/>
        <path data-name="Trazado 2244" d="M64 66.531H41.824a1.447 1.447 0 1 1 0-2.893H64a1.447 1.447 0 1 1 0 2.893m-49.175 0h-.482a1.447 1.447 0 0 1 0-2.893h.482a1.447 1.447 0 0 1 0 2.893" transform="translate(-10.723 -13.378)" style="fill:#fff"/>
        <path data-name="Trazado 2245" d="M66.652 41.221H44.6a1.084 1.084 0 0 1-.964-.964V29.528a1.084 1.084 0 0 1 .964-.964h4.46a.965.965 0 0 1 .965.963.845.845 0 0 1-.707.964.8.8 0 0 1-.258 0h-3.5v8.8h21.093a.845.845 0 0 1 .964.707.8.8 0 0 1 0 .258.964.964 0 0 1-.962.966zm0-10.727h-4.459a.964.964 0 0 1-.964-.965 1.083 1.083 0 0 1 .964-.963h4.459a.964.964 0 0 1 .965.963.846.846 0 0 1-.707.965.858.858 0 0 1-.258 0" transform="translate(-10.723 -13.378)" style="fill:#fff"/>
        <path data-name="Trazado 2246" d="M44.6 42.182h-4.946a1.085 1.085 0 0 1-.964-.964V28.562a.964.964 0 0 1 .964-.963H44.6a.844.844 0 0 1 .964.963v12.656a.965.965 0 0 1-.964.964m-3.974-1.929h3.013V29.529h-3.017z" transform="translate(-10.723 -13.378)" style="fill:#fff"/>
        <path data-name="Trazado 2247" d="m55.563 34.231-1.691-.241a5.424 5.424 0 0 1-2.652-2.531 5.3 5.3 0 0 1-.121-3.616 4.818 4.818 0 0 1 8.8-.24 4.65 4.65 0 0 1-4.339 6.629m0-7.473L54.356 27a3.015 3.015 0 0 0-1.446 1.567 2.775 2.775 0 0 0 .121 2.17 3.009 3.009 0 0 0 1.569 1.446 2.771 2.771 0 0 0 2.17-.12 2.53 2.53 0 0 0 1.446-1.691 2.646 2.646 0 0 0-.121-1.928 2.772 2.772 0 0 0-2.531-1.691" transform="translate(-10.723 -13.378)" style="fill:#82d400"/>
        <path data-name="Trazado 2248" d="M40.98 54.841H13.021a2.291 2.291 0 0 1-2.29-2.291v-1.084a2.29 2.29 0 0 1 2.29-2.29h27.962a2.411 2.411 0 0 1 2.291 2.29v1.084a2.413 2.413 0 0 1-2.291 2.291M13.021 51.1a.362.362 0 0 0-.362.362v1.088a.362.362 0 0 0 .362.362h27.962a.362.362 0 0 0 .362-.362v-1.084a.362.362 0 0 0-.362-.362z" transform="translate(-10.723 -13.378)" style="fill:#fff"/>
        <path data-name="Trazado 2249" d="M40.979 18.923H13.017a2.169 2.169 0 0 1-2.29-2.041 2.069 2.069 0 0 1 0-.249v-.965a2.29 2.29 0 0 1 2.29-2.29h27.962a2.411 2.411 0 0 1 2.291 2.29v.965a2.291 2.291 0 0 1-2.291 2.29m-27.962-3.616a.362.362 0 0 0-.362.362v.964a.362.362 0 0 0 .362.362h27.962a.362.362 0 0 0 .362-.362v-.964a.362.362 0 0 0-.362-.362z" transform="translate(-10.723 -13.378)" style="fill:#fff"/>
        <path data-name="Trazado 2250" d="M39.651 51.1H14.343a.963.963 0 0 1-.963-.963v-8.2h-.241a2.41 2.41 0 0 1-2.41-2.41v-.723a2.53 2.53 0 0 1 2.41-2.531h.241v-5.179h-.241a2.41 2.41 0 0 1-2.41-2.41v-.723a2.41 2.41 0 0 1 2.41-2.41h.241v-7.59a.963.963 0 0 1 .963-.961h25.308a1.083 1.083 0 0 1 .963.964v32.178a.963.963 0 0 1-.963.963M15.3 49.177h23.385V18.923H15.308v7.593a1.085 1.085 0 0 1-.965.965h-1.205a.482.482 0 0 0-.482.482v.722a.482.482 0 0 0 .482.482h1.205a1.085 1.085 0 0 1 .965.965v7.111a.965.965 0 0 1-.965.965h-1.205a.6.6 0 0 0-.482.6v.723a.481.481 0 0 0 .482.481h1.205a1.085 1.085 0 0 1 .965.964z" transform="translate(-10.723 -13.378)" style="fill:#fff"/>
        <path data-name="Trazado 2251" d="M35.436 47.97H18.443a1.085 1.085 0 0 1-.964-.964V27.117a.848.848 0 0 1 .482-.723c.121-.121 3.5-2.531 9.4-.121s7.594 0 7.594 0a1.325 1.325 0 0 1 .964 0 .962.962 0 0 1 .482.845v19.888a.964.964 0 0 1-.964.963m-16.03-1.928h15.066V28.566a11.45 11.45 0 0 1-7.834-.6c-3.857-1.447-6.268-.723-7.232-.241z" transform="translate(-10.723 -13.378)" style="fill:#fff"/>
    </g>
</svg>
