<svg data-name="Grupo 923" xmlns="http://www.w3.org/2000/svg" width="65.162" height="67.334" viewBox="0 0 65.162 67.334">
    <defs>
        <clipPath id="2k7ndg9l9a">
            <path data-name="Rectángulo 372" style="fill:none" d="M0 0h65.162v67.334H0z"/>
        </clipPath>
        <clipPath id="s9uj958dlb">
            <path data-name="Rectángulo 370" style="fill:none" d="M0 0h12.148v12.148H0z"/>
        </clipPath>
    </defs>
    <g data-name="Grupo 914" style="clip-path:url(#2k7ndg9l9a)">
        <g data-name="Grupo 908">
            <g data-name="Grupo 907" style="clip-path:url(#2k7ndg9l9a)">
                <path data-name="Línea 21" transform="translate(39.409 65.9)" style="stroke-width:2.4px;stroke-linecap:round;stroke-linejoin:round;stroke:#fff;fill:none" d="M0 0h8.564"/>
                <path data-name="Línea 22" transform="translate(56.513 65.9)" style="stroke-width:2.4px;stroke-linecap:round;stroke-linejoin:round;stroke:#fff;fill:none" d="M0 0h.694"/>
                <path data-name="Línea 23" transform="translate(7.955 65.9)" style="stroke-width:2.4px;stroke-linecap:round;stroke-linejoin:round;stroke:#fff;fill:none" d="M0 0h8.485"/>
                <path data-name="Línea 24" transform="translate(15.887 65.9)" style="stroke:#82d400;stroke-width:2.4px;stroke-linecap:round;stroke-linejoin:round;fill:none" d="M0 0h14.957"/>
            </g>
        </g>
        <path data-name="Línea 25" transform="translate(7.955 58.602)" style="stroke:#82d400;stroke-width:2.4px;stroke-linecap:round;stroke-linejoin:round;fill:none" d="M0 0h28.179"/>
        <path data-name="Línea 26" transform="translate(35.265 58.602)" style="stroke-width:2.4px;stroke-linecap:round;stroke-linejoin:round;stroke:#fff;fill:none" d="M0 0h21.943"/>
        <path data-name="Línea 27" transform="translate(7.955 58.602)" style="stroke-width:2.4px;stroke-linecap:round;stroke-linejoin:round;stroke:#fff;fill:none" d="M0 0h.513"/>
        <path data-name="Rectángulo 368" transform="translate(8.391 36.159)" style="stroke-width:1.8px;stroke-linecap:round;stroke-linejoin:round;stroke:#fff;fill:none" d="M0 0h6.779v14.358H0z"/>
        <g data-name="Grupo 913">
            <g data-name="Grupo 912" style="clip-path:url(#2k7ndg9l9a)">
                <path data-name="Rectángulo 369" transform="translate(1.075 40.162)" style="stroke-width:1.8px;stroke-linecap:round;stroke-linejoin:round;stroke:#fff;fill:none" d="M0 0h7.315v6.351H0z"/>
                <path data-name="Trazado 3879" d="m41.541 42.073-.648.648a13.192 13.192 0 0 1-9.321 3.861H12.693v-9.738h11.99l4.566-.056a9.244 9.244 0 0 0 6.4-2.68L61.613 8.341m0 13.6-8.233 8.3" transform="translate(2.474 1.626)" style="stroke-width:1.8px;stroke-linecap:round;stroke-linejoin:round;stroke:#fff;fill:none"/>
                <g data-name="Grupo 911" style="mix-blend-mode:multiply;isolation:isolate">
                    <g data-name="Grupo 910">
                        <g data-name="Grupo 909" style="clip-path:url(#s9uj958dlb)" transform="translate(43.469 31.499)">
                            <path data-name="Trazado 3880" d="M47.275 32.258a4.979 4.979 0 1 1 0-.038z" transform="translate(-36.203 -26.185)" style="stroke-width:1.8px;stroke-linecap:round;stroke-linejoin:round;stroke:#fff;fill:none"/>
                        </g>
                    </g>
                </g>
                <path data-name="Trazado 3881" d="M15.756 14.547v7.74h12.007v-7.74H15.756" transform="translate(3.071 2.836)" style="stroke-width:1.8px;stroke-linecap:round;stroke-linejoin:round;stroke:#fff;fill:none"/>
                <path data-name="Línea 28" transform="translate(24.831 12.658)" style="stroke-width:1.8px;stroke-linecap:round;stroke-linejoin:round;stroke:#fff;fill:none" d="M0 4.725V0"/>
                <path data-name="Línea 29" transform="translate(21.767 12.658)" style="stroke-width:1.8px;stroke-linecap:round;stroke-linejoin:round;stroke:#fff;fill:none" d="M0 0h6.37"/>
                <path data-name="Línea 30" transform="translate(21.714 21.252)" style="stroke-width:1.8px;stroke-linecap:round;stroke-linejoin:round;stroke:#fff;fill:none" d="M0 0h9.12"/>
                <path data-name="Línea 31" transform="translate(1.075 25.122)" style="stroke-width:1.8px;stroke-linecap:round;stroke-linejoin:round;stroke:#fff;fill:none" d="M0 0h47.813"/>
                <path data-name="Línea 32" transform="translate(22.897 25.122)" style="stroke-width:1.8px;stroke-linecap:round;stroke-linejoin:round;stroke:#fff;fill:none" d="M0 0v13.347"/>
                <path data-name="Línea 33" transform="translate(27.423 25.122)" style="stroke-width:1.8px;stroke-linecap:round;stroke-linejoin:round;stroke:#fff;fill:none" d="M0 0v13.347"/>
                <path data-name="Trazado 3882" d="M30.225 24.582 49.133 5.2 58.195.9" transform="translate(5.892 .175)" style="stroke-width:1.8px;stroke-linecap:round;stroke-linejoin:round;stroke:#fff;fill:none"/>
                <path data-name="Línea 34" transform="translate(52.179 17.383)" style="stroke-dasharray:2 3;stroke-width:1.8px;stroke-linecap:round;stroke-linejoin:round;stroke:#fff;fill:none" d="M0 12.084 11.908 0"/>
                <path data-name="Trazado 3883" d="M15.042 36.894h12.4a15.578 15.578 0 0 0 10.539-3.837" transform="translate(2.932 6.444)" style="stroke-dasharray:2 3;stroke-width:1.8px;stroke-linecap:round;stroke-linejoin:round;stroke:#fff;fill:none"/>
            </g>
        </g>
    </g>
</svg>
