<svg data-name="Grupo 922" xmlns="http://www.w3.org/2000/svg" width="72.081" height="75" viewBox="0 0 72.081 75">
    <defs>
        <clipPath id="y187jtw1ba">
            <path data-name="Rectángulo 381" style="fill:none" d="M0 0h72.081v75H0z"/>
        </clipPath>
        <clipPath id="bzt3x10iyb">
            <path data-name="Rectángulo 379" style="fill:none" d="M0 0h13.461v13.461H0z"/>
        </clipPath>
    </defs>
    <g data-name="Grupo 921" style="clip-path:url(#y187jtw1ba)">
        <path data-name="Rectángulo 373" transform="translate(31.549 16.169)" style="stroke-width:1.8px;stroke-linecap:round;stroke-linejoin:round;stroke:#fff;fill:none" d="M0 0h16.864v7.095H0z"/>
        <path data-name="Rectángulo 374" transform="translate(35.823 10.687)" style="stroke-width:1.8px;stroke-linecap:round;stroke-linejoin:round;stroke:#fff;fill:none" d="M0 0h8.316v5.482H0z"/>
        <g data-name="Grupo 920">
            <g data-name="Grupo 919" style="clip-path:url(#y187jtw1ba)">
                <rect data-name="Rectángulo 375" width="25.529" height="4.158" rx="1.405" transform="translate(27.216 1.192)" style="stroke-width:1.8px;stroke-linecap:round;stroke-linejoin:round;stroke:#fff;fill:none"/>
                <path data-name="Trazado 3884" d="M40.69 23.883H23.826a6.746 6.746 0 0 0 6.744 6.746h3.374a6.753 6.753 0 0 0 6.746-6.746z" transform="translate(7.723 7.741)" style="stroke-width:1.8px;stroke-linecap:round;stroke-linejoin:round;stroke:#fff;fill:none"/>
                <path data-name="Línea 35" transform="translate(29.076 5.349)" style="stroke-width:1.8px;stroke-linecap:round;stroke-linejoin:round;stroke:#fff;fill:none" d="M6.746 5.336 0 0"/>
                <path data-name="Línea 36" transform="translate(44.138 5.349)" style="stroke-width:1.8px;stroke-linecap:round;stroke-linejoin:round;stroke:#fff;fill:none" d="M0 5.336 6.746 0"/>
                <path data-name="Trazado 3885" d="M17.95 25.871h32.919v-8.3H19.274" transform="translate(5.818 5.695)" style="stroke-width:1.8px;stroke-linecap:round;stroke-linejoin:round;stroke:#fff;fill:none"/>
                <path data-name="Rectángulo 376" transform="translate(56.687 23.265)" style="stroke-width:1.8px;stroke-linecap:round;stroke-linejoin:round;stroke:#fff;fill:none" d="M0 0h14.203v8.302H0z"/>
                <path data-name="Rectángulo 377" transform="translate(56.731 21.349)" style="stroke-width:1.8px;stroke-linecap:round;stroke-linejoin:round;stroke:#fff;fill:none" d="M0 0h4.303v12.165H0z"/>
                <path data-name="Rectángulo 378" transform="translate(38.136 44.785)" style="stroke-width:1.8px;stroke-linecap:round;stroke-linejoin:round;stroke:#fff;fill:none" d="M0 0h4.303v12.165H0z"/>
                <path data-name="Trazado 3886" d="M7.17 29.437v-1.774a3.824 3.824 0 0 1 3.821-3.824h14.094" transform="translate(2.324 7.727)" style="stroke-width:1.8px;stroke-linecap:round;stroke-linejoin:round;stroke:#fff;fill:none"/>
                <path data-name="Trazado 3887" d="M5.941 18.63A10.212 10.212 0 0 0 .9 27.439v3.686" transform="translate(.292 6.038)" style="stroke-width:1.8px;stroke-linecap:round;stroke-linejoin:round;stroke:#fff;fill:none"/>
                <path data-name="Trazado 3888" d="M.9 27.322v8.633A10.215 10.215 0 0 0 11.114 46.17h13.355" transform="translate(.292 8.856)" style="stroke-width:1.8px;stroke-linecap:round;stroke-linejoin:round;stroke:#fff;fill:none"/>
                <path data-name="Trazado 3889" d="M22.438 37.538H10.992a3.824 3.824 0 0 1-3.824-3.824v-5.4" transform="translate(2.323 9.178)" style="stroke-width:1.8px;stroke-linecap:round;stroke-linejoin:round;stroke:#fff;fill:none"/>
                <path data-name="Trazado 3890" d="M17.95 43.583h14.324v-8.3H17.95" transform="translate(5.818 11.435)" style="stroke-width:1.8px;stroke-linecap:round;stroke-linejoin:round;stroke:#fff;fill:none"/>
                <path data-name="Trazado 3891" d="m32.051 35.754 7.963-1.932v12.165l-7.963-1.932" transform="translate(10.389 10.963)" style="stroke-width:1.8px;stroke-linecap:round;stroke-linejoin:round;stroke:#fff;fill:none"/>
                <g data-name="Grupo 918" style="mix-blend-mode:multiply;isolation:isolate">
                    <g data-name="Grupo 917">
                        <g data-name="Grupo 916" style="clip-path:url(#bzt3x10iyb)" transform="translate(8.652 15.161)">
                            <path data-name="Trazado 3892" d="M18.512 17.889a5.518 5.518 0 1 1 0-.042z" transform="translate(-6.242 -11.158)" style="stroke-width:1.8px;stroke-linecap:round;stroke-linejoin:round;stroke:#fff;fill:none"/>
                        </g>
                    </g>
                </g>
                <path data-name="Línea 37" transform="translate(42.597 73.411)" style="stroke-width:2.4px;stroke-linecap:round;stroke-linejoin:round;stroke:#fff;fill:none" d="M0 0h9.49"/>
                <path data-name="Línea 38" transform="translate(61.551 73.411)" style="stroke-width:2.4px;stroke-linecap:round;stroke-linejoin:round;stroke:#fff;fill:none" d="M0 0h.769"/>
                <path data-name="Línea 39" transform="translate(7.742 73.411)" style="stroke-width:2.4px;stroke-linecap:round;stroke-linejoin:round;stroke:#fff;fill:none" d="M0 0h9.403"/>
                <path data-name="Línea 40" transform="translate(16.532 73.411)" style="stroke:#82d400;stroke-width:2.4px;stroke-linecap:round;stroke-linejoin:round;fill:none" d="M0 0h16.574"/>
                <path data-name="Línea 41" transform="translate(7.742 65.324)" style="stroke:#82d400;stroke-width:2.4px;stroke-linecap:round;stroke-linejoin:round;fill:none" d="M0 0h31.226"/>
                <path data-name="Línea 42" transform="translate(38.005 65.324)" style="stroke-width:2.4px;stroke-linecap:round;stroke-linejoin:round;stroke:#fff;fill:none" d="M0 0h24.315"/>
                <path data-name="Línea 43" transform="translate(7.742 65.324)" style="stroke-width:2.4px;stroke-linecap:round;stroke-linejoin:round;stroke:#fff;fill:none" d="M0 0h.568"/>
            </g>
        </g>
    </g>
</svg>
