<svg data-name="Grupo 902" xmlns="http://www.w3.org/2000/svg" width="72.891" height="74.623" viewBox="0 0 72.891 74.623">
    <defs>
        <clipPath id="p5xfvsnxfa">
            <path data-name="Rectángulo 356" style="fill:none" d="M0 0h72.891v74.623H0z"/>
        </clipPath>
    </defs>
    <g data-name="Grupo 901" style="clip-path:url(#p5xfvsnxfa)">
        <path data-name="Trazado 3582" d="M58.912 45.874a6.628 6.628 0 0 0 6.621-6.621v-.047a6.607 6.607 0 0 0-6.6-6.574h-.025a6.621 6.621 0 1 0 0 13.241m0-10.9h.017a4.26 4.26 0 0 1 4.254 4.235v.042a4.275 4.275 0 1 1-4.271-4.276m12.8 3.1h-3.665a1.173 1.173 0 1 0 0 2.346h2.5V52.6H17.708V40.427h31.431a1.173 1.173 0 1 0 0-2.346H45.62v-3.819a1.172 1.172 0 0 0-1.172-1.172h-2.606v-2.176a4.835 4.835 0 0 0-4.283-4.787v-6.369a10.177 10.177 0 1 0-6.791 0v6.369a4.834 4.834 0 0 0-4.283 4.787v2.175h-2.604a1.173 1.173 0 0 0-1.174 1.172v3.819h-5v-1.346a1.172 1.172 0 0 0-1.172-1.172H9.146a1.172 1.172 0 0 0-1.172 1.172v3.191h-6.8A1.172 1.172 0 0 0 0 41.1v10.828A1.172 1.172 0 0 0 1.172 53.1h6.8v3.192a1.172 1.172 0 0 0 1.172 1.172h7.389a1.172 1.172 0 0 0 1.172-1.172v-1.344h54.012a1.172 1.172 0 0 0 1.172-1.172V39.253a1.172 1.172 0 0 0-1.172-1.172m-45.385-27.9a7.832 7.832 0 1 1 9.85 7.56.852.852 0 0 0-.1 0 6.989 6.989 0 0 1-3.836 0c-.033-.009-.065 0-.1 0a7.838 7.838 0 0 1-5.814-7.559M35.214 20.3v5.77h-2.1V20.3a10.113 10.113 0 0 0 2.1 0M28.83 30.914a2.5 2.5 0 0 1 2.5-2.5H37a2.5 2.5 0 0 1 2.5 2.5v2.163H28.83zm-3.777 4.52h18.221v2.647H25.053zM7.974 50.754H2.346V42.27h5.628zm7.388-11.513V55.12h-5.043V37.906h5.043zm18.859-26.76a1.172 1.172 0 0 0 1.172-1.172v-.422h1.7a1.172 1.172 0 0 0 0-2.345h-1.7v-.423a1.172 1.172 0 0 0-2.345 0v3.19a1.172 1.172 0 0 0 1.172 1.172" style="fill:#fff"/>
        <path data-name="Trazado 3583" d="M43.392 58.017h-9.335a1.563 1.563 0 0 1 0-3.126h9.335a1.563 1.563 0 0 1 0 3.126" transform="translate(9.83 16.606)" style="fill:#fff"/>
        <path data-name="Trazado 3584" d="M49.129 58.017h-.757a1.563 1.563 0 0 1 0-3.126h.757a1.563 1.563 0 1 1 0 3.126" transform="translate(14.161 16.606)" style="fill:#fff"/>
        <path data-name="Trazado 3585" d="M16.985 58.017H7.734a1.563 1.563 0 0 1 0-3.126h9.251a1.563 1.563 0 0 1 0 3.126" transform="translate(1.867 16.606)" style="fill:#fff"/>
        <path data-name="Trazado 3586" d="M30.676 58.017h-16.3a1.563 1.563 0 0 1 0-3.126h16.3a1.563 1.563 0 1 1 0 3.126" transform="translate(3.875 16.606)" style="fill:#82d400"/>
        <path data-name="Trazado 3587" d="M38.45 51.91H7.734a1.563 1.563 0 0 1 0-3.126H38.45a1.563 1.563 0 1 1 0 3.126" transform="translate(1.867 14.758)" style="fill:#82d400"/>
        <path data-name="Trazado 3588" d="M54.508 51.91H30.59a1.563 1.563 0 0 1 0-3.126h23.918a1.563 1.563 0 1 1 0 3.126" transform="translate(8.781 14.758)" style="fill:#fff"/>
        <path data-name="Trazado 3589" d="M8.294 51.91h-.56a1.563 1.563 0 0 1 0-3.126h.56a1.563 1.563 0 0 1 0 3.126" transform="translate(1.867 14.758)" style="fill:#fff"/>
    </g>
</svg>
