<svg data-name="Grupo 775" xmlns="http://www.w3.org/2000/svg" width="59" height="73.75" viewBox="0 0 59 73.75">
    <defs>
        <clipPath id="9v37vq8tpa">
            <path data-name="Rectángulo 233" style="fill:none" d="M0 0h59v73.75H0z"/>
        </clipPath>
    </defs>
    <g data-name="Grupo 774" style="clip-path:url(#9v37vq8tpa)">
        <path data-name="Trazado 1447" d="M7.553 12.044A6.089 6.089 0 0 1 7.553 0a5.954 5.954 0 0 1 5.954 5.954 5.954 5.954 0 0 1-5.817 6.088h-.137m0-9.878a3.925 3.925 0 1 0 3.787 4.058v-.133a3.789 3.789 0 0 0-3.649-3.921h-.138" transform="translate(.837)" style="fill:#fff"/>
        <path data-name="Trazado 1448" d="M37.494 46.1h-.541a1.349 1.349 0 0 1-.677-.541c-1.894-2.3-9.067-10.69-9.067-17.727A10.42 10.42 0 0 1 36.682 16.6h1.353a10.554 10.554 0 0 1 9.608 11.232c0 7.037-7.172 15.427-9.2 17.592a1.085 1.085 0 0 1-.677.677zm-.135-27.47h-.406a8.254 8.254 0 0 0-7.582 8.876v.055c0 5.954 5.819 13.261 7.984 15.833 2.165-2.571 8.119-9.878 8.119-15.7A8.39 8.39 0 0 0 37.9 18.63z" transform="translate(9.598 5.863)" style="fill:#fff"/>
        <path data-name="Trazado 1449" d="M35.689 28.607A3.653 3.653 0 1 1 39.2 24.82v.133a3.518 3.518 0 0 1-3.38 3.651h-.138m0-5.007a1.353 1.353 0 1 0 1.353 1.353 1.354 1.354 0 0 0-1.346-1.35" transform="translate(11.267 7.524)" style="fill:#fff"/>
        <path data-name="Trazado 1450" d="M17.2 5.865h-3.517A1.082 1.082 0 0 1 12.6 4.783 1.218 1.218 0 0 1 13.683 3.7H17.2a1.218 1.218 0 0 1 1.083 1.083A1.082 1.082 0 0 1 17.2 5.865" transform="translate(4.45 1.307)" style="fill:#fff"/>
        <path data-name="Trazado 1451" d="M25.09 50.355h-7.172a1.087 1.087 0 0 1 .135-2.165h7.037a1.082 1.082 0 0 1 1.083 1.083.947.947 0 0 1-.789 1.083.971.971 0 0 1-.294 0m-13.667-2.3-.677-.271a13.8 13.8 0 0 1-4.6-6.089 1.081 1.081 0 0 1 .677-1.353.948.948 0 0 1 1.284.38.888.888 0 0 1 .069.161 12.167 12.167 0 0 0 3.924 5.141 1.217 1.217 0 0 1 .271 1.489 1.351 1.351 0 0 1-.947.541m-4.738-12.72h-.271a1.083 1.083 0 0 1-.815-1.218 14.348 14.348 0 0 1 3.654-6.766 1.148 1.148 0 0 1 1.624 1.624 9.881 9.881 0 0 0-3.112 5.548 1.081 1.081 0 0 1-1.083.812m9.608-9.472a1.025 1.025 0 0 1-.271-2.03 9.208 9.208 0 0 1 2.706-.271h4.6a1.082 1.082 0 0 1 1.083 1.083 1.218 1.218 0 0 1-1.083 1.083h-7.032zm13.667-1.894a1.217 1.217 0 0 1-.812-.406 1.082 1.082 0 0 1 .135-1.489 5.821 5.821 0 0 0 1.894-4.33V16.39a1.082 1.082 0 0 1 1.083-1.083.947.947 0 0 1 1.083.789.971.971 0 0 1 0 .294v1.353a8.121 8.121 0 0 1-2.568 5.957zm1.894-13.532a.947.947 0 0 1-.947-.812 5.955 5.955 0 0 0-4.33-3.654 1.1 1.1 0 0 1 .409-2.171 7.982 7.982 0 0 1 5.954 5.142 1.081 1.081 0 0 1-.677 1.353z" transform="translate(1.975 1.337)" style="fill:#fff"/>
        <path data-name="Trazado 1452" d="M29.069 38.765h-3.384a.947.947 0 0 1-1.083-.789.971.971 0 0 1 0-.294 1.082 1.082 0 0 1 1.083-1.082h3.383a1.218 1.218 0 0 1 1.083 1.083 1.082 1.082 0 0 1-1.083 1.083" transform="translate(8.686 12.928)" style="fill:#fff"/>
        <path data-name="Trazado 1453" d="M37.667 55.348h-9.743a1.623 1.623 0 0 1-1.624-1.624 1.76 1.76 0 0 1 1.624-1.624h9.743a1.76 1.76 0 0 1 1.624 1.624 1.623 1.623 0 0 1-1.624 1.624" transform="translate(9.289 18.402)" style="fill:#fff"/>
        <path data-name="Trazado 1454" d="M43.036 55.348h-.812a1.623 1.623 0 0 1-1.624-1.624 1.76 1.76 0 0 1 1.624-1.624h.812a1.624 1.624 0 0 1 0 3.248" transform="translate(14.34 18.402)" style="fill:#fff"/>
        <path data-name="Trazado 1455" d="M11.232 55.348H1.624a1.624 1.624 0 1 1 0-3.248h9.608a1.624 1.624 0 1 1 0 3.248z" transform="translate(0 18.402)" style="fill:#fff"/>
        <path data-name="Trazado 1456" d="M25.139 55.348H8.224A1.623 1.623 0 0 1 6.6 53.724 1.76 1.76 0 0 1 8.224 52.1h16.915a1.624 1.624 0 1 1 0 3.248z" transform="translate(2.331 18.402)" style="fill:#82d400"/>
        <path data-name="Trazado 1457" d="M33.56 49.248H1.624a1.624 1.624 0 1 1 0-3.248H33.56a1.624 1.624 0 1 1 0 3.248" transform="translate(0 16.248)" style="fill:#82d400"/>
        <path data-name="Trazado 1458" d="M49.323 49.248h-24.9a1.624 1.624 0 1 1 0-3.248h24.9a1.624 1.624 0 0 1 0 3.248" transform="translate(8.053 16.248)" style="fill:#fff"/>
        <path data-name="Trazado 1459" d="M2.165 49.248h-.541a1.624 1.624 0 1 1 0-3.248h.541a1.624 1.624 0 1 1 0 3.248" transform="translate(0 16.248)" style="fill:#fff"/>
    </g>
</svg>
