<svg data-name="Grupo 777" xmlns="http://www.w3.org/2000/svg" width="66.1" height="73.499" viewBox="0 0 66.1 73.499">
    <defs>
        <clipPath id="nq99am1ypa">
            <path data-name="Rectángulo 234" style="fill:none" d="M0 0h66.1v73.499H0z"/>
        </clipPath>
    </defs>
    <g data-name="Grupo 776" style="clip-path:url(#nq99am1ypa)">
        <path data-name="Trazado 1460" d="M6.166 27.932a6.166 6.166 0 0 1 0-12.332 6.242 6.242 0 0 1 6.166 6.043v.123a6.106 6.106 0 0 1-6.166 6.166m0-10.359a4.193 4.193 0 0 0 0 8.386 4.214 4.214 0 0 0 4.193-4.07v-.123A4.133 4.133 0 0 0 6.166 17.7z" transform="translate(0 3.638)" style="fill:#fff"/>
        <path data-name="Trazado 1461" d="M64.85 57.714h-3.576V40.7a4.684 4.684 0 0 0-4.686-4.686H51.9V32.68a4.684 4.684 0 0 0-4.686-4.686h-1.85V22.2h8.262a7.421 7.421 0 0 0 7.4-7.4V.987A1.061 1.061 0 0 0 60.04 0H35.13a6.9 6.9 0 0 0-5.18 2.22 7.485 7.485 0 0 0-2.1 5.179v13.935a1.061 1.061 0 0 0 .987.987h14.679v5.8H40.8a4.684 4.684 0 0 0-4.684 4.679v17.761H32.91a1.9 1.9 0 0 1-1.85-1.85v-9.5a3.842 3.842 0 0 0-3.823-3.823h-3.083v-15.04a4.158 4.158 0 0 0-4.193-4.193h-.74v-2.713a4.815 4.815 0 0 0-4.809-4.809h-4.44a4.815 4.815 0 0 0-4.809 4.809v2.713a1.061 1.061 0 0 0 .987.987 1.061 1.061 0 0 0 .987-.987v-2.713a2.791 2.791 0 0 1 2.836-2.836h4.44a2.791 2.791 0 0 1 2.836 2.836v44.272H7.136V35.27a1.061 1.061 0 0 0-.987-.987 1.061 1.061 0 0 0-.987.987v22.444H1.587a.987.987 0 0 0 0 1.973h63.386a.987.987 0 1 0 0-1.973zM29.7 7.276a4.945 4.945 0 0 1 1.6-3.823 5.41 5.41 0 0 1 3.823-1.6h23.931V14.8a5.474 5.474 0 0 1-5.426 5.426H29.7V7.276M59.3 40.7v17.014H42.652V40.7a2.737 2.737 0 0 1 2.713-2.713h11.223A2.737 2.737 0 0 1 59.3 40.7M40.679 57.714h-2.59v-5.3h2.59zM37.966 32.68a2.737 2.737 0 0 1 2.713-2.713h6.413A2.737 2.737 0 0 1 49.8 32.68v3.33h-4.558a4.684 4.684 0 0 0-4.686 4.69v9.742h-2.59V32.68m-10.852 4.563a1.9 1.9 0 0 1 1.85 1.85v9.5a3.842 3.842 0 0 0 3.823 3.823h3.206v5.3H24.031V37.243zm-7.276-19.362a2.211 2.211 0 0 1 2.22 2.22v15.045H19.1V17.758h.74zm-.617 19.361h2.96v20.472h-2.96z" transform="translate(.14)" style="fill:#fff"/>
        <path data-name="Trazado 1462" d="M42.746 45.839a3.9 3.9 0 0 0 3.946-3.946v-.123a3.727 3.727 0 0 0-.617-1.973l-2.59-5.3a.826.826 0 0 0-.862-.497.927.927 0 0 0-.863.617l-2.343 5.3a9.565 9.565 0 0 0-.617 2.22 3.9 3.9 0 0 0 3.946 3.946zm-1.6-5.3 1.48-3.453 1.6 3.453a2.811 2.811 0 0 1 .37 1.357 1.948 1.948 0 0 1-1.973 1.973 1.924 1.924 0 0 1-1.973-1.85 6.5 6.5 0 0 1 .37-1.48z" transform="translate(9.048 7.929)" style="fill:#fff"/>
        <path data-name="Trazado 1463" d="M45.3 17.675a1.066 1.066 0 0 0 .74.37c.247 0 .493 0 .617-.247a.872.872 0 0 0 0-1.357l-4.07-4.686h.493a3.842 3.842 0 0 0 3.82-3.822V6.576A3.579 3.579 0 0 0 43.323 3h-.247A3.579 3.579 0 0 0 39.5 6.576v10.483a.987.987 0 1 0 1.973 0v-3.7l3.7 4.316zM41.72 6.576a1.632 1.632 0 0 1 1.6-1.6h.247a1.632 1.632 0 0 1 1.6 1.6v1.357a1.9 1.9 0 0 1-1.85 1.85h-1.6V6.576z" transform="translate(9.212 .7)" style="fill:#fff"/>
        <path data-name="Trazado 1464" d="M29.623 3h-.247A3.579 3.579 0 0 0 25.8 6.576v10.483a.987.987 0 1 0 1.973 0v-5.3h1.6A3.842 3.842 0 0 0 33.2 7.933V6.576A3.579 3.579 0 0 0 29.623 3m1.726 4.933a1.9 1.9 0 0 1-1.85 1.85H27.9V6.7a1.632 1.632 0 0 1 1.6-1.6h.247a1.632 1.632 0 0 1 1.6 1.6v1.233z" transform="translate(6.017 .7)" style="fill:#fff"/>
        <path data-name="Trazado 1465" d="M36.523 3h-.247A3.579 3.579 0 0 0 32.7 6.576v7.769a3.579 3.579 0 0 0 3.576 3.576h.247a3.579 3.579 0 0 0 3.577-3.576V6.576A3.579 3.579 0 0 0 36.523 3m1.6 11.345a1.632 1.632 0 0 1-1.6 1.6H36.4a1.632 1.632 0 0 1-1.6-1.6V6.576a1.632 1.632 0 0 1 1.6-1.6h.247a1.632 1.632 0 0 1 1.6 1.6v7.769z" transform="translate(7.626 .7)" style="fill:#fff"/>
        <path data-name="Trazado 1466" d="M41.559 60.16H32.68a1.48 1.48 0 1 1 0-2.96h8.879a1.48 1.48 0 1 1 0 2.96" transform="translate(7.276 13.339)" style="fill:#fff"/>
        <path data-name="Trazado 1467" d="M47.72 60.16h-.74a1.48 1.48 0 1 1 0-2.96h.74a1.48 1.48 0 1 1 0 2.96" transform="translate(10.611 13.339)" style="fill:#fff"/>
        <path data-name="Trazado 1468" d="M15.136 60.16H6.38a1.48 1.48 0 0 1 0-2.96h8.756a1.48 1.48 0 0 1 0 2.96" transform="translate(1.143 13.339)" style="fill:#fff"/>
        <path data-name="Trazado 1469" d="M28.395 60.16H12.98a1.48 1.48 0 0 1 0-2.96h15.415a1.48 1.48 0 0 1 0 2.96" transform="translate(2.682 13.339)" style="fill:#96d200"/>
        <path data-name="Trazado 1470" d="M35.483 54.06H6.38a1.48 1.48 0 1 1 0-2.96h29.1a1.48 1.48 0 1 1 0 2.96" transform="translate(1.143 11.917)" style="fill:#96d200"/>
        <path data-name="Trazado 1471" d="M51.871 54.06H29.18a1.48 1.48 0 0 1 0-2.96h22.691a1.48 1.48 0 1 1 0 2.96" transform="translate(6.46 11.917)" style="fill:#fff"/>
        <path data-name="Trazado 1472" d="M6.873 54.06H6.38a1.48 1.48 0 1 1 0-2.96h.493a1.48 1.48 0 1 1 0 2.96" transform="translate(1.143 11.917)" style="fill:#fff"/>
    </g>
</svg>
