<svg xmlns="http://www.w3.org/2000/svg" width="57" height="61" viewBox="0 0 57 61">
    <g data-name="Vector Smart Object">
        <path data-name="Trazado 386" d="M31.783 27.6a3.9 3.9 0 0 1-1.534-.322 4.679 4.679 0 0 1-2.411-2.148 4.154 4.154 0 0 1 2.112-5.55l.08-.034a4.424 4.424 0 0 1 5.7 2.04 4.321 4.321 0 0 1 .11 3.114 4.007 4.007 0 0 1-2.3 2.47 4.668 4.668 0 0 1-1.757.43zm0-6.766-1.1.215a4.009 4.009 0 0 0-1.315 1.4 2.424 2.424 0 0 0 .11 1.933 2.392 2.392 0 0 0 1.425 1.289 3.13 3.13 0 0 0 1.973 0 2.6 2.6 0 0 0 1.315-1.5 2.634 2.634 0 0 0-.11-1.826 2.524 2.524 0 0 0-2.298-1.51z" style="fill:#82d400" transform="translate(-7.662 -4.833)"/>
        <g data-name="Grupo 123">
            <g data-name="Grupo 122">
                <path data-name="Trazado 387" d="M43.51 13.1v-.32h1.206a.8.8 0 0 0 .238 0 .754.754 0 0 0 .639-.859.868.868 0 0 0-.877-.859H43.51v-.322a.977.977 0 0 0-.877-.859.868.868 0 0 0-.877.859v1.181a.756.756 0 0 0 0 .233v.946a.756.756 0 0 0 0 .233.765.765 0 0 0 .877.626.868.868 0 0 0 .877-.859z" style="fill:#fff" transform="translate(-7.662 -4.833)"/>
                <path data-name="Trazado 388" d="M63.786 33.185h-4.494a.868.868 0 0 0-.877.859h-7.891v-6.873a.755.755 0 0 0 0-.233v-3.311a.868.868 0 0 0-.877-.859H43.4v-2.953a7.572 7.572 0 0 0 6.8-7.465 7.673 7.673 0 0 0-15.344 0 7.572 7.572 0 0 0 6.8 7.465v2.952H38.03a.977.977 0 0 0-.877.859.868.868 0 0 0 .877.859h4.493a.8.8 0 0 0 .238 0h6.009v1.826H38.03a.8.8 0 0 0-.238 0 .754.754 0 0 0-.639.859.868.868 0 0 0 .877.859h10.741v6.014h-13.7V29a.755.755 0 0 0 0-.233.765.765 0 0 0-.877-.626.868.868 0 0 0-.877.859v5.048h-19.4a.868.868 0 0 0-.877-.859H8.549a.8.8 0 0 0-.238 0 .754.754 0 0 0-.639.859v14.709a.868.868 0 0 0 .877.859h4.493a.977.977 0 0 0 .877-.859v-.107h44.5v.107a.977.977 0 0 0 .877.859h4.493a.977.977 0 0 0 .877-.859V34.044a.868.868 0 0 0-.88-.859zM36.606 12.35a5.919 5.919 0 0 1 11.837 0 5.92 5.92 0 0 1-11.837 0zM12.165 47.79a.7.7 0 0 0 0 .107h-2.74V34.9h2.74zm46.25-.859H23.892V43.6a.755.755 0 0 0 0-.233.765.765 0 0 0-.877-.626.868.868 0 0 0-.877.859v3.329h-8.22V35.762h44.5zm4.493.967h-2.74V34.9h2.74z" style="fill:#fff" transform="translate(-7.662 -4.833)"/>
            </g>
            <path data-name="Trazado 389" d="M47.127 37.481a.891.891 0 0 0-.915 0 .849.849 0 0 0-.29 1.181l1.9 1.933H35.29a.8.8 0 0 0-.238 0 .754.754 0 0 0-.639.859.868.868 0 0 0 .877.859h12.494l-1.863 1.826a.847.847 0 0 0 0 1.181.548.548 0 0 0 .548.322.993.993 0 0 0 .658-.322l3.4-3.329a.847.847 0 0 0 0-1.181z" style="fill:#fff" transform="translate(-7.662 -4.833)"/>
        </g>
        <path data-name="Trazado 390" d="M49.757 65.833h-7.891a1.3 1.3 0 0 1-1.315-1.289 1.411 1.411 0 0 1 1.315-1.289h7.891a1.411 1.411 0 0 1 1.315 1.289 1.3 1.3 0 0 1-1.315 1.289z" style="fill:#fff" transform="translate(-7.662 -4.833)"/>
        <path data-name="Trazado 391" d="M58.2 65.833h-.658a1.3 1.3 0 0 1-1.315-1.289 1.411 1.411 0 0 1 1.315-1.289h.658a1.3 1.3 0 0 1 1.315 1.289 1.3 1.3 0 0 1-1.315 1.289z" style="fill:#fff" transform="translate(-7.662 -4.833)"/>
        <path data-name="Trazado 392" d="M20.824 65.833h-7.782a1.3 1.3 0 0 1-1.315-1.289 1.3 1.3 0 0 1 1.315-1.289h7.781a1.3 1.3 0 0 1 1.315 1.289 1.3 1.3 0 0 1-1.315 1.289z" style="fill:#fff" transform="translate(-7.662 -4.833)"/>
        <path data-name="Trazado 393" d="M33.975 65.833h-13.7a1.3 1.3 0 0 1-1.315-1.289 1.411 1.411 0 0 1 1.315-1.289h13.7a1.3 1.3 0 0 1 1.315 1.289 1.3 1.3 0 0 1-1.315 1.289z" style="fill:#82d400" transform="translate(-7.662 -4.833)"/>
        <path data-name="Trazado 394" d="M38.907 59.282H13.042a1.289 1.289 0 1 1 0-2.577h25.865a1.289 1.289 0 1 1 0 2.577z" style="fill:#82d400" transform="translate(-7.662 -4.833)"/>
        <path data-name="Trazado 395" d="M58.2 59.282H38.03a1.289 1.289 0 1 1 0-2.577H58.2a1.289 1.289 0 1 1 0 2.577z" style="fill:#fff" transform="translate(-7.662 -4.833)"/>
        <path data-name="Trazado 396" d="M13.48 59.282h-.438a1.289 1.289 0 1 1 0-2.577h.438a1.289 1.289 0 1 1 0 2.577z" style="fill:#fff" transform="translate(-7.662 -4.833)"/>
    </g>
</svg>
