<svg xmlns="http://www.w3.org/2000/svg" width="82.946" height="82.571" viewBox="0 0 82.946 82.571">
    <g data-name="Grupo 1320" transform="translate(2263.357 1530.177)">
        <path data-name="Trazado 4364" d="M458.216 42.2A40.786 40.786 0 1 1 417.43 1.412 40.786 40.786 0 0 1 458.216 42.2" transform="translate(-2639.128 -1531.089)" style="fill:#fff"/>
        <circle data-name="Elipse 79" cx="40.786" cy="40.786" r="40.786" transform="translate(-2262.483 -1529.677)" style="stroke:#000;fill:none;stroke-miterlimit:10"/>
        <path data-name="Trazado 4365" d="M435.883 86.8q0 1.105.1 2.186c17.293 7.558 25.4-8.631 36.258-8.14a25.064 25.064 0 0 1 12.626 3.885 24.534 24.534 0 0 0-48.98 2.069" transform="translate(-2682.531 -1575.675)" style="fill:#3966a9"/>
        <path data-name="Trazado 4366" d="M436.245 139.882a24.534 24.534 0 0 0 48.97-2.186q0-1.045-.086-2.069a25.062 25.062 0 0 0-12.626-3.885c-10.853-.491-18.964 15.7-36.257 8.14" transform="translate(-2682.797 -1626.573)" style="fill:#31b1b3"/>
        <path data-name="Trazado 4367" d="m387.712 160.115-6.605-2.3-6.382 2.931v-.031l-.094-.94 6.433-2.955 6.524 2.277a.045.045 0 0 0 0 .01z" transform="translate(-2637.649 -1644.953)" style="fill:#3966a9"/>
        <path data-name="Trazado 4368" d="m645.266 162.35-6.909 2.184-6.028-2.988q-.034.5-.086.988l6.038 2.993 6.907-2.183z" transform="translate(-2826.405 -1648.419)" style="fill:#3966a9"/>
        <path data-name="Trazado 4369" d="M423.417 184.842a29.071 29.071 0 0 0 55.334 0c.08-.23.172-.557.27-.923h-.951a28.144 28.144 0 0 1-53.971 0h-.952c.1.366.191.694.27.923" transform="translate(-2673.2 -1664.812)" style="fill:#3966a9"/>
        <path data-name="Trazado 4370" d="M456.43 183.918c-.083.424-.16.765-.2.923a39.89 39.89 0 0 1-4.719 11.76 40.243 40.243 0 0 1-69.039 0 39.888 39.888 0 0 1-4.719-11.76c-.087-.33-.142-.582-.207-.923h-.931a41.16 41.16 0 0 0 80.753 0z" transform="translate(-2639.104 -1664.811)" style="fill:#3966a9"/>
        <path data-name="Trazado 4371" d="m455.094 32.732.042-.053a41.185 41.185 0 0 0-81.161 3.691l.039-.011a41.555 41.555 0 0 0-.283 4.273l6.5-2.641 6.515 2.835a28.05 28.05 0 0 1 8.364-19.6l.02-.02c.108-.106.218-.21.327-.315.087-.083.174-.166.262-.247l.09-.083a28.139 28.139 0 0 1 47.008 17.789l7.383 4.35 5.568-5.719a40.8 40.8 0 0 0-.671-4.254" transform="translate(-2636.993 -1530.122)" style="fill:#31b1b3"/>
        <path data-name="Trazado 4372" d="m455.094 32.732.042-.053a41.185 41.185 0 0 0-81.161 3.691l.039-.011a41.555 41.555 0 0 0-.283 4.273l6.5-2.641 6.515 2.835a28.05 28.05 0 0 1 8.364-19.6l.02-.02c.108-.106.218-.21.327-.315.087-.083.174-.166.262-.247l.09-.083a28.139 28.139 0 0 1 47.008 17.789l7.383 4.35 5.568-5.719a40.8 40.8 0 0 0-.674-4.249z" transform="translate(-2636.993 -1530.122)" style="stroke:#fff;stroke-width:.187px;fill:none;stroke-miterlimit:10"/>
        <path data-name="Trazado 4373" d="m406.355 89.419-1.02 1.99.725.838-.7 1.358-3.641-4.49.672-1.311 5.774.329-.71 1.385zm-1.181-.113-1.816-.167 1.2 1.377z" transform="translate(-2657.502 -1594.389)" style="fill:#fff"/>
        <path data-name="Trazado 4374" d="m414.257 60.876 4.179 3.24-.916 1.184-1.63-1.264-1.25 1.612 1.63 1.264-.917 1.182-4.18-3.24.917-1.182 1.57 1.218 1.25-1.612-1.57-1.217z" transform="translate(-2664.428 -1574.658)" style="fill:#fff"/>
        <path data-name="Trazado 4375" d="M434.4 51.1a2.7 2.7 0 0 1-3.158-3.6 3.376 3.376 0 0 1 2.266-1.988 2.7 2.7 0 0 1 3.158 3.6A3.376 3.376 0 0 1 434.4 51.1m.971-2.278a1.357 1.357 0 0 0 .035-.739 1.744 1.744 0 0 0-1.041-1.187 1.364 1.364 0 0 0-.737-.062 1.486 1.486 0 0 0-1.09.956 1.356 1.356 0 0 0-.035.739 1.745 1.745 0 0 0 1.041 1.187 1.356 1.356 0 0 0 .738.061 1.486 1.486 0 0 0 1.091-.956" transform="translate(-2679.001 -1563.341)" style="fill:#fff"/>
        <path data-name="Trazado 4376" d="m453 35.412-.7.416.717 1.208-1.286.763-2.7-4.548 2.08-1.233a3.013 3.013 0 0 1 1.194-.431 1.923 1.923 0 0 1 2.105 1.913 1.811 1.811 0 0 1-.318.966l1.829.847-1.377.817zm-.665-2.513a1.03 1.03 0 0 0-.7.179l-.715.424.79 1.332.715-.424a1.048 1.048 0 0 0 .5-.527.711.711 0 0 0-.09-.61.721.721 0 0 0-.494-.374" transform="translate(-2692.167 -1553.188)" style="fill:#fff"/>
        <path data-name="Trazado 4377" d="m473.841 25.854-.763.288.5 1.315-1.4.528-1.867-4.948 2.262-.853a3.01 3.01 0 0 1 1.25-.218 1.923 1.923 0 0 1 1.741 2.25 1.814 1.814 0 0 1-.481.9l1.654 1.152-1.5.565zm-.218-2.59a1.037 1.037 0 0 0-.722.055l-.778.293.547 1.449.777-.293a1.044 1.044 0 0 0 .58-.432.709.709 0 0 0 .018-.616.721.721 0 0 0-.422-.455" transform="translate(-2707.754 -1546.146)" style="fill:#fff"/>
        <path data-name="Trazado 4378" d="m498.494 19.937-2.2.4-.224 1.085-1.5.275 1.345-5.622 1.449-.265 3.255 4.781-1.531.28zm-.629-1.006-.973-1.542-.364 1.787z" transform="translate(-2725.531 -1541.64)" style="fill:#fff"/>
        <path data-name="Trazado 4379" d="M528.887 19.078a2.7 2.7 0 0 1 .4-4.773 3.376 3.376 0 0 1 3 .251 2.7 2.7 0 0 1-.4 4.773 3.377 3.377 0 0 1-3-.251m2.313-.878a1.355 1.355 0 0 0 .556-.488 1.744 1.744 0 0 0 .131-1.573 1.364 1.364 0 0 0-.467-.574 1.488 1.488 0 0 0-1.446-.121 1.356 1.356 0 0 0-.556.488 1.745 1.745 0 0 0-.132 1.574 1.359 1.359 0 0 0 .468.573 1.488 1.488 0 0 0 1.446.121" transform="translate(-2749.769 -1540.358)" style="fill:#fff"/>
        <path data-name="Trazado 4380" d="m566.967 21.1-1.829 4.962-1.155-.426-1.216-3.451-.975 2.644-1.375-.507 1.829-4.962 1.155.426 1.216 3.451.975-2.644z" transform="translate(-2773.778 -1544.242)" style="fill:#fff"/>
        <path data-name="Trazado 4381" d="M584.348 33.478a2.438 2.438 0 0 1 .375-1.9l1.506-2.514 1.283.769-1.483 2.476q-.652 1.089.21 1.605t1.508-.576l1.483-2.475 1.264.757-1.507 2.514a2.437 2.437 0 0 1-1.5 1.226 2.935 2.935 0 0 1-3.143-1.883" transform="translate(-2791.265 -1551.351)" style="fill:#fff"/>
        <path data-name="Trazado 4382" d="m607.62 46.316-3.508 3.958-.922-.817.122-3.657-1.869 2.109-1.1-.972 3.508-3.957.922.817-.122 3.657 1.869-2.109z" transform="translate(-2803.035 -1561.544)" style="fill:#fff"/>
        <path data-name="Trazado 4383" d="M620.294 67.2a2.627 2.627 0 0 1 .128-1.421 2.859 2.859 0 0 1 2.233-1.755 2.622 2.622 0 0 1 1.411.213 3.128 3.128 0 0 1 1.2.956 3.2 3.2 0 0 1 .605 1.187 2.515 2.515 0 0 1 .016 1.218l-1.266-.216a1.566 1.566 0 0 0-.283-1.363 1.54 1.54 0 0 0-.622-.486 1.309 1.309 0 0 0-.741-.081 1.775 1.775 0 0 0-1.241.975 1.307 1.307 0 0 0-.1.739 1.536 1.536 0 0 0 .325.72 1.566 1.566 0 0 0 1.257.6l-.089 1.281a2.512 2.512 0 0 1-1.18-.3 3.2 3.2 0 0 1-1.01-.869 3.129 3.129 0 0 1-.646-1.39" transform="translate(-2817.617 -1576.952)" style="fill:#fff"/>
        <path data-name="Trazado 4384" d="m631.281 89.391-1.053-1.973-1.1.117-.719-1.346 5.765-.43.693 1.3-3.567 4.556-.733-1.373zm.767-.906 1.173-1.4-1.813.2z" transform="translate(-2823.595 -1592.89)" style="fill:#fff"/>
        <path data-name="Trazado 4385" d="m430.924 241.349.207.214-.8.78a1.429 1.429 0 0 1-.538-.157 1.81 1.81 0 0 1-.481-.358 1.627 1.627 0 0 1-.414-.7 1.426 1.426 0 0 1 0-.77 1.557 1.557 0 0 1 1.1-1.067 1.425 1.425 0 0 1 .77.025 1.633 1.633 0 0 1 .694.438 1.719 1.719 0 0 1 .353.517 1.227 1.227 0 0 1 .1.561h-.276a1.206 1.206 0 0 0-.369-.875 1.317 1.317 0 0 0-.562-.353 1.154 1.154 0 0 0-.627-.02 1.265 1.265 0 0 0-.894.866 1.18 1.18 0 0 0 0 .626 1.4 1.4 0 0 0 1.03.965z" transform="translate(-2677.371 -1705.35)" style="fill:#3966a9"/>
        <path data-name="Trazado 4386" d="m439.6 251.417-1.4-1.206a.788.788 0 0 0-.163.594.877.877 0 0 0 .319.555.952.952 0 0 0 .334.191.828.828 0 0 0 .367.031v.256a.943.943 0 0 1-.454-.036 1.236 1.236 0 0 1-.427-.246 1.222 1.222 0 0 1-.362-.5 1.044 1.044 0 0 1-.049-.571 1.141 1.141 0 0 1 .267-.535 1.182 1.182 0 0 1 .485-.347 1.017 1.017 0 0 1 .552-.05 1.079 1.079 0 0 1 .511.252 1.065 1.065 0 0 1 .323.467 1.014 1.014 0 0 1 .031.55 1.2 1.2 0 0 1-.275.531zm-.721-1.616a.8.8 0 0 0-.532.242l1.186 1.022a.8.8 0 0 0 .161-.562.757.757 0 0 0-.276-.506.75.75 0 0 0-.538-.2" transform="translate(-2683.901 -1712.886)" style="fill:#3966a9"/>
        <path data-name="Trazado 4387" d="M444.918 257.173a1.1 1.1 0 0 1-.192-.385l.248-.109a1.135 1.135 0 0 0 .174.351 1.39 1.39 0 0 0 .309.316.832.832 0 0 0 .415.19.3.3 0 0 0 .275-.128.239.239 0 0 0 .05-.2.53.53 0 0 0-.1-.2 2.9 2.9 0 0 0-.218-.248 3.689 3.689 0 0 1-.286-.34.634.634 0 0 1-.118-.31.5.5 0 0 1 .115-.349.547.547 0 0 1 .456-.226 1.036 1.036 0 0 1 .621.241 1.665 1.665 0 0 1 .31.3 1.18 1.18 0 0 1 .194.33l-.247.115a1.112 1.112 0 0 0-.41-.539.757.757 0 0 0-.405-.176.309.309 0 0 0-.274.126.262.262 0 0 0-.055.211.506.506 0 0 0 .1.211 3.3 3.3 0 0 0 .226.259 3.826 3.826 0 0 1 .28.334.622.622 0 0 1 .117.3.473.473 0 0 1-.109.337.534.534 0 0 1-.467.225 1.15 1.15 0 0 1-.639-.262 1.7 1.7 0 0 1-.366-.369" transform="translate(-2689.011 -1717.281)" style="fill:#3966a9"/>
        <path data-name="Trazado 4388" d="M454.112 261.308a.562.562 0 0 1-.237-.017.842.842 0 0 1-.238-.107.648.648 0 0 1-.309-.4.641.641 0 0 1 .118-.489l.728-1.118-.331-.215.137-.211.331.215.264-.4.249.163-.263.4.563.366-.138.211-.563-.366-.719 1.1a.416.416 0 0 0-.081.305.374.374 0 0 0 .181.241.549.549 0 0 0 .166.072.437.437 0 0 0 .171.011z" transform="translate(-2695.305 -1719.5)" style="fill:#3966a9"/>
        <path data-name="Trazado 4389" d="m459.91 261.767.257.15-1.115 1.906-.257-.15zm.272-.473a.207.207 0 0 1 .022-.162.2.2 0 0 1 .129-.095.211.211 0 0 1 .166.024.215.215 0 0 1 .1.131.2.2 0 0 1-.019.157.22.22 0 0 1-.4-.055" transform="translate(-2699.319 -1721.311)" style="fill:#3966a9"/>
        <path data-name="Trazado 4390" d="M464.38 267.662a1.058 1.058 0 0 1-.179-.539 1.215 1.215 0 0 1 .523-1.034 1.042 1.042 0 0 1 .539-.174 1.231 1.231 0 0 1 1.026.519 1.028 1.028 0 0 1 .178.537 1.23 1.23 0 0 1-.522 1.034 1.043 1.043 0 0 1-.539.177 1.214 1.214 0 0 1-1.026-.519m.992.247a.745.745 0 0 0 .4-.14 1.012 1.012 0 0 0 .405-.8.745.745 0 0 0-.123-.4.886.886 0 0 0-.753-.381.761.761 0 0 0-.4.139 1 1 0 0 0-.4.8.76.76 0 0 0 .125.4.885.885 0 0 0 .753.38m1.117-2.485.356.18-.841.158-.262-.132z" transform="translate(-2703.279 -1724.53)" style="fill:#3966a9"/>
        <path data-name="Trazado 4391" d="M476.093 271.781a.944.944 0 0 1-.034.744l-.477 1.188-.276-.111.466-1.161a.732.732 0 0 0 .035-.551.646.646 0 0 0-.388-.35.755.755 0 0 0-.6-.014.8.8 0 0 0-.411.466l-.431 1.075-.277-.111.822-2.049.265.106-.152.378a.831.831 0 0 1 .43-.164 1.081 1.081 0 0 1 .507.084.9.9 0 0 1 .524.47" transform="translate(-2710.238 -1728.548)" style="fill:#3966a9"/>
        <path data-name="Rectángulo 439" transform="rotate(-74.21 -2077.744 748.591)" style="fill:#3966a9" d="M0 0h2.938v.31H0z"/>
        <path data-name="Trazado 4392" d="M497.9 278.464a.943.943 0 0 1 .095.739l-.265 1.252-.292-.062.259-1.224a.731.731 0 0 0-.06-.549.645.645 0 0 0-.443-.278.754.754 0 0 0-.6.09.8.8 0 0 0-.325.53l-.24 1.133-.291-.062.457-2.16.279.059-.084.4a.831.831 0 0 1 .4-.236 1.082 1.082 0 0 1 .514 0 .9.9 0 0 1 .6.373" transform="translate(-2726.39 -1733.652)" style="fill:#3966a9"/>
        <path data-name="Trazado 4393" d="M508.471 280.938a.567.567 0 0 1-.221.086.835.835 0 0 1-.261 0 .584.584 0 0 1-.554-.724l.181-1.323-.391-.053.034-.25.391.053.065-.478.3.04-.065.478.665.091-.034.249-.665-.091-.178 1.306a.417.417 0 0 0 .057.311.375.375 0 0 0 .267.14.539.539 0 0 0 .181 0 .441.441 0 0 0 .159-.063z" transform="translate(-2734.804 -1733.932)" style="fill:#3966a9"/>
        <path data-name="Trazado 4394" d="m516.395 282.315-1.842-.13a.791.791 0 0 0 .224.573.879.879 0 0 0 .588.254.95.95 0 0 0 .382-.047.823.823 0 0 0 .313-.195l.154.2a.947.947 0 0 1-.385.242 1.246 1.246 0 0 1-.49.058 1.227 1.227 0 0 1-.59-.187 1.044 1.044 0 0 1-.38-.429 1.141 1.141 0 0 1-.106-.588 1.182 1.182 0 0 1 .181-.568 1.018 1.018 0 0 1 .413-.371 1.079 1.079 0 0 1 .561-.1 1.067 1.067 0 0 1 .538.181 1.014 1.014 0 0 1 .353.423 1.2 1.2 0 0 1 .1.589zm-1.544-.864a.8.8 0 0 0-.282.512l1.562.11a.8.8 0 0 0-.207-.547.811.811 0 0 0-1.072-.076" transform="translate(-2739.957 -1735.963)" style="fill:#3966a9"/>
        <path data-name="Trazado 4395" d="m527.057 281.347.031 1.939a1.125 1.125 0 0 1-.261.837 1.138 1.138 0 0 1-.824.284 1.853 1.853 0 0 1-.583-.081 1.194 1.194 0 0 1-.451-.242l.148-.229a1.132 1.132 0 0 0 .391.216 1.456 1.456 0 0 0 .482.072.848.848 0 0 0 .613-.205.82.82 0 0 0 .187-.609v-.281a.9.9 0 0 1-.358.325 1.124 1.124 0 0 1-.5.117 1.175 1.175 0 0 1-.567-.128 1 1 0 0 1-.4-.375 1.078 1.078 0 0 1-.154-.554 1.063 1.063 0 0 1 .136-.556 1 1 0 0 1 .39-.384 1.183 1.183 0 0 1 .565-.144 1.119 1.119 0 0 1 .509.105.914.914 0 0 1 .371.321l-.007-.424zm-.668 1.768a.744.744 0 0 0 .3-.292.825.825 0 0 0 .1-.421.809.809 0 0 0-.114-.416.75.75 0 0 0-.3-.28.968.968 0 0 0-.865.012.734.734 0 0 0-.294.29.877.877 0 0 0 .014.839.744.744 0 0 0 .3.283.9.9 0 0 0 .432.1.909.909 0 0 0 .431-.11" transform="translate(-2747.687 -1736.197)" style="fill:#3966a9"/>
        <path data-name="Trazado 4396" d="M537.7 280.826a1.067 1.067 0 0 1 .5-.157l.025.289h-.071a.706.706 0 0 0-.526.26.852.852 0 0 0-.145.615l.1 1.121-.3.025-.188-2.2.285-.024.037.431a.724.724 0 0 1 .283-.361" transform="translate(-2756.688 -1735.7)" style="fill:#3966a9"/>
        <path data-name="Trazado 4397" d="M545.2 279.994a.833.833 0 0 1 .325.6l.206 1.353-.282.043-.052-.341a.681.681 0 0 1-.252.31 1.034 1.034 0 0 1-.444.165.912.912 0 0 1-.608-.086.607.607 0 0 1-.153-.907 1 1 0 0 1 .615-.268l.693-.106-.02-.133a.567.567 0 0 0-.223-.406.662.662 0 0 0-.483-.077 1.2 1.2 0 0 0-.388.129 1.025 1.025 0 0 0-.3.239l-.166-.2a1.2 1.2 0 0 1 .365-.279 1.582 1.582 0 0 1 .478-.151.932.932 0 0 1 .688.114m-.079 1.71a.69.69 0 0 0 .215-.37l-.054-.357-.685.1q-.56.085-.5.476a.361.361 0 0 0 .191.279.668.668 0 0 0 .423.048.782.782 0 0 0 .41-.179" transform="translate(-2761.506 -1735.109)" style="fill:#3966a9"/>
        <path data-name="Rectángulo 440" transform="rotate(-12.066 -7998.01 9752.312)" style="fill:#3966a9" d="M0 0h.298v3.114H0z"/>
        <path data-name="Trazado 4398" d="m565.336 270.806.963 2.962-.271.088-.135-.415a.912.912 0 0 1-.232.433 1.041 1.041 0 0 1-.436.266 1.118 1.118 0 0 1-.579.038 1.02 1.02 0 0 1-.5-.257 1.264 1.264 0 0 1-.361-1.11 1.01 1.01 0 0 1 .253-.5 1.136 1.136 0 0 1 .491-.308 1.045 1.045 0 0 1 .5-.044.916.916 0 0 1 .438.2l-.41-1.261zm.194 2.843a.757.757 0 0 0 .185-.38.995.995 0 0 0-.278-.854.76.76 0 0 0-.374-.2.824.824 0 0 0-.43.027.835.835 0 0 0-.368.232.758.758 0 0 0-.185.38 1 1 0 0 0 .278.854.758.758 0 0 0 .374.2.876.876 0 0 0 .8-.26" transform="translate(-2776.231 -1728.474)" style="fill:#3966a9"/>
        <path data-name="Trazado 4399" d="m576.839 271.819-1.7.719a.789.789 0 0 0 .46.409.879.879 0 0 0 .639-.04.957.957 0 0 0 .319-.215.827.827 0 0 0 .19-.315l.23.113a.948.948 0 0 1-.234.39 1.242 1.242 0 0 1-.411.274 1.225 1.225 0 0 1-.611.1 1.044 1.044 0 0 1-.533-.21 1.144 1.144 0 0 1-.361-.476 1.185 1.185 0 0 1-.1-.588 1.017 1.017 0 0 1 .2-.518 1.078 1.078 0 0 1 .453-.346 1.065 1.065 0 0 1 .562-.082 1.013 1.013 0 0 1 .506.217 1.193 1.193 0 0 1 .354.482zm-1.768-.071a.8.8 0 0 0-.02.585l1.442-.609a.8.8 0 0 0-.433-.394.811.811 0 0 0-.99.418" transform="translate(-2784.261 -1728.635)" style="fill:#3966a9"/>
        <path data-name="Rectángulo 441" transform="rotate(-26.359 -4219.235 3984.028)" style="fill:#3966a9" d="M0 0h.298v3.114H0z"/>
        <path data-name="Trazado 4400" d="m595.857 260.514-1.382.877.123.852-.273.173-.441-3.2.259-.164 2.708 1.761-.276.175zm-.231-.152-1.441-.955.25 1.71z" transform="translate(-2798.3 -1719.862)" style="fill:#3966a9"/>
        <path data-name="Trazado 4401" d="m604.585 252.659 1.184 1.536a1.125 1.125 0 0 1 .291.828 1.137 1.137 0 0 1-.491.72 1.853 1.853 0 0 1-.515.284 1.193 1.193 0 0 1-.507.075l-.019-.272a1.137 1.137 0 0 0 .443-.061 1.452 1.452 0 0 0 .429-.23.849.849 0 0 0 .37-.531.822.822 0 0 0-.214-.6l-.172-.223a.9.9 0 0 1-.093.474 1.117 1.117 0 0 1-.327.39 1.174 1.174 0 0 1-.53.237 1.009 1.009 0 0 1-.549-.059 1.137 1.137 0 0 1-.678-.879 1 1 0 0 1 .084-.542 1.189 1.189 0 0 1 .367-.452 1.118 1.118 0 0 1 .472-.22.915.915 0 0 1 .489.036l-.259-.336zm.52 1.817a.741.741 0 0 0 .062-.411.82.82 0 0 0-.171-.4.808.808 0 0 0-.34-.265.749.749 0 0 0-.41-.044.9.9 0 0 0-.406.184.908.908 0 0 0-.279.342.731.731 0 0 0-.062.408.876.876 0 0 0 .512.665.745.745 0 0 0 .412.046.89.89 0 0 0 .4-.181.9.9 0 0 0 .28-.345" transform="translate(-2805.124 -1715.177)" style="fill:#3966a9"/>
        <path data-name="Trazado 4402" d="m612.71 245.151 1.5 1.622-.21.194-.273-.3a.814.814 0 0 1-.025.449.975.975 0 0 1-.27.4.855.855 0 0 1-1.328-.065l-.868-.941.219-.2.848.919a.736.736 0 0 0 .485.272.647.647 0 0 0 .483-.2.723.723 0 0 0 .26-.529.822.822 0 0 0-.252-.57l-.786-.851z" transform="translate(-2811.011 -1709.676)" style="fill:#3966a9"/>
        <path data-name="Trazado 4403" d="M620.912 238.949a.836.836 0 0 1 .628.263l1.008.925-.193.21-.253-.233a.686.686 0 0 1 0 .4 1.037 1.037 0 0 1-.243.407.907.907 0 0 1-.527.314.607.607 0 0 1-.687-.611.994.994 0 0 1 .312-.594l.474-.516-.1-.091a.565.565 0 0 0-.428-.176.658.658 0 0 0-.425.242 1.188 1.188 0 0 0-.222.344 1.018 1.018 0 0 0-.083.373l-.255-.051a1.19 1.19 0 0 1 .11-.446 1.565 1.565 0 0 1 .277-.418.934.934 0 0 1 .608-.342m1.01 1.382a.692.692 0 0 0-.064-.424l-.266-.244-.468.51q-.383.417-.092.684a.361.361 0 0 0 .324.1.669.669 0 0 0 .36-.228.784.784 0 0 0 .207-.4" transform="translate(-2817.374 -1705.131)" style="fill:#3966a9"/>
        <path data-name="Trazado 4404" d="m502.241 109.2.656-.971c.252-.373.5-.749.756-1.118a.538.538 0 0 1 .954-.007c1.211 1.788 2.444 3.562 3.612 5.378a4.725 4.725 0 0 1-.673 5.884.656.656 0 0 0-.207.589 10.073 10.073 0 0 1-9.171 11A10.077 10.077 0 0 1 489.1 114.1q3.818-5.614 7.584-11.262c.454-.681.89-.6 1.279 0 1.351 2.062 2.745 4.1 4.123 6.14.045.067.093.132.158.225m-4.916-5.344c-.079.113-.137.193-.192.275-2.374 3.521-4.734 7.051-7.125 10.56a8.991 8.991 0 1 0 16.172 6.758 8.291 8.291 0 0 0 .106-2.139l-.294.117a4.805 4.805 0 0 1-5.835-7.131c.418-.619.827-1.244 1.257-1.854a.382.382 0 0 0 .007-.517c-.915-1.336-1.814-2.683-2.719-4.026l-1.378-2.043m6.805 4.48c-1.092 1.625-2.174 3.2-3.21 4.8a3.414 3.414 0 0 0-.425 2.652 3.693 3.693 0 0 0 2.934 2.864 3.61 3.61 0 0 0 3.812-1.62 3.662 3.662 0 0 0-.042-4.141l-1.553-2.306-1.516-2.246" transform="translate(-2720.166 -1605.051)" style="fill:#fff"/>
        <path data-name="Trazado 4405" d="M497.424 151.358c.508 0 .762.381.613.737a1.264 1.264 0 0 1-.137.231 6.341 6.341 0 0 0 3.213 9.69c.382.127.542.394.438.709a.544.544 0 0 1-.767.321 7.433 7.433 0 0 1-3.737-11.378 1.494 1.494 0 0 1 .376-.31" transform="translate(-2726.312 -1640.954)" style="fill:#fff"/>
        <path data-name="Trazado 4406" d="M520.645 193.985a.537.537 0 0 1-.011-1.073.537.537 0 1 1 .011 1.073" transform="translate(-2744.241 -1671.401)" style="fill:#fff"/>
        <path data-name="Trazado 4407" d="M540.529 144.08c-.016.051-.047.163-.085.272a1.869 1.869 0 0 0 .614 2.11 1.007 1.007 0 0 1 .315.415.462.462 0 0 1-.207.542.511.511 0 0 1-.63 0 2.824 2.824 0 0 1-1.276-2.535 4.122 4.122 0 0 1 .253-1.1.5.5 0 0 1 .625-.3.563.563 0 0 1 .39.589" transform="translate(-2758.274 -1635.175)" style="fill:#fff"/>
        <path data-name="Trazado 4408" d="M549.536 156.974a.55.55 0 0 1-.554.542.541.541 0 0 1-.523-.544.531.531 0 0 1 .525-.536.537.537 0 0 1 .552.539" transform="translate(-2765.016 -1644.675)" style="fill:#fff"/>
    </g>
</svg>
