<svg xmlns="http://www.w3.org/2000/svg" width="82.876" height="82.571" viewBox="0 0 82.876 82.571">
    <g data-name="Grupo 1324" transform="translate(1863.669 1530.152)">
        <path data-name="Trazado 4557" d="M1953.236 42.292a40.786 40.786 0 1 1-40.786-40.786 40.785 40.785 0 0 1 40.786 40.786" transform="translate(-3734.53 -1531.157)" style="fill:#fff"/>
        <circle data-name="Elipse 83" cx="40.786" cy="40.786" r="40.786" transform="translate(-1862.865 -1529.652)" style="fill:none;stroke:#000;stroke-miterlimit:10"/>
        <path data-name="Trazado 4558" d="M1930.808 86.8q0 1.105.1 2.186c17.294 7.558 25.405-8.631 36.258-8.14a25.063 25.063 0 0 1 12.626 3.885 24.534 24.534 0 0 0-48.98 2.069" transform="translate(-3777.864 -1575.675)" style="fill:#763f92"/>
        <path data-name="Trazado 4559" d="M1931.169 139.882a24.534 24.534 0 0 0 48.97-2.186q0-1.045-.086-2.069a25.063 25.063 0 0 0-12.626-3.885c-10.853-.491-18.964 15.7-36.258 8.14" transform="translate(-3778.128 -1626.573)" style="fill:#ffce00"/>
        <path data-name="Trazado 4560" d="m1882.637 160.115-6.605-2.3-6.382 2.931v-.031l-.094-.94 6.433-2.955 6.524 2.277a.042.042 0 0 0 0 .01z" transform="translate(-3732.981 -1644.953)" style="fill:#ffce00"/>
        <path data-name="Trazado 4561" d="m2140.191 162.35-6.909 2.184-6.028-2.988q-.034.5-.086.988l6.038 2.993 6.907-2.183z" transform="translate(-3921.737 -1648.419)" style="fill:#ffce00"/>
        <path data-name="Trazado 4562" d="M1918.342 184.842a29.071 29.071 0 0 0 55.334 0c.08-.23.172-.557.27-.923H1973a28.144 28.144 0 0 1-53.971 0h-.952c.1.366.191.694.27.923" transform="translate(-3768.532 -1664.812)" style="fill:#ffce00"/>
        <path data-name="Trazado 4563" d="M1951.355 183.918c-.083.424-.16.765-.2.923a39.89 39.89 0 0 1-4.719 11.76 40.244 40.244 0 0 1-69.039 0 39.893 39.893 0 0 1-4.719-11.76c-.087-.33-.142-.582-.207-.923h-.931a41.16 41.16 0 0 0 80.753 0z" transform="translate(-3734.436 -1664.811)" style="fill:#ffce00"/>
        <path data-name="Trazado 4564" d="m1950.019 32.732.042-.053a41.185 41.185 0 0 0-81.161 3.691l.039-.011a41.684 41.684 0 0 0-.283 4.273l6.5-2.641 6.515 2.835a28.05 28.05 0 0 1 8.364-19.6l.02-.02c.108-.106.218-.21.327-.315.087-.083.174-.166.262-.247l.09-.083a28.138 28.138 0 0 1 47.008 17.789l7.379 4.358 5.569-5.719a40.768 40.768 0 0 0-.672-4.254" transform="translate(-3732.325 -1530.122)" style="fill:#763f92"/>
        <path data-name="Trazado 4565" d="m1888.224 101.167 5.021 1.658-.386 1.169-3.408 1.333 2.676.883-.46 1.392-5.022-1.658.386-1.169 3.408-1.333-2.676-.884z" transform="translate(-3745.506 -1604.179)" style="fill:#fff"/>
        <path data-name="Trazado 4566" d="M1902.687 84.813a2.7 2.7 0 0 1-4.174-2.348 3.378 3.378 0 0 1 1.478-2.627 2.7 2.7 0 0 1 4.174 2.348 3.374 3.374 0 0 1-1.478 2.627m.16-2.472a1.357 1.357 0 0 0-.212-.709 1.742 1.742 0 0 0-1.376-.774 1.359 1.359 0 0 0-.716.187 1.487 1.487 0 0 0-.711 1.264 1.36 1.36 0 0 0 .212.709 1.744 1.744 0 0 0 1.376.774 1.358 1.358 0 0 0 .716-.187 1.487 1.487 0 0 0 .711-1.264" transform="translate(-3754.2 -1588.232)" style="fill:#fff"/>
        <path data-name="Trazado 4567" d="M1915.549 65.843a3.068 3.068 0 0 1-.95.491l-.541-1.079a3.166 3.166 0 0 0 .814-.4 3.12 3.12 0 0 0 .7-.621q.546-.666.214-.939a.357.357 0 0 0-.416-.024 4.536 4.536 0 0 0-.679.464 7.525 7.525 0 0 1-.845.6 1.681 1.681 0 0 1-.8.232 1.275 1.275 0 0 1-.86-.334 1.517 1.517 0 0 1-.507-.758 1.768 1.768 0 0 1 .025-1 3.247 3.247 0 0 1 .642-1.139 4.561 4.561 0 0 1 .742-.72 3.149 3.149 0 0 1 .831-.471l.566 1.061a3.077 3.077 0 0 0-1.245.874 1.228 1.228 0 0 0-.31.586.4.4 0 0 0 .136.376.341.341 0 0 0 .4.015 4.367 4.367 0 0 0 .663-.463 7.328 7.328 0 0 1 .848-.6 1.726 1.726 0 0 1 .8-.234 1.252 1.252 0 0 1 .859.329 1.487 1.487 0 0 1 .5.751 1.8 1.8 0 0 1-.027 1 3.212 3.212 0 0 1-.637 1.139 4.89 4.89 0 0 1-.913.863" transform="translate(-3763.8 -1574.121)" style="fill:#fff"/>
        <path data-name="Trazado 4568" d="m1935.874 43.242-.652.49.845 1.123-1.2.9-3.18-4.225 1.932-1.454a3.014 3.014 0 0 1 1.139-.559 1.923 1.923 0 0 1 2.3 1.671 1.814 1.814 0 0 1-.211 1l1.911.642-1.28.963zm-.936-2.425a1.032 1.032 0 0 0-.678.255l-.664.5.932 1.238.664-.5a1.044 1.044 0 0 0 .435-.578.709.709 0 0 0-.156-.6.721.721 0 0 0-.532-.318" transform="translate(-3778.512 -1558.969)" style="fill:#fff"/>
        <path data-name="Trazado 4569" d="m1957.165 29.626.532 1.026-3.768 1.956-2.436-4.694 3.68-1.914.532 1.026-2.367 1.229.411.791 2.085-1.082.515.992-2.086 1.083.445.858z" transform="translate(-3793.019 -1549.107)" style="fill:#fff"/>
        <path data-name="Trazado 4570" d="m1971.477 22.159 1.417-.478 1.313 3.887 2.39-.807.38 1.124-3.808 1.286z" transform="translate(-3807.662 -1545.939)" style="fill:#fff"/>
        <path data-name="Trazado 4571" d="m1996.09 19.489-2.208.352-.249 1.08-1.507.24 1.472-5.59 1.455-.232 3.146 4.853-1.537.245zm-.606-1.02-.938-1.564-.4 1.778z" transform="translate(-3822.792 -1541.294)" style="fill:#fff"/>
        <path data-name="Trazado 4572" d="M2016.706 18.786a2.623 2.623 0 0 1-1.022-1 2.86 2.86 0 0 1 .047-2.84 2.628 2.628 0 0 1 1.055-.961 3.132 3.132 0 0 1 1.5-.326 3.2 3.2 0 0 1 1.3.279 2.514 2.514 0 0 1 .955.756l-.966.845a1.565 1.565 0 0 0-1.236-.64 1.535 1.535 0 0 0-.77.176 1.309 1.309 0 0 0-.53.524 1.775 1.775 0 0 0-.026 1.579 1.309 1.309 0 0 0 .512.541 1.536 1.536 0 0 0 .763.2 1.565 1.565 0 0 0 1.257-.6l.938.877a2.513 2.513 0 0 1-.979.724 3.205 3.205 0 0 1-1.311.235 3.133 3.133 0 0 1-1.486-.376" transform="translate(-3839.793 -1540.064)" style="fill:#fff"/>
        <path data-name="Rectángulo 445" transform="rotate(-81.66 -1790.049 292.043)" style="fill:#fff" d="M0 0h5.288v1.496H0z"/>
        <path data-name="Trazado 4573" d="M2049.456 23.5a2.7 2.7 0 0 1 1.361-4.592 3.377 3.377 0 0 1 2.89.857 2.7 2.7 0 0 1-1.362 4.592 3.377 3.377 0 0 1-2.89-.857m2.445-.394a1.356 1.356 0 0 0 .644-.365 1.743 1.743 0 0 0 .449-1.514 1.361 1.361 0 0 0-.341-.656 1.487 1.487 0 0 0-1.391-.412 1.361 1.361 0 0 0-.644.365 1.745 1.745 0 0 0-.448 1.514 1.353 1.353 0 0 0 .341.656 1.487 1.487 0 0 0 1.39.412" transform="translate(-3864.201 -1543.863)" style="fill:#fff"/>
        <path data-name="Trazado 4574" d="m2076.784 27.847-2.45 4.687-1.092-.571-.763-3.579-1.305 2.5-1.3-.679 2.45-4.687 1.091.571.764 3.579 1.305-2.5z" transform="translate(-3879.759 -1548.75)" style="fill:#fff"/>
        <path data-name="Trazado 4575" d="m2091.85 46.79-1.756-1.384-.963.55-1.2-.945 5.107-2.708 1.157.912-1.435 5.6-1.222-.963zm.339-1.137.513-1.749-1.581.908z" transform="translate(-3892.99 -1561.05)" style="fill:#fff"/>
        <path data-name="Trazado 4576" d="m2110.065 61.9 2.129-1.822-2.62.436-.429-.507.81-2.457-2.082 1.762-.893-1.055 4.036-3.417.8.94-1.129 3.39 3.5-.588.8.94-4.027 3.428z" transform="translate(-3906.946 -1570.237)" style="fill:#fff"/>
        <path data-name="Trazado 4577" d="M2126.659 84.175a2.7 2.7 0 0 1 4.216-2.273 3.378 3.378 0 0 1 1.431 2.653 2.7 2.7 0 0 1-4.216 2.273 3.373 3.373 0 0 1-1.43-2.653m2 1.456a1.357 1.357 0 0 0 .712.2 1.744 1.744 0 0 0 1.39-.749 1.359 1.359 0 0 0 .225-.7 1.485 1.485 0 0 0-.688-1.277 1.359 1.359 0 0 0-.712-.2 1.747 1.747 0 0 0-1.39.749 1.354 1.354 0 0 0-.225.705 1.486 1.486 0 0 0 .688 1.277" transform="translate(-3921.364 -1589.725)" style="fill:#fff"/>
        <path data-name="Trazado 4578" d="M2135.467 106.05a3.06 3.06 0 0 1 .094-1.065l1.2.121a3.168 3.168 0 0 0-.1.9 3.128 3.128 0 0 0 .152.92q.27.818.678.683a.357.357 0 0 0 .242-.338 4.526 4.526 0 0 0-.028-.822 7.489 7.489 0 0 1-.05-1.033 1.674 1.674 0 0 1 .233-.8 1.277 1.277 0 0 1 .743-.547 1.515 1.515 0 0 1 .911-.022 1.764 1.764 0 0 1 .832.557 3.247 3.247 0 0 1 .618 1.153 4.565 4.565 0 0 1 .21 1.013 3.15 3.15 0 0 1-.048.954l-1.2-.09a3.076 3.076 0 0 0-.071-1.52 1.221 1.221 0 0 0-.329-.576.4.4 0 0 0-.39-.086.342.342 0 0 0-.226.329 4.335 4.335 0 0 0 .036.808 7.307 7.307 0 0 1 .051 1.037 1.732 1.732 0 0 1-.23.8 1.252 1.252 0 0 1-.738.549 1.485 1.485 0 0 1-.9.018 1.8 1.8 0 0 1-.833-.561 3.218 3.218 0 0 1-.621-1.148 4.886 4.886 0 0 1-.239-1.234" transform="translate(-3927.812 -1606.245)" style="fill:#fff"/>
        <path data-name="Trazado 4579" d="m1967.758 269.842.273.119-.446 1.028a1.429 1.429 0 0 1-.557.06 1.8 1.8 0 0 1-.581-.147 1.623 1.623 0 0 1-.651-.493 1.424 1.424 0 0 1-.295-.712 1.556 1.556 0 0 1 .61-1.405 1.427 1.427 0 0 1 .721-.27 1.635 1.635 0 0 1 .808.141 1.724 1.724 0 0 1 .523.344 1.232 1.232 0 0 1 .309.48l-.256.1a1.206 1.206 0 0 0-.675-.669 1.315 1.315 0 0 0-.653-.112 1.155 1.155 0 0 0-.588.221 1.213 1.213 0 0 0-.4.507 1.2 1.2 0 0 0-.1.635 1.183 1.183 0 0 0 .238.579 1.3 1.3 0 0 0 .526.4 1.279 1.279 0 0 0 .795.1z" transform="translate(-3803.276 -1726.429)" style="fill:#763f92"/>
        <path data-name="Trazado 4580" d="m1979.363 276.3-1.754-.579a.79.79 0 0 0 .077.611.877.877 0 0 0 .508.391.949.949 0 0 0 .382.049.823.823 0 0 0 .351-.112l.1.236a.943.943 0 0 1-.433.14 1.247 1.247 0 0 1-.489-.064 1.227 1.227 0 0 1-.527-.326 1.043 1.043 0 0 1-.263-.509 1.143 1.143 0 0 1 .042-.6 1.186 1.186 0 0 1 .315-.506 1.019 1.019 0 0 1 .492-.257 1.135 1.135 0 0 1 1.046.345 1.014 1.014 0 0 1 .239.5 1.2 1.2 0 0 1-.051.6zm-1.284-1.217a.8.8 0 0 0-.4.427l1.486.49a.8.8 0 0 0-.067-.581.81.81 0 0 0-1.02-.337" transform="translate(-3811.922 -1731.366)" style="fill:#763f92"/>
        <path data-name="Trazado 4581" d="M1986.813 279.433a1.1 1.1 0 0 1-.325-.283l.187-.2a1.13 1.13 0 0 0 .295.258 1.378 1.378 0 0 0 .406.173.833.833 0 0 0 .457.017.3.3 0 0 0 .205-.223.239.239 0 0 0-.031-.2.532.532 0 0 0-.17-.15 2.926 2.926 0 0 0-.3-.146 3.735 3.735 0 0 1-.395-.2.636.636 0 0 1-.227-.241.5.5 0 0 1-.028-.366.546.546 0 0 1 .334-.384 1.035 1.035 0 0 1 .666-.016 1.665 1.665 0 0 1 .4.159 1.177 1.177 0 0 1 .306.23l-.184.2a1.113 1.113 0 0 0-.585-.341.754.754 0 0 0-.442-.006.308.308 0 0 0-.2.221.262.262 0 0 0 .03.215.5.5 0 0 0 .171.157 3.3 3.3 0 0 0 .308.153 3.861 3.861 0 0 1 .387.2.623.623 0 0 1 .223.233.474.474 0 0 1 .028.353.534.534 0 0 1-.345.387 1.148 1.148 0 0 1-.691 0 1.684 1.684 0 0 1-.48-.2" transform="translate(-3818.661 -1733.321)" style="fill:#763f92"/>
        <path data-name="Trazado 4582" d="M1997.315 279.957a.56.56 0 0 1-.225.076.832.832 0 0 1-.261-.008.648.648 0 0 1-.44-.252.641.641 0 0 1-.079-.5l.243-1.312-.387-.072.046-.248.388.072.088-.475.293.055-.088.474.661.122-.046.248-.66-.123-.24 1.3a.418.418 0 0 0 .042.313.376.376 0 0 0 .26.153.558.558 0 0 0 .181 0 .452.452 0 0 0 .162-.055z" transform="translate(-3825.752 -1733.189)" style="fill:#763f92"/>
        <path data-name="Trazado 4583" d="m2003.877 277.762.3.04-.3 2.188-.3-.04zm.07-.541a.206.206 0 0 1-.042-.158.2.2 0 0 1 .082-.137.212.212 0 0 1 .163-.041.216.216 0 0 1 .146.081.194.194 0 0 1 .043.152.22.22 0 0 1-.391.1" transform="translate(-3831.183 -1732.925)" style="fill:#763f92"/>
        <path data-name="Trazado 4584" d="M2008.987 280.8a1.055 1.055 0 0 1-.372-.43 1.216 1.216 0 0 1 .086-1.155 1.041 1.041 0 0 1 .431-.368 1.229 1.229 0 0 1 1.147.085 1.025 1.025 0 0 1 .37.427 1.229 1.229 0 0 1-.086 1.155 1.041 1.041 0 0 1-.43.37 1.214 1.214 0 0 1-1.147-.085m1.011-.152a.744.744 0 0 0 .314-.282 1.013 1.013 0 0 0 .067-.9.747.747 0 0 0-.268-.325.885.885 0 0 0-.841-.062.76.76 0 0 0-.316.281 1 1 0 0 0-.066.9.756.756 0 0 0 .27.325.885.885 0 0 0 .841.063m.078-2.723.4.029-.717.469-.293-.022z" transform="translate(-3834.794 -1733.689)" style="fill:#763f92"/>
        <path data-name="Trazado 4585" d="M2021.955 281.574a.943.943 0 0 1 .257.7l.021 1.28h-.3l-.02-1.25a.733.733 0 0 0-.181-.522.646.646 0 0 0-.494-.172.754.754 0 0 0-.561.221.8.8 0 0 0-.2.589l.019 1.158h-.3l-.036-2.207h.285l.007.407a.83.83 0 0 1 .333-.318 1.082 1.082 0 0 1 .5-.119.9.9 0 0 1 .665.23" transform="translate(-3843.336 -1736.194)" style="fill:#763f92"/>
        <path data-name="Trazado 4586" d="M2036.4 282.515a1.111 1.111 0 0 1-.405-.145l.1-.25a1.134 1.134 0 0 0 .368.133 1.39 1.39 0 0 0 .442.014.83.83 0 0 0 .431-.15.3.3 0 0 0 .11-.283.239.239 0 0 0-.1-.179.535.535 0 0 0-.213-.079 2.883 2.883 0 0 0-.329-.028 3.724 3.724 0 0 1-.442-.048.632.632 0 0 1-.3-.142.5.5 0 0 1-.158-.331.546.546 0 0 1 .172-.478 1.039 1.039 0 0 1 .615-.256 1.669 1.669 0 0 1 .432 0 1.175 1.175 0 0 1 .369.1l-.1.253a1.116 1.116 0 0 0-.669-.106.753.753 0 0 0-.414.154.309.309 0 0 0-.111.28.263.263 0 0 0 .107.19.5.5 0 0 0 .216.085 3.348 3.348 0 0 0 .342.031 3.79 3.79 0 0 1 .433.047.62.62 0 0 1 .292.136.474.474 0 0 1 .155.319.536.536 0 0 1-.182.487 1.152 1.152 0 0 1-.643.253 1.708 1.708 0 0 1-.52-.013" transform="translate(-3854.867 -1735.415)" style="fill:#763f92"/>
        <path data-name="Trazado 4587" d="M2045.462 280.905a1.057 1.057 0 0 1-.475-.312 1.216 1.216 0 0 1-.231-1.135 1.042 1.042 0 0 1 .316-.471 1.231 1.231 0 0 1 1.127-.229 1.027 1.027 0 0 1 .472.311 1.23 1.23 0 0 1 .231 1.135 1.043 1.043 0 0 1-.313.473 1.216 1.216 0 0 1-1.127.229m.932-.42a.748.748 0 0 0 .225-.356 1.014 1.014 0 0 0-.179-.88.745.745 0 0 0-.347-.24.884.884 0 0 0-.826.168.761.761 0 0 0-.228.357 1 1 0 0 0 .179.88.759.759 0 0 0 .349.24.886.886 0 0 0 .827-.168" transform="translate(-3861.314 -1734.262)" style="fill:#763f92"/>
        <path data-name="Trazado 4588" d="M2056.129 278.3a1.03 1.03 0 0 1-.5-.273 1.15 1.15 0 0 1-.3-.518 1.138 1.138 0 0 1-.019-.6 1.036 1.036 0 0 1 .279-.5 1.192 1.192 0 0 1 .523-.3 1.135 1.135 0 0 1 .521-.034.852.852 0 0 1 .431.215l-.172.207a.7.7 0 0 0-.334-.159.824.824 0 0 0-.374.022.863.863 0 0 0-.384.222.756.756 0 0 0-.2.375 1 1 0 0 0 .25.865.749.749 0 0 0 .369.208.865.865 0 0 0 .443-.016.843.843 0 0 0 .329-.178.681.681 0 0 0 .2-.311l.256.084a.839.839 0 0 1-.253.411 1.139 1.139 0 0 1-.457.247 1.188 1.188 0 0 1-.6.025" transform="translate(-3869.063 -1732.329)" style="fill:#763f92"/>
        <path data-name="Trazado 4589" d="M2063.3 271.4a.2.2 0 0 1-.109-.122.2.2 0 0 1 .01-.159.211.211 0 0 1 .126-.111.214.214 0 0 1 .167.006.2.2 0 0 1 .107.116.22.22 0 0 1-.3.27m.185.513.281-.1.732 2.083-.281.1z" transform="translate(-3874.853 -1728.608)" style="fill:#763f92"/>
        <path data-name="Trazado 4590" d="M2070.4 271.226a.835.835 0 0 1 .46.5l.53 1.262-.263.11-.133-.317a.684.684 0 0 1-.169.362 1.036 1.036 0 0 1-.391.269.908.908 0 0 1-.61.065.57.57 0 0 1-.382-.345.564.564 0 0 1 .012-.5.993.993 0 0 1 .531-.409l.646-.271-.052-.124a.566.566 0 0 0-.315-.339.661.661 0 0 0-.487.043 1.186 1.186 0 0 0-.345.22 1.028 1.028 0 0 0-.232.3l-.21-.153a1.186 1.186 0 0 1 .286-.359 1.556 1.556 0 0 1 .427-.263.935.935 0 0 1 .7-.057m.34 1.678a.7.7 0 0 0 .119-.412l-.14-.333-.638.268q-.523.219-.37.583a.361.361 0 0 0 .253.224.667.667 0 0 0 .422-.057.78.78 0 0 0 .354-.274" transform="translate(-3879.112 -1728.749)" style="fill:#763f92"/>
        <path data-name="Rectángulo 446" transform="rotate(-26.18 -4043.234 3159.74)" style="fill:#763f92" d="M0 0h.298v3.114H0z"/>
        <path data-name="Trazado 4591" d="M2006.655 154.91h-2.148c-.611 0-.7-.1-.713-.727a14.244 14.244 0 0 0-.06-1.6 3.362 3.362 0 0 0-.973-1.831 5.291 5.291 0 1 1 8.073-6.826 5.23 5.23 0 0 1-.213 6.755 3.859 3.859 0 0 0-1.094 2.9c.011.254.005.51 0 .764-.009.419-.15.558-.58.561h-2.293m1.971-.9a1.794 1.794 0 0 0 .017-.221 4.951 4.951 0 0 1 1.4-3.8 4.247 4.247 0 0 0 .4-5.078 4.4 4.4 0 1 0-7.067 5.177 4.73 4.73 0 0 1 1.319 3.5c-.006.138.012.278.019.42z" transform="translate(-3829.564 -1634.012)" style="fill:#fff"/>
        <path data-name="Trazado 4592" d="M1975.189 181.623h-2.547a1.675 1.675 0 0 1-1.846-1.851v-4.4a2 2 0 0 1 2.141-2.138q2.348-.006 4.695 0c.12 0 .278-.024.352.041.132.114.3.292.289.432s-.2.292-.344.388c-.085.057-.236.023-.357.023h-4.586a1.152 1.152 0 0 0-1.31 1.323v4.293c0 .735.256 1 .975 1h5.168a.821.821 0 0 0 .843-.444.767.767 0 0 0-.75-1.1c-1.08-.013-2.159 0-3.239 0-.316 0-.631.005-.946 0s-.521-.191-.5-.452a.436.436 0 0 1 .492-.424c1.444 0 2.887-.013 4.331.007a1.622 1.622 0 0 1 1.564 1.606 1.589 1.589 0 0 1-1.483 1.671c-.981.044-1.964.01-2.947.01v.017" transform="translate(-3807.162 -1656.977)" style="fill:#fff"/>
        <path data-name="Trazado 4593" d="M2029.637 126.024c.947 0 1.893.011 2.84-.01a.856.856 0 0 0 .53-.217c1-.974 1.976-1.97 2.97-2.95a1.691 1.691 0 0 1 2.868.948 1.71 1.71 0 0 1-.572 1.538c-1.359 1.352-2.708 2.714-4.073 4.06a1 1 0 0 0-.35.82c.03.763.011 1.528.008 2.293 0 .379-.17.6-.449.574-.33-.033-.435-.256-.434-.563 0-.946-.015-1.893.015-2.838a.98.98 0 0 1 .283-.588c1.439-1.461 2.892-2.907 4.344-4.355a.921.921 0 0 0 .353-.8.759.759 0 0 0-.515-.651.8.8 0 0 0-.872.2l-1.391 1.389c-.592.592-1.173 1.2-1.784 1.767a.976.976 0 0 1-.6.252c-2.026.018-4.053.012-6.08.01-.381 0-.59-.161-.591-.44s.2-.438.587-.439h2.912" transform="translate(-3847.711 -1619.692)" style="fill:#fff"/>
        <path data-name="Trazado 4594" d="M2044.328 168.092a3.089 3.089 0 0 1 6.179.016 3.089 3.089 0 1 1-6.179-.016m.881 0a2.2 2.2 0 1 0 2.2-2.2 2.216 2.216 0 0 0-2.2 2.2" transform="translate(-3861.04 -1650.959)" style="fill:#fff"/>
        <path data-name="Trazado 4595" d="M1978.023 153.829a3.089 3.089 0 1 1 3.078-3.076 3.1 3.1 0 0 1-3.078 3.076m0-.88a2.2 2.2 0 1 0-2.223-2.18 2.215 2.215 0 0 0 2.223 2.18" transform="translate(-3810.184 -1638.239)" style="fill:#fff"/>
        <path data-name="Trazado 4596" d="M1995.389 107.624a3.083 3.083 0 1 1 3.087-3.072 3.077 3.077 0 0 1-3.087 3.072m-.025-.886a2.2 2.2 0 1 0-2.187-2.2 2.2 2.2 0 0 0 2.187 2.2" transform="translate(-3822.917 -1604.393)" style="fill:#fff"/>
        <path data-name="Trazado 4597" d="M2035.6 113.608a3.091 3.091 0 1 1-3.076-3.077 3.1 3.1 0 0 1 3.076 3.077m-3.083-2.2a2.206 2.206 0 1 0 2.2 2.2 2.218 2.218 0 0 0-2.2-2.2" transform="translate(-3850.118 -1611.04)" style="fill:#fff"/>
        <path data-name="Trazado 4598" d="M1990.028 127.839c1.019 0 2.039-.008 3.058 0a2.052 2.052 0 0 1 2.126 2.435.419.419 0 0 1-.451.424c-.268-.008-.4-.178-.427-.449-.111-1.338-.313-1.523-1.647-1.523h-5.679a1.116 1.116 0 0 0-1.278 1.264v1.892c0 .385-.163.582-.451.58s-.432-.19-.434-.59c0-.667-.011-1.335 0-2a1.952 1.952 0 0 1 2.016-2.029c1.055-.022 2.111 0 3.167 0z" transform="translate(-3817.452 -1623.719)" style="fill:#fff"/>
        <path data-name="Trazado 4599" d="M2041.149 191.424h3.058a2.059 2.059 0 0 1 2.11 2.45.438.438 0 0 1-.875-.024c-.134-1.384-.314-1.546-1.705-1.546h-5.606a1.136 1.136 0 0 0-1.3 1.289c0 .132.023.3-.047.387a.7.7 0 0 1-.44.276.516.516 0 0 1-.37-.312 2.041 2.041 0 0 1 1.9-2.518h3.273" transform="translate(-3854.87 -1670.309)" style="fill:#fff"/>
        <path data-name="Trazado 4600" d="M2013.836 195.133c-.243 0-.486.01-.728 0a2.025 2.025 0 0 1-1.88-2.5.546.546 0 0 1 .39-.335.608.608 0 0 1 .423.3 1.107 1.107 0 0 1 .045.5 1.092 1.092 0 0 0 1.169 1.155c.4.006.8.007 1.2 0a1.089 1.089 0 0 0 1.148-1.139v-.364c.019-.279.156-.471.449-.467s.409.195.433.479a2.041 2.041 0 0 1-2.218 2.381c-.145-.011-.291 0-.437 0z" transform="translate(-3836.745 -1670.939)" style="fill:#fff"/>
        <path data-name="Trazado 4601" d="m2013.055 159.34 2.158-3.592c.062-.1.108-.256.2-.295a.794.794 0 0 1 .545-.085c.117.055.165.31.191.484.013.087-.084.194-.14.287q-1.2 2.012-2.412 4.022c-.324.54-.607.558-.99.06q-.979-1.267-1.953-2.537l-.065-.087c-.176-.235-.21-.481.038-.673a.43.43 0 0 1 .66.131l1.464 1.9c.088.114.179.225.3.383" transform="translate(-3836.216 -1643.875)" style="fill:#fff"/>
    </g>
</svg>
