<svg xmlns="http://www.w3.org/2000/svg" width="82.876" height="82.571" viewBox="0 0 82.876 82.571">
    <g data-name="Grupo 1323" transform="translate(1963.568 1530.152)">
        <path data-name="Trazado 4502" d="M1579.505 42.292a40.786 40.786 0 1 1-40.786-40.786 40.786 40.786 0 0 1 40.786 40.786" transform="translate(-3460.697 -1531.157)" style="fill:#fff"/>
        <circle data-name="Elipse 82" cx="40.786" cy="40.786" r="40.786" transform="translate(-1962.763 -1529.652)" style="fill:none;stroke:#000;stroke-miterlimit:10"/>
        <path data-name="Trazado 4503" d="M1557.077 86.8q0 1.105.1 2.186c17.293 7.558 25.4-8.631 36.258-8.14a25.064 25.064 0 0 1 12.626 3.885 24.534 24.534 0 0 0-48.981 2.069" transform="translate(-3504.031 -1575.675)" style="fill:#8f2168"/>
        <path data-name="Trazado 4504" d="M1557.438 139.882a24.534 24.534 0 0 0 48.97-2.186q0-1.045-.086-2.069a25.063 25.063 0 0 0-12.626-3.885c-10.853-.491-18.964 15.7-36.258 8.14" transform="translate(-3504.295 -1626.573)" style="fill:#eb6344"/>
        <path data-name="Trazado 4505" d="m1508.906 160.115-6.605-2.3-6.382 2.931v-.031l-.094-.94 6.433-2.955 6.524 2.277a.042.042 0 0 0 0 .01z" transform="translate(-3459.149 -1644.953)" style="fill:#eb6344"/>
        <path data-name="Trazado 4506" d="m1766.46 162.35-6.909 2.184-6.028-2.988q-.034.5-.086.988l6.037 2.993 6.907-2.183z" transform="translate(-3647.904 -1648.419)" style="fill:#eb6344"/>
        <path data-name="Trazado 4507" d="M1544.611 184.842a29.071 29.071 0 0 0 55.334 0c.08-.23.172-.557.27-.923h-.951a28.144 28.144 0 0 1-53.971 0h-.952c.1.366.191.694.27.923" transform="translate(-3494.699 -1664.812)" style="fill:#eb6344"/>
        <path data-name="Trazado 4508" d="M1577.624 183.918c-.083.424-.16.765-.2.923a39.893 39.893 0 0 1-4.719 11.76 40.243 40.243 0 0 1-69.039 0 39.887 39.887 0 0 1-4.719-11.76c-.087-.33-.142-.582-.207-.923h-.931a41.16 41.16 0 0 0 80.753 0z" transform="translate(-3460.603 -1664.811)" style="fill:#eb6344"/>
        <path data-name="Trazado 4509" d="m1576.287 32.732.042-.053a41.185 41.185 0 0 0-81.16 3.691l.039-.011a41.649 41.649 0 0 0-.283 4.273l6.5-2.641 6.515 2.835a28.051 28.051 0 0 1 8.364-19.6l.02-.02c.108-.106.218-.21.327-.315.087-.083.174-.166.262-.247l.09-.083a28.138 28.138 0 0 1 47.008 17.789l7.379 4.358 5.568-5.719a40.9 40.9 0 0 0-.671-4.254" transform="translate(-3458.491 -1530.122)" style="fill:#8f2168"/>
        <path data-name="Trazado 4510" d="M1545.536 52.65a1.865 1.865 0 0 1 2.453 2.4 3.019 3.019 0 0 1-.7 1.058l-.644.659.989.966-1.045 1.07-3.782-3.7 1.69-1.729a3.018 3.018 0 0 1 1.041-.725m1.188 2.059a.709.709 0 0 0-.244-.566.722.722 0 0 0-.574-.234 1.032 1.032 0 0 0-.632.355l-.581.594 1.108 1.083.58-.594a1.045 1.045 0 0 0 .343-.637" transform="translate(-3493.574 -1568.527)" style="fill:#fff"/>
        <path data-name="Trazado 4511" d="m1564.112 41.825-.661.478.824 1.138-1.212.877-3.1-4.283 1.958-1.418a3.022 3.022 0 0 1 1.149-.538 1.924 1.924 0 0 1 2.271 1.713 1.813 1.813 0 0 1-.229.991l1.9.678-1.3.939zm-.891-2.442a1.033 1.033 0 0 0-.683.242l-.673.487.908 1.254.673-.487a1.046 1.046 0 0 0 .446-.57.709.709 0 0 0-.145-.6.721.721 0 0 0-.526-.328" transform="translate(-3506.145 -1557.922)" style="fill:#fff"/>
        <path data-name="Trazado 4512" d="m1585.643 28.624.514 1.036-3.8 1.886-2.357-4.739 3.716-1.842.513 1.036-2.389 1.184.4.8 2.105-1.044.5 1-2.105 1.044.43.867z" transform="translate(-3520.829 -1548.346)" style="fill:#fff"/>
        <path data-name="Trazado 4513" d="M1603.843 19.244a1.865 1.865 0 0 1 .991 3.284 3.015 3.015 0 0 1-1.125.588l-.882.266.4 1.323-1.432.432-1.528-5.063 2.315-.7a3.017 3.017 0 0 1 1.262-.132m.047 2.377a.709.709 0 0 0 .059-.614.72.72 0 0 0-.39-.482 1.031 1.031 0 0 0-.724.006l-.8.24.448 1.483.8-.24a1.046 1.046 0 0 0 .608-.392" transform="translate(-3535.676 -1544.14)" style="fill:#fff"/>
        <path data-name="Trazado 4514" d="m1626.466 18.938-2.219.276-.286 1.071-1.514.188 1.664-5.536 1.462-.182 2.976 4.959-1.544.192zm-.566-1.038-.883-1.6-.466 1.763z" transform="translate(-3551.927 -1540.865)" style="fill:#fff"/>
        <path data-name="Trazado 4515" d="m1649.262 17.766-.815-.043-.074 1.4-1.494-.079.28-5.281 2.414.128a3.019 3.019 0 0 1 1.232.3 1.924 1.924 0 0 1 .69 2.76 1.815 1.815 0 0 1-.8.627l1.051 1.72-1.6-.085zm.841-2.46a1.034 1.034 0 0 0-.683-.24l-.83-.044-.082 1.547.83.044a1.045 1.045 0 0 0 .7-.163.709.709 0 0 0 .264-.557.722.722 0 0 0-.2-.586" transform="translate(-3569.829 -1540.14)" style="fill:#fff"/>
        <path data-name="Trazado 4516" d="m1669.7 21.691-2.176-.514-.641.9-1.485-.35 3.487-4.611 1.434.338 1.065 5.685-1.515-.357zm-.173-1.174-.273-1.8-1.054 1.483z" transform="translate(-3583.396 -1542.599)" style="fill:#fff"/>
        <path data-name="Trazado 4517" d="m1691.281 22.232 2.282 1.022a3.5 3.5 0 0 1 1.274.926 2.447 2.447 0 0 1 .575 1.267 2.823 2.823 0 0 1-1.143 2.553 2.447 2.447 0 0 1-1.328.415 3.5 3.5 0 0 1-1.539-.334l-2.282-1.022zm.553 4.734a1.533 1.533 0 0 0 1.154.095 1.584 1.584 0 0 0 .871-1.944 1.533 1.533 0 0 0-.839-.8l-.862-.386-1.186 2.648z" transform="translate(-3600.778 -1546.344)" style="fill:#fff"/>
        <path data-name="Trazado 4518" d="M1713.375 41.029a2.7 2.7 0 0 1 2.767-3.909 3.377 3.377 0 0 1 2.461 1.741 2.7 2.7 0 0 1-2.767 3.91 3.375 3.375 0 0 1-2.46-1.742m2.442.414a1.36 1.36 0 0 0 .727-.138 1.746 1.746 0 0 0 .912-1.289 1.361 1.361 0 0 0-.112-.731 1.488 1.488 0 0 0-1.184-.838 1.36 1.36 0 0 0-.727.138 1.744 1.744 0 0 0-.912 1.289 1.355 1.355 0 0 0 .112.731 1.486 1.486 0 0 0 1.184.838" transform="translate(-3618.333 -1557.234)" style="fill:#fff"/>
        <path data-name="Trazado 4519" d="M1729.939 55.866a3.063 3.063 0 0 1-.391-1l1.129-.427a3.342 3.342 0 0 0 .858 1.607q.606.612.912.309a.357.357 0 0 0 .066-.411 4.5 4.5 0 0 0-.392-.723 7.54 7.54 0 0 1-.506-.9 1.682 1.682 0 0 1-.148-.821 1.276 1.276 0 0 1 .421-.821 1.518 1.518 0 0 1 .806-.426 1.772 1.772 0 0 1 .993.128 3.25 3.25 0 0 1 1.067.756 4.549 4.549 0 0 1 .64.813 3.15 3.15 0 0 1 .383.875l-1.114.454a3.08 3.08 0 0 0-.741-1.328 1.231 1.231 0 0 0-.551-.369.4.4 0 0 0-.388.1.341.341 0 0 0-.055.4 4.365 4.365 0 0 0 .392.707 7.265 7.265 0 0 1 .508.905 1.729 1.729 0 0 1 .151.818 1.251 1.251 0 0 1-.415.82 1.487 1.487 0 0 1-.8.418 1.8 1.8 0 0 1-1-.13 3.209 3.209 0 0 1-1.068-.75 4.9 4.9 0 0 1-.764-1" transform="translate(-3630.401 -1568.323)" style="fill:#fff"/>
        <path data-name="Trazado 4520" d="m1522.708 200.925.617-.981a2.137 2.137 0 0 1-.1-.213l-.3-.729-.861.355-.118-.287 2.716-1.12.419 1.017a1.328 1.328 0 0 1 .088.917.914.914 0 0 1-.561.577.954.954 0 0 1-.6.061.964.964 0 0 1-.506-.329l-.658 1.048zm1.19-.759a.758.758 0 0 0 1.007-.415 1.024 1.024 0 0 0-.078-.69l-.3-.721-1.362.562.3.722a1.015 1.015 0 0 0 .433.543" transform="translate(-3478.288 -1675.092)" style="fill:#8f2168"/>
        <path data-name="Trazado 4521" d="m1529.452 212.556-.851-1.639a.789.789 0 0 0-.372.491.875.875 0 0 0 .09.634.954.954 0 0 0 .239.3.824.824 0 0 0 .329.165l-.094.238a.948.948 0 0 1-.408-.2 1.242 1.242 0 0 1-.305-.388 1.224 1.224 0 0 1-.149-.6 1.041 1.041 0 0 1 .167-.548 1.143 1.143 0 0 1 .446-.4 1.18 1.18 0 0 1 .579-.142 1.016 1.016 0 0 1 .532.159 1.135 1.135 0 0 1 .508.978 1.014 1.014 0 0 1-.176.522 1.194 1.194 0 0 1-.452.391zm-.069-1.768a.8.8 0 0 0-.584.027l.721 1.389a.8.8 0 0 0 .358-.463.757.757 0 0 0-.068-.572.749.749 0 0 0-.427-.381" transform="translate(-3482.676 -1684.264)" style="fill:#8f2168"/>
        <path data-name="Trazado 4522" d="M1532.322 220.138a1.1 1.1 0 0 1-.035-.43l.27-.009a1.123 1.123 0 0 0 .031.39 1.373 1.373 0 0 0 .17.408.841.841 0 0 0 .315.331.3.3 0 0 0 .3-.017.24.24 0 0 0 .12-.168.521.521 0 0 0-.016-.227 2.9 2.9 0 0 0-.111-.311 3.747 3.747 0 0 1-.139-.422.638.638 0 0 1 .005-.331.5.5 0 0 1 .236-.281.547.547 0 0 1 .507-.041 1.039 1.039 0 0 1 .487.454 1.654 1.654 0 0 1 .176.394 1.175 1.175 0 0 1 .058.378l-.272.015a1.113 1.113 0 0 0-.18-.653.754.754 0 0 0-.312-.313.309.309 0 0 0-.3.015.263.263 0 0 0-.129.175.5.5 0 0 0 .012.232 3.3 3.3 0 0 0 .114.324 3.783 3.783 0 0 1 .137.414.616.616 0 0 1 0 .322.473.473 0 0 1-.226.273.534.534 0 0 1-.518.036 1.149 1.149 0 0 1-.5-.481 1.686 1.686 0 0 1-.2-.478" transform="translate(-3485.861 -1690.506)" style="fill:#8f2168"/>
        <path data-name="Trazado 4523" d="M1537.839 227.385a1.007 1.007 0 0 1-.088.552 1.272 1.272 0 0 1-.946.69 1.008 1.008 0 0 1-.552-.083 1.132 1.132 0 0 1-.446-.373 1.046 1.046 0 0 1-.2-.457.915.915 0 0 1 .054-.478l-.994.724-.176-.241 2.442-1.78.168.231-.352.257a.917.917 0 0 1 .48.089 1.038 1.038 0 0 1 .388.333 1.14 1.14 0 0 1 .218.538m-1.5.889a.756.756 0 0 0 .42.06.926.926 0 0 0 .426-.178.913.913 0 0 0 .3-.35.773.773 0 0 0 .072-.418.866.866 0 0 0-.5-.68.773.773 0 0 0-.419-.058.915.915 0 0 0-.425.177.93.93 0 0 0-.3.351.762.762 0 0 0-.073.416.829.829 0 0 0 .162.4.838.838 0 0 0 .334.276" transform="translate(-3487.486 -1695.599)" style="fill:#8f2168"/>
        <path data-name="Trazado 4524" d="m1548.069 236.464-1.662 1.452-.188-.215.3-.265a.819.819 0 0 1-.448-.038.972.972 0 0 1-.393-.281.854.854 0 0 1 .1-1.326l.964-.843.2.225-.942.827a.738.738 0 0 0-.285.478.646.646 0 0 0 .187.488.723.723 0 0 0 .522.275.821.821 0 0 0 .576-.241l.872-.762z" transform="translate(-3495.485 -1702.202)" style="fill:#8f2168"/>
        <path data-name="Trazado 4525" d="m1555.1 246.312-1.327-1.284a.79.79 0 0 0-.2.584.879.879 0 0 0 .287.573.956.956 0 0 0 .323.21.825.825 0 0 0 .364.052l-.014.256a.945.945 0 0 1-.451-.062 1.246 1.246 0 0 1-.412-.271 1.227 1.227 0 0 1-.332-.523 1.044 1.044 0 0 1-.015-.572 1.144 1.144 0 0 1 .3-.519 1.184 1.184 0 0 1 .5-.318 1.016 1.016 0 0 1 .555-.018 1.134 1.134 0 0 1 .792.766 1.011 1.011 0 0 1 0 .551 1.194 1.194 0 0 1-.3.514zm-.627-1.655a.8.8 0 0 0-.546.211l1.125 1.089a.8.8 0 0 0 .193-.552.811.811 0 0 0-.772-.747" transform="translate(-3501.261 -1709.117)" style="fill:#8f2168"/>
        <path data-name="Trazado 4526" d="M1560.068 252.4a1.107 1.107 0 0 1-.17-.4l.254-.094a1.139 1.139 0 0 0 .153.36 1.39 1.39 0 0 0 .291.333.834.834 0 0 0 .4.214.3.3 0 0 0 .282-.111.24.24 0 0 0 .061-.2.531.531 0 0 0-.087-.21 2.94 2.94 0 0 0-.2-.26 3.717 3.717 0 0 1-.266-.356.633.633 0 0 1-.1-.316.5.5 0 0 1 .135-.341.546.546 0 0 1 .468-.2 1.036 1.036 0 0 1 .606.277 1.666 1.666 0 0 1 .292.318 1.181 1.181 0 0 1 .175.34l-.253.1a1.113 1.113 0 0 0-.378-.562.755.755 0 0 0-.394-.2.309.309 0 0 0-.281.11.261.261 0 0 0-.067.207.5.5 0 0 0 .085.216 3.256 3.256 0 0 0 .21.272 3.818 3.818 0 0 1 .261.349.625.625 0 0 1 .1.307.474.474 0 0 1-.129.33.535.535 0 0 1-.48.2 1.148 1.148 0 0 1-.623-.3 1.7 1.7 0 0 1-.345-.389" transform="translate(-3506.099 -1713.832)" style="fill:#8f2168"/>
        <path data-name="Trazado 4527" d="M1568.868 257.052a.563.563 0 0 1-.236-.03.828.828 0 0 1-.232-.121.585.585 0 0 1-.139-.9l.792-1.074-.318-.234.15-.2.317.234.286-.388.24.177-.286.388.541.4-.149.2-.541-.4-.782 1.061a.418.418 0 0 0-.1.3.375.375 0 0 0 .167.251.545.545 0 0 0 .161.082.447.447 0 0 0 .17.021z" transform="translate(-3512.114 -1716.405)" style="fill:#8f2168"/>
        <path data-name="Trazado 4528" d="M1575.9 261.219a.835.835 0 0 1-.15.664l-.736 1.153-.24-.154.185-.29a.685.685 0 0 1-.394.067 1.035 1.035 0 0 1-.443-.168.907.907 0 0 1-.4-.465.606.606 0 0 1 .482-.783 1 1 0 0 1 .639.2l.591.377.072-.113a.567.567 0 0 0 .1-.452.66.66 0 0 0-.313-.376 1.185 1.185 0 0 0-.377-.159 1.018 1.018 0 0 0-.382-.017l.006-.26a1.192 1.192 0 0 1 .458.031 1.574 1.574 0 0 1 .459.2.935.935 0 0 1 .443.539m-1.186 1.234a.69.69 0 0 0 .406-.137l.194-.3-.584-.373q-.477-.3-.69.028a.36.36 0 0 0-.04.335.669.669 0 0 0 .287.315.784.784 0 0 0 .427.135" transform="translate(-3516.203 -1720.877)" style="fill:#8f2168"/>
        <path data-name="Trazado 4529" d="m1587.662 267.744-2.076 1.738a1.052 1.052 0 0 1-.472.26.693.693 0 0 1-.438-.069.873.873 0 0 1-.246-.176.648.648 0 0 1-.149-.241l.222-.139a.55.55 0 0 0 .289.327.406.406 0 0 0 .269.038.762.762 0 0 0 .3-.169l.181-.15.079-2.413.279.136-.075 2.051 1.569-1.322z" transform="translate(-3523.964 -1725.503)" style="fill:#8f2168"/>
        <path data-name="Trazado 4530" d="M1604.857 274.562a.961.961 0 0 1 .011.744l-.39 1.219-.284-.091.381-1.191a.75.75 0 0 0 0-.55.6.6 0 0 0-.391-.315.7.7 0 0 0-.58.037.825.825 0 0 0-.367.5l-.353 1.1-.284-.091.381-1.191a.749.749 0 0 0 0-.55.607.607 0 0 0-.394-.316.7.7 0 0 0-.578.037.822.822 0 0 0-.368.5l-.353 1.1-.284-.091.673-2.1.272.087-.123.384a.8.8 0 0 1 .407-.2 1.027 1.027 0 0 1 .493.043.945.945 0 0 1 .422.258.723.723 0 0 1 .184.424.858.858 0 0 1 .438-.219 1.081 1.081 0 0 1 .535.041.877.877 0 0 1 .549.427" transform="translate(-3536.219 -1730.31)" style="fill:#8f2168"/>
        <path data-name="Trazado 4531" d="M1620.081 278.977a.835.835 0 0 1 .1.673l-.275 1.341-.28-.057.069-.337a.684.684 0 0 1-.344.2 1.033 1.033 0 0 1-.474 0 .91.91 0 0 1-.54-.291.607.607 0 0 1 .171-.9 1 1 0 0 1 .67-.038l.687.141.027-.132a.564.564 0 0 0-.069-.457.66.66 0 0 0-.427-.24 1.188 1.188 0 0 0-.408-.013 1.007 1.007 0 0 0-.363.121l-.087-.245a1.191 1.191 0 0 1 .439-.135 1.569 1.569 0 0 1 .5.023.937.937 0 0 1 .606.345m-.666 1.577a.691.691 0 0 0 .33-.273l.073-.354-.678-.139q-.556-.113-.634.273a.361.361 0 0 0 .082.327.67.67 0 0 0 .381.192.785.785 0 0 0 .447-.026" transform="translate(-3548.817 -1734.183)" style="fill:#8f2168"/>
        <path data-name="Trazado 4532" d="M1630.953 280.514a.942.942 0 0 1 .161.727l-.151 1.271-.3-.035.148-1.242a.732.732 0 0 0-.109-.541.646.646 0 0 0-.466-.237.755.755 0 0 0-.586.144.8.8 0 0 0-.275.557l-.137 1.15-.3-.035.261-2.192.283.034-.048.4a.828.828 0 0 1 .373-.271 1.081 1.081 0 0 1 .511-.051.9.9 0 0 1 .628.318" transform="translate(-3556.689 -1735.269)" style="fill:#8f2168"/>
        <path data-name="Trazado 4533" d="m1642.4 282.53-1.845-.063a.788.788 0 0 0 .245.565.876.876 0 0 0 .6.233.958.958 0 0 0 .38-.06.828.828 0 0 0 .305-.206l.161.2a.944.944 0 0 1-.376.256 1.241 1.241 0 0 1-.488.076 1.225 1.225 0 0 1-.6-.165 1.044 1.044 0 0 1-.4-.415 1.145 1.145 0 0 1-.127-.584 1.183 1.183 0 0 1 .16-.574 1.017 1.017 0 0 1 .4-.385 1.078 1.078 0 0 1 .557-.124 1.065 1.065 0 0 1 .544.161 1.011 1.011 0 0 1 .368.409 1.19 1.19 0 0 1 .118.586zm-1.574-.808a.8.8 0 0 0-.264.522l1.565.053a.8.8 0 0 0-.227-.539.811.811 0 0 0-1.074-.037" transform="translate(-3564.978 -1736.149)" style="fill:#8f2168"/>
        <path data-name="Trazado 4534" d="M1649.011 281.908a.512.512 0 0 1-.206-.1l.1-.229a.507.507 0 0 0 .347.1.345.345 0 0 0 .268-.112.45.45 0 0 0 .087-.313l-.059-2.37.3-.007.059 2.371a.693.693 0 0 1-.156.495.621.621 0 0 1-.474.193.944.944 0 0 1-.263-.029m.518-3.571a.207.207 0 0 1-.067-.149.2.2 0 0 1 .059-.148.211.211 0 0 1 .154-.067.214.214 0 0 1 .157.057.2.2 0 0 1 .067.143.22.22 0 0 1-.37.164" transform="translate(-3571.24 -1733.725)" style="fill:#8f2168"/>
        <path data-name="Trazado 4535" d="M1656.712 283.011a1.055 1.055 0 0 1-.435-.365 1.217 1.217 0 0 1-.1-1.154 1.046 1.046 0 0 1 .367-.432 1.231 1.231 0 0 1 1.146-.1 1.029 1.029 0 0 1 .434.363 1.231 1.231 0 0 1 .1 1.154 1.044 1.044 0 0 1-.365.434 1.214 1.214 0 0 1-1.146.1m.974-.311a.747.747 0 0 0 .265-.328 1.014 1.014 0 0 0-.077-.895.746.746 0 0 0-.317-.278.885.885 0 0 0-.841.072.761.761 0 0 0-.266.328 1 1 0 0 0 .077.895.766.766 0 0 0 .319.278.886.886 0 0 0 .841-.072" transform="translate(-3576.567 -1735.843)" style="fill:#8f2168"/>
        <path data-name="Trazado 4536" d="m1673.7 274.494.652 3.045-.279.06-.091-.427a.915.915 0 0 1-.276.407 1.041 1.041 0 0 1-.462.219 1.122 1.122 0 0 1-.579-.022 1.018 1.018 0 0 1-.469-.307 1.266 1.266 0 0 1-.244-1.141 1.006 1.006 0 0 1 .3-.47 1.131 1.131 0 0 1 .521-.255 1.046 1.046 0 0 1 .5.007.923.923 0 0 1 .415.244l-.278-1.3zm-.1 2.848a.76.76 0 0 0 .223-.359 1 1 0 0 0-.188-.878.76.76 0 0 0-.351-.236.875.875 0 0 0-.821.176.76.76 0 0 0-.224.359 1 1 0 0 0 .188.878.761.761 0 0 0 .351.236.877.877 0 0 0 .821-.176" transform="translate(-3588.162 -1731.176)" style="fill:#8f2168"/>
        <path data-name="Trazado 4537" d="m1685.339 276.547-1.767.539a.791.791 0 0 0 .415.455.877.877 0 0 0 .64.026.947.947 0 0 0 .34-.18.824.824 0 0 0 .222-.293l.217.136a.947.947 0 0 1-.273.364 1.245 1.245 0 0 1-.437.23 1.229 1.229 0 0 1-.618.037 1.045 1.045 0 0 1-.508-.264 1.143 1.143 0 0 1-.31-.511 1.185 1.185 0 0 1-.034-.6 1.021 1.021 0 0 1 .253-.494 1.133 1.133 0 0 1 1.054-.321 1.012 1.012 0 0 1 .481.268 1.194 1.194 0 0 1 .3.516zm-1.751-.254a.8.8 0 0 0-.08.58l1.5-.457a.8.8 0 0 0-.39-.436.811.811 0 0 0-1.028.313" transform="translate(-3596.444 -1732.02)" style="fill:#8f2168"/>
        <path data-name="Trazado 4538" d="m1699.952 270.969-1.689.746a.788.788 0 0 0 .467.4.877.877 0 0 0 .639-.05.955.955 0 0 0 .316-.22.825.825 0 0 0 .185-.318l.232.109a.949.949 0 0 1-.227.394 1.252 1.252 0 0 1-.407.28 1.224 1.224 0 0 1-.609.111 1.044 1.044 0 0 1-.536-.2 1.142 1.142 0 0 1-.368-.47 1.184 1.184 0 0 1-.105-.587 1.016 1.016 0 0 1 .192-.521 1.078 1.078 0 0 1 .447-.353 1.067 1.067 0 0 1 .561-.092 1.011 1.011 0 0 1 .51.209 1.194 1.194 0 0 1 .361.476zm-1.769-.043a.8.8 0 0 0-.01.585l1.432-.632a.8.8 0 0 0-.439-.386.81.81 0 0 0-.983.434" transform="translate(-3607.171 -1728.024)" style="fill:#8f2168"/>
        <path data-name="Trazado 4539" d="M1709.682 262.078a.962.962 0 0 1 .558.492l.64 1.108-.258.149-.626-1.083a.751.751 0 0 0-.406-.371.605.605 0 0 0-.5.078.7.7 0 0 0-.362.454.823.823 0 0 0 .122.605l.579 1-.258.149-.625-1.083a.751.751 0 0 0-.406-.371.61.61 0 0 0-.5.08.7.7 0 0 0-.361.453.821.821 0 0 0 .12.607l.579 1-.258.149-1.1-1.912.247-.143.2.349a.8.8 0 0 1 .128-.432 1.032 1.032 0 0 1 .363-.336.946.946 0 0 1 .475-.139.722.722 0 0 1 .438.149.862.862 0 0 1 .132-.471 1.083 1.083 0 0 1 .391-.369.879.879 0 0 1 .685-.119" transform="translate(-3613.603 -1722.059)" style="fill:#8f2168"/>
        <path data-name="Trazado 4540" d="m1724.319 256.615-1.49 1.091a.789.789 0 0 0 .542.293.879.879 0 0 0 .613-.186.949.949 0 0 0 .261-.283.823.823 0 0 0 .113-.35l.25.057a.944.944 0 0 1-.138.434 1.242 1.242 0 0 1-.337.361 1.229 1.229 0 0 1-.572.239 1.047 1.047 0 0 1-.567-.082 1.146 1.146 0 0 1-.461-.381 1.184 1.184 0 0 1-.229-.551 1.017 1.017 0 0 1 .077-.55 1.134 1.134 0 0 1 .889-.651 1.011 1.011 0 0 1 .542.095 1.19 1.19 0 0 1 .455.387zm-1.737.338a.8.8 0 0 0 .116.573l1.263-.924a.8.8 0 0 0-.512-.284.811.811 0 0 0-.867.635" transform="translate(-3625.086 -1717.662)" style="fill:#8f2168"/>
        <path data-name="Trazado 4541" d="M1730.1 250.288a1.062 1.062 0 0 1 .321-.418l.186.222-.057.043a.706.706 0 0 0-.28.515.854.854 0 0 0 .235.586l.724.861-.228.192-1.422-1.689.219-.184.278.331a.723.723 0 0 1 .023-.458" transform="translate(-3630.423 -1713.134)" style="fill:#8f2168"/>
        <path data-name="Trazado 4542" d="m1736.964 242.831 1.35 1.392a1.123 1.123 0 0 1 .383.789 1.137 1.137 0 0 1-.406.771 1.85 1.85 0 0 1-.48.34 1.19 1.19 0 0 1-.495.132l-.049-.268a1.132 1.132 0 0 0 .434-.11 1.457 1.457 0 0 0 .4-.277.848.848 0 0 0 .307-.57.821.821 0 0 0-.281-.573l-.2-.2a.9.9 0 0 1-.038.482 1.121 1.121 0 0 1-.281.424 1.176 1.176 0 0 1-.5.3 1.007 1.007 0 0 1-.552 0 1.137 1.137 0 0 1-.773-.8 1 1 0 0 1 .022-.547 1.188 1.188 0 0 1 .313-.491 1.121 1.121 0 0 1 .443-.272.917.917 0 0 1 .49-.019l-.295-.3zm.723 1.746a.742.742 0 0 0 .015-.415.818.818 0 0 0-.215-.376.808.808 0 0 0-.368-.225.752.752 0 0 0-.413 0 .97.97 0 0 0-.622.6.732.732 0 0 0-.015.412.878.878 0 0 0 .584.6.747.747 0 0 0 .414 0 .89.89 0 0 0 .38-.226.905.905 0 0 0 .239-.375" transform="translate(-3634.951 -1707.976)" style="fill:#8f2168"/>
        <path data-name="Trazado 4543" d="m1745.8 236.551-1.213 1.393a.789.789 0 0 0 .593.166.88.88 0 0 0 .556-.317.956.956 0 0 0 .193-.333.829.829 0 0 0 .032-.366h.256a.948.948 0 0 1-.039.454 1.245 1.245 0 0 1-.249.426 1.226 1.226 0 0 1-.505.359 1.043 1.043 0 0 1-.571.045 1.143 1.143 0 0 1-.533-.269 1.187 1.187 0 0 1-.345-.486 1.018 1.018 0 0 1-.047-.553 1.081 1.081 0 0 1 .255-.51 1.065 1.065 0 0 1 .469-.321 1.009 1.009 0 0 1 .55-.028 1.194 1.194 0 0 1 .53.277zm-1.619.713a.8.8 0 0 0 .239.534l1.028-1.181a.8.8 0 0 0-.562-.164.757.757 0 0 0-.508.273.749.749 0 0 0-.2.537" transform="translate(-3640.924 -1703.107)" style="fill:#8f2168"/>
        <path data-name="Trazado 4544" d="M1750.714 227.33a.944.944 0 0 1 .712.217l1.033.756-.176.24-1.009-.739a.734.734 0 0 0-.525-.171.647.647 0 0 0-.436.29.755.755 0 0 0-.163.581.8.8 0 0 0 .35.513l.935.684-.176.241-1.781-1.3.169-.23.328.241a.829.829 0 0 1-.053-.457 1.077 1.077 0 0 1 .207-.47.9.9 0 0 1 .585-.391" transform="translate(-3645.003 -1696.612)" style="fill:#8f2168"/>
        <path data-name="Trazado 4545" d="M1758.749 220.218a1.034 1.034 0 0 1-.553.136 1.156 1.156 0 0 1-.573-.179 1.142 1.142 0 0 1-.417-.428 1.038 1.038 0 0 1-.128-.554 1.188 1.188 0 0 1 .184-.574 1.132 1.132 0 0 1 .361-.377.846.846 0 0 1 .463-.132l.013.269a.7.7 0 0 0-.354.108.823.823 0 0 0-.26.269.862.862 0 0 0-.134.423.753.753 0 0 0 .1.413 1 1 0 0 0 .768.47.753.753 0 0 0 .413-.1.862.862 0 0 0 .316-.311.834.834 0 0 0 .123-.353.677.677 0 0 0-.063-.363l.245-.111a.844.844 0 0 1 .091.474 1.142 1.142 0 0 1-.171.491 1.193 1.193 0 0 1-.428.425" transform="translate(-3650.571 -1689.864)" style="fill:#8f2168"/>
        <path data-name="Trazado 4546" d="M1758.361 212.548a.2.2 0 0 1-.162-.016.2.2 0 0 1-.1-.125.211.211 0 0 1 .018-.167.215.215 0 0 1 .127-.108.194.194 0 0 1 .157.013.22.22 0 0 1-.04.4m.483.254.141-.263 1.945 1.044-.141.263z" transform="translate(-3651.313 -1685.476)" style="fill:#8f2168"/>
        <path data-name="Trazado 4547" d="M1764.468 205.557a.835.835 0 0 1 .678.059l1.242.574-.12.259-.312-.144a.683.683 0 0 1 .12.381 1.033 1.033 0 0 1-.107.461.906.906 0 0 1-.407.459.606.606 0 0 1-.84-.372 1 1 0 0 1 .116-.661l.294-.636-.122-.056a.566.566 0 0 0-.461-.038.659.659 0 0 0-.331.361 1.186 1.186 0 0 0-.106.395 1.016 1.016 0 0 0 .034.381l-.258.028a1.2 1.2 0 0 1-.031-.458 1.581 1.581 0 0 1 .137-.482.936.936 0 0 1 .475-.511m1.383 1.009a.69.69 0 0 0-.19-.384l-.328-.152-.291.629q-.238.514.12.68a.36.36 0 0 0 .338-.006.668.668 0 0 0 .273-.327.782.782 0 0 0 .077-.441" transform="translate(-3655.531 -1680.631)" style="fill:#8f2168"/>
        <path data-name="Trazado 4548" d="M1769.655 198.306a1.109 1.109 0 0 1-.318.291l-.172-.208a1.14 1.14 0 0 0 .29-.263 1.387 1.387 0 0 0 .219-.384.834.834 0 0 0 .069-.452.3.3 0 0 0-.2-.229.24.24 0 0 0-.207.007.529.529 0 0 0-.169.152 2.88 2.88 0 0 0-.178.278 3.7 3.7 0 0 1-.249.368.635.635 0 0 1-.265.2.5.5 0 0 1-.367-.015.545.545 0 0 1-.343-.376 1.037 1.037 0 0 1 .061-.663 1.675 1.675 0 0 1 .2-.381 1.17 1.17 0 0 1 .264-.277l.178.206a1.114 1.114 0 0 0-.406.542.752.752 0 0 0-.057.438.308.308 0 0 0 .2.229.26.26 0 0 0 .217-.006.5.5 0 0 0 .176-.151 3.3 3.3 0 0 0 .187-.288 3.8 3.8 0 0 1 .244-.361.618.618 0 0 1 .257-.194.472.472 0 0 1 .354.012.533.533 0 0 1 .345.388 1.147 1.147 0 0 1-.077.686 1.7 1.7 0 0 1-.254.454" transform="translate(-3658.38 -1673.921)" style="fill:#8f2168"/>
        <path data-name="Trazado 4549" d="M1624.784 144.368c.237 0 .453-.005.669 0a1.773 1.773 0 0 1 1.795 1.806 90.86 90.86 0 0 1 0 2.215.62.62 0 0 1-.712.7h-20.892c-.681 0-.856-.176-.856-.858v-1.979a1.787 1.787 0 0 1 1.89-1.89h.585l.418-2.325c.512-2.856 1-5.716 1.544-8.565a4.058 4.058 0 0 1 4-3.286c1.832-.016 3.664-.01 5.5 0a4.152 4.152 0 0 1 4.148 3.522q.914 5.2 1.848 10.4c.014.077.036.153.061.258m-1.227-.014c-.019-.133-.03-.241-.049-.347l-1.761-9.876a3.021 3.021 0 0 0-3.281-2.761h-5.083a2.954 2.954 0 0 0-3.043 2.542q-.628 3.485-1.245 6.971l-.623 3.47zm2.51 3.544v-1.482c0-.7-.172-.866-.877-.866h-18.34a2.622 2.622 0 0 0-.324.008.56.56 0 0 0-.539.534c-.021.6-.006 1.195-.006 1.806z" transform="translate(-3538.989 -1625.437)" style="fill:#fff"/>
        <path data-name="Trazado 4550" d="M1593.33 149.067c-.816 0-1.632.006-2.448 0a.59.59 0 0 1-.622-.8.579.579 0 0 1 .577-.381q2.507-.006 5.014 0a.589.589 0 1 1-.013 1.175c-.836.009-1.671 0-2.507 0" transform="translate(-3528.311 -1638.409)" style="fill:#fff"/>
        <path data-name="Trazado 4551" d="M1683.133 147.882c.816 0 1.632-.006 2.448 0a.589.589 0 0 1 .622.8.579.579 0 0 1-.576.381q-2.507.006-5.014 0a.589.589 0 1 1 .013-1.175c.836-.009 1.672 0 2.507 0" transform="translate(-3594.09 -1638.405)" style="fill:#fff"/>
        <path data-name="Trazado 4552" d="M1611.625 114.241a.607.607 0 0 1-.853.612 1.2 1.2 0 0 1-.276-.218q-1.557-1.551-3.109-3.107a1.329 1.329 0 0 1-.187-.227.575.575 0 0 1 .787-.8 1.421 1.421 0 0 1 .25.2c1.031 1.027 2.063 2.053 3.085 3.09a2.5 2.5 0 0 1 .3.447" transform="translate(-3540.689 -1610.953)" style="fill:#fff"/>
        <path data-name="Trazado 4553" d="M1670.326 114.927a.606.606 0 0 1-.61-.854 1.193 1.193 0 0 1 .218-.276q1.552-1.556 3.108-3.108a1.325 1.325 0 0 1 .227-.186.575.575 0 0 1 .8.789 1.437 1.437 0 0 1-.205.249c-1.028 1.03-2.054 2.062-3.091 3.084a2.466 2.466 0 0 1-.448.3" transform="translate(-3586.515 -1610.953)" style="fill:#fff"/>
        <path data-name="Trazado 4554" d="M1645.773 97.791v2.27a.609.609 0 0 1-.5.667.6.6 0 0 1-.682-.658c-.007-.845 0-1.69 0-2.535v-2.064a.59.59 0 0 1 .371-.584.493.493 0 0 1 .617.13.984.984 0 0 1 .185.534c.02.746.008 1.493.008 2.24" transform="translate(-3568.151 -1599.539)" style="fill:#fff"/>
        <path data-name="Trazado 4555" d="M1663.868 161.874a.6.6 0 0 1-.508.665.613.613 0 0 1-.668-.568c-.128-.666-.244-1.335-.365-2-.151-.832-.3-1.664-.448-2.5a1.075 1.075 0 0 1 0-.465.536.536 0 0 1 .553-.4.59.59 0 0 1 .586.524c.088.423.158.851.235 1.276l.6 3.279c.014.077.017.157.021.19" transform="translate(-3580.799 -1644.799)" style="fill:#fff"/>
        <path data-name="Trazado 4556" d="M1660.663 149.077a.587.587 0 1 1 .6-.565.605.605 0 0 1-.6.565" transform="translate(-3579.509 -1638.423)" style="fill:#fff"/>
    </g>
</svg>
