<?xml version="1.0" encoding="UTF-8"?>
<svg id="Layer_1" xmlns="http://www.w3.org/2000/svg" version="1.1" viewBox="0 0 665.99 222.64">
  <!-- Generator: Adobe Illustrator 29.5.1, SVG Export Plug-In . SVG Version: 2.1.0 Build 141)  -->
  <defs>
    <style>
      .st0 {
        fill: #41fbff;
      }
    </style>
  </defs>
  <g id="Group_1315">
    <g id="Group_1302">
      <path id="Path_4306" class="st0" d="M305.85,18.33l1.76-2.82h.02s0-.01,0-.01h0-.01s-3.32.15-3.32.15l1.14.55-3.68,2.14.5.86,3.67-2.14-.08,1.27Z"/>
      <path id="Path_4307" class="st0" d="M292.91,24.08l-3.32.15,1.14.55-3.68,2.15.5.86,3.67-2.14-.08,1.27,1.77-2.82h.02s0,0,0,0h0-.01Z"/>
      <path id="Path_4308" class="st0" d="M298.5,22.62l1.76-2.82h.02s0-.01,0-.01h-.01s-3.32.15-3.32.15l1.14.55-3.67,2.14.5.86,3.67-2.14-.08,1.27Z"/>
      <path id="Path_4309" class="st0" d="M327.46,3.93h-.01s-3.26.12-3.26.12l1.13.56-3.59,2.1.5.86,3.58-2.09-.07,1.26,1.7-2.79h.02s0-.01,0-.01h0Z"/>
      <path id="Path_4310" class="st0" d="M311.4,15.09l1.7-2.78h.02s0,0,0,0h-.01s-3.26.12-3.26.12l1.13.56-3.59,2.09.5.86,3.58-2.09-.06,1.26Z"/>
      <path id="Path_4311" class="st0" d="M318.57,10.91l1.7-2.78h.02s0,0,0,0h-.01s-3.26.12-3.26.12l1.13.56-3.59,2.09.5.86,3.58-2.09-.06,1.26Z"/>
    </g>
    <g id="Group_1304">
      <g id="Group_1300">
        <g id="Group_1299">
          <path id="Path_4060" class="st0" d="M451.98,62.97c1.2.16,2.41.24,3.58.33h.02s0,0,0,0h0-.01c-.6-1.03-1.2-2.04-1.73-3.08,0,.45,0,.9,0,1.35-1.26-.81-2.47-1.7-3.63-2.65l-.69.81c1.19.97,2.43,1.88,3.72,2.72-.42.17-.84.34-1.27.5"/>
          <path id="Path_4061" class="st0" d="M451.53,46.91c-.33,1.18-.59,2.34-.84,3.5v.02s0,0,0,0h0s0,0,0,0c1.1-.46,2.2-.89,3.29-1.27-.44-.07-.89-.14-1.34-.21.5-.56,1.01-1.11,1.53-1.64.26-.26.53-.51.8-.74.07-.06.14-.11.21-.16.07-.05.13-.1.21-.15.11-.08.22-.14.34-.18l-.26-1.03c-.13.04-.26.09-.38.15l-.16.09-.14.09c-.09.06-.18.12-.26.19-.08.06-.17.13-.24.19-.31.26-.59.53-.87.8-.55.55-1.07,1.11-1.58,1.69-.11-.44-.22-.89-.32-1.34"/>
          <path id="Path_4062" class="st0" d="M445.43,54.63c0,.26.02.52.09.77.06.24.16.47.29.69.05.11.12.21.19.3.07.09.15.21.22.27.13.13.26.24.41.34.51.36,1.07.65,1.66.85v.02s.01,0,.01,0h0,0c-.06-.3-.14-.58-.18-.86-.04-.27-.06-.54-.04-.81,0-.12.01-.24.05-.36.02-.06.05-.07.07-.09.03-.03.06-.05.09-.07.12-.09.27-.11.41-.07-.38-.11-.8-.05-1.13.17-.09-.25-.04-.53.13-.73l.99-1.29,1.05-1.34-.83-.66-1.06,1.34-1.09,1.42c-.07.1-.14.2-.2.31-.03.06-.05.11-.06.17-.02.06-.03.12-.04.18-.03.25-.02.5.05.74-.12-.07-.23-.15-.33-.23-.11-.09-.2-.19-.29-.3-.19-.23-.35-.49-.45-.77"/>
          <path id="Path_4063" class="st0" d="M474.81,74.38c1.19-.13,2.37-.26,3.55-.4h.02s0,0,0,0h0-.01c-.79-.89-1.57-1.78-2.34-2.68l.3,1.33c-1.41-.55-2.82-1.11-4.22-1.69l-.4.98c1.41.58,2.82,1.14,4.24,1.69l-1.12.77Z"/>
          <path id="Path_4064" class="st0" d="M458.06,66.66c1.2.03,2.4.05,3.58.04h.02s0,0,0,0h0-.01c-.68-.98-1.34-1.96-1.98-2.95l.12,1.35c-1.33-.72-2.65-1.47-3.94-2.25l-.55.91c1.31.79,2.64,1.54,3.98,2.27l-1.22.62Z"/>
          <path id="Path_4065" class="st0" d="M466.32,70.83c1.2-.06,2.39-.15,3.57-.24h.02s0,0,0,0h0-.01c-.75-.92-1.49-1.85-2.21-2.78l.23,1.34c-1.38-.62-2.75-1.25-4.1-1.94l-.48.95c1.36.69,2.75,1.34,4.14,1.96l-1.16.72Z"/>
          <path id="Path_4066" class="st0" d="M498.57,82.95l3.52-.56h.02s0,0,0,0h0-.01l-2.45-2.58.36,1.31-4.31-1.47-.35,1,4.31,1.47-1.08.82Z"/>
          <path id="Path_4067" class="st0" d="M481.35,76.87l3.54-.47h.02s0,0,0,0h0-.01l-2.38-2.64.32,1.32c-1.42-.53-2.84-1.06-4.26-1.6l-.38.99c1.42.54,2.84,1.07,4.27,1.6l-1.11.79Z"/>
          <path id="Path_4068" class="st0" d="M489.94,79.97l3.52-.52h.02s0,0,0,0h0-.01l-2.43-2.6.34,1.31-4.29-1.52-.36,1,4.29,1.52-1.09.81Z"/>
          <path id="Path_4069" class="st0" d="M522.53,90.79l3.5-.6h.02s0,0,0,0h0-.01l-2.5-2.55.38,1.31-4.33-1.41-.32,1.01,4.33,1.41-1.07.84Z"/>
          <path id="Path_4070" class="st0" d="M505.19,85.15l3.52-.59h.02s0,0,0,0h0-.01l-2.47-2.55.37,1.3-4.33-1.41-.34,1.01,4.33,1.41-1.08.83Z"/>
          <path id="Path_4071" class="st0" d="M513.86,87.97l3.51-.6h.02s0,0,0,0h0-.01l-2.48-2.55.37,1.31-4.33-1.41-.33,1.01,4.33,1.41-1.07.83Z"/>
          <path id="Path_4072" class="st0" d="M546.62,98.27c.58-.12,1.15-.21,1.74-.34l1.75-.39h.02s-.01,0-.01,0h0-.01l-1.3-1.2c-.43-.39-.85-.83-1.28-1.25l.42,1.31-4.35-1.34-.29,1.02,4.35,1.34-1.04.85Z"/>
          <path id="Path_4073" class="st0" d="M529.18,92.89l3.5-.65h.02s0,0,0,0h0-.01l-2.52-2.51.39,1.3-4.35-1.34-.32,1.01,4.35,1.34-1.06.85Z"/>
          <path id="Path_4074" class="st0" d="M537.9,95.58l3.48-.66h.02s0,0,0,0h0-.01l-2.54-2.52.41,1.3-4.35-1.34-.31,1.02,4.35,1.34-1.05.85Z"/>
          <path id="Path_4075" class="st0" d="M570.98,104.76l.43-.1.11-.02h.05s.01-.03.02-.03c0,0,0-.02.03-.02h.06s.12-.02.12-.02c.31-.05.61-.11.91-.17.59-.13,1.17-.27,1.75-.42h.02-.01,0-.01c-.45-.39-.89-.78-1.31-1.18-.21-.2-.42-.4-.61-.61l-.07-.08s-.06-.06-.1-.09l-.08-.05s-.03-.03-.04-.04l-.08-.07-.33-.3.22.64c.03.11.08.22.13.32.05.1.09.22.12.33l-.13-.04s-.06-.02-.09-.03l-.07-.02-.28-.07-.55-.15-1.1-.29-2.2-.58-.27,1.03,2.2.58,1.1.29.55.14.28.07.07.02h.05s.14.06.14.06c-.08.07-.21.13-.25.22-.07.08-.16.16-.24.23l-.51.45Z"/>
          <path id="Path_4076" class="st0" d="M553.37,100.11l3.47-.8h.02,0,0-.01l-2.62-2.41.45,1.28-4.4-1.16-.27,1.03,4.4,1.16-1.02.89Z"/>
          <path id="Path_4077" class="st0" d="M562.18,102.44l3.47-.8h.02s0,0,0,0h0-.01l-2.62-2.41.45,1.28-4.4-1.16-.27,1.03,4.4,1.16-1.02.89Z"/>
          <path id="Path_4078" class="st0" d="M596.36,107.6c1.06-.55,2.1-1.15,3.13-1.73h.02-.02c-1.07-.53-2.13-1.03-3.17-1.58l.77,1.12-2.27.02c-.76,0-1.51,0-2.27-.02l-.02,1.06c.76.02,1.52.01,2.29.02l2.28-.02-.75,1.13Z"/>
          <path id="Path_4079" class="st0" d="M577.92,106.33c1.15-.37,2.28-.76,3.39-1.18h.02-.02c-.97-.68-1.92-1.38-2.85-2.09l.56,1.23c-1.49-.23-2.97-.51-4.44-.84l-.24,1.03c1.49.34,3,.62,4.51.85l-.94.99Z"/>
          <path id="Path_4080" class="st0" d="M587.13,107.37l1.64-.73,1.62-.76h.02-.02l-1.53-.89-1.51-.92.68,1.17c-1.51-.08-3.01-.21-4.52-.36l-.11,1.05c1.52.15,3.04.28,4.56.36l-.83,1.08Z"/>
          <path id="Path_4081" class="st0" d="M621.55,105.77c1.01-.62,2.02-1.23,3.04-1.85h.02-.02c-1.08-.49-2.17-.98-3.26-1.46l.84,1.07c-1.52.1-3.03.2-4.55.32l.08,1.06c1.51-.12,3.02-.23,4.53-.32l-.68,1.17Z"/>
          <path id="Path_4082" class="st0" d="M603.4,107.33c1.03-.62,2.04-1.24,3.04-1.89h.02-.01,0-.01c-1.1-.46-2.18-.93-3.25-1.42l.83,1.07c-1.51.1-3.02.18-4.53.24l.04,1.06c1.52-.06,3.04-.14,4.56-.24l-.69,1.17Z"/>
          <path id="Path_4083" class="st0" d="M612.53,106.51c.98-.65,1.98-1.3,2.98-1.94h.02-.01,0-.01c-1.1-.46-2.2-.91-3.3-1.36l.87,1.05c-1.51.14-3.03.31-4.53.47l.1,1.06c1.52-.16,3.01-.32,4.52-.46l-.64,1.19Z"/>
          <path id="Path_4084" class="st0" d="M646.62,104.86l3.13-1.68h.02-.02l-3.17-1.63.77,1.12-4.56.06.02,1.06,4.55-.06-.75,1.13Z"/>
          <path id="Path_4085" class="st0" d="M628.47,105.38l3.07-1.79h.02-.02l-3.23-1.52.81,1.09c-1.52.07-3.04.15-4.55.23l.06,1.06c1.51-.08,3.03-.17,4.54-.23l-.71,1.16Z"/>
          <path id="Path_4086" class="st0" d="M637.54,105.04l3.1-1.73h.02-.02l-3.2-1.58.79,1.11c-1.52.04-3.04.09-4.56.14l.04,1.06c1.51-.05,3.03-.1,4.54-.14l-.73,1.14Z"/>
          <path id="Path_4087" class="st0" d="M663.9,104.92l2.06-1.61h.01,0l-2-1.7.47,1.14-2.93-.05-.02,1.06,2.92.05-.51,1.11Z"/>
          <path id="Path_4088" class="st0" d="M652.22,104.82l2.03-1.66h.01,0l-2.03-1.65.49,1.13h-2.93s0,1.07,0,1.07h2.93s-.49,1.11-.49,1.11Z"/>
          <path id="Path_4089" class="st0" d="M658.06,104.84l2.04-1.64h.01,0l-2.02-1.68.48,1.13-2.93-.02v1.06l2.93.02-.51,1.12Z"/>
          <path id="Path_4090" class="st0" d="M157.37,54.7l1.85-3.04h.02s-.01-.01-.01-.01h0-.01s-3.56.21-3.56.21l1.23.57-3.9,2.35.55.91,3.9-2.35-.07,1.36Z"/>
          <path id="Path_4091" class="st0" d="M141.83,64.15l1.81-3.06h.02s-.01-.01-.01-.01h0-.01s-3.56.26-3.56.26l1.24.55-1.94,1.2c-.32.21-.64.41-.96.62-.16.1-.32.21-.48.32l-.24.17c-.09.06-.2.15-.29.23l.6.6.15.14h.02s.02-.02.02-.02l.04-.03s.04-.04.08-.06l.23-.15c.15-.1.31-.21.46-.31.31-.21.63-.41.95-.61l1.92-1.2-.05,1.36Z"/>
          <path id="Path_4092" class="st0" d="M149.58,59.4l1.84-3.05h.02s-.01-.01-.01-.01h0-.01s-3.56.22-3.56.22l1.23.57-3.89,2.36.55.91,3.89-2.36-.06,1.36Z"/>
          <path id="Path_4093" class="st0" d="M178.97,41.76l1.86-3.04h.02s-.01-.01-.01-.01h0-.01s-3.56.21-3.56.21l1.23.58-3.9,2.34.55.91,3.9-2.34-.08,1.36Z"/>
          <path id="Path_4094" class="st0" d="M163.34,51.12l1.86-3.04h.02s-.01-.01-.01-.01h0-.01s-3.56.21-3.56.21l1.23.58-3.9,2.34.54.91,3.9-2.34-.08,1.36Z"/>
          <path id="Path_4095" class="st0" d="M171.16,46.44l1.85-3.04h.02s-.01-.01-.01-.01h0-.01s-3.56.21-3.56.21l1.23.58-3.9,2.34.54.91,3.9-2.34-.08,1.36Z"/>
          <path id="Path_4096" class="st0" d="M200.48,29.09c.7-.9,1.47-1.79,2.28-2.66h.02s-.01,0-.01,0h0-.01c-1.18-.17-2.36-.31-3.6-.37.39.24.78.48,1.16.74-.36.15-.71.3-1.06.45l-.53.24-.27.13c-.05.02-.12.06-.16.09l-.12.07-1.95,1.16.54.91,1.95-1.16c.31-.18.63-.34.96-.47.34-.15.68-.3,1.03-.44-.09.44-.17.88-.24,1.33"/>
          <path id="Path_4097" class="st0" d="M184.95,38.2l1.86-3.03h.02s-.01-.01-.01-.01h0-.01s-3.56.2-3.56.2l1.23.58-3.91,2.33.54.91,3.91-2.33-.08,1.35Z"/>
          <path id="Path_4098" class="st0" d="M192.78,33.54l1.86-3.03h.02s-.01-.01-.01-.01h0-.01s-3.56.2-3.56.2l1.23.58-3.91,2.33.54.91,3.91-2.33-.08,1.36Z"/>
          <path id="Path_4099" class="st0" d="M224.38,24.45c1.03-.57,2.07-1.07,3.15-1.6h.02-.02c-1.03-.58-2.08-1.18-3.16-1.71l.77,1.13c-.77,0-1.53-.01-2.29.02l-1.15.03c-.38.01-.76.04-1.15.06l.06,1.06c.38-.02.75-.05,1.13-.06l1.13-.03c.75-.03,1.5-.01,2.26-.02l-.76,1.12Z"/>
          <path id="Path_4100" class="st0" d="M206.84,26.87l.63-.61.65-.59c.43-.4.88-.78,1.33-1.17h.02-.01,0-.01c-.57-.15-1.15-.3-1.74-.43l-.88-.21-.89-.18,1.04.88c-1.48.4-2.94.85-4.39,1.36l.35,1c1.42-.5,2.85-.94,4.31-1.34l-.42,1.29Z"/>
          <path id="Path_4101" class="st0" d="M215.52,25.07l.71-.51.72-.5c.48-.33.97-.67,1.47-.98h.02-.01c-.55-.24-1.1-.45-1.66-.66l-.84-.32-.85-.3.91,1.01c-1.52.21-3.03.43-4.53.73l.21,1.04c1.48-.29,2.96-.52,4.46-.72l-.59,1.21Z"/>
          <path id="Path_4102" class="st0" d="M248.51,28.84l3.51-.59h.02s0,0,0,0h0-.01l-2.48-2.56.37,1.31-4.33-1.42-.32,1.01,4.32,1.42-1.07.83Z"/>
          <path id="Path_4103" class="st0" d="M231.16,24.78c1.08-.44,2.17-.87,3.29-1.26h.02-.01,0-.01c-.96-.7-1.95-1.38-2.96-2.04.22.4.44.8.65,1.2-1.52-.17-3.04-.29-4.57-.36l-.05,1.06c1.51.07,3.01.19,4.5.35-.29.35-.58.69-.86,1.04"/>
          <path id="Path_4104" class="st0" d="M239.92,26.26c1.12-.29,2.27-.57,3.43-.81h.02s0,0,0,0h0-.01c-.86-.82-1.75-1.62-2.66-2.41l.48,1.28c-1.48-.37-2.98-.69-4.48-.97l-.19,1.04c1.48.27,2.95.58,4.42.95l-1,.91Z"/>
          <path id="Path_4105" class="st0" d="M272.43,36.69l3.51-.59h.02s0,0,0,0h0-.01l-2.48-2.56.37,1.31-4.33-1.42-.33,1.01,4.32,1.42-1.07.83Z"/>
          <path id="Path_4106" class="st0" d="M255.12,31.01l3.51-.59h.02s0,0,0,0h0-.01l-2.48-2.56.37,1.31-4.33-1.42-.33,1.01,4.32,1.42-1.07.83Z"/>
          <path id="Path_4107" class="st0" d="M263.78,33.85l3.51-.59h.02s0,0,0,0h0-.01l-2.48-2.56.37,1.31-4.33-1.42-.33,1.01,4.32,1.42-1.07.83Z"/>
          <path id="Path_4108" class="st0" d="M296.36,44.54l3.51-.59h.02s0,0,0,0h0-.01l-2.48-2.56.37,1.31-4.33-1.42-.33,1.01,4.32,1.42-1.07.83Z"/>
          <path id="Path_4109" class="st0" d="M279.05,38.86l3.51-.59h.02s0,0,0,0h0-.01l-2.48-2.56.37,1.31-4.33-1.42-.33,1.01,4.32,1.42-1.07.83Z"/>
          <path id="Path_4110" class="st0" d="M287.7,41.69l3.51-.59h.02s0,0,0,0h0-.01l-2.48-2.56.37,1.31-4.33-1.42-.33,1.01,4.32,1.42-1.07.83Z"/>
          <path id="Path_4111" class="st0" d="M312.89,55.9c.14,1.11.07,2.23-.19,3.32v.02s0,0,0,0h0s0,0,0,0c.56-.23,1.11-.5,1.63-.81.57-.33,1.1-.72,1.58-1.16-.46.12-.92.21-1.39.26.4-.71.69-1.47.87-2.27.05-.2.07-.41.1-.62.01-.21.04-.41.03-.62,0-.42-.04-.84-.14-1.25l-1.04.23c.08.33.11.67.11,1.01,0,.17-.02.34-.02.51-.03.17-.04.34-.08.51-.15.69-.41,1.35-.76,1.97-.21-.39-.45-.75-.71-1.1"/>
          <path id="Path_4112" class="st0" d="M303.09,46.52c1.14-.25,2.29-.45,3.45-.59h.02s0,0,0,0h0-.01c-.78-.89-1.63-1.75-2.53-2.59.15.43.29.87.42,1.3-.59-.18-1.19-.36-1.79-.51-.3-.08-.6-.15-.91-.22l-.46-.1-.43-.09-.8-.26-.33,1.01.86.28.47.1.44.1c.29.07.59.14.88.22.59.15,1.17.32,1.75.5-.35.28-.69.57-1.03.87"/>
          <path id="Path_4113" class="st0" d="M310.8,50.01c1.12.09,2.2.4,3.2.9v.02s.01-.01.01-.01h0s0,0,0,0c-.18-1.25-.6-2.45-1.22-3.55,0,.47-.01.94-.06,1.39-1.21-.99-2.55-1.82-3.98-2.47l-.45.96c1.34.61,2.6,1.38,3.74,2.31-.43.13-.84.28-1.25.45"/>
          <path id="Path_4114" class="st0" d="M293.84,70.36l-1.82,3.05h-.02s.01.01.01.01h0,.01s3.56-.24,3.56-.24l-1.24-.56,3.89-2.38-.56-.9-3.88,2.37.06-1.36Z"/>
          <path id="Path_4115" class="st0" d="M308.93,60.63c-.42,1.09-.89,2.16-1.42,3.19h-.02s.01.01.01.01h0s.01,0,.01,0c1.2-.16,2.39-.39,3.56-.67-.45-.12-.89-.23-1.33-.37,1.22-.97,2.34-2.04,3.35-3.22l-.81-.68c-.97,1.13-2.04,2.16-3.2,3.08-.04-.45-.1-.9-.15-1.34"/>
          <path id="Path_4116" class="st0" d="M301.6,65.62l-1.8,3.04h-.02s.01.01.01.01h0,.01s3.57-.25,3.57-.25l-1.25-.55,3.89-2.38-.57-.89-3.88,2.37.05-1.35Z"/>
          <path id="Path_4117" class="st0" d="M272.37,83.51l-1.82,3.06h-.02s.01.01.01.01h0,.01s3.55-.24,3.55-.24l-1.23-.56,3.88-2.38-.55-.9-3.88,2.38.06-1.36Z"/>
          <path id="Path_4118" class="st0" d="M287.91,74l-1.82,3.06h-.02s.01.01.01.01h0,.01s3.55-.24,3.55-.24l-1.23-.56,3.88-2.38-.55-.9-3.88,2.38.06-1.36Z"/>
          <path id="Path_4119" class="st0" d="M280.14,78.75l-1.82,3.06h-.02s.01.01.01.01h0,.01s3.55-.24,3.55-.24l-1.23-.56,3.88-2.38-.55-.9-3.88,2.38.05-1.36Z"/>
          <path id="Path_4120" class="st0" d="M251.07,96.13c-.38.41-.78.84-1.19,1.26-.41.4-.84.81-1.28,1.22h-.02s.01,0,.01,0h0,.01c.57.13,1.16.25,1.76.37.59.1,1.19.19,1.81.28-.38-.27-.75-.55-1.11-.82.74-.23,1.45-.51,2.17-.79l1.06-.45c.36-.15.7-.32,1.05-.48l-.46-.96c-.34.16-.67.33-1.02.47l-1.03.44c-.7.26-1.39.54-2.11.76.12-.43.23-.87.34-1.3"/>
          <path id="Path_4121" class="st0" d="M266.44,87.14l-1.82,3.06h-.02s.01.01.01.01h0,.01s3.55-.24,3.55-.24l-1.23-.56,3.88-2.38-.55-.9-3.88,2.38.06-1.36Z"/>
          <path id="Path_4122" class="st0" d="M258.79,92.22c-.52,1.04-1.11,2.05-1.75,3.02h-.02s.01.01.01.01h0,.01c1.21-.03,2.42-.13,3.62-.29-.43-.16-.86-.32-1.28-.5.56-.36,1.1-.74,1.63-1.13.27-.21.53-.4.79-.61.13-.1.26-.21.39-.32l.19-.16.15-.13.51-.31-.55-.9-.59.36-.21.19-.18.15c-.12.1-.24.21-.37.3-.25.21-.5.39-.76.58-.51.38-1.04.75-1.58,1.09,0-.45,0-.9-.01-1.34"/>
          <path id="Path_4123" class="st0" d="M227.54,95.5l-3.53.52h-.02s0,0,0,0h0,.01l2.43,2.6-.34-1.31,2.15.75,1.09.37c.36.12.74.22,1.11.33l.29-1.02c-.36-.1-.72-.21-1.08-.32l-1.07-.36-2.15-.75,1.09-.81Z"/>
          <path id="Path_4124" class="st0" d="M244.64,97.69c-.93.7-1.91,1.34-2.91,1.92h-.02.02c1.09.51,2.22.97,3.36,1.36-.31-.34-.62-.67-.92-1.02,1.53-.18,3.05-.45,4.55-.83l-.26-1.03c-1.45.37-2.92.63-4.4.81.21-.4.4-.81.59-1.21"/>
          <path id="Path_4125" class="st0" d="M236,97.69c-1.09.42-2.19.79-3.32,1.09h-.02,0,0,.01c.92.78,1.89,1.51,2.88,2.19-.21-.41-.42-.81-.62-1.23,1.52.24,3.06.37,4.6.41l.02-1.06c-1.49-.04-2.98-.17-4.46-.4.3-.33.6-.67.89-1.01"/>
          <path id="Path_4126" class="st0" d="M203.68,87.44l-3.51.56h-.02s0,0,0,0h0,.01l2.46,2.58-.36-1.31,4.31,1.45.34-1.01-4.31-1.45,1.08-.82Z"/>
          <path id="Path_4127" class="st0" d="M220.94,93.25l-3.52.56h-.02s0,0,0,0h0,.01l2.45,2.57-.35-1.31,4.31,1.45.35-1-4.31-1.45,1.08-.82Z"/>
          <path id="Path_4128" class="st0" d="M212.31,90.34l-3.51.56h-.02s0,0,0,0h0,.01l2.45,2.57-.36-1.31,4.31,1.45.34-1-4.31-1.45,1.08-.82Z"/>
          <path id="Path_4129" class="st0" d="M179.74,79.48l-3.52.58h-.02s0,0,0,0h0,.01l2.48,2.57-.37-1.31,4.33,1.44.33-1.01-4.33-1.44,1.08-.83Z"/>
          <path id="Path_4130" class="st0" d="M197.07,85.23l-3.52.58h-.02s0,0,0,0h0,.01l2.48,2.57-.37-1.31,4.33,1.44.33-1.01-4.33-1.44,1.08-.83Z"/>
          <path id="Path_4131" class="st0" d="M188.4,82.36l-3.52.58h-.02s0,0,0,0h0,.01l2.48,2.57-.37-1.31,4.33,1.44.33-1.01-4.33-1.44,1.08-.83Z"/>
          <path id="Path_4132" class="st0" d="M155.82,71.58l-3.51.58h-.02s0,0,0,0h0,.01l2.48,2.56-.37-1.31,4.32,1.43.33-1.01-4.32-1.43,1.08-.83Z"/>
          <path id="Path_4133" class="st0" d="M173.12,77.29l-3.51.58h-.02s0,0,0,0h0,.01l2.47,2.56-.37-1.31,4.32,1.43.33-1.01-4.32-1.43,1.08-.83Z"/>
          <path id="Path_4134" class="st0" d="M164.47,74.43l-3.51.58h-.02s0,0,0,0h0,.01l2.48,2.56-.37-1.31,4.32,1.43.33-1.01-4.32-1.42,1.07-.83Z"/>
          <path id="Path_4135" class="st0" d="M131.9,63.72l-3.51.59h-.02s0,0,0,0h0,.01l2.48,2.56-.37-1.31,4.33,1.42.33-1.01-4.32-1.42,1.07-.83Z"/>
          <path id="Path_4136" class="st0" d="M149.2,69.41l-3.51.59h-.02s0,0,0,0h0,.01l2.48,2.56-.37-1.31,4.33,1.42.33-1.01-4.32-1.42,1.07-.83Z"/>
          <path id="Path_4137" class="st0" d="M140.55,66.56l-3.51.59h-.02s0,0,0,0h0,.01l2.48,2.56-.37-1.31,4.33,1.42.33-1.01-4.32-1.42,1.07-.83Z"/>
          <path id="Path_4138" class="st0" d="M107.97,55.87l-3.51.59h-.02s0,0,0,0h0,.01l2.48,2.56-.37-1.31,4.33,1.42.33-1.01-4.32-1.42,1.07-.83Z"/>
          <path id="Path_4139" class="st0" d="M125.28,61.54l-3.51.59h-.02s0,0,0,0h0,.01l2.48,2.56-.37-1.31,4.33,1.42.33-1.01-4.32-1.42,1.07-.83Z"/>
          <path id="Path_4140" class="st0" d="M116.63,58.7l-3.51.59h-.02s0,0,0,0h0,.01l2.48,2.56-.37-1.31,4.33,1.42.33-1.01-4.32-1.42,1.07-.83Z"/>
          <path id="Path_4141" class="st0" d="M97.31,49.56l1.85-3.04h.02s-.01-.01-.01-.01h0-.01s-3.56.21-3.56.21l1.23.57-3.97,2.39.69.82,3.83-2.3-.07,1.36Z"/>
          <path id="Path_4142" class="st0" d="M101.35,53.7l-3.51.59h-.02s0,0,0,0h0,.01l2.48,2.55-.37-1.31,4.33,1.42.33-1.01-4.32-1.42,1.07-.83Z"/>
          <path id="Path_4143" class="st0" d="M94.29,51.39c-.79.27-1.62.36-2.45.28-.29-.07-.45-.22-.48-.45h.02s-.01-.01-.01-.01h-.01c-.72.19-1.56.46-2.54.8.04.37.46.87,1.26,1.49,0-.4.17-.77.48-1.03l5.07,1.66.33-1.01-3.58-1.17c.66-.09,1.31-.28,1.92-.56"/>
          <path id="Path_4144" class="st0" d="M118.89,36.58l1.85-3.04h.02s-.01-.01-.01-.01h0-.01s-3.56.21-3.56.21l1.23.57-3.9,2.35.55.91,3.9-2.35-.07,1.36Z"/>
          <path id="Path_4145" class="st0" d="M103.28,45.97l1.85-3.04h.02s-.01-.01-.01-.01h0-.01s-3.55.21-3.55.21l1.23.57-3.9,2.35.55.91,3.9-2.35-.07,1.36Z"/>
          <path id="Path_4146" class="st0" d="M111.08,41.28l1.85-3.04h.02s-.01-.01-.01-.01h0-.01s-3.56.21-3.56.21l1.23.57-3.9,2.35.55.91,3.9-2.35-.07,1.36Z"/>
          <path id="Path_4147" class="st0" d="M140.46,23.6l1.85-3.04h.02s-.01-.01-.01-.01h0-.01s-3.56.21-3.56.21l1.23.57-3.9,2.35.55.91,3.9-2.35-.07,1.36Z"/>
          <path id="Path_4148" class="st0" d="M124.85,32.99l1.85-3.04h.02s-.01-.01-.01-.01h0-.01s-3.55.21-3.55.21l1.23.57-3.9,2.35.55.91,3.9-2.35-.07,1.36Z"/>
          <path id="Path_4149" class="st0" d="M132.66,28.3l1.85-3.04h.02s-.01-.01-.01-.01h0-.01s-3.56.21-3.56.21l1.23.57-3.9,2.35.55.91,3.9-2.35-.07,1.36Z"/>
          <path id="Path_4150" class="st0" d="M145.85,20.36l-.47-1.65h0l-1.23-1.19.67.91-.55.33.55.91.55-.33.48,1.02Z"/>
          <path id="Path_4151" class="st0" d="M143.64,21.69l-.47-1.65h0l-1.23-1.19.67.91-.55.33.55.91.55-.33.48,1.02Z"/>
          <path id="Path_4152" class="st0" d="M144.75,21.02l-.47-1.64h0l-1.23-1.19.67.91-.55.33.55.91.55-.33.48,1.01Z"/>
          <path id="Path_4153" class="st0" d="M76.57,96.38l2.03-2.93h.02s-.01,0-.01,0h0-.01s-3.56,0-3.56,0l1.2.65-4.04,2.11.49.94,4.04-2.11-.16,1.35Z"/>
          <path id="Path_4154" class="st0" d="M60.43,104.81l2.03-2.93h.02s-.01,0-.01,0h0-.01s-3.56,0-3.56,0l1.2.65-4.04,2.11.49.94,4.03-2.11-.15,1.35Z"/>
          <path id="Path_4155" class="st0" d="M68.51,100.59l2.03-2.93h.02s-.01,0-.01,0h0-.01s-3.56,0-3.56,0l1.2.65-4.04,2.11.49.94,4.03-2.11-.15,1.35Z"/>
          <path id="Path_4156" class="st0" d="M98.89,84.71l2.03-2.93h.02s-.01-.01-.01-.01h0-.01s-3.56,0-3.56,0l1.2.65-4.04,2.11.49.94,4.03-2.11-.15,1.35Z"/>
          <path id="Path_4157" class="st0" d="M82.75,93.15l2.03-2.93h.02s-.01,0-.01,0h0-.01s-3.56,0-3.56,0l1.2.65-4.04,2.11.49.94,4.03-2.11-.15,1.35Z"/>
          <path id="Path_4158" class="st0" d="M90.82,88.93l2.03-2.93h.02s-.01,0-.01,0h0-.01s-3.56,0-3.56,0l1.2.65-4.04,2.11.49.94,4.03-2.11-.15,1.35Z"/>
          <path id="Path_4159" class="st0" d="M121.21,73.05l2.03-2.93h.02s-.01-.01-.01-.01h0-.01s-3.56,0-3.56,0l1.2.65-4.04,2.11.49.94,4.03-2.11-.15,1.35Z"/>
          <path id="Path_4160" class="st0" d="M105.06,81.49l2.03-2.93h.02s-.01,0-.01,0h0-.01s-3.56,0-3.56,0l1.2.65-4.04,2.11.49.94,4.03-2.11-.15,1.35Z"/>
          <path id="Path_4161" class="st0" d="M113.14,77.27l2.03-2.93h.02s-.01-.01-.01-.01h0-.01s-3.56,0-3.56,0l1.2.65-4.04,2.11.49.94,4.03-2.11-.15,1.35Z"/>
          <path id="Path_4162" class="st0" d="M126.15,70.47l-.46-1.63h0l-1.07-1.31.6.96-.44.23.49.94.44-.23.45,1.03Z"/>
          <path id="Path_4163" class="st0" d="M124.39,71.4l-.46-1.63h0l-1.07-1.31.6.96-.44.23.49.94.44-.23.45,1.03Z"/>
          <path id="Path_4164" class="st0" d="M125.27,70.93l-.46-1.63h0l-1.07-1.31.6.96-.44.23.49.94.44-.23.45,1.03Z"/>
          <path id="Path_4165" class="st0" d="M59.83,156.76l3.53-.47h.02s0,0,0,0h0-.01l-2.39-2.64.33,1.32-4.28-1.57-.36,1,4.27,1.57-1.1.79Z"/>
          <path id="Path_4166" class="st0" d="M42.73,150.48l3.53-.47h.02s0,0,0,0h0-.01l-2.39-2.64.33,1.32-4.27-1.57-.37,1,4.27,1.57-1.1.8Z"/>
          <path id="Path_4167" class="st0" d="M51.28,153.62l3.53-.47h.02s0,0,0,0h0-.01l-2.39-2.64.33,1.32-4.28-1.57-.36,1,4.27,1.57-1.1.79Z"/>
          <path id="Path_4168" class="st0" d="M84.44,163.41c1.13-.41,2.24-.89,3.33-1.34h.02-.02c-1.01-.65-1.99-1.27-2.95-1.95l.62,1.21c-.75-.09-1.5-.17-2.24-.28s-1.49-.21-2.24-.34l-.17,1.05c.75.13,1.51.23,2.26.35s1.52.18,2.27.28l-.89,1.02Z"/>
          <path id="Path_4169" class="st0" d="M66.35,159.15c1.23-.13,2.4-.31,3.57-.52h.02s0,0,0,0h0-.01c-.83-.84-1.64-1.7-2.39-2.57.09.44.19.88.3,1.31-.36-.13-.7-.26-1.05-.4l-1.07-.39-2.14-.79-.37,1,2.13.78,1.07.39c.35.14.72.28,1.08.4-.37.27-.74.53-1.13.78"/>
          <path id="Path_4170" class="st0" d="M75.29,161.81c1.17-.3,2.32-.61,3.46-.96h.02,0,0-.01c-.92-.74-1.83-1.5-2.71-2.27.16.42.32.84.48,1.26-.74-.16-1.47-.35-2.2-.52-.73-.19-1.46-.38-2.18-.59l-.29,1.02c.73.21,1.47.4,2.21.6.74.18,1.48.37,2.23.53-.33.31-.67.62-1,.92"/>
          <path id="Path_4171" class="st0" d="M110.05,161.49c.44-.43.86-.86,1.28-1.29l1.21-1.32h.02s-.01,0-.01,0h0-.01l-1.75-.24c-.58-.1-1.15-.21-1.72-.31.34.28.69.57,1.05.85-1.42.48-2.88.86-4.34,1.2l.24,1.03c1.49-.35,2.98-.74,4.43-1.22-.13.44-.26.87-.4,1.31"/>
          <path id="Path_4172" class="st0" d="M91.54,163.91c1.09-.53,2.15-1.08,3.18-1.66h.02-.02c-1.07-.52-2.1-1.07-3.12-1.64.24.38.48.77.73,1.14-1.51-.02-3.01-.08-4.52-.19l-.08,1.06c1.52.11,3.05.17,4.58.19-.26.38-.52.74-.79,1.11"/>
          <path id="Path_4173" class="st0" d="M100.87,163.44l.75-.51.73-.53.72-.53.71-.55h.02-.01,0-.01l-.84-.27-.84-.29-.82-.29-.82-.31c.29.34.59.68.89,1.03-1.49.2-2.99.35-4.49.45l.06,1.06c1.53-.09,3.05-.25,4.57-.46-.2.4-.41.81-.62,1.21"/>
          <path id="Path_4174" class="st0" d="M133.1,150.79l2.01-2.94h.02s-.01,0-.01,0h0-.01s-3.55.01-3.55.01l1.2.64-4.02,2.11.49.94,4.03-2.11-.15,1.35Z"/>
          <path id="Path_4175" class="st0" d="M116.72,158.92c.75-.94,1.47-1.88,2.19-2.83h.02s-.01,0-.01,0h0-.01c-1.18-.04-2.36-.11-3.53-.19l1.15.72c-1.37.62-2.76,1.22-4.16,1.76l.38.99c1.43-.55,2.82-1.16,4.21-1.78l-.24,1.34Z"/>
          <path id="Path_4176" class="st0" d="M124.99,154.97l2.06-2.9h.02s-.01,0-.01,0h0-.01s-3.55-.05-3.55-.05l1.18.67c-1.35.68-2.71,1.35-4.06,2.01l.46.95c1.36-.66,2.72-1.34,4.08-2.02l-.17,1.35Z"/>
          <path id="Path_4177" class="st0" d="M155.23,138.7l1.96-2.96h.02s-.01-.01-.01-.01h0-.01s-3.57.08-3.57.08l1.22.62-3.99,2.19.51.92,3.99-2.19-.12,1.35Z"/>
          <path id="Path_4178" class="st0" d="M139.24,147.48l1.98-2.98h.02s-.01,0-.01,0h0-.01s-3.55.06-3.55.06l1.2.63-3.99,2.19.5.94,3.99-2.19-.13,1.36Z"/>
          <path id="Path_4179" class="st0" d="M147.23,143.09l1.97-2.97h.02s-.01-.01-.01-.01h0-.01s-3.56.07-3.56.07l1.21.62-3.99,2.19.51.93,3.99-2.19-.13,1.35Z"/>
          <path id="Path_4180" class="st0" d="M177.15,126.29l1.92-2.99h.02s-.01-.01-.01-.01h0-.01s-3.56.13-3.56.13l1.22.6-3.96,2.25.53.92,3.96-2.25-.1,1.35Z"/>
          <path id="Path_4181" class="st0" d="M161.31,135.3l1.93-3h.02s-.01-.01-.01-.01h0-.01s-3.55.12-3.55.12l1.21.61-3.96,2.25.52.92,3.96-2.25-.11,1.36Z"/>
          <path id="Path_4182" class="st0" d="M169.23,130.8l1.92-3h.02s-.01-.01-.01-.01h0-.01s-3.56.13-3.56.13l1.22.6-3.96,2.25.52.92,3.96-2.25-.1,1.35Z"/>
          <path id="Path_4183" class="st0" d="M198.95,113.66l1.89-3.01h.02s-.01-.01-.01-.01h0-.01s-3.56.16-3.56.16l1.23.59-3.94,2.29.53.92,3.94-2.29-.09,1.35Z"/>
          <path id="Path_4184" class="st0" d="M183.19,122.81l1.9-3.02h.02s-.01-.01-.01-.01h0-.01s-3.55.16-3.55.16l1.22.59-3.94,2.29.53.92,3.94-2.29-.09,1.36Z"/>
          <path id="Path_4185" class="st0" d="M191.07,118.24l1.89-3.01h.02s-.01-.01-.01-.01h0-.01s-3.56.16-3.56.16l1.22.59-3.94,2.29.53.92,3.94-2.28-.09,1.35Z"/>
          <path id="Path_4186" class="st0" d="M220.51,100.96l1.85-3.01h.02s-.01-.01-.01-.01h0-.01s-3.54.17-3.54.17l1.23.58-3.89,2.3.54.91,3.89-2.3-.07,1.35Z"/>
          <path id="Path_4187" class="st0" d="M204.94,110.15l1.86-3.02h.02s-.01-.01-.01-.01h0-.01s-3.53.17-3.53.17l1.22.59-3.89,2.3.54.92,3.89-2.29-.08,1.35Z"/>
          <path id="Path_4188" class="st0" d="M212.73,105.56l1.85-3.01h.02s-.01-.01-.01-.01h0-.01s-3.54.17-3.54.17l1.22.59-3.89,2.3.54.91,3.89-2.29-.07,1.35Z"/>
          <path id="Path_4189" class="st0" d="M216.24,140.74l3.09-1.76h.02-.02l-3.21-1.55.8,1.1-1.86.06-2.58,1.45.52.92,2.35-1.32,1.59-.05-.72,1.15Z"/>
          <path id="Path_4190" class="st0" d="M200.98,149.01l1.94-2.99h.02s-.01-.01-.01-.01h0-.01s-3.56.11-3.56.11l1.21.61-3.97,2.23.52.92,3.97-2.23-.11,1.35Z"/>
          <path id="Path_4191" class="st0" d="M208.92,144.55l1.94-2.99h.02s-.01-.01-.01-.01h0-.01s-3.56.11-3.56.11l1.22.61-3.97,2.23.52.92,3.97-2.23-.11,1.35Z"/>
          <path id="Path_4192" class="st0" d="M227.14,140.37l1.05-1.69h0l-1.16-1.62.31,1.12-1.6.06.04,1.06,1.6-.06-.24,1.13Z"/>
          <path id="Path_4193" class="st0" d="M220.74,140.59l1.05-1.69h0l-1.16-1.62.31,1.12-1.6.06.04,1.06,1.6-.06-.24,1.13Z"/>
          <path id="Path_4194" class="st0" d="M223.94,140.48l1.05-1.69h0l-1.16-1.62.31,1.12-1.6.06.04,1.06,1.6-.06-.24,1.13Z"/>
          <path id="Path_4195" class="st0" d="M383.31,208.55l-3.52.54h-.02s0,0,0,0h0,.01l2.45,2.59-.35-1.31,4.31,1.47.34-1-4.31-1.47,1.08-.82Z"/>
          <path id="Path_4196" class="st0" d="M400.54,214.36l-3.5.59h-.02s0,0,0,0h0,.01l2.49,2.56-.38-1.31,2.17.7,1.1.34c.19.05.37.11.56.16l.29.07.08.02.11.02c.07.01.14.02.22.03v-.71c0-.11,0-.22,0-.33,0-.04,0-.02,0-.03h-.05s-.03,0-.03,0l-.06-.02-.26-.07c-.17-.05-.36-.1-.53-.15l-1.08-.33-2.16-.69,1.06-.85Z"/>
          <path id="Path_4197" class="st0" d="M391.92,211.49l-3.52.55h-.02s0,0,0,0h0,.01l2.45,2.58-.36-1.31,4.31,1.46.34-1.01-4.31-1.45,1.09-.82Z"/>
          <path id="Path_4198" class="st0" d="M359.5,200.32l-3.52.53h-.02s0,0,0,0h0,.01l2.44,2.6-.35-1.31,4.31,1.49.35-1-4.31-1.49,1.09-.81Z"/>
          <path id="Path_4199" class="st0" d="M376.73,206.28l-3.52.53h-.02s0,0,0,0h0,.01l2.44,2.6-.35-1.31,4.31,1.49.35-1-4.31-1.49,1.09-.81Z"/>
          <path id="Path_4200" class="st0" d="M368.11,203.3l-3.52.53h-.02s0,0,0,0h0,.01l2.44,2.6-.35-1.31,4.31,1.49.35-1-4.3-1.49,1.09-.81Z"/>
          <path id="Path_4201" class="st0" d="M335.67,192.03l-3.53.52h-.02s0,0,0,0h0,.01l2.44,2.6-.35-1.31,4.31,1.5.35-1-4.31-1.5,1.09-.81Z"/>
          <path id="Path_4202" class="st0" d="M352.91,198.04l-3.53.52h-.02s0,0,0,0h0,.01l2.44,2.6-.35-1.31,4.31,1.5.35-1-4.31-1.5,1.09-.81Z"/>
          <path id="Path_4203" class="st0" d="M344.29,195.03l-3.53.52h-.02s0,0,0,0h0,.01l2.44,2.6-.35-1.31,4.31,1.5.35-1-4.3-1.5,1.09-.81Z"/>
          <path id="Path_4204" class="st0" d="M311.9,183.72l-3.52.52h-.02s0,0,0,0h0,.01l2.43,2.6-.35-1.31,4.3,1.5.35-1-4.29-1.5,1.09-.81Z"/>
          <path id="Path_4205" class="st0" d="M329.1,189.73l-3.52.52h-.02s0,0,0,0h0,.01l2.43,2.6-.35-1.31,4.3,1.5.35-1-4.3-1.5,1.09-.81Z"/>
          <path id="Path_4206" class="st0" d="M320.5,186.73l-3.52.52h-.02s0,0,0,0h0,.01l2.43,2.6-.35-1.31,4.3,1.5.35-1-4.29-1.5,1.09-.81Z"/>
          <path id="Path_4207" class="st0" d="M288.14,175.39l-3.52.51h-.02s0,0,0,0h0,.01l2.43,2.61-.35-1.31,4.3,1.51.35-1-4.29-1.51,1.09-.8Z"/>
          <path id="Path_4208" class="st0" d="M305.33,181.42l-3.52.51h-.02s0,0,0,0h0,.01l2.43,2.61-.34-1.31,4.3,1.51.35-1-4.29-1.51,1.09-.8Z"/>
          <path id="Path_4209" class="st0" d="M296.74,178.4l-3.52.51h-.02s0,0,0,0h0,.01l2.43,2.61-.35-1.31,4.3,1.51.35-1-4.29-1.51,1.09-.8Z"/>
          <path id="Path_4210" class="st0" d="M264.39,167.04l-3.52.51h-.02s0,0,0,0h0,.01l2.43,2.61-.34-1.32,4.3,1.51.35-1-4.29-1.51,1.09-.8Z"/>
          <path id="Path_4211" class="st0" d="M281.57,173.08l-3.52.51h-.02s0,0,0,0h0,.01l2.42,2.61-.34-1.32,4.3,1.51.35-1-4.29-1.51,1.09-.8Z"/>
          <path id="Path_4212" class="st0" d="M272.98,170.06l-3.52.51h-.02s0,0,0,0h0,.01l2.43,2.61-.35-1.31,4.3,1.51.35-1-4.29-1.51,1.1-.81Z"/>
          <path id="Path_4213" class="st0" d="M240.64,158.68l-3.52.51h-.02s0,0,0,0h0,.01l2.42,2.61-.34-1.32,4.3,1.51.35-1-4.29-1.51,1.09-.81Z"/>
          <path id="Path_4214" class="st0" d="M257.82,164.73l-3.52.51h-.02s0,0,0,0h0,.01l2.42,2.61-.34-1.31,4.29,1.51.35-1-4.29-1.51,1.09-.81Z"/>
          <path id="Path_4215" class="st0" d="M249.23,161.7l-3.52.51h-.02s0,0,0,0h0,.01l2.42,2.61-.34-1.32,4.29,1.51.35-1-4.29-1.51,1.09-.81Z"/>
          <path id="Path_4216" class="st0" d="M226.92,145.24c0-.26-.01-.53-.01-.81.01-.27.04-.55.06-.83l.04-.43.07-.42.16-.87v-.02s0,0,0,0h0s0,0,0,0l-.82.36-.42.19-.4.22c-.27.15-.55.31-.82.47s-.53.36-.8.56c.47-.07.94-.12,1.39-.16-.42.68-.77,1.39-1.04,2.14-.28.76-.45,1.55-.5,2.36l1.06.06c.13-1.43.6-2.8,1.39-4.01.2.41.41.8.63,1.16"/>
          <path id="Path_4217" class="st0" d="M234.07,156.36l-.88.13-.44.06c-.17.01-.23.07-.39.07-.58.06-1.16.08-1.74.07h-.02s0,0,0,0h0,.01c.34.51.7,1,1.09,1.46l.08.09s.06.07.09.09l.06.05.04.04.08.08.3.33.61.65-.34-1.32,4.29,1.51.35-1-4.29-1.51,1.09-.81Z"/>
          <path id="Path_4218" class="st0" d="M227.33,151.96c-1.04-.37-1.98-.97-2.74-1.77v-.02s0,.01,0,.01h0s0,0,0,0c-.25,1.26-.2,2.56.12,3.8.11-.46.26-.91.43-1.35.9,1.31,2.03,2.44,3.34,3.34l.62-.86c-1.2-.82-2.24-1.86-3.06-3.05.44,0,.87-.04,1.3-.1"/>
          <path id="Path_4219" class="st0" d="M245.93,130.3l1.68-3.14h.02s-.01-.01-.01-.01h0-.01s-3.54.41-3.54.41l1.26.5-3.77,2.56.6.88,3.76-2.56v1.36Z"/>
          <path id="Path_4220" class="st0" d="M231,140.43l-.03-.04v-.02s-.02-.01-.01-.03l.1-.2.21-.39.42-.79.84-1.57h.02s0-.01,0-.01h0s-.01,0-.01,0l-1.77.21-.88.1-.44.05-.22.03h-.03l-.05.02-.1.03c-.06.02-.12.05-.18.08.15-.02.3-.01.45.02l.32.13.63.25-.47.32s-.1.07-.15.1l-.13.11-.22.19c-.29.26-.57.52-.85.79-.56.54-1.09,1.1-1.6,1.7l.81.69c.48-.56.99-1.1,1.52-1.62.27-.26.54-.51.82-.76l.21-.19c.05-.05.11-.1.17-.14l.47-.32v1.02c.03.09.08.17.15.24"/>
          <path id="Path_4221" class="st0" d="M238.39,135.41l1.68-3.14h.02s0-.01,0-.01h-.01s-3.54.41-3.54.41l1.26.5-3.77,2.56.6.88,3.76-2.56v1.36Z"/>
          <path id="Path_4222" class="st0" d="M267.44,118.77c.85-.79,1.75-1.53,2.68-2.28h.02-.01,0-.01c-1.13-.33-2.29-.67-3.48-.93.34.3.68.61,1.02.91-.74.18-1.49.35-2.23.58-.37.1-.74.21-1.11.32l-1.1.35.34,1.01,1.07-.35c.36-.11.72-.21,1.08-.31.72-.22,1.45-.38,2.18-.56-.16.43-.31.85-.46,1.27"/>
          <path id="Path_4223" class="st0" d="M251.69,126.38l1.68-3.14h.02s0-.01,0-.01h-.01s-3.54.41-3.54.41l1.26.51-3.77,2.56.6.88,3.76-2.56v1.36Z"/>
          <path id="Path_4224" class="st0" d="M259.19,121.7c.67-.94,1.4-1.85,2.17-2.75h.02s-.01,0-.01,0h0-.01c-1.18-.12-2.38-.22-3.61-.23.4.23.79.45,1.19.69-1.4.64-2.77,1.36-4.08,2.17l.56.9c1.27-.79,2.59-1.49,3.95-2.11-.07.44-.13.89-.19,1.34"/>
          <path id="Path_4225" class="st0" d="M291.73,118.35c.55-.17,1.12-.36,1.68-.51l1.71-.48h.02-.01,0-.01l-1.37-1.14c-.46-.39-.94-.74-1.41-1.12l.55,1.25c-.75-.14-1.5-.29-2.26-.4s-1.51-.23-2.27-.33l-.14,1.05c.75.1,1.49.2,2.23.33.74.11,1.48.25,2.22.4l-.94.96Z"/>
          <path id="Path_4226" class="st0" d="M274.07,117.59c.48-.33.96-.65,1.45-.97s1-.63,1.51-.92h.02-.02c-.54-.25-1.09-.48-1.64-.72s-1.11-.45-1.68-.67c.3.34.6.7.89,1.04-1.53.15-3.04.36-4.55.63l.19,1.04c1.48-.27,2.96-.47,4.46-.62-.21.4-.42.79-.63,1.19"/>
          <path id="Path_4227" class="st0" d="M282.91,117.32l1.59-.74,1.63-.69h.02-.02l-1.51-.96-1.56-.92.71,1.17c-1.53-.1-3.06-.12-4.59-.1l.02,1.06c1.5-.02,3.01,0,4.51.1l-.8,1.08Z"/>
          <path id="Path_4228" class="st0" d="M315.51,125.69l3.52-.52h.02s0,0,0,0h0-.01l-2.43-2.6.35,1.31-4.3-1.5-.35,1,4.3,1.5-1.09.81Z"/>
          <path id="Path_4229" class="st0" d="M298.36,119.89c1.14-.25,2.3-.48,3.47-.69h.02s0,0,0,0h0-.01c-.83-.85-1.69-1.68-2.57-2.5l.43,1.3c-1.47-.42-2.95-.81-4.44-1.15l-.24,1.03c1.47.34,2.93.71,4.37,1.13l-1.03.88Z"/>
          <path id="Path_4230" class="st0" d="M306.92,122.7l3.52-.53h.02s0,0,0,0h0-.01l-2.43-2.6.35,1.31-4.3-1.5-.35,1,4.3,1.5-1.08.82Z"/>
          <path id="Path_4231" class="st0" d="M339.3,134.01l3.52-.52h.02s0,0,0,0h0-.01l-2.43-2.61.35,1.31-4.3-1.5-.35,1,4.3,1.5-1.09.81Z"/>
          <path id="Path_4232" class="st0" d="M322.09,127.99l3.53-.52h.02s0,0,0,0h0-.01l-2.43-2.61.35,1.31-4.3-1.5-.35,1,4.3,1.5-1.09.81Z"/>
          <path id="Path_4233" class="st0" d="M330.69,131l3.52-.52h.02s0,0,0,0h0-.01l-2.43-2.61.35,1.31-4.3-1.5-.35,1,4.3,1.5-1.09.81Z"/>
          <path id="Path_4234" class="st0" d="M363.1,142.35l3.53-.51h.02s0,0,0,0h0-.01l-2.43-2.61.35,1.32-4.31-1.51-.35,1,4.3,1.51-1.09.8Z"/>
          <path id="Path_4235" class="st0" d="M345.88,136.31l3.53-.51h.02s0,0,0,0h0-.01l-2.43-2.61.35,1.31-4.31-1.51-.35,1,4.3,1.51-1.1.81Z"/>
          <path id="Path_4236" class="st0" d="M354.49,139.33l3.53-.51h.02s0,0,0,0h0-.01l-2.43-2.61.35,1.32-4.31-1.51-.35,1,4.3,1.51-1.09.8Z"/>
          <path id="Path_4237" class="st0" d="M386.87,150.69l3.52-.52h.02s0,0,0,0h0-.01l-2.43-2.61.35,1.32-4.3-1.51-.35,1,4.29,1.51-1.09.81Z"/>
          <path id="Path_4238" class="st0" d="M369.68,144.66l3.52-.51h.02s0,0,0,0h0-.01l-2.43-2.61.34,1.31-4.3-1.51-.35,1,4.29,1.51-1.09.8Z"/>
          <path id="Path_4239" class="st0" d="M378.28,147.67l3.52-.52h.02s0,0,0,0h0-.01l-2.43-2.61.35,1.31-4.3-1.51-.35,1,4.29,1.51-1.09.81Z"/>
          <path id="Path_4240" class="st0" d="M410.63,159.02l3.52-.51h.02s0,0,0,0h0-.01l-2.43-2.61.34,1.32-4.3-1.51-.35,1,4.29,1.51-1.09.8Z"/>
          <path id="Path_4241" class="st0" d="M393.44,152.99l3.52-.51h.02s0,0,0,0h0-.01l-2.43-2.61.34,1.31-4.3-1.51-.35,1,4.29,1.51-1.09.8Z"/>
          <path id="Path_4242" class="st0" d="M402.03,156.01l3.52-.51h.02s0,0,0,0h0-.01l-2.43-2.61.35,1.31-4.3-1.51-.35,1,4.29,1.51-1.09.8Z"/>
          <path id="Path_4243" class="st0" d="M434.39,167.37l3.52-.51h.02s0,0,0,0h0-.01l-2.43-2.61.34,1.32-4.3-1.51-.35,1,4.29,1.51-1.09.8Z"/>
          <path id="Path_4244" class="st0" d="M417.2,161.33l3.52-.51h.02s0,0,0,0h0-.01l-2.43-2.61.34,1.31-4.3-1.51-.35,1,4.29,1.51-1.09.8Z"/>
          <path id="Path_4245" class="st0" d="M425.79,164.35l3.52-.51h.02s0,0,0,0h0-.01l-2.43-2.61.35,1.32-4.3-1.51-.35,1,4.29,1.51-1.09.8Z"/>
          <path id="Path_4246" class="st0" d="M458.15,175.71l3.52-.51h.02s0,0,0,0h0-.01l-2.43-2.61.34,1.32-4.3-1.51-.35,1,4.29,1.51-1.09.8Z"/>
          <path id="Path_4247" class="st0" d="M440.96,169.67l3.52-.51h.02s0,0,0,0h0-.01l-2.43-2.61.34,1.31-4.3-1.51-.35,1,4.29,1.51-1.09.81Z"/>
          <path id="Path_4248" class="st0" d="M449.55,172.69l3.52-.51h.02s0,0,0,0h0-.01l-2.43-2.61.34,1.32-4.3-1.51-.35,1,4.29,1.51-1.09.8Z"/>
          <path id="Path_4249" class="st0" d="M483.07,181.61l.76-.52.37-.26c.12-.09.24-.19.36-.28.48-.38.94-.76,1.39-1.14h.02-.01,0-.01c-.58-.16-1.14-.32-1.69-.49-.14-.04-.27-.08-.41-.13l-.41-.15-.8-.31c.28.34.58.68.88,1.01l-1.11.15c-.37.06-.74.06-1.11.1-.74.07-1.49.06-2.23.07l-.02,1.06c.77,0,1.55,0,2.32-.07.39-.03.77-.04,1.16-.1l1.15-.16c-.2.41-.41.81-.63,1.22"/>
          <path id="Path_4250" class="st0" d="M464.71,178.02l3.52-.51h.02s0,0,0,0h0-.01l-2.43-2.61.34,1.31-4.3-1.51-.35,1,4.29,1.51-1.09.81Z"/>
          <path id="Path_4251" class="st0" d="M473.44,181.16l.9-.22.88-.27c.58-.17,1.15-.4,1.7-.61h.02-.02c-.49-.33-.97-.65-1.43-1.03l-.67-.53-.64-.57c.15.42.3.84.47,1.26-1.46-.28-2.88-.71-4.25-1.28l-.41.98c1.43.59,2.93,1.04,4.45,1.34-.33.31-.66.62-1.01.92"/>
          <path id="Path_4252" class="st0" d="M505.69,169.27l1.11-3.38h.01s0,0,0,0h0s-.01,0-.01,0l-3.42,1.01,1.34.28c-.55.53-1.09,1.06-1.64,1.58-.27.26-.54.52-.82.77l-.84.75.7.8.86-.77c.28-.26.56-.52.84-.79.56-.53,1.1-1.05,1.64-1.58l.24,1.34Z"/>
          <path id="Path_4253" class="st0" d="M490.18,179.81c.82-.89,1.59-1.83,2.3-2.81h.02s-.01,0-.01,0h0-.01c-1.16-.02-2.32-.12-3.48-.28.36.26.73.53,1.1.78-1.38.57-2.8,1.03-4.25,1.39l.25,1.03c1.5-.37,2.97-.85,4.4-1.44-.09.45-.21.89-.32,1.34"/>
          <path id="Path_4254" class="st0" d="M498.54,175.32c.58-1.08,1.1-2.16,1.57-3.25h.02s0-.01,0-.01h0s-.01,0-.01,0c-1.17.23-2.32.41-3.47.54.42.17.84.34,1.26.49-1.21.88-2.47,1.7-3.77,2.44l.52.92c1.33-.77,2.62-1.6,3.87-2.5.02.46.02.91.02,1.37"/>
          <path id="Path_4255" class="st0" d="M523.96,152l1.16-3.37h.02s0,0,0,0h0s-.01,0-.01,0l-3.42.95,1.32.3-3.32,3.12.73.77,3.31-3.12.22,1.34Z"/>
          <path id="Path_4256" class="st0" d="M510.72,164.47l1.15-3.36h.01s0,0,0,0h0s-.01,0-.01,0l-3.44.96,1.34.29-3.31,3.12.74.76,3.31-3.12.23,1.34Z"/>
          <path id="Path_4257" class="st0" d="M517.34,158.24l1.16-3.36h.02s0,0,0,0h0s-.01,0-.01,0l-3.43.96,1.33.3-3.31,3.12.73.77,3.31-3.12.23,1.34Z"/>
          <path id="Path_4258" class="st0" d="M542.42,134.89l1.19-3.36h.02s0,0,0,0h0s-.01,0-.01,0l-3.44.92,1.32.31-3.34,3.09.72.78,3.34-3.09.21,1.35Z"/>
          <path id="Path_4259" class="st0" d="M529.05,147.26l1.19-3.35h.02s0,0,0,0h0s-.01,0-.01,0l-3.44.92,1.33.31-3.34,3.09.72.78,3.34-3.09.22,1.35Z"/>
          <path id="Path_4260" class="st0" d="M535.74,141.07l1.19-3.35h.02s0,0,0,0h0s-.01,0-.01,0l-3.44.92,1.32.31-3.34,3.09.72.78,3.34-3.09.21,1.35Z"/>
          <path id="Path_4261" class="st0" d="M560.96,117.86l1.2-3.35h.02s0,0,0,0h0s0,0,0,0l-3.44.91,1.32.32-3.36,3.08.72.78,3.35-3.08.2,1.35Z"/>
          <path id="Path_4262" class="st0" d="M547.54,130.18l1.2-3.35h.01s0,0,0,0h0s-.01,0-.01,0l-3.44.91,1.32.32-3.35,3.08.72.78,3.35-3.08.2,1.35Z"/>
          <path id="Path_4263" class="st0" d="M554.25,124.02l1.2-3.35h.02s0,0,0,0h0s-.01,0-.01,0l-3.44.91,1.32.32-3.35,3.08.72.78,3.35-3.08.2,1.34Z"/>
          <path id="Path_4264" class="st0" d="M571.86,107.9l.11-2.34h0s0,0,0,0h0l-2.34-.1,1.06.56-1.77,1.62.72.78,1.77-1.62.46,1.11Z"/>
          <path id="Path_4265" class="st0" d="M564.77,114.37l.11-2.34h0s0,0,0,0h0l-2.34-.1,1.06.56-1.78,1.62.72.78,1.77-1.62.46,1.1Z"/>
          <path id="Path_4266" class="st0" d="M568.31,111.13l.11-2.34h0s0,0,0,0h0l-2.34-.1,1.06.56-1.77,1.62.72.78,1.77-1.62.46,1.11Z"/>
          <path id="Path_4267" class="st0" d="M427.73,222.1c.5-.34.98-.74,1.45-1.12s.92-.76,1.38-1.14h.02-.01,0-.01c-.58-.16-1.15-.32-1.71-.48-.56-.17-1.1-.31-1.65-.53.3.33.62.68.92.99-.74.13-1.48.22-2.22.34-.37.06-.74.09-1.12.12l-1.12.09.07,1.06,1.15-.09c.38-.03.77-.06,1.15-.12.76-.12,1.52-.21,2.28-.35-.18.43-.38.82-.58,1.23"/>
          <path id="Path_4268" class="st0" d="M408.96,220.83c.61-.09,1.2-.22,1.79-.35s1.17-.28,1.75-.43h.02,0,0-.01c-.45-.39-.9-.76-1.32-1.17s-.84-.8-1.23-1.21c.12.43.24.87.38,1.29-.72-.21-1.43-.43-2.13-.69s-1.41-.53-2.05-.84l-.47.95c.73.35,1.44.62,2.16.88s1.46.49,2.2.71c-.35.29-.71.57-1.07.85"/>
          <path id="Path_4269" class="st0" d="M418.27,222.55c.28-.11.56-.24.84-.37l.82-.39.81-.39c.27-.13.53-.28.79-.42h.02-.02c-.26-.13-.53-.26-.78-.4l-.77-.44-.75-.44c-.25-.15-.49-.29-.73-.46.22.4.44.78.67,1.17-.37,0-.75-.04-1.12-.07l-1.12-.1c-.37-.03-.74-.1-1.11-.14s-.74-.09-1.11-.16l-.17,1.05c.38.07.76.11,1.14.16s.76.11,1.14.15l1.15.1c.38.03.77.07,1.15.08-.28.37-.56.73-.85,1.08"/>
          <path id="Path_4270" class="st0" d="M450.28,209.98l1.3-3.32h.02s0,0,0,0h0s-.01,0-.01,0l-3.47.82,1.31.35-3.44,2.99.7.8,3.44-2.98.17,1.35Z"/>
          <path id="Path_4271" class="st0" d="M434.75,220.32c.85-.88,1.64-1.79,2.38-2.73h.02s-.01,0-.01,0h0-.01c-1.18-.07-2.35-.21-3.48-.39.35.27.72.54,1.08.81-1.4.53-2.83.97-4.29,1.34l.26,1.03c1.49-.37,2.96-.83,4.4-1.37-.11.44-.23.88-.35,1.33"/>
          <path id="Path_4272" class="st0" d="M443.4,215.95l1.3-3.32h.02s0-.01,0-.01h0s-.01,0-.01,0l-3.47.82,1.31.35-.86.75-.21.18s-.1.08-.16.11l-.49.28c-.65.37-1.31.73-1.98,1.07l.48.95c.69-.34,1.36-.71,2.03-1.09l.5-.29.16-.09c.05-.04.1-.08.14-.12l.22-.19.86-.75.17,1.35Z"/>
          <path id="Path_4273" class="st0" d="M469.29,193.48l1.3-3.32h.02s0,0,0,0h0s-.01,0-.01,0l-3.47.82,1.31.35-3.44,2.98.7.8,3.44-2.98.17,1.35Z"/>
          <path id="Path_4274" class="st0" d="M455.53,205.42l1.3-3.32h.02s0,0,0,0h0s-.01,0-.01,0l-3.47.82,1.31.35-3.44,2.98.7.8,3.44-2.98.17,1.35Z"/>
          <path id="Path_4275" class="st0" d="M462.42,199.45l1.3-3.32h.02s0-.01,0-.01h0s-.01,0-.01,0l-3.47.82,1.31.35-3.44,2.98.7.8,3.44-2.98.17,1.35Z"/>
          <path id="Path_4276" class="st0" d="M473.05,190.23l-.89-1.42h0l-1.28-1.08.79.81-.28.24.7.8.28-.24.69.89Z"/>
          <path id="Path_4277" class="st0" d="M471.92,191.2l-.89-1.42h0l-1.28-1.08.78.81-.28.24.7.8.28-.24.69.89Z"/>
          <path id="Path_4278" class="st0" d="M472.48,190.71l-.89-1.42h0l-1.28-1.08.79.81-.28.24.7.8.28-.24.69.89Z"/>
          <path id="Path_4279" class="st0" d="M338.89,56.52l3.52-.54h.02s0,0,0,0h0-.01l-2.44-2.59.35,1.31-4.31-1.48-.34,1,4.3,1.48-1.09.81Z"/>
          <path id="Path_4280" class="st0" d="M321.66,50.6l3.52-.54h.02s0,0,0,0h0-.01l-2.44-2.59.35,1.31-4.31-1.48-.35,1,4.3,1.48-1.09.81Z"/>
          <path id="Path_4281" class="st0" d="M330.28,53.56l3.52-.54h.02s0,0,0,0h0-.01l-2.44-2.59.35,1.31-4.31-1.48-.34,1,4.3,1.48-1.08.82Z"/>
          <path id="Path_4282" class="st0" d="M362.71,64.69l3.52-.54h.02s0,0,0,0h0-.01l-2.44-2.59.35,1.31-4.31-1.48-.34,1,4.3,1.48-1.09.81Z"/>
          <path id="Path_4283" class="st0" d="M345.48,58.78l3.52-.54h.02s0,0,0,0h0-.01l-2.44-2.59.35,1.31-4.31-1.48-.35,1,4.3,1.48-1.09.81Z"/>
          <path id="Path_4284" class="st0" d="M354.09,61.74l3.52-.54h.02s0,0,0,0h0-.01l-2.44-2.59.35,1.31-4.31-1.48-.34,1,4.3,1.48-1.08.82Z"/>
          <path id="Path_4285" class="st0" d="M386.52,72.87l3.52-.54h.02s0,0,0,0h0-.01l-2.44-2.59.35,1.31-4.31-1.48-.34,1,4.3,1.48-1.09.81Z"/>
          <path id="Path_4286" class="st0" d="M369.29,66.96l3.52-.54h.02s0,0,0,0h0-.01l-2.44-2.59.35,1.31-4.31-1.48-.35,1,4.3,1.48-1.09.81Z"/>
          <path id="Path_4287" class="st0" d="M377.9,69.91l3.52-.54h.02s0,0,0,0h0-.01l-2.44-2.59.35,1.31-4.31-1.48-.34,1,4.3,1.48-1.08.82Z"/>
          <path id="Path_4288" class="st0" d="M411.33,78.11l3.18-1.62h.02-.02l-3.12-1.69.74,1.14h-1.13s-1.13-.05-1.13-.05l-2.27-.08-.05,1.06,2.28.08,1.14.04h1.14s-.79,1.13-.79,1.13Z"/>
          <path id="Path_4289" class="st0" d="M392.55,75.21c.19.04.38.07.57.1s.35.02.51.02c.32,0,.65,0,.97-.05.31-.03.61-.07.91-.13.3-.05.59-.1.88-.18h.02,0,0-.01c-.22-.19-.43-.4-.64-.61-.2-.2-.4-.41-.58-.63-.18-.2-.34-.42-.49-.65-.07-.11-.13-.22-.19-.32-.04-.1-.08-.21-.11-.31-.04.2-.06.41-.07.62,0,.22.02.43.04.65-.1-.05-.21-.1-.32-.15l-.29-.17c-.09-.06-.16-.12-.25-.18-.03-.03-.06-.06-.09-.09s-.02-.02-.02-.03h0s0-.01-.02,0h-.03s0,.01,0,.01h0l.05-.03h0s0,.03.01.04l-.32-.32-2.86-.98-.34,1,2.86.98-.32-.32s.04.09.07.13l.05.07s.06.08.09.12l.18.18c.12.09.24.2.36.27l.37.22c.12.07.25.12.37.18-.21.11-.42.22-.64.31-.24.09-.48.16-.72.22"/>
          <path id="Path_4290" class="st0" d="M402.1,77.6c.56-.21,1.12-.45,1.67-.68s1.1-.45,1.64-.7h.02-.02c-.51-.3-1.01-.63-1.5-.95s-.99-.63-1.47-.96c.21.41.42.8.63,1.19-.38-.03-.75-.07-1.12-.12l-1.12-.13c-.37-.04-.74-.1-1.11-.16s-.74-.1-1.11-.18l-.19,1.04c.38.08.76.12,1.14.18s.76.13,1.14.16l1.14.13c.38.05.76.09,1.14.12-.29.35-.58.71-.88,1.05"/>
          <path id="Path_4291" class="st0" d="M436.59,77.57l3.09-1.75h.02-.02l-3.21-1.56.8,1.1-4.55.14.04,1.06,4.55-.14-.72,1.14Z"/>
          <path id="Path_4292" class="st0" d="M418.35,78.11c1.05-.56,2.09-1.16,3.13-1.74h.02-.02c-1.06-.52-2.12-1.03-3.18-1.57l.78,1.12-4.54.04v1.06l4.56-.05-.75,1.14Z"/>
          <path id="Path_4293" class="st0" d="M427.47,77.85l3.1-1.75h.02-.02l-3.2-1.56.79,1.1-4.55.14.02,1.06,4.55-.14-.73,1.14Z"/>
          <path id="Path_4294" class="st0" d="M461.78,76.35l3.05-1.81h.02-.02l-3.25-1.49.82,1.09-4.55.23.06,1.06,4.55-.23-.69,1.16Z"/>
          <path id="Path_4295" class="st0" d="M443.56,77.28l3.08-1.81h.02-.02l-3.22-1.49.81,1.09-4.55.23.04,1.06,4.55-.23-.71,1.16Z"/>
          <path id="Path_4296" class="st0" d="M452.67,76.81l3.06-1.81h0l-3.23-1.49.82,1.09-4.55.23.05,1.06,4.55-.23-.7,1.16Z"/>
          <path id="Path_4297" class="st0" d="M469.39,75.91l.52-1.69h0l-.74-1.61.23,1.11-.92.06.07,1.06.92-.06-.08,1.13Z"/>
          <path id="Path_4298" class="st0" d="M465.71,76.14l.53-1.69h0l-.74-1.61.22,1.12-.92.06.06,1.06.92-.06-.08,1.13Z"/>
          <path id="Path_4299" class="st0" d="M467.55,76.02l.53-1.69h0l-.74-1.61.22,1.11-.92.06.07,1.06.92-.06-.08,1.13Z"/>
          <path id="Path_4300" class="st0" d="M254.54,104.29l-3.52.51h-.02s0,0,0,0h0,.01l2.42,2.61-.34-1.32,4.3,1.51.35-1-4.29-1.51,1.09-.8Z"/>
          <path id="Path_4301" class="st0" d="M271.73,110.34l-3.52.51h-.02s0,0,0,0h0,.01l2.42,2.61-.34-1.31,4.3,1.51.35-1-4.29-1.51,1.09-.81Z"/>
          <path id="Path_4302" class="st0" d="M263.13,107.31l-3.52.51h-.02s0,0,0,0h0,.01l2.42,2.61-.34-1.32,4.3,1.51.35-1-4.29-1.51,1.09-.8Z"/>
          <path id="Path_4303" class="st0" d="M251.18,103.11l-.6,1.54h0l-.5,1.58.36-1.07.08.03.35-1-.08-.03.39-1.05Z"/>
          <path id="Path_4304" class="st0" d="M251.49,103.21l-.6,1.54h0l-.5,1.58.36-1.07.08.03.35-1-.08-.03.39-1.05Z"/>
          <path id="Path_4305" class="st0" d="M251.33,103.16l-.6,1.54h0l-.5,1.58.36-1.07.08.03.35-1-.08-.03.39-1.05Z"/>
          <g id="Group_1314">
            <g id="Group_1314-2">
              <path id="Path_4344" class="st0" d="M20.6,84.3c.92-.62,1.84-1.24,2.75-1.87h.02-.01,0-.01c-1.03-.4-2.05-.79-3.08-1.2l.82.97c-1.4.15-2.81.3-4.21.44l.1.98c1.41-.14,2.81-.28,4.22-.44l-.59,1.12Z"/>
              <path id="Path_4345" class="st0" d="M3.62,85.69c.95-.57,1.9-1.14,2.85-1.71h.02-.01c-1.01-.45-2.01-.9-3.01-1.36l.76,1.01c-1.41.08-2.82.15-4.22.21l.03.99c1.42-.05,2.83-.13,4.24-.21l-.65,1.08Z"/>
              <path id="Path_4346" class="st0" d="M12.12,85.11c.94-.59,1.87-1.19,2.8-1.79h.02,0,0-.01c-1.02-.42-2.04-.85-3.05-1.28l.79.99c-1.41.12-2.81.23-4.22.33l.07.98c1.41-.1,2.82-.21,4.23-.33l-.62,1.1Z"/>
              <path id="Path_4347" class="st0" d="M43.88,80.37l2.49-2.18h.02-.01,0-.01l-3.21-.81.93.85c-1.37.33-2.74.67-4.12.97l.21.96c1.39-.31,2.76-.65,4.13-.98l-.44,1.18Z"/>
              <path id="Path_4348" class="st0" d="M27.07,83.51c.91-.64,1.81-1.29,2.7-1.94h.02-.01,0-.01c-1.04-.36-2.08-.73-3.11-1.11l.84.94c-1.4.19-2.79.38-4.19.55l.12.98c1.4-.17,2.81-.35,4.21-.55l-.56,1.13Z"/>
              <path id="Path_4349" class="st0" d="M35.51,82.18c.88-.68,1.75-1.38,2.6-2.07h.02,0,0-.01c-1.06-.31-2.11-.63-3.16-.96l.88.9c-1.38.26-2.77.5-4.16.72l.16.97c1.4-.23,2.79-.47,4.18-.73l-.51,1.16Z"/>
              <path id="Path_4350" class="st0" d="M66.32,72.78c.67-.88,1.34-1.78,1.99-2.66h.02s-.01,0-.01,0h0-.01c-1.11-.03-2.21-.07-3.3-.12l1.09.65c-1.27.6-2.55,1.2-3.84,1.77l.4.9c1.3-.57,2.58-1.17,3.86-1.78l-.2,1.25Z"/>
              <path id="Path_4351" class="st0" d="M50.2,78.8c.82-.75,1.64-1.51,2.43-2.28h.02s-.01,0-.01,0h0-.01c-1.08-.21-2.16-.44-3.22-.69l.95.83c-1.36.37-2.72.72-4.09,1.05l.24.96c1.37-.34,2.74-.69,4.11-1.06l-.41,1.2Z"/>
              <path id="Path_4352" class="st0" d="M58.42,76.18l1.11-1.26,1.07-1.27h.02s0,0,0,0h0-.01s-1.64-.15-1.64-.15l-1.63-.19,1.03.73c-1.31.51-2.63.99-3.96,1.42l.31.94c1.35-.44,2.69-.92,4.01-1.44l-.29,1.24Z"/>
              <path id="Path_4353" class="st0" d="M87.26,62.13l1.88-2.73h.02s-.01,0-.01,0h0-.01s-3.31,0-3.31,0l1.11.6-3.76,1.96.46.88,3.75-1.96-.14,1.25Z"/>
              <path id="Path_4354" class="st0" d="M72.17,69.92l1.93-2.7h.02s0,0,0,0h0-.01s-3.31-.05-3.31-.05l1.1.62c-1.26.63-2.52,1.26-3.79,1.88l.43.89c1.27-.62,2.54-1.25,3.8-1.89l-.17,1.26Z"/>
              <path id="Path_4355" class="st0" d="M79.74,66.05l1.9-2.72h.02s0,0,0,0h0-.01s-3.31-.01-3.31-.01l1.11.61-3.76,1.94.45.88,3.76-1.94-.15,1.26Z"/>
              <path id="Path_4356" class="st0" d="M98.31,56.33l.49-2h0,0l-1.93-.73.78.78-1.75.92.46.87,1.75-.92.19,1.08Z"/>
              <path id="Path_4357" class="st0" d="M91.33,60l.49-2h0,0l-1.92-.73.78.78-1.75.92.46.87,1.75-.92.19,1.08Z"/>
              <path id="Path_4358" class="st0" d="M94.83,58.16l.49-2h0,0l-1.92-.73.78.78-1.75.92.46.87,1.75-.92.19,1.08Z"/>
            </g>
          </g>
        </g>
      </g>
    </g>
  </g>
</svg>