<svg xmlns="http://www.w3.org/2000/svg" width="81.279" height="81.441" viewBox="0 0 81.279 81.441">
    <defs>
        <clipPath id="uimupt126a">
            <path data-name="Rectángulo 229" style="fill:none" d="M0 0h81.279v81.441H0z"/>
        </clipPath>
    </defs>
    <g data-name="Grupo 766">
        <path data-name="Trazado 1454" d="M455.205 42.306a40.119 40.119 0 1 1-40.119-40.119 40.119 40.119 0 0 1 40.119 40.119" transform="translate(-374.616 -1.61)" style="fill:#565656"/>
        <g data-name="Grupo 754" style="opacity:.65;mix-blend-mode:multiply;isolation:isolate">
            <g data-name="Grupo 753">
                <g data-name="Grupo 752" style="clip-path:url(#uimupt126a)">
                    <path data-name="Trazado 1455" d="M435.883 86.494q0 1.092.1 2.159c17.079 7.465 25.091-8.524 35.809-8.039a24.753 24.753 0 0 1 12.47 3.837 24.23 24.23 0 0 0-48.374 2.044" transform="translate(-419.45 -45.827)" style="fill:#8f8f8f"/>
                    <path data-name="Trazado 1456" d="M435.883 86.494q0 1.092.1 2.159c17.079 7.465 25.091-8.524 35.809-8.039a24.753 24.753 0 0 1 12.47 3.837 24.23 24.23 0 0 0-48.374 2.044z" transform="translate(-419.45 -45.827)" style="stroke:#b8b8b8;stroke-miterlimit:10;fill:none"/>
                    <path data-name="Trazado 1457" d="M436.245 139.781a24.23 24.23 0 0 0 48.364-2.159q0-1.032-.085-2.044a24.752 24.752 0 0 0-12.47-3.837c-10.719-.485-18.729 15.5-35.809 8.039" transform="translate(-419.717 -96.955)" style="fill:gray"/>
                    <path data-name="Trazado 1458" d="M436.245 139.781a24.23 24.23 0 0 0 48.364-2.159q0-1.032-.085-2.044a24.752 24.752 0 0 0-12.47-3.837c-10.719-.484-18.73 15.504-35.809 8.04z" transform="translate(-419.717 -96.955)" style="stroke:#b8b8b8;stroke-miterlimit:10;fill:none"/>
                    <path data-name="Trazado 1459" d="m387.55 160.074-6.524-2.276-6.3 2.895v-.031l-.093-.929 6.353-2.918 6.443 2.249a.046.046 0 0 0 0 .01z" transform="translate(-374.365 -115.418)" style="fill:#8f8f8f"/>
                    <path data-name="Trazado 1460" d="m387.55 160.074-6.524-2.276-6.3 2.895v-.031l-.093-.929 6.353-2.918 6.443 2.249a.046.046 0 0 0 0 .01z" transform="translate(-374.365 -115.418)" style="stroke:#b8b8b8;stroke-miterlimit:10;fill:none"/>
                    <path data-name="Trazado 1461" d="m645.105 162.34-6.824 2.157-5.953-2.951q-.034.49-.085.976l5.963 2.956 6.821-2.156z" transform="translate(-563.973 -118.899)" style="fill:#8f8f8f"/>
                    <path data-name="Trazado 1462" d="m645.105 162.34-6.824 2.157-5.953-2.951q-.034.49-.085.976l5.963 2.956 6.821-2.156z" transform="translate(-563.973 -118.899)" style="stroke:#b8b8b8;stroke-miterlimit:10;fill:none"/>
                    <path data-name="Trazado 1463" d="M423.414 184.831a28.711 28.711 0 0 0 54.649 0c.079-.228.17-.55.266-.912h-.939a27.8 27.8 0 0 1-53.3 0h-.941c.1.362.189.686.267.912" transform="translate(-410.077 -135.366)" style="fill:#8f8f8f"/>
                    <path data-name="Trazado 1464" d="M423.414 184.831a28.711 28.711 0 0 0 54.649 0c.079-.228.17-.55.266-.912h-.939a27.8 27.8 0 0 1-53.3 0h-.941c.095.362.187.681.265.912z" transform="translate(-410.077 -135.366)" style="stroke:#b8b8b8;stroke-miterlimit:10;fill:none"/>
                    <path data-name="Trazado 1465" d="M455.442 183.918c-.082.418-.158.756-.2.912a39.4 39.4 0 0 1-4.66 11.614 39.745 39.745 0 0 1-68.185 0 39.4 39.4 0 0 1-4.66-11.614c-.086-.326-.14-.574-.2-.912h-.92a40.651 40.651 0 0 0 79.754 0z" transform="translate(-375.826 -135.365)" style="fill:#8f8f8f"/>
                    <path data-name="Trazado 1466" d="M455.442 183.918c-.082.418-.158.756-.2.912a39.4 39.4 0 0 1-4.66 11.614 39.745 39.745 0 0 1-68.185 0 39.4 39.4 0 0 1-4.66-11.614c-.086-.326-.14-.574-.2-.912h-.92a40.651 40.651 0 0 0 79.754 0z" transform="translate(-375.826 -135.365)" style="stroke:#b8b8b8;stroke-miterlimit:10;fill:none"/>
                    <path data-name="Trazado 1467" d="m454.087 32.328.042-.053a40.676 40.676 0 0 0-80.156 3.645l.039-.011a41.034 41.034 0 0 0-.28 4.22l6.42-2.608 6.435 2.8a27.7 27.7 0 0 1 8.26-19.359l.02-.02c.106-.1.215-.208.323-.311.086-.082.172-.164.259-.244l.089-.082a27.79 27.79 0 0 1 46.426 17.569l7.288 4.3 5.5-5.648a40.315 40.315 0 0 0-.663-4.2" transform="translate(-373.706 -.068)" style="fill:gray"/>
                    <path data-name="Trazado 1468" d="m454.087 32.328.042-.053a40.676 40.676 0 0 0-80.156 3.645l.039-.011a41.034 41.034 0 0 0-.28 4.22l6.42-2.608 6.435 2.8a27.7 27.7 0 0 1 8.26-19.359l.02-.02c.106-.1.215-.208.323-.311.086-.082.172-.164.259-.244l.089-.082a27.79 27.79 0 0 1 46.426 17.569l7.288 4.3 5.5-5.648a40.315 40.315 0 0 0-.665-4.198z" transform="translate(-373.706 -.068)" style="stroke-width:.187px;stroke:#b8b8b8;stroke-miterlimit:10;fill:none"/>
                    <path data-name="Trazado 1469" d="m406.3 89.4-1.008 1.965.716.828-.687 1.341-3.6-4.434.664-1.295 5.7.324-.7 1.368zm-1.167-.112-1.794-.165 1.181 1.36z" transform="translate(-394.308 -64.625)" style="fill:#fff"/>
                    <path data-name="Trazado 1470" d="m406.3 89.4-1.008 1.965.716.828-.687 1.341-3.6-4.434.664-1.295 5.7.324-.7 1.368zm-1.167-.112-1.794-.165 1.181 1.36z" transform="translate(-394.308 -64.625)" style="stroke:#b8b8b8;stroke-miterlimit:10;fill:none"/>
                    <path data-name="Trazado 1471" d="m414.219 60.876 4.128 3.2-.905 1.167-1.61-1.243-1.232 1.588 1.61 1.248L415.3 68l-4.128-3.2.905-1.168 1.551 1.2 1.235-1.592-1.551-1.2z" transform="translate(-401.265 -44.806)" style="fill:#fff"/>
                    <path data-name="Trazado 1472" d="m414.219 60.876 4.128 3.2-.905 1.167-1.61-1.243-1.232 1.588 1.61 1.248L415.3 68l-4.128-3.2.905-1.168 1.551 1.2 1.235-1.592-1.551-1.2z" transform="translate(-401.265 -44.806)" style="stroke:#b8b8b8;stroke-miterlimit:10;fill:none"/>
                    <path data-name="Trazado 1473" d="M434.363 51.026a2.67 2.67 0 0 1-3.119-3.556 3.334 3.334 0 0 1 2.238-1.963 2.67 2.67 0 0 1 3.119 3.556 3.334 3.334 0 0 1-2.238 1.963m.959-2.25a1.341 1.341 0 0 0 .035-.73 1.723 1.723 0 0 0-1.028-1.172 1.347 1.347 0 0 0-.728-.061 1.468 1.468 0 0 0-1.077.945 1.338 1.338 0 0 0-.035.73 1.723 1.723 0 0 0 1.028 1.173 1.339 1.339 0 0 0 .728.061 1.467 1.467 0 0 0 1.077-.945" transform="translate(-415.904 -33.438)" style="fill:#fff"/>
                    <path data-name="Trazado 1474" d="M434.363 51.026a2.67 2.67 0 0 1-3.119-3.556 3.334 3.334 0 0 1 2.238-1.963 2.67 2.67 0 0 1 3.119 3.556 3.334 3.334 0 0 1-2.238 1.963zm.959-2.25a1.341 1.341 0 0 0 .035-.73 1.723 1.723 0 0 0-1.028-1.172 1.347 1.347 0 0 0-.728-.061 1.468 1.468 0 0 0-1.077.945 1.338 1.338 0 0 0-.035.73 1.723 1.723 0 0 0 1.028 1.173 1.339 1.339 0 0 0 .728.061 1.467 1.467 0 0 0 1.077-.945z" transform="translate(-415.904 -33.438)" style="stroke:#b8b8b8;stroke-miterlimit:10;fill:none"/>
                    <path data-name="Trazado 1475" d="m452.954 35.365-.693.411.708 1.194-1.27.754-2.665-4.492 2.054-1.218a2.976 2.976 0 0 1 1.179-.426 1.9 1.9 0 0 1 2.079 1.89 1.789 1.789 0 0 1-.314.954l1.806.837-1.36.807zm-.656-2.482a1.017 1.017 0 0 0-.693.177l-.706.419.781 1.315.706-.419a1.035 1.035 0 0 0 .49-.52.7.7 0 0 0-.089-.6.712.712 0 0 0-.488-.37" transform="translate(-429.13 -23.238)" style="fill:#fff"/>
                    <path data-name="Trazado 1476" d="m452.954 35.365-.693.411.708 1.194-1.27.754-2.665-4.492 2.054-1.218a2.976 2.976 0 0 1 1.179-.426 1.9 1.9 0 0 1 2.079 1.89 1.789 1.789 0 0 1-.314.954l1.806.837-1.36.807zm-.656-2.482a1.017 1.017 0 0 0-.693.177l-.706.419.781 1.315.706-.419a1.035 1.035 0 0 0 .49-.52.7.7 0 0 0-.089-.6.712.712 0 0 0-.487-.372z" transform="translate(-429.13 -23.238)" style="stroke:#b8b8b8;stroke-miterlimit:10;fill:none"/>
                    <path data-name="Trazado 1477" d="m473.8 25.806-.754.285.49 1.3-1.382.521-1.844-4.887 2.234-.842a2.973 2.973 0 0 1 1.235-.215 1.9 1.9 0 0 1 1.72 2.222 1.791 1.791 0 0 1-.475.885l1.634 1.138-1.48.558zm-.216-2.558a1.024 1.024 0 0 0-.713.054l-.768.29.54 1.431.768-.29a1.031 1.031 0 0 0 .573-.427.7.7 0 0 0 .016-.606.712.712 0 0 0-.417-.449" transform="translate(-444.787 -16.164)" style="fill:#fff"/>
                    <path data-name="Trazado 1478" d="m473.8 25.806-.754.285.49 1.3-1.382.521-1.844-4.887 2.234-.842a2.973 2.973 0 0 1 1.235-.215 1.9 1.9 0 0 1 1.72 2.222 1.791 1.791 0 0 1-.475.885l1.634 1.138-1.48.558zm-.216-2.558a1.024 1.024 0 0 0-.713.054l-.768.29.54 1.431.768-.29a1.031 1.031 0 0 0 .573-.427.7.7 0 0 0 .016-.606.712.712 0 0 0-.419-.452z" transform="translate(-444.787 -16.164)" style="stroke:#b8b8b8;stroke-miterlimit:10;fill:none"/>
                    <path data-name="Trazado 1479" d="m498.445 19.886-2.172.4-.221 1.072-1.483.271 1.328-5.552 1.431-.262 3.215 4.721-1.512.277zm-.622-.994-.961-1.523-.36 1.765z" transform="translate(-462.644 -11.638)" style="fill:#fff"/>
                    <path data-name="Trazado 1480" d="m498.445 19.886-2.172.4-.221 1.072-1.483.271 1.328-5.552 1.431-.262 3.215 4.721-1.512.277zm-.622-.994-.961-1.523-.36 1.765z" transform="translate(-462.644 -11.638)" style="stroke:#b8b8b8;stroke-miterlimit:10;fill:none"/>
                    <path data-name="Trazado 1481" d="M528.872 19.016a2.671 2.671 0 0 1 .394-4.714 3.334 3.334 0 0 1 2.967.248 2.67 2.67 0 0 1-.394 4.714 3.335 3.335 0 0 1-2.967-.248m2.285-.872a1.338 1.338 0 0 0 .549-.482 1.723 1.723 0 0 0 .13-1.554 1.347 1.347 0 0 0-.462-.567 1.47 1.47 0 0 0-1.428-.119 1.339 1.339 0 0 0-.549.482 1.723 1.723 0 0 0-.13 1.554 1.341 1.341 0 0 0 .462.566 1.469 1.469 0 0 0 1.428.119" transform="translate(-486.991 -10.351)" style="fill:#fff"/>
                    <path data-name="Trazado 1482" d="M528.872 19.016a2.671 2.671 0 0 1 .394-4.714 3.334 3.334 0 0 1 2.967.248 2.67 2.67 0 0 1-.394 4.714 3.335 3.335 0 0 1-2.967-.248zm2.285-.872a1.338 1.338 0 0 0 .549-.482 1.723 1.723 0 0 0 .13-1.554 1.347 1.347 0 0 0-.462-.567 1.47 1.47 0 0 0-1.428-.119 1.339 1.339 0 0 0-.549.482 1.723 1.723 0 0 0-.13 1.554 1.341 1.341 0 0 0 .462.566 1.469 1.469 0 0 0 1.428.119z" transform="translate(-486.991 -10.351)" style="stroke:#b8b8b8;stroke-miterlimit:10;fill:none"/>
                    <path data-name="Trazado 1483" d="m566.886 21.082-1.806 4.9-1.141-.421-1.2-3.409-.962 2.611-1.358-.5 1.806-4.9 1.141.421 1.2 3.409.962-2.611z" transform="translate(-511.108 -14.252)" style="fill:#fff"/>
                    <path data-name="Trazado 1484" d="m566.886 21.082-1.806 4.9-1.141-.421-1.2-3.409-.962 2.611-1.358-.5 1.806-4.9 1.141.421 1.2 3.409.962-2.611z" transform="translate(-511.108 -14.252)" style="stroke:#b8b8b8;stroke-miterlimit:10;fill:none"/>
                    <path data-name="Trazado 1485" d="M584.347 33.424a2.407 2.407 0 0 1 .371-1.874l1.488-2.483 1.267.759-1.465 2.445q-.644 1.075.207 1.585t1.489-.569l1.465-2.445 1.248.748-1.488 2.483a2.407 2.407 0 0 1-1.477 1.211 2.9 2.9 0 0 1-3.1-1.86" transform="translate(-528.675 -21.393)" style="fill:#fff"/>
                    <path data-name="Trazado 1486" d="M584.347 33.424a2.407 2.407 0 0 1 .371-1.874l1.488-2.483 1.267.759-1.465 2.445q-.644 1.075.207 1.585t1.489-.569l1.465-2.445 1.248.748-1.488 2.483a2.407 2.407 0 0 1-1.477 1.211 2.9 2.9 0 0 1-3.1-1.86z" transform="translate(-528.675 -21.393)" style="stroke:#b8b8b8;stroke-miterlimit:10;fill:none"/>
                    <path data-name="Trazado 1487" d="m607.53 46.274-3.464 3.909-.91-.807.121-3.612-1.846 2.083-1.083-.96 3.464-3.908.91.807-.122 3.614 1.846-2.083z" transform="translate(-540.497 -31.632)" style="fill:#fff"/>
                    <path data-name="Trazado 1488" d="m607.53 46.274-3.464 3.909-.91-.807.121-3.612-1.846 2.083-1.083-.96 3.464-3.908.91.807-.122 3.614 1.846-2.083z" transform="translate(-540.497 -31.632)" style="stroke:#b8b8b8;stroke-miterlimit:10;fill:none"/>
                    <path data-name="Trazado 1489" d="M620.293 67.165a2.594 2.594 0 0 1 .126-1.4 2.823 2.823 0 0 1 2.206-1.733 2.59 2.59 0 0 1 1.394.21 3.09 3.09 0 0 1 1.183.944 3.164 3.164 0 0 1 .6 1.172 2.483 2.483 0 0 1 .015 1.2l-1.25-.214a1.546 1.546 0 0 0-.28-1.346 1.521 1.521 0 0 0-.615-.48 1.293 1.293 0 0 0-.732-.08 1.754 1.754 0 0 0-1.226.963 1.292 1.292 0 0 0-.1.73 1.517 1.517 0 0 0 .321.711 1.546 1.546 0 0 0 1.242.59l-.088 1.265a2.481 2.481 0 0 1-1.165-.3 3.162 3.162 0 0 1-1-.858 3.093 3.093 0 0 1-.638-1.373" transform="translate(-555.145 -47.11)" style="fill:#fff"/>
                    <path data-name="Trazado 1490" d="M620.293 67.165a2.594 2.594 0 0 1 .126-1.4 2.823 2.823 0 0 1 2.206-1.733 2.59 2.59 0 0 1 1.394.21 3.09 3.09 0 0 1 1.183.944 3.164 3.164 0 0 1 .6 1.172 2.483 2.483 0 0 1 .015 1.2l-1.25-.214a1.546 1.546 0 0 0-.28-1.346 1.521 1.521 0 0 0-.615-.48 1.293 1.293 0 0 0-.732-.08 1.754 1.754 0 0 0-1.226.963 1.292 1.292 0 0 0-.1.73 1.517 1.517 0 0 0 .321.711 1.546 1.546 0 0 0 1.242.59l-.088 1.265a2.481 2.481 0 0 1-1.165-.3 3.162 3.162 0 0 1-1-.858 3.093 3.093 0 0 1-.631-1.374z" transform="translate(-555.145 -47.11)" style="stroke:#b8b8b8;stroke-miterlimit:10;fill:none"/>
                    <path data-name="Trazado 1491" d="m631.246 89.346-1.04-1.949-1.089.116-.71-1.33 5.693-.425.685 1.284-3.518 4.5-.724-1.356zm.757-.895 1.158-1.379-1.791.194z" transform="translate(-561.151 -63.119)" style="fill:#fff"/>
                    <path data-name="Trazado 1492" d="m631.246 89.346-1.04-1.949-1.089.116-.71-1.33 5.693-.425.685 1.284-3.518 4.5-.724-1.356zm.757-.895 1.158-1.379-1.791.194z" transform="translate(-561.151 -63.119)" style="stroke:#b8b8b8;stroke-miterlimit:10;fill:none"/>
                    <path data-name="Trazado 1493" d="m430.9 241.323.2.211-.795.77a1.412 1.412 0 0 1-.531-.155 1.789 1.789 0 0 1-.475-.353 1.606 1.606 0 0 1-.409-.7 1.408 1.408 0 0 1 0-.761 1.538 1.538 0 0 1 1.086-1.053 1.407 1.407 0 0 1 .76.025 1.614 1.614 0 0 1 .685.433 1.7 1.7 0 0 1 .348.511 1.212 1.212 0 0 1 .1.554h-.269a1.191 1.191 0 0 0-.365-.864 1.3 1.3 0 0 0-.555-.349 1.14 1.14 0 0 0-.62-.02 1.249 1.249 0 0 0-.883.856 1.166 1.166 0 0 0 0 .619 1.379 1.379 0 0 0 1.023.953z" transform="translate(-414.267 -176.087)" style="fill:#8f8f8f"/>
                    <path data-name="Trazado 1494" d="m430.9 241.323.2.211-.795.77a1.412 1.412 0 0 1-.531-.155 1.789 1.789 0 0 1-.475-.353 1.606 1.606 0 0 1-.409-.7 1.408 1.408 0 0 1 0-.761 1.538 1.538 0 0 1 1.086-1.053 1.407 1.407 0 0 1 .76.025 1.614 1.614 0 0 1 .685.433 1.7 1.7 0 0 1 .348.511 1.212 1.212 0 0 1 .1.554h-.269a1.191 1.191 0 0 0-.365-.864 1.3 1.3 0 0 0-.555-.349 1.14 1.14 0 0 0-.62-.02 1.249 1.249 0 0 0-.883.856 1.166 1.166 0 0 0 0 .619 1.379 1.379 0 0 0 1.023.953z" transform="translate(-414.267 -176.087)" style="stroke:#b8b8b8;stroke-miterlimit:10;fill:none"/>
                    <path data-name="Trazado 1495" d="M439.579 251.393 438.2 250.2a.779.779 0 0 0-.161.587.866.866 0 0 0 .315.548.941.941 0 0 0 .33.189.818.818 0 0 0 .362.03v.253a.931.931 0 0 1-.448-.036 1.221 1.221 0 0 1-.422-.243 1.207 1.207 0 0 1-.357-.5 1.031 1.031 0 0 1-.048-.564 1.128 1.128 0 0 1 .264-.528 1.168 1.168 0 0 1 .479-.343 1 1 0 0 1 .546-.049 1.066 1.066 0 0 1 .505.249 1.053 1.053 0 0 1 .319.461 1 1 0 0 1 .03.543 1.182 1.182 0 0 1-.271.524zm-.712-1.6a.79.79 0 0 0-.526.239l1.171 1.009a.79.79 0 0 0 .159-.555.8.8 0 0 0-.8-.693" transform="translate(-420.826 -183.658)" style="fill:#8f8f8f"/>
                    <path data-name="Trazado 1496" d="M439.579 251.393 438.2 250.2a.779.779 0 0 0-.161.587.866.866 0 0 0 .315.548.941.941 0 0 0 .33.189.818.818 0 0 0 .362.03v.253a.931.931 0 0 1-.448-.036 1.221 1.221 0 0 1-.422-.243 1.207 1.207 0 0 1-.357-.5 1.031 1.031 0 0 1-.048-.564 1.128 1.128 0 0 1 .264-.528 1.168 1.168 0 0 1 .479-.343 1 1 0 0 1 .546-.049 1.066 1.066 0 0 1 .505.249 1.053 1.053 0 0 1 .319.461 1 1 0 0 1 .03.543 1.182 1.182 0 0 1-.271.524zm-.712-1.6a.79.79 0 0 0-.526.239l1.171 1.009a.79.79 0 0 0 .159-.555.8.8 0 0 0-.8-.693z" transform="translate(-420.826 -183.658)" style="stroke:#b8b8b8;stroke-miterlimit:10;fill:none"/>
                    <path data-name="Trazado 1497" d="M444.916 257.153a1.09 1.09 0 0 1-.19-.381l.245-.107a1.122 1.122 0 0 0 .172.347 1.373 1.373 0 0 0 .305.312.822.822 0 0 0 .41.188.3.3 0 0 0 .272-.126.236.236 0 0 0 .049-.2.524.524 0 0 0-.1-.2 2.855 2.855 0 0 0-.216-.245 3.639 3.639 0 0 1-.282-.336.626.626 0 0 1-.116-.306.491.491 0 0 1 .113-.344.54.54 0 0 1 .45-.224 1.023 1.023 0 0 1 .613.238 1.644 1.644 0 0 1 .306.3 1.166 1.166 0 0 1 .192.326l-.244.113a1.1 1.1 0 0 0-.4-.533.747.747 0 0 0-.4-.173.305.305 0 0 0-.27.125.259.259 0 0 0-.054.208.5.5 0 0 0 .1.208 3.26 3.26 0 0 0 .223.256 3.774 3.774 0 0 1 .277.329.614.614 0 0 1 .115.3.467.467 0 0 1-.108.333.527.527 0 0 1-.462.223 1.135 1.135 0 0 1-.631-.259 1.678 1.678 0 0 1-.362-.364" transform="translate(-425.959 -188.072)" style="fill:#8f8f8f"/>
                    <path data-name="Trazado 1498" d="M444.916 257.153a1.09 1.09 0 0 1-.19-.381l.245-.107a1.122 1.122 0 0 0 .172.347 1.373 1.373 0 0 0 .305.312.822.822 0 0 0 .41.188.3.3 0 0 0 .272-.126.236.236 0 0 0 .049-.2.524.524 0 0 0-.1-.2 2.855 2.855 0 0 0-.216-.245 3.639 3.639 0 0 1-.282-.336.626.626 0 0 1-.116-.306.491.491 0 0 1 .113-.344.54.54 0 0 1 .45-.224 1.023 1.023 0 0 1 .613.238 1.644 1.644 0 0 1 .306.3 1.166 1.166 0 0 1 .192.326l-.244.113a1.1 1.1 0 0 0-.4-.533.747.747 0 0 0-.4-.173.305.305 0 0 0-.27.125.259.259 0 0 0-.054.208.5.5 0 0 0 .1.208 3.26 3.26 0 0 0 .223.256 3.774 3.774 0 0 1 .277.329.614.614 0 0 1 .115.3.467.467 0 0 1-.108.333.527.527 0 0 1-.462.223 1.135 1.135 0 0 1-.631-.259 1.678 1.678 0 0 1-.369-.372z" transform="translate(-425.959 -188.072)" style="stroke:#b8b8b8;stroke-miterlimit:10;fill:none"/>
                    <path data-name="Trazado 1499" d="M454.1 261.274a.556.556 0 0 1-.234-.017.831.831 0 0 1-.235-.106.64.64 0 0 1-.305-.4.633.633 0 0 1 .117-.483l.719-1.1-.327-.213.136-.208.327.213.26-.4.246.161-.26.4.556.362-.136.208-.556-.362-.71 1.091a.411.411 0 0 0-.08.3.37.37 0 0 0 .179.238.541.541 0 0 0 .164.072.432.432 0 0 0 .168.011z" transform="translate(-432.281 -190.302)" style="fill:#8f8f8f"/>
                    <path data-name="Trazado 1500" d="M454.1 261.274a.556.556 0 0 1-.234-.017.831.831 0 0 1-.235-.106.64.64 0 0 1-.305-.4.633.633 0 0 1 .117-.483l.719-1.1-.327-.213.136-.208.327.213.26-.4.246.161-.26.4.556.362-.136.208-.556-.362-.71 1.091a.411.411 0 0 0-.08.3.37.37 0 0 0 .179.238.541.541 0 0 0 .164.072.432.432 0 0 0 .168.011z" transform="translate(-432.281 -190.302)" style="stroke:#b8b8b8;stroke-miterlimit:10;fill:none"/>
                    <path data-name="Trazado 1501" d="m459.9 261.758.254.149-1.1 1.882-.254-.149zm.268-.467a.2.2 0 0 1 .022-.16.2.2 0 0 1 .127-.094.209.209 0 0 1 .164.024.212.212 0 0 1 .1.129.192.192 0 0 1-.018.155.217.217 0 0 1-.4-.054" transform="translate(-436.314 -192.12)" style="fill:#8f8f8f"/>
                    <path data-name="Trazado 1502" d="m459.9 261.758.254.149-1.1 1.882-.254-.149zm.268-.467a.2.2 0 0 1 .022-.16.2.2 0 0 1 .127-.094.209.209 0 0 1 .164.024.212.212 0 0 1 .1.129.192.192 0 0 1-.018.155.217.217 0 0 1-.4-.054z" transform="translate(-436.314 -192.12)" style="stroke:#b8b8b8;stroke-miterlimit:10;fill:none"/>
                    <path data-name="Trazado 1503" d="M464.377 267.634a1.045 1.045 0 0 1-.177-.533 1.2 1.2 0 0 1 .516-1.021 1.029 1.029 0 0 1 .533-.172 1.216 1.216 0 0 1 1.014.512 1.015 1.015 0 0 1 .176.53 1.215 1.215 0 0 1-.516 1.021 1.03 1.03 0 0 1-.532.175 1.2 1.2 0 0 1-1.014-.512m.98.244a.736.736 0 0 0 .393-.138 1 1 0 0 0 .4-.792.736.736 0 0 0-.122-.4.875.875 0 0 0-.743-.376.752.752 0 0 0-.395.138.983.983 0 0 0-.4.792.751.751 0 0 0 .123.4.874.874 0 0 0 .744.376m1.1-2.454.351.178-.831.156-.259-.131z" transform="translate(-440.291 -195.354)" style="fill:#8f8f8f"/>
                    <path data-name="Trazado 1504" d="M464.377 267.634a1.045 1.045 0 0 1-.177-.533 1.2 1.2 0 0 1 .516-1.021 1.029 1.029 0 0 1 .533-.172 1.216 1.216 0 0 1 1.014.512 1.015 1.015 0 0 1 .176.53 1.215 1.215 0 0 1-.516 1.021 1.03 1.03 0 0 1-.532.175 1.2 1.2 0 0 1-1.014-.512zm.98.244a.736.736 0 0 0 .393-.138 1 1 0 0 0 .4-.792.736.736 0 0 0-.122-.4.875.875 0 0 0-.743-.376.752.752 0 0 0-.395.138.983.983 0 0 0-.4.792.751.751 0 0 0 .123.4.874.874 0 0 0 .744.376zm1.1-2.454.351.178-.831.156-.259-.131z" transform="translate(-440.291 -195.354)" style="stroke:#b8b8b8;stroke-miterlimit:10;fill:none"/>
                    <path data-name="Trazado 1505" d="M476.063 271.77a.932.932 0 0 1-.034.735l-.471 1.173-.273-.109.46-1.147a.723.723 0 0 0 .035-.544.638.638 0 0 0-.384-.346.746.746 0 0 0-.6-.014.792.792 0 0 0-.406.46l-.426 1.062-.273-.11.812-2.023.262.1-.15.373a.821.821 0 0 1 .425-.162 1.068 1.068 0 0 1 .5.083.891.891 0 0 1 .517.464" transform="translate(-447.282 -199.391)" style="fill:#8f8f8f"/>
                    <path data-name="Trazado 1506" d="M476.063 271.77a.932.932 0 0 1-.034.735l-.471 1.173-.273-.109.46-1.147a.723.723 0 0 0 .035-.544.638.638 0 0 0-.384-.346.746.746 0 0 0-.6-.014.792.792 0 0 0-.406.46l-.426 1.062-.273-.11.812-2.023.262.1-.15.373a.821.821 0 0 1 .425-.162 1.068 1.068 0 0 1 .5.083.891.891 0 0 1 .523.469z" transform="translate(-447.282 -199.391)" style="stroke:#b8b8b8;stroke-miterlimit:10;fill:none"/>
                    <path data-name="Rectángulo 223" transform="rotate(-74.21 65.024 17.22)" style="fill:#8f8f8f" d="M0 0h2.901v.307H0z"/>
                    <path data-name="Rectángulo 224" transform="rotate(-74.21 65.024 17.22)" style="stroke:#b8b8b8;stroke-miterlimit:10;fill:none" d="M0 0h2.901v.307H0z"/>
                    <path data-name="Trazado 1507" d="M497.873 278.457a.931.931 0 0 1 .093.729l-.262 1.237-.288-.061.256-1.209a.722.722 0 0 0-.059-.542.637.637 0 0 0-.437-.275.745.745 0 0 0-.589.089.791.791 0 0 0-.321.524l-.237 1.119-.288-.061.452-2.133.276.059-.083.393a.821.821 0 0 1 .39-.233 1.069 1.069 0 0 1 .507 0 .891.891 0 0 1 .589.369" transform="translate(-463.507 -204.518)" style="fill:#8f8f8f"/>
                    <path data-name="Trazado 1508" d="M497.873 278.457a.931.931 0 0 1 .093.729l-.262 1.237-.288-.061.256-1.209a.722.722 0 0 0-.059-.542.637.637 0 0 0-.437-.275.745.745 0 0 0-.589.089.791.791 0 0 0-.321.524l-.237 1.119-.288-.061.452-2.133.276.059-.083.393a.821.821 0 0 1 .39-.233 1.069 1.069 0 0 1 .507 0 .891.891 0 0 1 .59.364z" transform="translate(-463.507 -204.518)" style="stroke:#b8b8b8;stroke-miterlimit:10;fill:none"/>
                    <path data-name="Trazado 1509" d="M508.456 280.9a.56.56 0 0 1-.219.085.827.827 0 0 1-.258 0 .577.577 0 0 1-.547-.715l.179-1.306-.386-.053.034-.247.386.053.065-.472.292.04-.065.472.657.09-.034.246-.657-.09-.176 1.29a.411.411 0 0 0 .056.307.37.37 0 0 0 .263.138.532.532 0 0 0 .178 0 .436.436 0 0 0 .157-.062z" transform="translate(-471.959 -204.798)" style="fill:#8f8f8f"/>
                    <path data-name="Trazado 1510" d="M508.456 280.9a.56.56 0 0 1-.219.085.827.827 0 0 1-.258 0 .577.577 0 0 1-.547-.715l.179-1.306-.386-.053.034-.247.386.053.065-.472.292.04-.065.472.657.09-.034.246-.657-.09-.176 1.29a.411.411 0 0 0 .056.307.37.37 0 0 0 .263.138.532.532 0 0 0 .178 0 .436.436 0 0 0 .157-.062z" transform="translate(-471.959 -204.798)" style="stroke:#b8b8b8;stroke-miterlimit:10;fill:none"/>
                    <path data-name="Trazado 1511" d="m516.368 282.3-1.819-.128a.781.781 0 0 0 .222.566.868.868 0 0 0 .581.251.939.939 0 0 0 .377-.046.813.813 0 0 0 .309-.192l.152.2a.935.935 0 0 1-.38.239 1.23 1.23 0 0 1-.484.057 1.212 1.212 0 0 1-.583-.185 1.031 1.031 0 0 1-.375-.423 1.126 1.126 0 0 1-.1-.581 1.17 1.17 0 0 1 .179-.561 1 1 0 0 1 .408-.366 1.066 1.066 0 0 1 .554-.1 1.054 1.054 0 0 1 .532.179 1 1 0 0 1 .349.417 1.179 1.179 0 0 1 .1.582zm-1.525-.853a.789.789 0 0 0-.279.506l1.542.109a.791.791 0 0 0-.2-.54.8.8 0 0 0-1.059-.075" transform="translate(-477.135 -206.838)" style="fill:#8f8f8f"/>
                    <path data-name="Trazado 1512" d="m516.368 282.3-1.819-.128a.781.781 0 0 0 .222.566.868.868 0 0 0 .581.251.939.939 0 0 0 .377-.046.813.813 0 0 0 .309-.192l.152.2a.935.935 0 0 1-.38.239 1.23 1.23 0 0 1-.484.057 1.212 1.212 0 0 1-.583-.185 1.031 1.031 0 0 1-.375-.423 1.126 1.126 0 0 1-.1-.581 1.17 1.17 0 0 1 .179-.561 1 1 0 0 1 .408-.366 1.066 1.066 0 0 1 .554-.1 1.054 1.054 0 0 1 .532.179 1 1 0 0 1 .349.417 1.179 1.179 0 0 1 .1.582zm-1.525-.853a.789.789 0 0 0-.279.506l1.542.109a.791.791 0 0 0-.2-.54.8.8 0 0 0-1.059-.075z" transform="translate(-477.135 -206.838)" style="stroke:#b8b8b8;stroke-miterlimit:10;fill:none"/>
                    <path data-name="Trazado 1513" d="m527.029 281.347.031 1.915a1.111 1.111 0 0 1-.258.827 1.123 1.123 0 0 1-.814.281 1.83 1.83 0 0 1-.576-.08 1.178 1.178 0 0 1-.446-.239l.146-.226a1.115 1.115 0 0 0 .386.214 1.437 1.437 0 0 0 .476.071.838.838 0 0 0 .606-.2.81.81 0 0 0 .185-.6v-.278a.888.888 0 0 1-.354.321 1.11 1.11 0 0 1-.489.116 1.161 1.161 0 0 1-.56-.126.994.994 0 0 1-.4-.371 1.066 1.066 0 0 1-.152-.547 1.051 1.051 0 0 1 .135-.549.983.983 0 0 1 .385-.379 1.17 1.17 0 0 1 .558-.142 1.106 1.106 0 0 1 .5.1.9.9 0 0 1 .366.317l-.007-.419zm-.66 1.746a.734.734 0 0 0 .292-.289.815.815 0 0 0 .1-.416.8.8 0 0 0-.112-.411.741.741 0 0 0-.3-.277.957.957 0 0 0-.854.012.725.725 0 0 0-.29.287.867.867 0 0 0 .014.829.735.735 0 0 0 .3.279.885.885 0 0 0 .427.095.9.9 0 0 0 .426-.108" transform="translate(-484.9 -207.074)" style="fill:#8f8f8f"/>
                    <path data-name="Trazado 1514" d="m527.029 281.347.031 1.915a1.111 1.111 0 0 1-.258.827 1.123 1.123 0 0 1-.814.281 1.83 1.83 0 0 1-.576-.08 1.178 1.178 0 0 1-.446-.239l.146-.226a1.115 1.115 0 0 0 .386.214 1.437 1.437 0 0 0 .476.071.838.838 0 0 0 .606-.2.81.81 0 0 0 .185-.6v-.278a.888.888 0 0 1-.354.321 1.11 1.11 0 0 1-.489.116 1.161 1.161 0 0 1-.56-.126.994.994 0 0 1-.4-.371 1.066 1.066 0 0 1-.152-.547 1.051 1.051 0 0 1 .135-.549.983.983 0 0 1 .385-.379 1.17 1.17 0 0 1 .558-.142 1.106 1.106 0 0 1 .5.1.9.9 0 0 1 .366.317l-.007-.419zm-.66 1.746a.734.734 0 0 0 .292-.289.815.815 0 0 0 .1-.416.8.8 0 0 0-.112-.411.741.741 0 0 0-.3-.277.957.957 0 0 0-.854.012.725.725 0 0 0-.29.287.867.867 0 0 0 .014.829.735.735 0 0 0 .3.279.885.885 0 0 0 .427.095.9.9 0 0 0 .423-.109z" transform="translate(-484.9 -207.074)" style="stroke:#b8b8b8;stroke-miterlimit:10;fill:none"/>
                    <path data-name="Trazado 1515" d="M537.689 280.824a1.053 1.053 0 0 1 .5-.155l.025.285h-.07a.7.7 0 0 0-.519.257.842.842 0 0 0-.144.607l.095 1.107-.293.025-.186-2.172.281-.024.036.425a.715.715 0 0 1 .28-.357" transform="translate(-493.941 -206.575)" style="fill:#8f8f8f"/>
                    <path data-name="Trazado 1516" d="M537.689 280.824a1.053 1.053 0 0 1 .5-.155l.025.285h-.07a.7.7 0 0 0-.519.257.842.842 0 0 0-.144.607l.095 1.107-.293.025-.186-2.172.281-.024.036.425a.715.715 0 0 1 .275-.355z" transform="translate(-493.941 -206.575)" style="stroke:#b8b8b8;stroke-miterlimit:10;fill:none"/>
                    <path data-name="Trazado 1517" d="M545.181 279.992a.823.823 0 0 1 .321.59l.2 1.336-.279.043-.051-.336a.672.672 0 0 1-.249.306 1.022 1.022 0 0 1-.439.163.9.9 0 0 1-.6-.084.6.6 0 0 1-.151-.9.983.983 0 0 1 .607-.264l.684-.1-.02-.131a.559.559 0 0 0-.221-.4.654.654 0 0 0-.477-.076 1.18 1.18 0 0 0-.383.128 1.013 1.013 0 0 0-.3.236l-.164-.2a1.19 1.19 0 0 1 .36-.275 1.564 1.564 0 0 1 .472-.149.921.921 0 0 1 .68.113m-.078 1.689a.681.681 0 0 0 .213-.366l-.054-.352-.676.1q-.553.084-.495.47a.357.357 0 0 0 .189.275.66.66 0 0 0 .418.047.772.772 0 0 0 .4-.177" transform="translate(-498.782 -205.981)" style="fill:#8f8f8f"/>
                    <path data-name="Trazado 1518" d="M545.181 279.992a.823.823 0 0 1 .321.59l.2 1.336-.279.043-.051-.336a.672.672 0 0 1-.249.306 1.022 1.022 0 0 1-.439.163.9.9 0 0 1-.6-.084.6.6 0 0 1-.151-.9.983.983 0 0 1 .607-.264l.684-.1-.02-.131a.559.559 0 0 0-.221-.4.654.654 0 0 0-.477-.076 1.18 1.18 0 0 0-.383.128 1.013 1.013 0 0 0-.3.236l-.164-.2a1.19 1.19 0 0 1 .36-.275 1.564 1.564 0 0 1 .472-.149.921.921 0 0 1 .69.113zm-.078 1.689a.681.681 0 0 0 .213-.366l-.054-.352-.676.1q-.553.084-.495.47a.357.357 0 0 0 .189.275.66.66 0 0 0 .418.047.772.772 0 0 0 .402-.174z" transform="translate(-498.782 -205.981)" style="stroke:#b8b8b8;stroke-miterlimit:10;fill:none"/>
                    <path data-name="Rectángulo 225" transform="rotate(-12.066 367.665 -187.852)" style="fill:#8f8f8f" d="M0 0h.294v3.076H0z"/>
                    <path data-name="Rectángulo 226" transform="rotate(-12.066 367.665 -187.852)" style="stroke:#b8b8b8;stroke-miterlimit:10;fill:none" d="M0 0h.294v3.076H0z"/>
                    <path data-name="Trazado 1519" d="m565.317 270.806.951 2.925-.268.087-.133-.41a.9.9 0 0 1-.229.428 1.026 1.026 0 0 1-.431.262 1.1 1.1 0 0 1-.572.038 1.008 1.008 0 0 1-.492-.254 1.248 1.248 0 0 1-.357-1.1 1 1 0 0 1 .249-.493 1.122 1.122 0 0 1 .485-.3 1.032 1.032 0 0 1 .489-.044.905.905 0 0 1 .432.2l-.405-1.246zm.192 2.808a.747.747 0 0 0 .183-.375.982.982 0 0 0-.274-.844.75.75 0 0 0-.369-.2.814.814 0 0 0-.425.027.825.825 0 0 0-.364.229.75.75 0 0 0-.183.376.984.984 0 0 0 .274.843.749.749 0 0 0 .369.2.864.864 0 0 0 .788-.256" transform="translate(-513.573 -199.316)" style="fill:#8f8f8f"/>
                    <path data-name="Trazado 1520" d="m565.317 270.806.951 2.925-.268.087-.133-.41a.9.9 0 0 1-.229.428 1.026 1.026 0 0 1-.431.262 1.1 1.1 0 0 1-.572.038 1.008 1.008 0 0 1-.492-.254 1.248 1.248 0 0 1-.357-1.1 1 1 0 0 1 .249-.493 1.122 1.122 0 0 1 .485-.3 1.032 1.032 0 0 1 .489-.044.905.905 0 0 1 .432.2l-.405-1.246zm.192 2.808a.747.747 0 0 0 .183-.375.982.982 0 0 0-.274-.844.75.75 0 0 0-.369-.2.814.814 0 0 0-.425.027.825.825 0 0 0-.364.229.75.75 0 0 0-.183.376.984.984 0 0 0 .274.843.749.749 0 0 0 .369.2.864.864 0 0 0 .788-.256z" transform="translate(-513.573 -199.316)" style="stroke:#b8b8b8;stroke-miterlimit:10;fill:none"/>
                    <path data-name="Trazado 1521" d="m576.812 271.809-1.68.71a.779.779 0 0 0 .454.4.867.867 0 0 0 .631-.039.946.946 0 0 0 .315-.212.817.817 0 0 0 .188-.311l.227.111a.938.938 0 0 1-.231.385 1.227 1.227 0 0 1-.406.27 1.211 1.211 0 0 1-.6.1 1.031 1.031 0 0 1-.526-.207 1.13 1.13 0 0 1-.356-.47 1.169 1.169 0 0 1-.094-.581 1 1 0 0 1 .2-.511 1.065 1.065 0 0 1 .447-.342 1.053 1.053 0 0 1 .555-.081 1 1 0 0 1 .5.214 1.179 1.179 0 0 1 .349.476zm-1.746-.07a.79.79 0 0 0-.019.577l1.424-.6a.791.791 0 0 0-.428-.389.8.8 0 0 0-.977.413" transform="translate(-521.64 -199.477)" style="fill:#8f8f8f"/>
                    <path data-name="Trazado 1522" d="m576.812 271.809-1.68.71a.779.779 0 0 0 .454.4.867.867 0 0 0 .631-.039.946.946 0 0 0 .315-.212.817.817 0 0 0 .188-.311l.227.111a.938.938 0 0 1-.231.385 1.227 1.227 0 0 1-.406.27 1.211 1.211 0 0 1-.6.1 1.031 1.031 0 0 1-.526-.207 1.13 1.13 0 0 1-.356-.47 1.169 1.169 0 0 1-.094-.581 1 1 0 0 1 .2-.511 1.065 1.065 0 0 1 .447-.342 1.053 1.053 0 0 1 .555-.081 1 1 0 0 1 .5.214 1.179 1.179 0 0 1 .349.476zm-1.746-.07a.79.79 0 0 0-.019.577l1.424-.6a.791.791 0 0 0-.428-.389.8.8 0 0 0-.977.413z" transform="translate(-521.64 -199.477)" style="stroke:#b8b8b8;stroke-miterlimit:10;fill:none"/>
                    <path data-name="Rectángulo 227" transform="rotate(-26.359 177.155 -82.474)" style="fill:#8f8f8f" d="M0 0h.294v3.076H0z"/>
                    <path data-name="Rectángulo 228" transform="rotate(-26.359 177.155 -82.474)" style="stroke:#b8b8b8;stroke-miterlimit:10;fill:none" d="M0 0h.294v3.076H0z"/>
                    <path data-name="Trazado 1523" d="m595.833 260.5-1.365.866.121.841-.27.171-.435-3.161.255-.162 2.675 1.739-.273.173zm-.228-.15-1.423-.943.247 1.689z" transform="translate(-535.741 -190.665)" style="fill:#8f8f8f"/>
                    <path data-name="Trazado 1524" d="m595.833 260.5-1.365.866.121.841-.27.171-.435-3.161.255-.162 2.675 1.739-.273.173zm-.228-.15-1.423-.943.247 1.689z" transform="translate(-535.741 -190.665)" style="stroke:#b8b8b8;stroke-miterlimit:10;fill:none"/>
                    <path data-name="Trazado 1525" d="m604.568 252.659 1.169 1.517a1.112 1.112 0 0 1 .288.817 1.124 1.124 0 0 1-.485.711 1.832 1.832 0 0 1-.509.28 1.177 1.177 0 0 1-.5.074l-.018-.268a1.123 1.123 0 0 0 .438-.06 1.434 1.434 0 0 0 .424-.228.838.838 0 0 0 .365-.525.812.812 0 0 0-.212-.593l-.17-.22a.886.886 0 0 1-.092.468 1.1 1.1 0 0 1-.323.385 1.16 1.16 0 0 1-.524.234 1 1 0 0 1-.542-.058 1.123 1.123 0 0 1-.669-.868.992.992 0 0 1 .083-.535 1.174 1.174 0 0 1 .362-.447 1.1 1.1 0 0 1 .466-.218.9.9 0 0 1 .483.036l-.255-.332zm.514 1.794a.733.733 0 0 0 .061-.406.809.809 0 0 0-.169-.393.8.8 0 0 0-.335-.262.74.74 0 0 0-.405-.044.886.886 0 0 0-.4.181.9.9 0 0 0-.276.338.722.722 0 0 0-.061.4.865.865 0 0 0 .506.657.736.736 0 0 0 .407.045.879.879 0 0 0 .4-.179.891.891 0 0 0 .276-.341" transform="translate(-542.596 -185.959)" style="fill:#8f8f8f"/>
                    <path data-name="Trazado 1526" d="m604.568 252.659 1.169 1.517a1.112 1.112 0 0 1 .288.817 1.124 1.124 0 0 1-.485.711 1.832 1.832 0 0 1-.509.28 1.177 1.177 0 0 1-.5.074l-.018-.268a1.123 1.123 0 0 0 .438-.06 1.434 1.434 0 0 0 .424-.228.838.838 0 0 0 .365-.525.812.812 0 0 0-.212-.593l-.17-.22a.886.886 0 0 1-.092.468 1.1 1.1 0 0 1-.323.385 1.16 1.16 0 0 1-.524.234 1 1 0 0 1-.542-.058 1.123 1.123 0 0 1-.669-.868.992.992 0 0 1 .083-.535 1.174 1.174 0 0 1 .362-.447 1.1 1.1 0 0 1 .466-.218.9.9 0 0 1 .483.036l-.255-.332zm.514 1.794a.733.733 0 0 0 .061-.406.809.809 0 0 0-.169-.393.8.8 0 0 0-.335-.262.74.74 0 0 0-.405-.044.886.886 0 0 0-.4.181.9.9 0 0 0-.276.338.722.722 0 0 0-.061.4.865.865 0 0 0 .506.657.736.736 0 0 0 .407.045.879.879 0 0 0 .4-.179.891.891 0 0 0 .271-.337z" transform="translate(-542.596 -185.959)" style="stroke:#b8b8b8;stroke-miterlimit:10;fill:none"/>
                    <path data-name="Trazado 1527" d="m612.692 245.151 1.479 1.6-.207.191-.27-.292a.805.805 0 0 1-.025.443.964.964 0 0 1-.267.4.845.845 0 0 1-1.312-.064l-.857-.929.216-.2.838.908a.727.727 0 0 0 .479.268.639.639 0 0 0 .477-.2.714.714 0 0 0 .257-.522.812.812 0 0 0-.249-.563l-.776-.841z" transform="translate(-548.509 -180.433)" style="fill:#8f8f8f"/>
                    <path data-name="Trazado 1528" d="m612.692 245.151 1.479 1.6-.207.191-.27-.292a.805.805 0 0 1-.025.443.964.964 0 0 1-.267.4.845.845 0 0 1-1.312-.064l-.857-.929.216-.2.838.908a.727.727 0 0 0 .479.268.639.639 0 0 0 .477-.2.714.714 0 0 0 .257-.522.812.812 0 0 0-.249-.563l-.776-.841z" transform="translate(-548.509 -180.433)" style="stroke:#b8b8b8;stroke-miterlimit:10;fill:none"/>
                    <path data-name="Trazado 1529" d="M620.9 238.949a.826.826 0 0 1 .62.26l1 .913-.191.208-.25-.23a.677.677 0 0 1 0 .395 1.022 1.022 0 0 1-.24.4.9.9 0 0 1-.521.31.6.6 0 0 1-.679-.6.983.983 0 0 1 .308-.587l.468-.51-.1-.09a.559.559 0 0 0-.423-.174.65.65 0 0 0-.419.239 1.171 1.171 0 0 0-.219.34 1 1 0 0 0-.082.369l-.252-.051a1.178 1.178 0 0 1 .109-.44 1.544 1.544 0 0 1 .274-.412.923.923 0 0 1 .6-.338m1 1.365a.682.682 0 0 0-.063-.418l-.263-.241-.463.5q-.378.412-.091.676a.357.357 0 0 0 .32.1.66.66 0 0 0 .355-.225.774.774 0 0 0 .2-.391" transform="translate(-554.901 -175.867)" style="fill:#8f8f8f"/>
                    <path data-name="Trazado 1530" d="M620.9 238.949a.826.826 0 0 1 .62.26l1 .913-.191.208-.25-.23a.677.677 0 0 1 0 .395 1.022 1.022 0 0 1-.24.4.9.9 0 0 1-.521.31.6.6 0 0 1-.679-.6.983.983 0 0 1 .308-.587l.468-.51-.1-.09a.559.559 0 0 0-.423-.174.65.65 0 0 0-.419.239 1.171 1.171 0 0 0-.219.34 1 1 0 0 0-.082.369l-.252-.051a1.178 1.178 0 0 1 .109-.44 1.544 1.544 0 0 1 .274-.412.923.923 0 0 1 .597-.34zm1 1.365a.682.682 0 0 0-.063-.418l-.263-.241-.463.5q-.378.412-.091.676a.357.357 0 0 0 .32.1.66.66 0 0 0 .355-.225.774.774 0 0 0 .205-.392z" transform="translate(-554.901 -175.867)" style="stroke:#b8b8b8;stroke-miterlimit:10;fill:none"/>
                    <path data-name="Trazado 1531" d="m502.055 109.113.648-.959c.249-.368.493-.74.747-1.1a.531.531 0 0 1 .942-.007c1.2 1.766 2.413 3.518 3.568 5.311a4.667 4.667 0 0 1-.665 5.811.648.648 0 0 0-.2.582 9.948 9.948 0 0 1-9.058 10.864 9.953 9.953 0 0 1-8.958-15.658q3.771-5.544 7.49-11.123c.448-.673.879-.588 1.263 0 1.335 2.036 2.711 4.045 4.072 6.064.045.066.092.13.156.222m-4.856-5.278-.19.271c-2.344 3.478-4.675 6.964-7.037 10.429a8.88 8.88 0 1 0 15.972 6.674 8.189 8.189 0 0 0 .105-2.113l-.29.116A4.746 4.746 0 0 1 500 112.17c.413-.611.817-1.228 1.241-1.831a.377.377 0 0 0 .007-.511c-.9-1.32-1.792-2.65-2.685-3.976l-1.361-2.018m6.721 4.425c-1.078 1.605-2.147 3.157-3.171 4.737a3.371 3.371 0 0 0-.42 2.619 3.647 3.647 0 0 0 2.9 2.829 3.565 3.565 0 0 0 3.765-1.6 3.617 3.617 0 0 0-.041-4.09q-.768-1.138-1.534-2.277l-1.5-2.218" transform="translate(-457.255 -75.335)" style="fill:#fff"/>
                    <path data-name="Trazado 1532" d="m502.055 109.113.648-.959c.249-.368.493-.74.747-1.1a.531.531 0 0 1 .942-.007c1.2 1.766 2.413 3.518 3.568 5.311a4.667 4.667 0 0 1-.665 5.811.648.648 0 0 0-.2.582 9.948 9.948 0 0 1-9.058 10.864 9.953 9.953 0 0 1-8.958-15.658q3.771-5.544 7.49-11.123c.448-.673.879-.588 1.263 0 1.335 2.036 2.711 4.045 4.072 6.064.04.059.087.124.151.215zm-4.856-5.278-.19.271c-2.344 3.478-4.675 6.964-7.037 10.429a8.88 8.88 0 1 0 15.972 6.674 8.189 8.189 0 0 0 .105-2.113l-.29.116A4.746 4.746 0 0 1 500 112.17c.413-.611.817-1.228 1.241-1.831a.377.377 0 0 0 .007-.511c-.9-1.32-1.792-2.65-2.685-3.976l-1.363-2.017zm6.721 4.425c-1.078 1.605-2.147 3.157-3.171 4.737a3.371 3.371 0 0 0-.42 2.619 3.647 3.647 0 0 0 2.9 2.829 3.565 3.565 0 0 0 3.765-1.6 3.617 3.617 0 0 0-.041-4.09q-.768-1.138-1.534-2.277z" transform="translate(-457.255 -75.335)" style="stroke:#b8b8b8;stroke-miterlimit:10;fill:none"/>
                    <path data-name="Trazado 1533" d="M497.4 151.358c.5 0 .753.376.606.728a1.251 1.251 0 0 1-.135.228 6.262 6.262 0 0 0 3.173 9.57c.377.125.535.389.433.7a.537.537 0 0 1-.757.317 7.341 7.341 0 0 1-3.69-11.238 1.475 1.475 0 0 1 .371-.306" transform="translate(-463.429 -111.401)" style="fill:#fff"/>
                    <path data-name="Trazado 1534" d="M497.4 151.358c.5 0 .753.376.606.728a1.251 1.251 0 0 1-.135.228 6.262 6.262 0 0 0 3.173 9.57c.377.125.535.389.433.7a.537.537 0 0 1-.757.317 7.341 7.341 0 0 1-3.69-11.238 1.475 1.475 0 0 1 .37-.305z" transform="translate(-463.429 -111.401)" style="stroke:#b8b8b8;stroke-miterlimit:10;fill:none"/>
                    <path data-name="Trazado 1535" d="M520.638 193.972a.53.53 0 0 1-.011-1.06.53.53 0 1 1 .011 1.06" transform="translate(-481.438 -141.985)" style="fill:#fff"/>
                    <path data-name="Trazado 1536" d="M520.638 193.972a.53.53 0 0 1-.011-1.06.53.53 0 1 1 .011 1.06z" transform="translate(-481.438 -141.985)" style="stroke:#b8b8b8;stroke-miterlimit:10;fill:none"/>
                    <path data-name="Trazado 1537" d="M540.513 144.072c-.016.05-.046.161-.084.269a1.845 1.845 0 0 0 .607 2.083 1 1 0 0 1 .311.409.456.456 0 0 1-.2.535.5.5 0 0 1-.622 0 2.789 2.789 0 0 1-1.26-2.5 4.072 4.072 0 0 1 .25-1.082.5.5 0 0 1 .618-.291.556.556 0 0 1 .385.581" transform="translate(-495.535 -105.596)" style="fill:#fff"/>
                    <path data-name="Trazado 1538" d="M540.513 144.072c-.016.05-.046.161-.084.269a1.845 1.845 0 0 0 .607 2.083 1 1 0 0 1 .311.409.456.456 0 0 1-.2.535.5.5 0 0 1-.622 0 2.789 2.789 0 0 1-1.26-2.5 4.072 4.072 0 0 1 .25-1.082.5.5 0 0 1 .618-.291.556.556 0 0 1 .38.577z" transform="translate(-495.535 -105.596)" style="stroke:#b8b8b8;stroke-miterlimit:10;fill:none"/>
                    <path data-name="Trazado 1539" d="M549.523 156.968a.543.543 0 0 1-.547.535.534.534 0 0 1-.517-.537.524.524 0 0 1 .519-.53.53.53 0 0 1 .545.532" transform="translate(-502.307 -115.138)" style="fill:#fff"/>
                    <path data-name="Trazado 1540" d="M549.523 156.968a.543.543 0 0 1-.547.535.534.534 0 0 1-.517-.537.524.524 0 0 1 .519-.53.53.53 0 0 1 .545.532z" transform="translate(-502.307 -115.138)" style="stroke:#b8b8b8;stroke-miterlimit:10;fill:none"/>
                </g>
            </g>
        </g>
    </g>
</svg>
