<svg xmlns="http://www.w3.org/2000/svg" width="81.107" height="81.285" viewBox="0 0 81.107 81.285">
    <g data-name="Grupo 768">
        <path data-name="Trazado 1586" d="M1202.763 42.4a40.119 40.119 0 1 1-40.119-40.12 40.119 40.119 0 0 1 40.119 40.12" transform="translate(-1122.173 -1.702)" style="fill:#fff"/>
        <path data-name="Trazado 1587" d="M1183.346 86.494q0 1.092.1 2.159c17.079 7.465 25.091-8.524 35.809-8.039a24.754 24.754 0 0 1 12.47 3.837 24.23 24.23 0 0 0-48.374 2.044" transform="translate(-1166.938 -45.851)" style="fill:#ffce00"/>
        <path data-name="Trazado 1588" d="M1183.707 139.781a24.23 24.23 0 0 0 48.364-2.159q0-1.032-.085-2.044a24.753 24.753 0 0 0-12.47-3.837c-10.719-.485-18.729 15.5-35.809 8.039" transform="translate(-1167.204 -96.979)" style="fill:#eb6344"/>
        <path data-name="Trazado 1589" d="m1135.013 160.074-6.523-2.276-6.3 2.895v-.031l-.093-.929 6.353-2.918 6.443 2.249a.041.041 0 0 0 0 .01z" transform="translate(-1121.853 -115.442)" style="fill:#ffce00"/>
        <path data-name="Trazado 1590" d="m1392.567 162.34-6.824 2.157-5.953-2.951q-.034.49-.085.976l5.963 2.956 6.821-2.156z" transform="translate(-1311.46 -118.923)" style="fill:#ffce00"/>
        <path data-name="Trazado 1591" d="M1170.877 184.831a28.711 28.711 0 0 0 54.649 0c.079-.228.17-.55.266-.912h-.94a27.8 27.8 0 0 1-53.3 0h-.941c.1.362.189.686.267.912" transform="translate(-1157.564 -135.39)" style="fill:#ffce00"/>
        <path data-name="Trazado 1592" d="M1202.9 183.918c-.082.418-.157.756-.2.912a39.4 39.4 0 0 1-4.66 11.614 39.745 39.745 0 0 1-68.185 0 39.394 39.394 0 0 1-4.66-11.614c-.086-.326-.14-.574-.2-.912h-.92a40.651 40.651 0 0 0 79.754 0z" transform="translate(-1123.314 -135.389)" style="fill:#ffce00"/>
        <path data-name="Trazado 1593" d="m1201.549 32.328.042-.053a40.676 40.676 0 0 0-80.156 3.645l.039-.011a41.008 41.008 0 0 0-.28 4.22l6.42-2.608 6.434 2.8a27.7 27.7 0 0 1 8.26-19.359l.02-.02c.106-.1.215-.208.323-.311.086-.082.172-.164.259-.244l.09-.087a27.79 27.79 0 0 1 46.426 17.569l7.287 4.3 5.5-5.648a40.332 40.332 0 0 0-.663-4.2" transform="translate(-1121.193 -.093)" style="fill:#eb6344"/>
        <path data-name="Trazado 1594" d="m1154.111 81.931 1 .546-2.008 3.681-4.585-2.5 1.962-3.6 1 .547-1.261 2.312.773.422 1.111-2.037.969.529-1.111 2.037.839.457z" transform="translate(-1141.306 -58.951)" style="fill:#fff"/>
        <path data-name="Trazado 1595" d="M1166.645 67.4a2.594 2.594 0 0 1-1.394.211 2.823 2.823 0 0 1-2.207-1.732 2.592 2.592 0 0 1-.128-1.4 3.093 3.093 0 0 1 .636-1.374 3.165 3.165 0 0 1 1-.859 2.484 2.484 0 0 1 1.165-.3l.089 1.265a1.548 1.548 0 0 0-1.241.591 1.52 1.52 0 0 0-.32.711 1.294 1.294 0 0 0 .1.73 1.754 1.754 0 0 0 1.227.962 1.294 1.294 0 0 0 .732-.081 1.521 1.521 0 0 0 .614-.481 1.547 1.547 0 0 0 .278-1.346l1.249-.215a2.482 2.482 0 0 1-.014 1.2 3.17 3.17 0 0 1-.6 1.172 3.093 3.093 0 0 1-1.182.945" transform="translate(-1151.87 -45.615)" style="fill:#fff"/>
        <path data-name="Trazado 1596" d="m1178.862 43.059 3.468 3.905-1.1.981-1.353-1.523-1.506 1.338 1.353 1.523-1.1.981-3.468-3.905 1.1-.981 1.3 1.467 1.507-1.338-1.3-1.467z" transform="translate(-1160.903 -31.716)" style="fill:#fff"/>
        <path data-name="Trazado 1597" d="m1204.5 35.921-1.893 1.137.171 1.081-1.292.776-.712-5.665 1.247-.749 4.671 3.287-1.318.791zm-.932-.711-1.436-1.087.285 1.779z" transform="translate(-1179.761 -23.945)" style="fill:#fff"/>
        <path data-name="Trazado 1598" d="m1222.413 19.4 1.811 4.9-1.14.422-3.127-1.811.965 2.61-1.358.5-1.811-4.9 1.141-.422 3.127 1.811-.965-2.611z" transform="translate(-1192.261 -14.303)" style="fill:#fff"/>
        <path data-name="Trazado 1599" d="m1242.744 16.168 2.437-.4a3.458 3.458 0 0 1 1.554.07 2.416 2.416 0 0 1 1.163.732 2.788 2.788 0 0 1 .447 2.724 2.417 2.417 0 0 1-.869 1.065 3.452 3.452 0 0 1-1.45.563l-2.437.4zm3.033 3.6a1.514 1.514 0 0 0 1-.55 1.563 1.563 0 0 0-.34-2.076 1.512 1.512 0 0 0-1.125-.2l-.921.151.463 2.827z" transform="translate(-1210.655 -11.589)" style="fill:#fff"/>
        <path data-name="Trazado 1600" d="M1269.49 18.714a2.671 2.671 0 0 1 .143-4.728 3.334 3.334 0 0 1 2.976.09 2.671 2.671 0 0 1-.143 4.728 3.335 3.335 0 0 1-2.976-.09m2.236-.992a1.341 1.341 0 0 0 .523-.51 1.723 1.723 0 0 0 .047-1.559 1.343 1.343 0 0 0-.491-.541 1.468 1.468 0 0 0-1.432-.043 1.341 1.341 0 0 0-.523.51 1.724 1.724 0 0 0-.047 1.559 1.34 1.34 0 0 0 .491.541 1.467 1.467 0 0 0 1.432.043" transform="translate(-1229.352 -10.092)" style="fill:#fff"/>
        <path data-name="Trazado 1601" d="m1304.25 21.81-.771-.232-.4 1.329-1.415-.425 1.5-5 2.286.687a2.981 2.981 0 0 1 1.112.579 1.9 1.9 0 0 1 .017 2.81 1.792 1.792 0 0 1-.915.414l.607 1.9-1.515-.455zm1.382-2.163a1.02 1.02 0 0 0-.6-.39l-.786-.236-.44 1.465.786.236a1.032 1.032 0 0 0 .714.008.7.7 0 0 0 .384-.473.713.713 0 0 0-.058-.61" transform="translate(-1254.021 -12.89)" style="fill:#fff"/>
        <path data-name="Trazado 1602" d="m1323.593 32.561-1.967-1-.827.717-1.342-.685 4.427-3.6 1.3.662-.314 5.7-1.369-.7zm.11-1.167.162-1.794-1.358 1.183z" transform="translate(-1267.116 -20.621)" style="fill:#fff"/>
        <path data-name="Trazado 1603" d="m1344.3 35.383 1.213.842-2.979 4.29-1.213-.843zm1.717-.706 1.164.809-1.8.131-.833-.579z" transform="translate(-1283.208 -25.547)" style="fill:#fff"/>
        <path data-name="Trazado 1604" d="M1352.94 51.427a2.6 2.6 0 0 1-.111-1.4 2.823 2.823 0 0 1 1.884-2.078 2.594 2.594 0 0 1 1.409-.027 3.093 3.093 0 0 1 1.325.733 3.167 3.167 0 0 1 .786 1.055 2.486 2.486 0 0 1 .217 1.183h-1.268a1.545 1.545 0 0 0-.5-1.28 1.516 1.516 0 0 0-.687-.37 1.292 1.292 0 0 0-.734.044 1.753 1.753 0 0 0-1.047 1.155 1.293 1.293 0 0 0 .028.735 1.517 1.517 0 0 0 .436.647 1.545 1.545 0 0 0 1.323.374l.125 1.262a2.483 2.483 0 0 1-1.2-.1 3.163 3.163 0 0 1-1.127-.679 3.089 3.089 0 0 1-.859-1.247" transform="translate(-1291.642 -35.229)" style="fill:#fff"/>
        <path data-name="Trazado 1605" d="m1368.327 67.162-.9.708-2.6-3.289 4.1-3.24 2.541 3.213-.9.708-1.634-2.066-.691.546 1.44 1.82-.866.685-1.439-1.82-.749.592z" transform="translate(-1300.512 -45.172)" style="fill:#fff"/>
        <path data-name="Trazado 1606" d="M1377.4 83.152a3.023 3.023 0 0 1-.112-1.05l1.187-.112a3.123 3.123 0 0 0 .075.892 3.081 3.081 0 0 0 .323.862q.417.741.788.532a.352.352 0 0 0 .17-.374 4.442 4.442 0 0 0-.185-.791 7.472 7.472 0 0 1-.246-.992 1.658 1.658 0 0 1 .072-.82 1.262 1.262 0 0 1 .615-.672 1.5 1.5 0 0 1 .879-.2 1.749 1.749 0 0 1 .912.381 3.213 3.213 0 0 1 .82 1 4.487 4.487 0 0 1 .4.941 3.123 3.123 0 0 1 .137.933l-1.179.142a3.048 3.048 0 0 0-.36-1.459 1.211 1.211 0 0 0-.429-.495.391.391 0 0 0-.394-.009.336.336 0 0 0-.156.362 4.305 4.305 0 0 0 .189.776 7.194 7.194 0 0 1 .248.995 1.711 1.711 0 0 1-.069.819 1.237 1.237 0 0 1-.61.673 1.468 1.468 0 0 1-.869.19 1.781 1.781 0 0 1-.915-.384 3.174 3.174 0 0 1-.821-.993 4.826 4.826 0 0 1-.468-1.149" transform="translate(-1309.672 -59.218)" style="fill:#fff"/>
        <path data-name="Trazado 1607" d="M1185.673 248.24a.712.712 0 0 1-.194.46.668.668 0 0 1-.585.253 1.373 1.373 0 0 1-.747-.382l-1.008-.875 1.9-2.191.946.82a1.261 1.261 0 0 1 .44.64.642.642 0 0 1-.16.592.691.691 0 0 1-.357.231.709.709 0 0 1-.411-.024.77.77 0 0 1 .172.476m-.831.423a.462.462 0 0 0 .422-.182q.356-.41-.239-.926l-.773-.671-.715.823.773.671a1.064 1.064 0 0 0 .531.286m.266-2.766-.69.8.7.606a.932.932 0 0 0 .5.254.5.5 0 0 0 .513-.592.935.935 0 0 0-.322-.458z" transform="translate(-1166.787 -180.718)" style="fill:#eb6344"/>
        <path data-name="Trazado 1608" d="m1194.394 253.6.235.177-1.313 1.741-.235-.177zm.321-.433a.2.2 0 0 1 .04-.157.2.2 0 0 1 .137-.079.21.21 0 0 1 .16.043.213.213 0 0 1 .086.14.191.191 0 0 1-.037.152.217.217 0 0 1-.387-.1" transform="translate(-1174.103 -186.181)" style="fill:#eb6344"/>
        <path data-name="Trazado 1609" d="M1198.456 261.12a1.044 1.044 0 0 1-.113-.55 1.2 1.2 0 0 1 .632-.954 1.027 1.027 0 0 1 .549-.108 1.215 1.215 0 0 1 .947.627 1.016 1.016 0 0 1 .112.547 1.216 1.216 0 0 1-.632.954 1.025 1.025 0 0 1-.549.111 1.2 1.2 0 0 1-.947-.627m.944.357a.737.737 0 0 0 .406-.091 1 1 0 0 0 .49-.74.737.737 0 0 0-.074-.409.874.874 0 0 0-.695-.46.755.755 0 0 0-.408.09.985.985 0 0 0-.49.74.753.753 0 0 0 .076.411.875.875 0 0 0 .695.46" transform="translate(-1177.974 -191.022)" style="fill:#eb6344"/>
        <path data-name="Trazado 1610" d="m1210.7 264.39-1.472 2.7-.248-.135.207-.379a.9.9 0 0 1-.469.127 1.031 1.031 0 0 1-.487-.133 1.111 1.111 0 0 1-.42-.39 1.006 1.006 0 0 1-.153-.532 1.248 1.248 0 0 1 .552-1.012.989.989 0 0 1 .529-.157 1.115 1.115 0 0 1 .554.144 1.03 1.03 0 0 1 .368.326.913.913 0 0 1 .154.45l.627-1.15zm-1.909 2.068a.75.75 0 0 0 .4-.125.983.983 0 0 0 .425-.779.752.752 0 0 0-.111-.4.81.81 0 0 0-.311-.29.823.823 0 0 0-.416-.107.753.753 0 0 0-.4.125.921.921 0 0 0-.305.339.911.911 0 0 0-.119.44.752.752 0 0 0 .111.4.865.865 0 0 0 .728.4" transform="translate(-1184.83 -194.514)" style="fill:#eb6344"/>
        <path data-name="Trazado 1611" d="m1218.5 267.263.267.124-.918 1.978-.267-.124zm.223-.491a.2.2 0 0 1 .007-.162.2.2 0 0 1 .117-.105.207.207 0 0 1 .165.008.212.212 0 0 1 .114.119.191.191 0 0 1 0 .156.212.212 0 0 1-.286.1.209.209 0 0 1-.113-.121" transform="translate(-1192.138 -196.165)" style="fill:#eb6344"/>
        <path data-name="Trazado 1612" d="m1226.271 271.732-1.706 1.668-.281-.112-.093-2.383.285.113.073 2.027 1.452-1.421z" transform="translate(-1197 -199.413)" style="fill:#eb6344"/>
        <path data-name="Trazado 1613" d="m1233.854 276.9-1.741-.544a.779.779 0 0 0 .086.6.865.865 0 0 0 .507.378.943.943 0 0 0 .378.042.811.811 0 0 0 .344-.116l.1.232a.931.931 0 0 1-.425.145 1.224 1.224 0 0 1-.484-.056 1.209 1.209 0 0 1-.525-.314 1.03 1.03 0 0 1-.268-.5 1.129 1.129 0 0 1 .032-.589 1.172 1.172 0 0 1 .3-.5 1.007 1.007 0 0 1 .481-.262 1.066 1.066 0 0 1 .563.028 1.054 1.054 0 0 1 .476.3 1 1 0 0 1 .243.487 1.18 1.18 0 0 1-.041.589zm-1.288-1.182a.789.789 0 0 0-.388.428l1.476.461a.79.79 0 0 0-.075-.573.8.8 0 0 0-1.013-.317" transform="translate(-1202.602 -202.711)" style="fill:#eb6344"/>
        <path data-name="Trazado 1614" d="M1243.012 277.8a1.049 1.049 0 0 1 .52.009l-.066.278-.067-.02a.7.7 0 0 0-.573.08.841.841 0 0 0-.327.531l-.258 1.081-.286-.068.507-2.121.274.065-.1.415a.712.712 0 0 1 .377-.251" transform="translate(-1210.073 -204.318)" style="fill:#eb6344"/>
        <path data-name="Trazado 1615" d="M1248.641 281.4a1.1 1.1 0 0 1-.34-.255l.171-.206a1.117 1.117 0 0 0 .308.233 1.361 1.361 0 0 0 .413.142.823.823 0 0 0 .451-.015.3.3 0 0 0 .186-.234.236.236 0 0 0-.045-.2.521.521 0 0 0-.178-.136 2.867 2.867 0 0 0-.3-.122 3.574 3.574 0 0 1-.4-.174.625.625 0 0 1-.241-.221.488.488 0 0 1-.053-.358.54.54 0 0 1 .3-.4 1.026 1.026 0 0 1 .655-.062 1.65 1.65 0 0 1 .407.128 1.172 1.172 0 0 1 .318.205l-.167.211a1.1 1.1 0 0 0-.6-.295.745.745 0 0 0-.435.024.306.306 0 0 0-.186.233.259.259 0 0 0 .045.21.5.5 0 0 0 .179.143 3.266 3.266 0 0 0 .314.129 3.844 3.844 0 0 1 .4.17.615.615 0 0 1 .236.214.467.467 0 0 1 .053.346.528.528 0 0 1-.313.406 1.133 1.133 0 0 1-.68.051 1.669 1.669 0 0 1-.487-.163" transform="translate(-1214.745 -205.64)" style="fill:#eb6344"/>
        <path data-name="Trazado 1616" d="m1258.34 277.987.292.035-.263 2.164-.292-.035zm.061-.535a.2.2 0 0 1-.044-.156.2.2 0 0 1 .079-.136.209.209 0 0 1 .16-.043.213.213 0 0 1 .145.078.194.194 0 0 1 .045.149.217.217 0 0 1-.385.108" transform="translate(-1221.942 -203.982)" style="fill:#eb6344"/>
        <path data-name="Trazado 1617" d="m1265.268 277.994-.175 3.071-.281-.016.025-.43a.9.9 0 0 1-.369.315 1.024 1.024 0 0 1-.5.088 1.105 1.105 0 0 1-.546-.172 1 1 0 0 1-.367-.415 1.249 1.249 0 0 1 .065-1.15.992.992 0 0 1 .411-.369 1.119 1.119 0 0 1 .562-.107 1.028 1.028 0 0 1 .472.137.908.908 0 0 1 .331.341l.074-1.308zm-.84 2.686a.751.751 0 0 0 .307-.284.986.986 0 0 0 .051-.886.755.755 0 0 0-.273-.316.866.866 0 0 0-.828-.047.753.753 0 0 0-.307.284.983.983 0 0 0-.05.886.749.749 0 0 0 .273.317.865.865 0 0 0 .828.047" transform="translate(-1225.525 -204.618)" style="fill:#eb6344"/>
        <path data-name="Trazado 1618" d="M1276.4 281.515a.827.827 0 0 1 .244.626l.034 1.351-.282.007-.009-.34a.674.674 0 0 1-.286.273 1.025 1.025 0 0 1-.455.107.9.9 0 0 1-.584-.159.6.6 0 0 1-.038-.907.984.984 0 0 1 .636-.186l.692-.018v-.133a.559.559 0 0 0-.169-.425.652.652 0 0 0-.464-.135 1.17 1.17 0 0 0-.4.079 1.006 1.006 0 0 0-.323.2l-.138-.216a1.175 1.175 0 0 1 .392-.228 1.556 1.556 0 0 1 .487-.089.925.925 0 0 1 .66.2m-.289 1.666a.681.681 0 0 0 .257-.336l-.009-.356-.684.017q-.559.014-.55.4a.357.357 0 0 0 .153.3.66.66 0 0 0 .409.1.777.777 0 0 0 .424-.125" transform="translate(-1234.278 -207.077)" style="fill:#eb6344"/>
        <path data-name="Trazado 1619" d="m1286.965 276.879.334 3.058-.28.031-.047-.428a.9.9 0 0 1-.311.372 1.028 1.028 0 0 1-.476.169 1.106 1.106 0 0 1-.567-.08 1 1 0 0 1-.43-.349 1.247 1.247 0 0 1-.125-1.145.991.991 0 0 1 .345-.432 1.117 1.117 0 0 1 .537-.2 1.03 1.03 0 0 1 .488.057.906.906 0 0 1 .383.281l-.142-1.3zm-.385 2.788a.75.75 0 0 0 .256-.33.983.983 0 0 0-.1-.882.748.748 0 0 0-.321-.267.814.814 0 0 0-.421-.06.822.822 0 0 0-.4.15.75.75 0 0 0-.256.33.983.983 0 0 0 .1.882.754.754 0 0 0 .321.267.826.826 0 0 0 .426.06.817.817 0 0 0 .4-.15" transform="translate(-1241.739 -203.81)" style="fill:#eb6344"/>
        <path data-name="Trazado 1620" d="m1302.188 277.142-.508 2.625a1.042 1.042 0 0 1-.2.493.687.687 0 0 1-.379.22.856.856 0 0 1-.3.018.641.641 0 0 1-.264-.092l.084-.245a.543.543 0 0 0 .425.071.4.4 0 0 0 .23-.139.758.758 0 0 0 .128-.319l.045-.227-1.443-1.9.3-.07 1.22 1.619.379-1.991z" transform="translate(-1252.802 -204.003)" style="fill:#eb6344"/>
        <path data-name="Trazado 1621" d="M1316.414 270.635a1 1 0 0 1 .5 1.367 1.315 1.315 0 0 1-.726.547l-.731.269.316.86-.288.106-1-2.724 1.019-.374a1.31 1.31 0 0 1 .909-.051m.229 1.26a.653.653 0 0 0 .03-.578.662.662 0 0 0-.4-.429 1.01 1.01 0 0 0-.684.05l-.724.266.5 1.362.724-.266a1.011 1.011 0 0 0 .554-.4" transform="translate(-1263.458 -199.17)" style="fill:#eb6344"/>
        <path data-name="Trazado 1622" d="M1327.545 269.136a.825.825 0 0 1 .474.476l.572 1.224-.255.119-.144-.308a.671.671 0 0 1-.152.364 1.018 1.018 0 0 1-.375.28.9.9 0 0 1-.6.088.6.6 0 0 1-.4-.816.985.985 0 0 1 .509-.425l.627-.293-.056-.12a.559.559 0 0 0-.324-.322.652.652 0 0 0-.479.061 1.169 1.169 0 0 0-.331.23 1 1 0 0 0-.217.309l-.213-.143a1.177 1.177 0 0 1 .268-.366 1.554 1.554 0 0 1 .411-.276.924.924 0 0 1 .684-.084m.4 1.643a.683.683 0 0 0 .1-.411l-.151-.323-.62.29q-.507.236-.342.59a.356.356 0 0 0 .259.211.659.659 0 0 0 .415-.072.777.777 0 0 0 .339-.284" transform="translate(-1272.067 -198.085)" style="fill:#eb6344"/>
        <path data-name="Trazado 1623" d="M1333.779 263.463a.2.2 0 0 1-.126-.1.2.2 0 0 1-.014-.157.209.209 0 0 1 .105-.128.212.212 0 0 1 .164-.02.193.193 0 0 1 .123.1.217.217 0 0 1-.252.31m.26.472.259-.14 1.038 1.917-.259.14z" transform="translate(-1277.548 -193.63)" style="fill:#eb6344"/>
        <path data-name="Trazado 1624" d="M1340.856 264.132a1.094 1.094 0 0 1-.424.034l-.008-.267a1.116 1.116 0 0 0 .385-.029 1.375 1.375 0 0 0 .4-.167.823.823 0 0 0 .328-.31.3.3 0 0 0-.016-.3.236.236 0 0 0-.166-.12.521.521 0 0 0-.224.015 2.881 2.881 0 0 0-.308.108 3.693 3.693 0 0 1-.417.136.631.631 0 0 1-.327-.006.491.491 0 0 1-.277-.234.538.538 0 0 1-.039-.5 1.023 1.023 0 0 1 .45-.479 1.64 1.64 0 0 1 .39-.173 1.163 1.163 0 0 1 .373-.056l.014.268a1.1 1.1 0 0 0-.645.176.746.746 0 0 0-.311.306.3.3 0 0 0 .014.3.259.259 0 0 0 .173.128.5.5 0 0 0 .229-.011 3.187 3.187 0 0 0 .321-.111 3.79 3.79 0 0 1 .409-.134.616.616 0 0 1 .319 0 .467.467 0 0 1 .268.225.526.526 0 0 1 .034.511 1.135 1.135 0 0 1-.477.488 1.668 1.668 0 0 1-.473.2" transform="translate(-1282.033 -192.699)" style="fill:#eb6344"/>
        <path data-name="Trazado 1625" d="M1348.128 256.942a.826.826 0 0 1 .553.381l.787 1.1-.229.164-.2-.276a.676.676 0 0 1-.083.386 1.024 1.024 0 0 1-.317.344.9.9 0 0 1-.573.2.6.6 0 0 1-.54-.73.983.983 0 0 1 .422-.511l.563-.4-.078-.108a.558.558 0 0 0-.378-.257.652.652 0 0 0-.46.148 1.179 1.179 0 0 0-.283.287 1 1 0 0 0-.156.344l-.236-.1a1.168 1.168 0 0 1 .2-.409 1.547 1.547 0 0 1 .353-.347.923.923 0 0 1 .657-.208m.7 1.541a.683.683 0 0 0 .024-.422l-.207-.29-.556.4q-.455.326-.229.643a.357.357 0 0 0 .293.16.661.661 0 0 0 .394-.147.78.78 0 0 0 .281-.341" transform="translate(-1287.331 -189.131)" style="fill:#eb6344"/>
        <path data-name="Trazado 1626" d="M1352.977 250.661a.2.2 0 0 1-.142-.077.2.2 0 0 1-.043-.152.209.209 0 0 1 .08-.145.212.212 0 0 1 .157-.05.194.194 0 0 1 .139.072.213.213 0 0 1-.032.3.208.208 0 0 1-.158.048m1.744 3.107a.508.508 0 0 1-.223.044l-.06-.239a.5.5 0 0 0 .335-.127.341.341 0 0 0 .142-.249.443.443 0 0 0-.12-.3l-1.473-1.82.229-.185 1.474 1.82a.684.684 0 0 1 .176.482.613.613 0 0 1-.255.436.945.945 0 0 1-.224.136" transform="translate(-1291.65 -184.201)" style="fill:#eb6344"/>
        <path data-name="Trazado 1627" d="m1361.588 247.431-1.347 1.23a.78.78 0 0 0 .563.229.868.868 0 0 0 .582-.248.943.943 0 0 0 .226-.305.814.814 0 0 0 .073-.356l.251.029a.934.934 0 0 1-.089.441 1.226 1.226 0 0 1-.292.39 1.212 1.212 0 0 1-.536.3 1.029 1.029 0 0 1-.565-.02 1.127 1.127 0 0 1-.493-.324 1.168 1.168 0 0 1-.284-.516 1.01 1.01 0 0 1 .016-.548 1.065 1.065 0 0 1 .307-.471 1.052 1.052 0 0 1 .5-.262 1 1 0 0 1 .543.035 1.178 1.178 0 0 1 .488.332zm-1.669.517a.79.79 0 0 0 .174.551l1.142-1.043a.791.791 0 0 0-.533-.224.749.749 0 0 0-.529.211.741.741 0 0 0-.255.505" transform="translate(-1296.698 -181.798)" style="fill:#eb6344"/>
        <path data-name="Trazado 1628" d="M1232.077 129.871c0 .564.008 1.051-.005 1.537a.936.936 0 0 1-.116.366 9.228 9.228 0 0 0 1.841 10.688.387.387 0 0 0 .045.033 2.075 2.075 0 0 0 .191-2.822 3.417 3.417 0 0 1 .113-4.07 3.823 3.823 0 0 1 1.244-.893c.486-.239.528-.436.2-.858a1.3 1.3 0 0 1-.072-1.546c.231-.363.481-.714.715-1.075a1.791 1.791 0 0 0 .235-1.61 3.176 3.176 0 0 1-.027-2.358 11.063 11.063 0 0 0-2.557 1.855c0-.418-.009-.769.007-1.119a.371.371 0 0 1 .146-.218 11.881 11.881 0 0 1 5.137-2.458 12.245 12.245 0 0 1 4.4-.146v.882c-.4-.03-.795-.049-1.19-.093-.2-.022-.276.056-.379.224a2.743 2.743 0 0 0-.245 2.435 1.851 1.851 0 0 1 .085.8 1.643 1.643 0 0 1-.3.675c-.213.305-.226.432.045.7.254.249.518.488.764.745a.61.61 0 0 0 .557.185c.958-.107 1.919-.191 2.874-.319a1.559 1.559 0 0 1 1.6.625c.364.487.765.946 1.158 1.411a1.424 1.424 0 0 1 .349.979c-.011.711 0 1.423 0 2.135a.449.449 0 0 0 .253.459q1.477.716 2.952 1.435a.43.43 0 0 0 .095.018 8.46 8.46 0 0 0 .4-2.343 9.078 9.078 0 0 0-.584-3.521 1.157 1.157 0 0 1-.072-.38c-.008-.552 0-1.1.043-1.683.052.078.108.153.155.234a10.059 10.059 0 0 1-.76 11.237 11.544 11.544 0 0 1-7.588 4.434 12.005 12.005 0 0 1-9.272-2.213 10.283 10.283 0 0 1-4.249-6.765 9.882 9.882 0 0 1 1.68-7.417c.03-.044.067-.083.147-.182m16.694 13.512v-.084c-.28-.052-.559-.106-.839-.156a1.541 1.541 0 0 1-1.308-1.189.664.664 0 0 0-1.059-.441c-.472.267-.94.542-1.411.81-.09.051-.189.086-.315.143 0-.319-.012-.581.007-.841a.347.347 0 0 1 .142-.237c.407-.248.818-.493 1.239-.715a1.542 1.542 0 0 1 2.245.988.763.763 0 0 0 .651.605c.49.1.972.226 1.507.353a9.692 9.692 0 0 0 2.245-3.271c-1.021-.5-2.007-.988-3.006-1.454a1.4 1.4 0 0 1-.9-1.434c.025-.664.016-1.329 0-1.994a.885.885 0 0 0-.17-.48c-.328-.432-.712-.824-1.02-1.269a.933.933 0 0 0-1.031-.406c-.926.132-1.859.211-2.79.312a1.43 1.43 0 0 1-1.246-.446c-.254-.262-.524-.509-.785-.764a1.263 1.263 0 0 1-.116-1.873.666.666 0 0 0 .108-.457 15.454 15.454 0 0 0-.258-1.292 1.545 1.545 0 0 1 .11-1.064c.117-.239.211-.488.329-.765a11.159 11.159 0 0 0-3.193.647.272.272 0 0 0-.132.093 2.615 2.615 0 0 0-.473 2.551 2.61 2.61 0 0 1-.286 2.418c-.2.326-.424.639-.636.959-.229.344-.224.446.032.769a1.308 1.308 0 0 1-.373 1.982 2.9 2.9 0 0 1-.373.194 2.424 2.424 0 0 0-.864 3.6 2.819 2.819 0 0 1 .156 3.336c-.125.206-.252.411-.375.611a8.85 8.85 0 0 0 2.787 1.672 1.92 1.92 0 0 1 1.9-1.34.818.818 0 0 0 .695-.464c.077-.139.145-.283.226-.42a1.779 1.779 0 0 1 1.834-.865v.88a1.1 1.1 0 0 0-1.235.767 1.772 1.772 0 0 1-1.625 1.018.931.931 0 0 0-.932.8 11.6 11.6 0 0 0 10.545-1.782" transform="translate(-1201.352 -92.057)" style="fill:#fff"/>
        <path data-name="Trazado 1629" d="M1229.666 114.672v6.483a2.622 2.622 0 0 1-.006.281.417.417 0 0 1-.4.4.411.411 0 0 1-.466-.318 1.168 1.168 0 0 1-.03-.332v-6.524a4.158 4.158 0 0 1-1.838-.512 3.832 3.832 0 0 1-1.886-3.948c.062-.357.2-.479.563-.491a3.785 3.785 0 0 1 3.467 1.793c.041.061.079.125.138.219l.175-.259a3.783 3.783 0 0 1 3.461-1.752c.349.013.475.131.543.481a3.84 3.84 0 0 1-3.168 4.4c-.175.024-.35.045-.555.072m2.835-4.033a2.851 2.851 0 0 0-2.791 3.095 2.882 2.882 0 0 0 2.791-3.095m-3.77 3.1a2.877 2.877 0 0 0-2.8-3.1 2.892 2.892 0 0 0 2.8 3.1" transform="translate(-1197.587 -80.772)" style="fill:#fff"/>
        <path data-name="Trazado 1630" d="M1298.307 120.166a3.483 3.483 0 0 1-2.606-1.326 3.4 3.4 0 0 1-.712-2.634c.048-.389.2-.523.589-.533a3.431 3.431 0 0 1 3.061 1.556l.123.173c.094-.131.174-.253.264-.367a3.419 3.419 0 0 1 2.963-1.361c.34.014.472.141.534.491a3.452 3.452 0 0 1-2.888 3.95l-.427.062v6.701a2.3 2.3 0 0 1-.009.308.414.414 0 0 1-.413.386.4.4 0 0 1-.442-.314 1.317 1.317 0 0 1-.034-.36v-6.375zm.924-.918a2.484 2.484 0 0 0 2.4-2.656 2.522 2.522 0 0 0-2.4 2.656m-.95 0a2.484 2.484 0 0 0-2.388-2.643 2.493 2.493 0 0 0 2.388 2.643" transform="translate(-1249.085 -85.16)" style="fill:#fff"/>
        <path data-name="Trazado 1631" d="M1275.616 105.25V110.046c0 .381-.159.59-.445.594s-.455-.208-.455-.583v-4.809a3.11 3.11 0 0 1-2.067-.938 3.042 3.042 0 0 1-.845-2.575c.044-.383.2-.522.591-.53a3.043 3.043 0 0 1 2.635 1.292l.127.174c.107-.137.2-.265.3-.382a3.014 3.014 0 0 1 2.538-1.081c.313.015.445.139.51.454a3.076 3.076 0 0 1-2.495 3.531l-.393.059m2-3.133a2.117 2.117 0 0 0-1.965 2.207 2.111 2.111 0 0 0 1.965-2.207m-2.927 2.215a2.082 2.082 0 0 0-1.986-2.177 2.138 2.138 0 0 0 1.986 2.177" transform="translate(-1232.024 -74.509)" style="fill:#fff"/>
        <path data-name="Trazado 1632" d="M1292.719 130.994c-.54-.459-1.053-.936-1.607-1.358a10.129 10.129 0 0 0-2.893-1.515.267.267 0 0 1-.22-.318c.014-.214 0-.428 0-.67a2 2 0 0 1 .225.043 12.01 12.01 0 0 1 4.268 2.4.608.608 0 0 1 .241.553c-.02.27-.005.542-.007.813a.217.217 0 0 1-.011.049" transform="translate(-1243.963 -93.594)" style="fill:#fff"/>
        <path data-name="Trazado 1633" d="M1267.646 164.449a3.477 3.477 0 0 1-2.146-.846 3.4 3.4 0 0 1-1.166-3.149c.045-.351.2-.487.563-.5a3.436 3.436 0 0 1 3.038 1.493l.148.2c0 .007.016.008.036.017a3.354 3.354 0 0 1 2-1.56 5.651 5.651 0 0 1 1.218-.145c.325-.013.465.144.518.47a3.444 3.444 0 0 1-2.9 3.966l-.414.063v4.491a1.744 1.744 0 0 1-.009.28.418.418 0 0 1-.4.373.4.4 0 0 1-.444-.27 1.014 1.014 0 0 1-.049-.357v-4.213zm.936-.932a2.5 2.5 0 0 0 2.4-2.638 2.5 2.5 0 0 0-2.4 2.638m-.957.009a2.484 2.484 0 0 0-2.388-2.643 2.493 2.493 0 0 0 2.388 2.643" transform="translate(-1226.519 -117.751)" style="fill:#fff"/>
    </g>
</svg>
