<svg xmlns="http://www.w3.org/2000/svg" width="81.109" height="81.285" viewBox="0 0 81.109 81.285">
    <defs>
        <clipPath id="ptx1fwya3a">
            <path data-name="Rectángulo 233" style="fill:none" d="M0 0h81.109v81.285H0z"/>
        </clipPath>
    </defs>
    <g data-name="Grupo 769">
        <path data-name="Trazado 1634" d="M1576.5 42.4a40.119 40.119 0 1 1-40.124-40.12A40.119 40.119 0 0 1 1576.5 42.4" transform="translate(-1495.904 -1.702)" style="fill:#565656"/>
        <g data-name="Grupo 757" style="opacity:.65;mix-blend-mode:multiply;isolation:isolate">
            <g data-name="Grupo 756">
                <g data-name="Grupo 755" style="clip-path:url(#ptx1fwya3a)">
                    <path data-name="Trazado 1635" d="M1557.077 86.494q0 1.092.1 2.159c17.079 7.465 25.09-8.524 35.809-8.039a24.753 24.753 0 0 1 12.47 3.837 24.23 24.23 0 0 0-48.374 2.044" transform="translate(-1540.668 -45.851)" style="fill:#8f8f8f"/>
                    <path data-name="Trazado 1636" d="M1557.438 139.781a24.23 24.23 0 0 0 48.364-2.159q0-1.032-.085-2.044a24.754 24.754 0 0 0-12.47-3.837c-10.719-.485-18.729 15.5-35.809 8.039" transform="translate(-1540.934 -96.98)" style="fill:gray"/>
                    <path data-name="Trazado 1637" d="m1508.744 160.074-6.523-2.276-6.3 2.895v-.031l-.093-.929 6.353-2.918 6.443 2.249a.048.048 0 0 0 0 .01z" transform="translate(-1495.583 -115.443)" style="fill:gray"/>
                    <path data-name="Trazado 1638" d="m1766.3 162.34-6.824 2.157-5.953-2.951q-.034.49-.085.976l5.963 2.956 6.821-2.156z" transform="translate(-1685.191 -118.924)" style="fill:gray"/>
                    <path data-name="Trazado 1639" d="M1544.608 184.831a28.711 28.711 0 0 0 54.649 0c.079-.228.169-.55.266-.912h-.939a27.8 27.8 0 0 1-53.3 0h-.941c.1.362.188.686.266.912" transform="translate(-1531.294 -135.391)" style="fill:gray"/>
                    <path data-name="Trazado 1640" d="M1576.636 183.918c-.082.418-.158.756-.2.912a39.4 39.4 0 0 1-4.66 11.614 39.745 39.745 0 0 1-68.185 0 39.39 39.39 0 0 1-4.66-11.614c-.086-.326-.14-.574-.2-.912h-.92a40.651 40.651 0 0 0 79.754 0z" transform="translate(-1497.044 -135.39)" style="fill:gray"/>
                    <path data-name="Trazado 1641" d="m1575.28 32.328.042-.053a40.676 40.676 0 0 0-80.156 3.645l.038-.011a41.008 41.008 0 0 0-.28 4.22l6.42-2.608 6.434 2.8a27.705 27.705 0 0 1 8.261-19.359l.02-.02c.107-.1.215-.208.323-.311.086-.082.172-.164.259-.244l.089-.082a27.79 27.79 0 0 1 46.426 17.569l7.287 4.3 5.5-5.648a40.364 40.364 0 0 0-.663-4.2" transform="translate(-1494.923 -.093)" style="fill:#8f8f8f"/>
                    <path data-name="Trazado 1642" d="M1545.5 52.648a1.842 1.842 0 0 1 2.423 2.368 2.981 2.981 0 0 1-.692 1.045l-.636.651.976.954-1.032 1.056-3.736-3.65 1.669-1.707a2.981 2.981 0 0 1 1.029-.716m1.174 2.034a.7.7 0 0 0-.241-.559.712.712 0 0 0-.567-.231 1.018 1.018 0 0 0-.624.35l-.574.587 1.094 1.069.573-.587a1.031 1.031 0 0 0 .338-.629" transform="translate(-1530.164 -38.671)" style="fill:#fff"/>
                    <path data-name="Trazado 1643" d="m1564.061 41.778-.653.473.814 1.124-1.2.866-3.063-4.23 1.934-1.4a2.985 2.985 0 0 1 1.135-.531 1.9 1.9 0 0 1 2.243 1.692 1.79 1.79 0 0 1-.226.979l1.875.669-1.281.927zm-.88-2.412a1.02 1.02 0 0 0-.674.239l-.665.481.9 1.239.665-.481a1.034 1.034 0 0 0 .44-.563.7.7 0 0 0-.143-.592.712.712 0 0 0-.52-.324" transform="translate(-1542.792 -28.018)" style="fill:#fff"/>
                    <path data-name="Trazado 1644" d="m1585.573 28.578.507 1.023-3.757 1.862-2.32-4.68 3.67-1.819.507 1.023-2.359 1.17.391.789 2.079-1.031.491.989-2.079 1.031.424.856z" transform="translate(-1557.542 -18.399)" style="fill:#fff"/>
                    <path data-name="Trazado 1645" d="M1603.8 19.244a1.842 1.842 0 0 1 .979 3.243 2.978 2.978 0 0 1-1.111.581l-.871.263.394 1.307-1.414.427-1.509-5 2.286-.69a2.98 2.98 0 0 1 1.247-.131m.046 2.348a.7.7 0 0 0 .059-.606.711.711 0 0 0-.385-.476 1.018 1.018 0 0 0-.715.006l-.786.237.442 1.464.786-.237a1.032 1.032 0 0 0 .6-.388" transform="translate(-1572.456 -14.174)" style="fill:#fff"/>
                    <path data-name="Trazado 1646" d="m1626.417 18.886-2.192.272-.282 1.058-1.5.186 1.644-5.467 1.444-.18 2.939 4.9-1.525.19zm-.564-1.028-.872-1.576-.46 1.741z" transform="translate(-1588.781 -10.884)" style="fill:#fff"/>
                    <path data-name="Trazado 1647" d="m1649.233 17.717-.8-.043-.073 1.386-1.475-.078.277-5.216 2.384.127a2.981 2.981 0 0 1 1.217.3 1.9 1.9 0 0 1 .681 2.726 1.794 1.794 0 0 1-.791.619l1.038 1.7-1.58-.084zm.831-2.429a1.021 1.021 0 0 0-.675-.237l-.82-.044-.081 1.527.82.043a1.031 1.031 0 0 0 .7-.161.7.7 0 0 0 .261-.55.712.712 0 0 0-.2-.579" transform="translate(-1606.763 -10.156)" style="fill:#fff"/>
                    <path data-name="Trazado 1648" d="m1669.645 21.635-2.15-.507-.632.893-1.467-.346 3.443-4.554 1.416.334 1.052 5.614-1.5-.353zm-.171-1.16-.27-1.781-1.037 1.473z" transform="translate(-1620.392 -12.626)" style="fill:#fff"/>
                    <path data-name="Trazado 1649" d="m1691.255 22.232 2.254 1.01a3.459 3.459 0 0 1 1.258.915 2.415 2.415 0 0 1 .568 1.252 2.789 2.789 0 0 1-1.129 2.52 2.418 2.418 0 0 1-1.312.41 3.456 3.456 0 0 1-1.52-.329l-2.255-1.01zm.546 4.676a1.514 1.514 0 0 0 1.14.093 1.565 1.565 0 0 0 .86-1.92 1.514 1.514 0 0 0-.828-.788l-.851-.381-1.171 2.615z" transform="translate(-1637.852 -16.387)" style="fill:#fff"/>
                    <path data-name="Trazado 1650" d="M1713.372 40.981a2.67 2.67 0 0 1 2.733-3.861 3.336 3.336 0 0 1 2.43 1.72 2.671 2.671 0 0 1-2.735 3.86 3.335 3.335 0 0 1-2.43-1.72m2.411.409a1.343 1.343 0 0 0 .718-.136 1.723 1.723 0 0 0 .9-1.273 1.342 1.342 0 0 0-.111-.722 1.469 1.469 0 0 0-1.169-.828 1.343 1.343 0 0 0-.718.136 1.723 1.723 0 0 0-.9 1.273 1.338 1.338 0 0 0 .11.722 1.468 1.468 0 0 0 1.169.828" transform="translate(-1655.487 -27.328)" style="fill:#fff"/>
                    <path data-name="Trazado 1651" d="M1729.935 55.821a3.026 3.026 0 0 1-.386-.983l1.115-.422a3.3 3.3 0 0 0 .847 1.587q.6.6.9.305a.352.352 0 0 0 .065-.406 4.445 4.445 0 0 0-.387-.714 7.44 7.44 0 0 1-.5-.891 1.661 1.661 0 0 1-.146-.811 1.261 1.261 0 0 1 .416-.81 1.5 1.5 0 0 1 .8-.421 1.75 1.75 0 0 1 .981.126 3.213 3.213 0 0 1 1.054.746 4.508 4.508 0 0 1 .632.8 3.121 3.121 0 0 1 .378.865l-1.1.448a3.043 3.043 0 0 0-.732-1.312 1.215 1.215 0 0 0-.544-.364.393.393 0 0 0-.383.1.337.337 0 0 0-.055.39 4.307 4.307 0 0 0 .387.7 7.174 7.174 0 0 1 .5.894 1.705 1.705 0 0 1 .149.808 1.234 1.234 0 0 1-.41.81 1.468 1.468 0 0 1-.788.413 1.778 1.778 0 0 1-.983-.129 3.169 3.169 0 0 1-1.054-.741 4.842 4.842 0 0 1-.755-.985" transform="translate(-1667.609 -38.466)" style="fill:#fff"/>
                    <path data-name="Trazado 1652" d="m1522.7 200.888.609-.969a2.072 2.072 0 0 1-.1-.21l-.3-.72-.851.351-.117-.284 2.682-1.106.414 1a1.311 1.311 0 0 1 .087.906.9.9 0 0 1-.554.569.942.942 0 0 1-.6.06.953.953 0 0 1-.5-.325l-.649 1.035zm1.175-.749a.749.749 0 0 0 .994-.41 1.012 1.012 0 0 0-.077-.681l-.294-.712-1.345.555.294.713a1 1 0 0 0 .428.536" transform="translate(-1514.809 -145.717)" style="fill:#8f8f8f"/>
                    <path data-name="Trazado 1653" d="m1529.433 212.53-.84-1.619a.779.779 0 0 0-.367.485.866.866 0 0 0 .089.626.94.94 0 0 0 .236.3.812.812 0 0 0 .325.163l-.093.235a.937.937 0 0 1-.4-.2 1.227 1.227 0 0 1-.3-.383 1.211 1.211 0 0 1-.147-.594 1.028 1.028 0 0 1 .165-.541 1.129 1.129 0 0 1 .441-.393 1.167 1.167 0 0 1 .572-.14 1 1 0 0 1 .525.157 1.121 1.121 0 0 1 .5.966 1 1 0 0 1-.174.515 1.181 1.181 0 0 1-.447.386zm-.068-1.746a.789.789 0 0 0-.577.026l.713 1.372a.791.791 0 0 0 .354-.457.748.748 0 0 0-.067-.565.739.739 0 0 0-.422-.376" transform="translate(-1519.217 -154.931)" style="fill:#8f8f8f"/>
                    <path data-name="Trazado 1654" d="M1532.321 220.124a1.089 1.089 0 0 1-.035-.424l.267-.009a1.107 1.107 0 0 0 .031.385 1.351 1.351 0 0 0 .167.4.83.83 0 0 0 .311.327.3.3 0 0 0 .3-.016.237.237 0 0 0 .119-.166.518.518 0 0 0-.016-.224 2.827 2.827 0 0 0-.109-.308 3.682 3.682 0 0 1-.137-.417.631.631 0 0 1 .005-.327.49.49 0 0 1 .233-.277.54.54 0 0 1 .5-.041 1.026 1.026 0 0 1 .481.449 1.632 1.632 0 0 1 .174.389 1.158 1.158 0 0 1 .057.374l-.269.015a1.1 1.1 0 0 0-.178-.645.743.743 0 0 0-.307-.309.3.3 0 0 0-.3.015.259.259 0 0 0-.127.173.5.5 0 0 0 .012.229 3.2 3.2 0 0 0 .112.32 3.818 3.818 0 0 1 .135.409.608.608 0 0 1 0 .318.467.467 0 0 1-.224.269.527.527 0 0 1-.511.035 1.135 1.135 0 0 1-.49-.475 1.664 1.664 0 0 1-.2-.473" transform="translate(-1522.416 -161.201)" style="fill:#8f8f8f"/>
                    <path data-name="Trazado 1655" d="M1537.8 227.367a1 1 0 0 1-.087.545 1.256 1.256 0 0 1-.935.681.994.994 0 0 1-.545-.082 1.116 1.116 0 0 1-.44-.369 1.027 1.027 0 0 1-.193-.452.9.9 0 0 1 .053-.472l-.981.715-.174-.238 2.412-1.758.166.228-.348.254a.9.9 0 0 1 .474.088 1.024 1.024 0 0 1 .383.328 1.123 1.123 0 0 1 .215.531m-1.479.878a.748.748 0 0 0 .415.059.915.915 0 0 0 .421-.176.9.9 0 0 0 .294-.345.765.765 0 0 0 .071-.413.855.855 0 0 0-.49-.672.763.763 0 0 0-.413-.058.9.9 0 0 0-.419.174.92.92 0 0 0-.3.347.751.751 0 0 0-.072.411.816.816 0 0 0 .16.4.827.827 0 0 0 .329.273" transform="translate(-1524.048 -166.317)" style="fill:#8f8f8f"/>
                    <path data-name="Trazado 1656" d="m1548.037 236.445-1.642 1.435-.186-.212.3-.262a.809.809 0 0 1-.443-.037.96.96 0 0 1-.388-.277.844.844 0 0 1 .1-1.309l.952-.832.194.222-.93.813a.728.728 0 0 0-.281.472.638.638 0 0 0 .185.482.714.714 0 0 0 .515.271.81.81 0 0 0 .569-.233l.861-.753z" transform="translate(-1532.083 -172.95)" style="fill:#8f8f8f"/>
                    <path data-name="Trazado 1657" d="m1555.081 246.288-1.31-1.268a.78.78 0 0 0-.194.576.868.868 0 0 0 .284.565.943.943 0 0 0 .318.207.815.815 0 0 0 .36.051l-.014.252a.933.933 0 0 1-.445-.062 1.23 1.23 0 0 1-.407-.267 1.21 1.21 0 0 1-.328-.517 1.03 1.03 0 0 1-.015-.565 1.131 1.131 0 0 1 .294-.512 1.17 1.17 0 0 1 .5-.314 1 1 0 0 1 .548-.018 1.12 1.12 0 0 1 .782.757 1 1 0 0 1 0 .544 1.179 1.179 0 0 1-.3.508zm-.619-1.634a.79.79 0 0 0-.539.208l1.111 1.075a.79.79 0 0 0 .191-.545.8.8 0 0 0-.763-.738" transform="translate(-1537.885 -179.896)" style="fill:#8f8f8f"/>
                    <path data-name="Trazado 1658" d="M1560.067 252.38a1.09 1.09 0 0 1-.167-.391l.251-.093a1.12 1.12 0 0 0 .151.356 1.376 1.376 0 0 0 .287.329.824.824 0 0 0 .4.211.3.3 0 0 0 .278-.11.237.237 0 0 0 .061-.2.525.525 0 0 0-.086-.207 2.9 2.9 0 0 0-.2-.257 3.641 3.641 0 0 1-.263-.352.626.626 0 0 1-.1-.312.491.491 0 0 1 .133-.337.54.54 0 0 1 .462-.2 1.023 1.023 0 0 1 .6.273 1.638 1.638 0 0 1 .289.314 1.161 1.161 0 0 1 .173.336l-.25.1a1.1 1.1 0 0 0-.373-.555.747.747 0 0 0-.39-.2.3.3 0 0 0-.277.109.257.257 0 0 0-.066.2.494.494 0 0 0 .084.213 3.2 3.2 0 0 0 .208.268 3.754 3.754 0 0 1 .257.345.618.618 0 0 1 .1.3.468.468 0 0 1-.127.326.528.528 0 0 1-.474.2 1.133 1.133 0 0 1-.615-.3 1.672 1.672 0 0 1-.341-.384" transform="translate(-1542.745 -184.633)" style="fill:#8f8f8f"/>
                    <path data-name="Trazado 1659" d="M1568.859 257.019a.556.556 0 0 1-.233-.03.82.82 0 0 1-.229-.119.641.641 0 0 1-.282-.414.634.634 0 0 1 .144-.475l.782-1.061-.313-.231.147-.2.314.231.283-.384.237.175-.283.384.534.394-.147.2-.534-.393-.772 1.048a.412.412 0 0 0-.1.3.371.371 0 0 0 .165.248.536.536 0 0 0 .159.081.441.441 0 0 0 .168.021z" transform="translate(-1548.788 -187.217)" style="fill:#8f8f8f"/>
                    <path data-name="Trazado 1660" d="M1575.874 261.209a.825.825 0 0 1-.148.656L1575 263l-.238-.152.183-.286a.676.676 0 0 1-.389.066 1.021 1.021 0 0 1-.437-.166.9.9 0 0 1-.4-.459.6.6 0 0 1 .476-.773.984.984 0 0 1 .632.2l.583.373.071-.112a.56.56 0 0 0 .1-.447.651.651 0 0 0-.309-.371 1.168 1.168 0 0 0-.372-.157 1.007 1.007 0 0 0-.378-.017l.006-.257a1.177 1.177 0 0 1 .453.031 1.55 1.55 0 0 1 .453.2.926.926 0 0 1 .437.532m-1.172 1.219a.681.681 0 0 0 .4-.135l.192-.3-.577-.368q-.471-.3-.681.028a.357.357 0 0 0-.04.331.662.662 0 0 0 .283.311.776.776 0 0 0 .421.134" transform="translate(-1552.896 -191.709)" style="fill:#8f8f8f"/>
                    <path data-name="Trazado 1661" d="m1587.621 267.732-2.05 1.717a1.04 1.04 0 0 1-.467.257.684.684 0 0 1-.432-.068.858.858 0 0 1-.243-.174.641.641 0 0 1-.147-.238l.219-.138a.543.543 0 0 0 .285.323.4.4 0 0 0 .265.037.755.755 0 0 0 .3-.167l.178-.148.078-2.383.276.134-.074 2.025 1.55-1.306z" transform="translate(-1560.691 -196.356)" style="fill:#8f8f8f"/>
                    <path data-name="Trazado 1662" d="M1604.81 274.547a.948.948 0 0 1 .01.735l-.385 1.2-.28-.09.377-1.177a.741.741 0 0 0 0-.543.6.6 0 0 0-.386-.311.694.694 0 0 0-.573.036.815.815 0 0 0-.362.491l-.349 1.089-.28-.09.377-1.176a.74.74 0 0 0 0-.543.6.6 0 0 0-.39-.312.7.7 0 0 0-.571.037.812.812 0 0 0-.364.491l-.349 1.089-.28-.089.665-2.077.269.086-.122.379a.785.785 0 0 1 .4-.193 1.015 1.015 0 0 1 .487.043.932.932 0 0 1 .417.255.714.714 0 0 1 .181.419.848.848 0 0 1 .433-.216 1.068 1.068 0 0 1 .529.041.867.867 0 0 1 .542.422" transform="translate(-1573.002 -201.185)" style="fill:#8f8f8f"/>
                    <path data-name="Trazado 1663" d="M1620.058 278.972a.823.823 0 0 1 .1.665l-.271 1.324-.276-.056.068-.333a.675.675 0 0 1-.339.2 1.02 1.02 0 0 1-.468 0 .9.9 0 0 1-.533-.287.6.6 0 0 1 .168-.892.985.985 0 0 1 .662-.038l.678.139.026-.13a.558.558 0 0 0-.068-.452.652.652 0 0 0-.422-.237 1.173 1.173 0 0 0-.4-.013.994.994 0 0 0-.359.119l-.086-.242a1.177 1.177 0 0 1 .433-.133 1.553 1.553 0 0 1 .495.023.924.924 0 0 1 .6.341m-.658 1.558a.681.681 0 0 0 .326-.27l.072-.349-.67-.138q-.548-.112-.626.27a.355.355 0 0 0 .081.323.661.661 0 0 0 .376.189.775.775 0 0 0 .441-.026" transform="translate(-1585.656 -205.076)" style="fill:#8f8f8f"/>
                    <path data-name="Trazado 1664" d="M1630.929 280.508a.931.931 0 0 1 .159.718l-.149 1.255-.292-.035.146-1.227a.723.723 0 0 0-.108-.535.638.638 0 0 0-.46-.234.746.746 0 0 0-.578.142.791.791 0 0 0-.272.55l-.135 1.136-.292-.035.257-2.165.28.033-.047.4a.817.817 0 0 1 .368-.267 1.067 1.067 0 0 1 .5-.05.891.891 0 0 1 .62.314" transform="translate(-1593.564 -206.166)" style="fill:#8f8f8f"/>
                    <path data-name="Trazado 1665" d="m1642.373 282.515-1.823-.062a.779.779 0 0 0 .242.558.865.865 0 0 0 .589.23.946.946 0 0 0 .375-.06.818.818 0 0 0 .3-.2l.159.2a.931.931 0 0 1-.372.253 1.225 1.225 0 0 1-.481.075 1.212 1.212 0 0 1-.59-.163 1.032 1.032 0 0 1-.391-.409 1.131 1.131 0 0 1-.125-.577 1.166 1.166 0 0 1 .158-.567 1 1 0 0 1 .395-.38 1.065 1.065 0 0 1 .55-.122 1.052 1.052 0 0 1 .538.159 1 1 0 0 1 .364.4 1.174 1.174 0 0 1 .117.578zm-1.555-.8a.79.79 0 0 0-.26.516l1.545.053a.789.789 0 0 0-.224-.532.8.8 0 0 0-1.061-.036" transform="translate(-1601.89 -207.05)" style="fill:#8f8f8f"/>
                    <path data-name="Trazado 1666" d="M1649.009 281.859a.506.506 0 0 1-.2-.1l.1-.226a.5.5 0 0 0 .343.1.342.342 0 0 0 .265-.11.444.444 0 0 0 .086-.309l-.058-2.341.294-.007.059 2.341a.684.684 0 0 1-.154.489.614.614 0 0 1-.468.19.93.93 0 0 1-.26-.029m.511-3.527a.2.2 0 0 1-.066-.148.2.2 0 0 1 .059-.147.208.208 0 0 1 .152-.066.211.211 0 0 1 .155.056.191.191 0 0 1 .066.142.217.217 0 0 1-.365.162" transform="translate(-1608.181 -204.615)" style="fill:#8f8f8f"/>
                    <path data-name="Trazado 1667" d="M1656.7 282.985a1.043 1.043 0 0 1-.43-.36 1.2 1.2 0 0 1-.1-1.14 1.031 1.031 0 0 1 .363-.426 1.216 1.216 0 0 1 1.132-.1 1.016 1.016 0 0 1 .428.358 1.216 1.216 0 0 1 .1 1.14 1.031 1.031 0 0 1-.36.428 1.2 1.2 0 0 1-1.132.1m.962-.307a.738.738 0 0 0 .261-.324 1 1 0 0 0-.076-.884.737.737 0 0 0-.313-.275.874.874 0 0 0-.83.071.752.752 0 0 0-.263.324.985.985 0 0 0 .076.884.756.756 0 0 0 .315.275.875.875 0 0 0 .83-.072" transform="translate(-1613.532 -206.743)" style="fill:#8f8f8f"/>
                    <path data-name="Trazado 1668" d="m1673.676 274.494.643 3.008-.275.059-.09-.421a.9.9 0 0 1-.272.4 1.031 1.031 0 0 1-.457.216 1.107 1.107 0 0 1-.572-.022 1.006 1.006 0 0 1-.464-.3 1.249 1.249 0 0 1-.241-1.127.991.991 0 0 1 .3-.465 1.117 1.117 0 0 1 .514-.252 1.033 1.033 0 0 1 .491.007.911.911 0 0 1 .41.241l-.274-1.281zm-.1 2.813a.75.75 0 0 0 .221-.355.983.983 0 0 0-.186-.867.751.751 0 0 0-.347-.233.864.864 0 0 0-.81.173.75.75 0 0 0-.221.354.984.984 0 0 0 .186.867.751.751 0 0 0 .347.233.822.822 0 0 0 .429.016.814.814 0 0 0 .381-.19" transform="translate(-1625.18 -202.055)" style="fill:#8f8f8f"/>
                    <path data-name="Trazado 1669" d="m1685.313 276.536-1.745.532a.781.781 0 0 0 .41.449.866.866 0 0 0 .632.026.934.934 0 0 0 .336-.178.814.814 0 0 0 .219-.29l.214.134a.934.934 0 0 1-.27.359 1.229 1.229 0 0 1-.432.227 1.214 1.214 0 0 1-.611.037 1.033 1.033 0 0 1-.5-.261 1.126 1.126 0 0 1-.306-.5 1.17 1.17 0 0 1-.034-.588 1.006 1.006 0 0 1 .25-.488 1.119 1.119 0 0 1 1.041-.317 1 1 0 0 1 .475.264 1.178 1.178 0 0 1 .3.509zm-1.73-.251a.789.789 0 0 0-.079.573l1.479-.451a.788.788 0 0 0-.385-.431.8.8 0 0 0-1.015.309" transform="translate(-1633.498 -202.903)" style="fill:#8f8f8f"/>
                    <path data-name="Trazado 1670" d="m1699.926 270.96-1.668.737a.778.778 0 0 0 .461.4.866.866 0 0 0 .631-.05.941.941 0 0 0 .312-.217.811.811 0 0 0 .183-.314l.229.107a.934.934 0 0 1-.224.389 1.234 1.234 0 0 1-.4.277 1.209 1.209 0 0 1-.6.109 1.032 1.032 0 0 1-.53-.2 1.128 1.128 0 0 1-.364-.465 1.165 1.165 0 0 1-.1-.579 1 1 0 0 1 .19-.514 1.066 1.066 0 0 1 .442-.349 1.054 1.054 0 0 1 .554-.091 1 1 0 0 1 .5.206 1.178 1.178 0 0 1 .357.47zm-1.747-.042a.788.788 0 0 0-.01.578l1.414-.625a.788.788 0 0 0-.434-.382.8.8 0 0 0-.97.428" transform="translate(-1644.274 -198.888)" style="fill:#8f8f8f"/>
                    <path data-name="Trazado 1671" d="M1709.645 262.078a.949.949 0 0 1 .551.486l.633 1.095-.255.147-.618-1.07a.741.741 0 0 0-.4-.367.6.6 0 0 0-.489.077.694.694 0 0 0-.358.449.815.815 0 0 0 .121.6l.572.991-.255.147-.618-1.069a.741.741 0 0 0-.4-.367.6.6 0 0 0-.493.079.7.7 0 0 0-.356.447.81.81 0 0 0 .119.6l.572.991-.255.147-1.091-1.888.244-.141.2.344a.783.783 0 0 1 .126-.427 1.014 1.014 0 0 1 .359-.332.933.933 0 0 1 .469-.137.713.713 0 0 1 .432.148.854.854 0 0 1 .131-.466 1.069 1.069 0 0 1 .386-.364.869.869 0 0 1 .677-.118" transform="translate(-1650.734 -192.897)" style="fill:#8f8f8f"/>
                    <path data-name="Trazado 1672" d="m1724.294 256.608-1.472 1.077a.781.781 0 0 0 .535.289.868.868 0 0 0 .605-.183.941.941 0 0 0 .258-.279.818.818 0 0 0 .112-.346l.246.056a.932.932 0 0 1-.136.428 1.227 1.227 0 0 1-.332.356 1.214 1.214 0 0 1-.565.236 1.033 1.033 0 0 1-.56-.081 1.131 1.131 0 0 1-.455-.376 1.174 1.174 0 0 1-.226-.544 1.008 1.008 0 0 1 .076-.543 1.12 1.12 0 0 1 .878-.643 1 1 0 0 1 .536.094 1.179 1.179 0 0 1 .449.382zm-1.716.333a.787.787 0 0 0 .114.566l1.247-.913a.79.79 0 0 0-.505-.28.8.8 0 0 0-.856.627" transform="translate(-1662.27 -188.48)" style="fill:#8f8f8f"/>
                    <path data-name="Trazado 1673" d="M1730.093 250.283a1.049 1.049 0 0 1 .317-.413l.184.219-.057.042a.7.7 0 0 0-.276.509.843.843 0 0 0 .233.579l.715.85-.225.189-1.4-1.668.216-.182.275.327a.716.716 0 0 1 .023-.452" transform="translate(-1667.631 -183.931)" style="fill:#8f8f8f"/>
                    <path data-name="Trazado 1674" d="m1736.949 242.831 1.333 1.375a1.11 1.11 0 0 1 .378.78 1.124 1.124 0 0 1-.4.762 1.827 1.827 0 0 1-.474.336 1.175 1.175 0 0 1-.489.13l-.048-.265a1.119 1.119 0 0 0 .428-.109 1.437 1.437 0 0 0 .4-.274.838.838 0 0 0 .3-.563.811.811 0 0 0-.277-.566l-.194-.2a.885.885 0 0 1-.038.476 1.1 1.1 0 0 1-.277.419 1.16 1.16 0 0 1-.494.291 1 1 0 0 1-.545 0 1.123 1.123 0 0 1-.763-.787.99.99 0 0 1 .021-.541 1.173 1.173 0 0 1 .309-.485 1.108 1.108 0 0 1 .438-.269.906.906 0 0 1 .484-.019l-.292-.3zm.714 1.724a.735.735 0 0 0 .015-.41.808.808 0 0 0-.213-.371.8.8 0 0 0-.363-.223.742.742 0 0 0-.407 0 .955.955 0 0 0-.614.593.721.721 0 0 0-.015.407.867.867 0 0 0 .577.6.737.737 0 0 0 .409 0 .879.879 0 0 0 .376-.223.893.893 0 0 0 .236-.37" transform="translate(-1672.179 -178.75)" style="fill:#8f8f8f"/>
                    <path data-name="Trazado 1675" d="m1745.776 236.547-1.2 1.376a.779.779 0 0 0 .586.164.869.869 0 0 0 .549-.313.942.942 0 0 0 .19-.329.816.816 0 0 0 .032-.362h.253a.935.935 0 0 1-.038.448 1.228 1.228 0 0 1-.245.421 1.21 1.21 0 0 1-.5.355 1.031 1.031 0 0 1-.564.045 1.129 1.129 0 0 1-.527-.266 1.171 1.171 0 0 1-.34-.48 1.006 1.006 0 0 1-.047-.546 1.068 1.068 0 0 1 .252-.5 1.05 1.05 0 0 1 .463-.317 1 1 0 0 1 .543-.027 1.179 1.179 0 0 1 .523.274zm-1.6.7a.787.787 0 0 0 .236.527l1.015-1.166a.791.791 0 0 0-.555-.162.748.748 0 0 0-.5.27.739.739 0 0 0-.2.53" transform="translate(-1678.18 -173.859)" style="fill:#8f8f8f"/>
                    <path data-name="Trazado 1676" d="M1750.7 227.33a.932.932 0 0 1 .7.215l1.02.747-.174.237-1-.73a.725.725 0 0 0-.518-.169.64.64 0 0 0-.43.286.745.745 0 0 0-.16.573.788.788 0 0 0 .345.507l.923.676-.174.238-1.759-1.288.167-.228.324.238a.818.818 0 0 1-.052-.452 1.067 1.067 0 0 1 .2-.465.892.892 0 0 1 .578-.386" transform="translate(-1682.277 -167.335)" style="fill:#8f8f8f"/>
                    <path data-name="Trazado 1677" d="M1758.728 220.192a1.019 1.019 0 0 1-.546.134 1.142 1.142 0 0 1-.566-.176 1.13 1.13 0 0 1-.412-.423 1.024 1.024 0 0 1-.127-.547 1.176 1.176 0 0 1 .182-.567 1.122 1.122 0 0 1 .357-.372.835.835 0 0 1 .457-.131l.012.265a.688.688 0 0 0-.35.106.817.817 0 0 0-.257.265.855.855 0 0 0-.132.417.744.744 0 0 0 .1.408.988.988 0 0 0 .758.465.745.745 0 0 0 .408-.1.851.851 0 0 0 .312-.307.824.824 0 0 0 .121-.348.668.668 0 0 0-.062-.359l.242-.109a.832.832 0 0 1 .09.468 1.125 1.125 0 0 1-.168.485 1.176 1.176 0 0 1-.423.419" transform="translate(-1687.87 -160.556)" style="fill:#8f8f8f"/>
                    <path data-name="Trazado 1678" d="M1758.358 212.543a.2.2 0 0 1-.161-.016.2.2 0 0 1-.1-.123.208.208 0 0 1 .018-.165.212.212 0 0 1 .125-.107.192.192 0 0 1 .156.013.217.217 0 0 1-.039.4m.477.251.139-.26 1.922 1.031-.139.26z" transform="translate(-1688.615 -156.148)" style="fill:#8f8f8f"/>
                    <path data-name="Trazado 1679" d="M1764.461 205.556a.825.825 0 0 1 .669.058l1.226.567-.118.256-.309-.143a.676.676 0 0 1 .118.377 1.018 1.018 0 0 1-.106.456.9.9 0 0 1-.4.454.6.6 0 0 1-.83-.368.987.987 0 0 1 .115-.653l.291-.628-.12-.056a.558.558 0 0 0-.455-.037.651.651 0 0 0-.327.356 1.167 1.167 0 0 0-.105.39 1.009 1.009 0 0 0 .034.376l-.255.028a1.179 1.179 0 0 1-.031-.452 1.556 1.556 0 0 1 .136-.476.924.924 0 0 1 .469-.5m1.366 1a.68.68 0 0 0-.188-.379l-.324-.15-.287.621q-.235.508.119.671a.356.356 0 0 0 .334-.006.66.66 0 0 0 .27-.323.773.773 0 0 0 .076-.435" transform="translate(-1692.853 -151.281)" style="fill:#8f8f8f"/>
                    <path data-name="Trazado 1680" d="M1769.632 198.282a1.1 1.1 0 0 1-.314.287l-.17-.206a1.134 1.134 0 0 0 .286-.26 1.373 1.373 0 0 0 .216-.379.824.824 0 0 0 .068-.446.3.3 0 0 0-.2-.227.237.237 0 0 0-.2.007.522.522 0 0 0-.167.15 2.818 2.818 0 0 0-.176.275 3.662 3.662 0 0 1-.246.364.627.627 0 0 1-.262.2.489.489 0 0 1-.362-.015.538.538 0 0 1-.338-.371 1.025 1.025 0 0 1 .06-.655 1.656 1.656 0 0 1 .2-.376 1.161 1.161 0 0 1 .26-.274l.176.2a1.1 1.1 0 0 0-.4.535.743.743 0 0 0-.057.432.3.3 0 0 0 .194.226.257.257 0 0 0 .215-.006.5.5 0 0 0 .174-.149 3.283 3.283 0 0 0 .185-.285 3.845 3.845 0 0 1 .241-.357.613.613 0 0 1 .254-.192.466.466 0 0 1 .35.012.527.527 0 0 1 .341.383 1.132 1.132 0 0 1-.076.678 1.678 1.678 0 0 1-.251.448" transform="translate(-1695.715 -144.541)" style="fill:#8f8f8f"/>
                    <path data-name="Trazado 1681" d="M1624.536 144.192c.234 0 .447-.005.661 0a1.751 1.751 0 0 1 1.773 1.783c.012.729.005 1.459 0 2.188a.612.612 0 0 1-.7.7h-20.633c-.672 0-.845-.173-.845-.848v-1.955a1.765 1.765 0 0 1 1.867-1.867h.578l.413-2.3c.506-2.82.986-5.645 1.525-8.459a4.008 4.008 0 0 1 3.953-3.246c1.81-.016 3.619-.01 5.428 0a4.1 4.1 0 0 1 4.1 3.479q.9 5.137 1.825 10.271c.014.076.036.151.061.255m-1.212-.014c-.018-.132-.03-.238-.048-.343l-1.739-9.754a2.983 2.983 0 0 0-3.24-2.727h-5.02a2.918 2.918 0 0 0-3 2.511q-.62 3.442-1.23 6.885c-.2 1.137-.408 2.274-.616 3.427zm2.479 3.5v-1.463c0-.689-.17-.856-.867-.856h-18.113a2.6 2.6 0 0 0-.321.008.554.554 0 0 0-.532.527c-.021.589-.006 1.18-.006 1.784z" transform="translate(-1575.784 -95.838)" style="fill:#fff"/>
                    <path data-name="Trazado 1682" d="M1593.292 149.053c-.806 0-1.612.006-2.418 0a.582.582 0 0 1-.615-.786.571.571 0 0 1 .569-.377q2.477-.006 4.952 0a.582.582 0 1 1-.013 1.161c-.825.009-1.651 0-2.476 0" transform="translate(-1565.058 -108.869)" style="fill:#fff"/>
                    <path data-name="Trazado 1683" d="M1683.094 147.882c.806 0 1.612-.006 2.418 0a.582.582 0 0 1 .615.786.571.571 0 0 1-.569.377q-2.476.006-4.952 0a.582.582 0 1 1 .013-1.161c.825-.009 1.651 0 2.476 0" transform="translate(-1631.134 -108.865)" style="fill:#fff"/>
                    <path data-name="Trazado 1684" d="M1611.569 114.194a.6.6 0 0 1-.842.6 1.178 1.178 0 0 1-.272-.215q-1.538-1.532-3.07-3.069a1.314 1.314 0 0 1-.184-.224.568.568 0 0 1 .777-.792 1.4 1.4 0 0 1 .246.2c1.018 1.015 2.037 2.028 3.047 3.051a2.461 2.461 0 0 1 .3.442" transform="translate(-1577.492 -81.289)" style="fill:#fff"/>
                    <path data-name="Trazado 1685" d="M1670.318 114.871a.6.6 0 0 1-.6-.843 1.176 1.176 0 0 1 .216-.272q1.533-1.537 3.07-3.069a1.311 1.311 0 0 1 .224-.184.568.568 0 0 1 .791.779 1.419 1.419 0 0 1-.2.246c-1.015 1.017-2.029 2.037-3.052 3.045a2.441 2.441 0 0 1-.442.3" transform="translate(-1623.524 -81.289)" style="fill:#fff"/>
                    <path data-name="Trazado 1686" d="M1645.759 97.755v2.242a.6.6 0 0 1-.492.659.59.59 0 0 1-.673-.65c-.007-.834 0-1.669 0-2.5v-2.038a.583.583 0 0 1 .366-.577.487.487 0 0 1 .609.128.972.972 0 0 1 .183.528c.02.737.008 1.475.008 2.213" transform="translate(-1605.078 -69.823)" style="fill:#fff"/>
                    <path data-name="Trazado 1687" d="M1663.843 161.809a.6.6 0 0 1-.5.657.606.606 0 0 1-.66-.561c-.126-.658-.241-1.318-.361-1.977-.149-.822-.3-1.643-.442-2.466a1.062 1.062 0 0 1 0-.459.529.529 0 0 1 .547-.4.582.582 0 0 1 .579.518c.087.418.156.84.232 1.26q.3 1.62.589 3.238c.014.076.017.155.021.188" transform="translate(-1617.783 -115.287)" style="fill:#fff"/>
                    <path data-name="Trazado 1688" d="M1660.656 149.063a.579.579 0 1 1 .594-.558.6.6 0 0 1-.594.558" transform="translate(-1616.487 -108.883)" style="fill:#fff"/>
                </g>
            </g>
        </g>
    </g>
</svg>
