<svg xmlns="http://www.w3.org/2000/svg" width="81.106" height="81.285" viewBox="0 0 81.106 81.285">
    <defs>
        <clipPath id="rnnzaj5fda">
            <path data-name="Rectángulo 236" style="fill:none" d="M0 0h81.106v81.285H0z"/>
        </clipPath>
    </defs>
    <g data-name="Grupo 770">
        <path data-name="Trazado 1689" d="M1950.226 42.4a40.119 40.119 0 1 1-40.119-40.12 40.119 40.119 0 0 1 40.119 40.12" transform="translate(-1869.638 -1.702)" style="fill:#565656"/>
        <g data-name="Grupo 760" style="opacity:.65;mix-blend-mode:multiply;isolation:isolate">
            <g data-name="Grupo 759">
                <g data-name="Grupo 758" style="clip-path:url(#rnnzaj5fda)">
                    <path data-name="Trazado 1690" d="M1930.808 86.494q0 1.092.1 2.159c17.079 7.465 25.09-8.524 35.809-8.039a24.753 24.753 0 0 1 12.47 3.837 24.23 24.23 0 0 0-48.374 2.044" transform="translate(-1914.402 -45.851)" style="fill:#8f8f8f"/>
                    <path data-name="Trazado 1691" d="M1931.169 139.781a24.23 24.23 0 0 0 48.364-2.159q0-1.032-.085-2.044a24.754 24.754 0 0 0-12.47-3.837c-10.719-.485-18.729 15.5-35.809 8.039" transform="translate(-1914.667 -96.98)" style="fill:gray"/>
                    <path data-name="Trazado 1692" d="m1882.475 160.074-6.523-2.276-6.3 2.895v-.031l-.093-.929 6.353-2.918 6.443 2.249a.048.048 0 0 0 0 .01z" transform="translate(-1869.317 -115.443)" style="fill:gray"/>
                    <path data-name="Trazado 1693" d="m2140.031 162.34-6.824 2.157-5.953-2.951q-.034.49-.085.976l5.963 2.956 6.821-2.156z" transform="translate(-2058.924 -118.924)" style="fill:gray"/>
                    <path data-name="Trazado 1694" d="M1918.339 184.831a28.711 28.711 0 0 0 54.649 0c.079-.228.17-.55.266-.912h-.939a27.8 27.8 0 0 1-53.3 0h-.941c.1.362.188.686.267.912" transform="translate(-1905.028 -135.391)" style="fill:gray"/>
                    <path data-name="Trazado 1695" d="M1950.367 183.918c-.082.418-.158.756-.2.912a39.4 39.4 0 0 1-4.66 11.614 39.746 39.746 0 0 1-68.185 0 39.4 39.4 0 0 1-4.66-11.614c-.086-.326-.14-.574-.2-.912h-.92a40.651 40.651 0 0 0 79.754 0z" transform="translate(-1870.778 -135.39)" style="fill:gray"/>
                    <path data-name="Trazado 1696" d="m1949.012 32.328.042-.053a40.676 40.676 0 0 0-80.156 3.645l.039-.011a41.111 41.111 0 0 0-.28 4.22l6.42-2.608 6.434 2.8a27.7 27.7 0 0 1 8.26-19.359l.02-.02c.106-.1.215-.208.323-.311.086-.082.172-.164.259-.244l.089-.082a27.79 27.79 0 0 1 46.426 17.569l7.287 4.3 5.5-5.648a40.267 40.267 0 0 0-.663-4.2" transform="translate(-1868.657 -.093)" style="fill:#8f8f8f"/>
                    <path data-name="Trazado 1697" d="m1888.2 101.167 4.959 1.638-.381 1.155-3.366 1.317 2.643.872-.454 1.375-4.96-1.638.382-1.155 3.365-1.317-2.643-.873z" transform="translate(-1881.898 -74.485)" style="fill:#fff"/>
                    <path data-name="Trazado 1698" d="M1902.635 84.746a2.67 2.67 0 0 1-4.123-2.319 3.336 3.336 0 0 1 1.46-2.595 2.67 2.67 0 0 1 4.123 2.319 3.332 3.332 0 0 1-1.46 2.595m.157-2.441a1.339 1.339 0 0 0-.209-.7 1.721 1.721 0 0 0-1.359-.765 1.342 1.342 0 0 0-.707.184 1.468 1.468 0 0 0-.7 1.248 1.342 1.342 0 0 0 .21.7 1.722 1.722 0 0 0 1.359.765 1.344 1.344 0 0 0 .708-.184 1.468 1.468 0 0 0 .7-1.249" transform="translate(-1890.631 -58.465)" style="fill:#fff"/>
                    <path data-name="Trazado 1699" d="M1915.5 65.773a3.033 3.033 0 0 1-.939.485l-.534-1.066a3.124 3.124 0 0 0 .8-.392 3.086 3.086 0 0 0 .687-.614q.54-.657.211-.927a.352.352 0 0 0-.411-.023 4.483 4.483 0 0 0-.67.458 7.428 7.428 0 0 1-.835.589 1.659 1.659 0 0 1-.791.229 1.258 1.258 0 0 1-.849-.33 1.5 1.5 0 0 1-.5-.749 1.744 1.744 0 0 1 .025-.988 3.2 3.2 0 0 1 .634-1.125 4.5 4.5 0 0 1 .733-.711 3.107 3.107 0 0 1 .821-.465l.559 1.048a3.037 3.037 0 0 0-1.23.863 1.211 1.211 0 0 0-.306.579.391.391 0 0 0 .135.371.337.337 0 0 0 .394.015 4.325 4.325 0 0 0 .655-.457 7.227 7.227 0 0 1 .838-.592 1.7 1.7 0 0 1 .788-.231 1.236 1.236 0 0 1 .849.324 1.469 1.469 0 0 1 .492.742 1.779 1.779 0 0 1-.027.991 3.167 3.167 0 0 1-.629 1.125 4.833 4.833 0 0 1-.9.852" transform="translate(-1900.274 -44.29)" style="fill:#fff"/>
                    <path data-name="Trazado 1700" d="m1935.823 43.2-.644.484.835 1.109-1.18.888-3.141-4.173 1.908-1.436a2.979 2.979 0 0 1 1.125-.552 1.9 1.9 0 0 1 2.274 1.65 1.793 1.793 0 0 1-.208.983l1.887.634-1.264.951zm-.925-2.4a1.019 1.019 0 0 0-.669.252l-.656.493.92 1.222.655-.494a1.031 1.031 0 0 0 .43-.57.7.7 0 0 0-.154-.589.712.712 0 0 0-.526-.314" transform="translate(-1915.052 -29.07)" style="fill:#fff"/>
                    <path data-name="Trazado 1701" d="m1957.094 29.581.526 1.013-3.722 1.932-2.406-4.636 3.636-1.89.526 1.013-2.338 1.213.406.782 2.059-1.069.509.98-2.06 1.069.44.847z" transform="translate(-1929.625 -19.163)" style="fill:#fff"/>
                    <path data-name="Trazado 1702" d="m1971.477 22.153 1.4-.473 1.3 3.838 2.361-.8.375 1.11-3.76 1.27z" transform="translate(-1944.334 -15.982)" style="fill:#fff"/>
                    <path data-name="Trazado 1703" d="m1996.041 19.438-2.181.348-.245 1.067-1.489.237 1.454-5.521 1.437-.229 3.107 4.793-1.518.242zm-.6-1.008-.926-1.545-.4 1.756z" transform="translate(-1959.532 -11.315)" style="fill:#fff"/>
                    <path data-name="Trazado 1704" d="M2016.689 18.722a2.592 2.592 0 0 1-1.01-.983 2.824 2.824 0 0 1 .047-2.8 2.594 2.594 0 0 1 1.042-.949 3.092 3.092 0 0 1 1.479-.322 3.165 3.165 0 0 1 1.287.275 2.482 2.482 0 0 1 .943.747l-.954.835a1.546 1.546 0 0 0-1.221-.632 1.516 1.516 0 0 0-.76.174 1.293 1.293 0 0 0-.524.517 1.751 1.751 0 0 0-.026 1.559 1.292 1.292 0 0 0 .506.535 1.518 1.518 0 0 0 .754.2 1.546 1.546 0 0 0 1.241-.591l.926.866a2.483 2.483 0 0 1-.967.715 3.165 3.165 0 0 1-1.295.232 3.093 3.093 0 0 1-1.468-.371" transform="translate(-1976.61 -10.08)" style="fill:#fff"/>
                    <path data-name="Rectángulo 234" transform="rotate(-81.66 27.57 -21.225)" style="fill:#fff" d="M0 0h5.223v1.477H0z"/>
                    <path data-name="Trazado 1705" d="M2049.446 23.44a2.671 2.671 0 0 1 1.345-4.535 3.335 3.335 0 0 1 2.854.846 2.671 2.671 0 0 1-1.344 4.535 3.336 3.336 0 0 1-2.854-.846m2.415-.389a1.34 1.34 0 0 0 .636-.36 1.724 1.724 0 0 0 .443-1.5 1.343 1.343 0 0 0-.337-.648 1.469 1.469 0 0 0-1.374-.407 1.345 1.345 0 0 0-.636.36 1.724 1.724 0 0 0-.443 1.5 1.34 1.34 0 0 0 .337.648 1.469 1.469 0 0 0 1.374.407" transform="translate(-2001.129 -13.896)" style="fill:#fff"/>
                    <path data-name="Trazado 1706" d="m2076.7 27.818-2.419 4.629-1.078-.564-.753-3.534-1.289 2.466-1.283-.671 2.42-4.629 1.078.564.754 3.534 1.289-2.466z" transform="translate(-2016.756 -18.805)" style="fill:#fff"/>
                    <path data-name="Trazado 1707" d="m2091.8 46.735-1.735-1.367-.95.543-1.184-.933 5.044-2.674 1.143.9-1.417 5.533-1.207-.951zm.335-1.123.507-1.728-1.562.9z" transform="translate(-2030.047 -31.16)" style="fill:#fff"/>
                    <path data-name="Trazado 1708" d="m2110.028 61.815 2.1-1.8-2.588.431-.424-.5.8-2.427-2.056 1.74-.882-1.042 3.986-3.374.786.928-1.115 3.348 3.458-.581.786.928-3.977 3.386z" transform="translate(-2044.066 -40.389)" style="fill:#fff"/>
                    <path data-name="Trazado 1709" d="M2126.659 84.141a2.67 2.67 0 0 1 4.164-2.245 3.335 3.335 0 0 1 1.413 2.62 2.67 2.67 0 0 1-4.164 2.245 3.333 3.333 0 0 1-1.413-2.62m1.979 1.438a1.34 1.34 0 0 0 .7.2 1.722 1.722 0 0 0 1.373-.74 1.348 1.348 0 0 0 .222-.7 1.469 1.469 0 0 0-.68-1.261 1.344 1.344 0 0 0-.7-.2 1.726 1.726 0 0 0-1.373.74 1.338 1.338 0 0 0-.222.7 1.469 1.469 0 0 0 .68 1.261" transform="translate(-2058.549 -59.965)" style="fill:#fff"/>
                    <path data-name="Trazado 1710" d="M2135.467 106.024a3.041 3.041 0 0 1 .093-1.052l1.187.12a3.136 3.136 0 0 0-.1.889 3.1 3.1 0 0 0 .15.909q.266.808.67.675a.353.353 0 0 0 .24-.334 4.506 4.506 0 0 0-.028-.812 7.445 7.445 0 0 1-.049-1.021 1.654 1.654 0 0 1 .23-.791 1.257 1.257 0 0 1 .733-.54 1.5 1.5 0 0 1 .9-.021 1.742 1.742 0 0 1 .821.55 3.2 3.2 0 0 1 .611 1.138 4.5 4.5 0 0 1 .208 1 3.128 3.128 0 0 1-.047.942l-1.184-.089a3.039 3.039 0 0 0-.07-1.5 1.207 1.207 0 0 0-.325-.569.392.392 0 0 0-.386-.085.337.337 0 0 0-.222.325 4.251 4.251 0 0 0 .035.8 7.269 7.269 0 0 1 .051 1.024 1.712 1.712 0 0 1-.227.79 1.237 1.237 0 0 1-.729.542 1.467 1.467 0 0 1-.889.018 1.782 1.782 0 0 1-.823-.554 3.178 3.178 0 0 1-.613-1.134 4.832 4.832 0 0 1-.236-1.218" transform="translate(-2065.026 -76.56)" style="fill:#fff"/>
                    <path data-name="Trazado 1711" d="m1967.73 269.819.27.117-.441 1.015a1.413 1.413 0 0 1-.55.059 1.78 1.78 0 0 1-.574-.145 1.608 1.608 0 0 1-.643-.487 1.407 1.407 0 0 1-.291-.7 1.537 1.537 0 0 1 .6-1.388 1.409 1.409 0 0 1 .712-.267 1.615 1.615 0 0 1 .8.139 1.7 1.7 0 0 1 .517.34 1.217 1.217 0 0 1 .3.474l-.253.1a1.192 1.192 0 0 0-.667-.66 1.3 1.3 0 0 0-.645-.111 1.142 1.142 0 0 0-.581.218 1.2 1.2 0 0 0-.394.5 1.183 1.183 0 0 0-.1.627 1.167 1.167 0 0 0 .235.572 1.28 1.28 0 0 0 .519.4 1.264 1.264 0 0 0 .785.1z" transform="translate(-1939.928 -197.286)" style="fill:#8f8f8f"/>
                    <path data-name="Trazado 1712" d="m1979.337 276.279-1.732-.572a.78.78 0 0 0 .076.6.866.866 0 0 0 .5.386.937.937 0 0 0 .377.048.813.813 0 0 0 .346-.111l.1.233a.933.933 0 0 1-.428.138 1.231 1.231 0 0 1-.483-.063 1.212 1.212 0 0 1-.52-.322 1.032 1.032 0 0 1-.26-.5 1.129 1.129 0 0 1 .041-.588 1.172 1.172 0 0 1 .311-.5 1.007 1.007 0 0 1 .486-.254 1.12 1.12 0 0 1 1.033.341 1 1 0 0 1 .235.49 1.183 1.183 0 0 1-.05.588zm-1.269-1.2a.788.788 0 0 0-.394.422l1.468.484a.789.789 0 0 0-.066-.574.8.8 0 0 0-1.008-.333" transform="translate(-1948.614 -202.245)" style="fill:#8f8f8f"/>
                    <path data-name="Trazado 1713" d="M1986.809 279.409a1.09 1.09 0 0 1-.321-.279l.185-.193a1.115 1.115 0 0 0 .291.254 1.367 1.367 0 0 0 .4.171.824.824 0 0 0 .451.017.3.3 0 0 0 .2-.221.237.237 0 0 0-.031-.2.525.525 0 0 0-.168-.149 2.887 2.887 0 0 0-.293-.144 3.675 3.675 0 0 1-.39-.2.626.626 0 0 1-.225-.238.491.491 0 0 1-.027-.361.539.539 0 0 1 .33-.379 1.023 1.023 0 0 1 .657-.015 1.644 1.644 0 0 1 .4.157 1.164 1.164 0 0 1 .3.227l-.182.2a1.1 1.1 0 0 0-.578-.337.744.744 0 0 0-.436-.006.3.3 0 0 0-.2.219.26.26 0 0 0 .03.213.5.5 0 0 0 .169.155 3.232 3.232 0 0 0 .3.151 3.8 3.8 0 0 1 .382.2.618.618 0 0 1 .22.23.469.469 0 0 1 .028.349.527.527 0 0 1-.341.383 1.134 1.134 0 0 1-.682 0 1.667 1.667 0 0 1-.474-.2" transform="translate(-1955.383 -204.21)" style="fill:#8f8f8f"/>
                    <path data-name="Trazado 1714" d="M1997.3 279.923a.552.552 0 0 1-.223.075.823.823 0 0 1-.258-.008.64.64 0 0 1-.434-.249.634.634 0 0 1-.078-.491l.24-1.3-.383-.071.045-.244.383.071.087-.469.289.054-.087.469.652.121-.045.245-.652-.121-.237 1.28a.411.411 0 0 0 .041.309.37.37 0 0 0 .257.151.549.549 0 0 0 .179 0 .446.446 0 0 0 .16-.055z" transform="translate(-1962.505 -204.076)" style="fill:#8f8f8f"/>
                    <path data-name="Trazado 1715" d="m2003.873 277.751.292.04-.294 2.16-.292-.04zm.069-.535a.205.205 0 0 1-.041-.156.2.2 0 0 1 .081-.135.209.209 0 0 1 .161-.041.214.214 0 0 1 .144.08.192.192 0 0 1 .042.15.217.217 0 0 1-.386.1" transform="translate(-1967.962 -203.812)" style="fill:#8f8f8f"/>
                    <path data-name="Trazado 1716" d="M2008.981 280.764a1.042 1.042 0 0 1-.368-.424 1.2 1.2 0 0 1 .085-1.141 1.029 1.029 0 0 1 .426-.363 1.214 1.214 0 0 1 1.132.084 1.015 1.015 0 0 1 .366.422 1.215 1.215 0 0 1-.085 1.141 1.031 1.031 0 0 1-.424.365 1.2 1.2 0 0 1-1.133-.084m1-.15a.735.735 0 0 0 .31-.279 1 1 0 0 0 .066-.885.737.737 0 0 0-.265-.321.874.874 0 0 0-.831-.061.751.751 0 0 0-.312.278.985.985 0 0 0-.066.885.747.747 0 0 0 .267.321.874.874 0 0 0 .831.062m.077-2.69.393.029-.708.463-.289-.022z" transform="translate(-1971.589 -204.579)" style="fill:#8f8f8f"/>
                    <path data-name="Trazado 1717" d="M2021.933 281.571a.931.931 0 0 1 .254.69l.021 1.264h-.294l-.02-1.235a.723.723 0 0 0-.178-.515.639.639 0 0 0-.488-.17.745.745 0 0 0-.554.218.79.79 0 0 0-.2.581l.018 1.144h-.294l-.035-2.18h.282l.007.4a.817.817 0 0 1 .328-.314 1.066 1.066 0 0 1 .494-.118.889.889 0 0 1 .657.228" transform="translate(-1980.17 -207.096)" style="fill:#8f8f8f"/>
                    <path data-name="Trazado 1718" d="M2036.4 282.487a1.1 1.1 0 0 1-.4-.144l.1-.247a1.119 1.119 0 0 0 .364.132 1.371 1.371 0 0 0 .436.014.82.82 0 0 0 .426-.148.3.3 0 0 0 .109-.279.237.237 0 0 0-.1-.177.529.529 0 0 0-.21-.078 2.849 2.849 0 0 0-.325-.028 3.665 3.665 0 0 1-.436-.047.625.625 0 0 1-.3-.14.489.489 0 0 1-.156-.327.539.539 0 0 1 .17-.473 1.026 1.026 0 0 1 .607-.252 1.649 1.649 0 0 1 .427 0 1.159 1.159 0 0 1 .364.1l-.1.25a1.1 1.1 0 0 0-.661-.1.743.743 0 0 0-.409.152.3.3 0 0 0-.109.277.258.258 0 0 0 .105.187.5.5 0 0 0 .213.084 3.318 3.318 0 0 0 .338.03 3.739 3.739 0 0 1 .427.046.611.611 0 0 1 .289.135.466.466 0 0 1 .153.315.53.53 0 0 1-.179.48 1.138 1.138 0 0 1-.635.249 1.685 1.685 0 0 1-.513-.012" transform="translate(-1991.753 -206.313)" style="fill:#8f8f8f"/>
                    <path data-name="Trazado 1719" d="M2045.453 280.878a1.042 1.042 0 0 1-.469-.309 1.2 1.2 0 0 1-.228-1.121 1.03 1.03 0 0 1 .312-.465 1.216 1.216 0 0 1 1.113-.226 1.017 1.017 0 0 1 .466.307 1.214 1.214 0 0 1 .228 1.121 1.03 1.03 0 0 1-.309.467 1.2 1.2 0 0 1-1.113.226m.92-.415a.738.738 0 0 0 .222-.352 1 1 0 0 0-.176-.869.735.735 0 0 0-.343-.237.874.874 0 0 0-.816.166.753.753 0 0 0-.225.352.982.982 0 0 0 .177.869.749.749 0 0 0 .344.237.875.875 0 0 0 .817-.166" transform="translate(-1998.229 -205.154)" style="fill:#8f8f8f"/>
                    <path data-name="Trazado 1720" d="M2056.119 278.273a1.017 1.017 0 0 1-.494-.27 1.206 1.206 0 0 1-.317-1.1 1.024 1.024 0 0 1 .275-.489 1.178 1.178 0 0 1 .517-.3 1.12 1.12 0 0 1 .514-.034.841.841 0 0 1 .426.212l-.17.2a.69.69 0 0 0-.33-.157.813.813 0 0 0-.369.022.854.854 0 0 0-.379.219.748.748 0 0 0-.2.37.987.987 0 0 0 .246.854.741.741 0 0 0 .365.206.854.854 0 0 0 .438-.016.832.832 0 0 0 .325-.176.667.667 0 0 0 .2-.307l.253.083a.833.833 0 0 1-.25.406 1.124 1.124 0 0 1-.451.244 1.175 1.175 0 0 1-.595.025" transform="translate(-2006.012 -203.213)" style="fill:#8f8f8f"/>
                    <path data-name="Trazado 1721" d="M2063.3 271.39a.2.2 0 0 1-.108-.12.2.2 0 0 1 .011-.157.208.208 0 0 1 .124-.11.213.213 0 0 1 .165.006.193.193 0 0 1 .106.114.217.217 0 0 1-.3.267m.183.507.278-.1.723 2.057-.278.1z" transform="translate(-2011.828 -199.475)" style="fill:#8f8f8f"/>
                    <path data-name="Trazado 1722" d="M2070.384 271.225a.824.824 0 0 1 .455.494l.523 1.246-.26.109-.132-.313a.673.673 0 0 1-.167.358 1.024 1.024 0 0 1-.386.265.9.9 0 0 1-.6.064.563.563 0 0 1-.377-.341.557.557 0 0 1 .012-.491.984.984 0 0 1 .525-.4l.638-.268-.051-.122a.559.559 0 0 0-.311-.334.652.652 0 0 0-.481.042 1.171 1.171 0 0 0-.341.217 1 1 0 0 0-.229.3l-.208-.151a1.175 1.175 0 0 1 .283-.355 1.538 1.538 0 0 1 .421-.26.924.924 0 0 1 .687-.057m.336 1.657a.686.686 0 0 0 .117-.407l-.138-.329-.63.265q-.516.217-.365.576a.357.357 0 0 0 .25.221.659.659 0 0 0 .417-.056.774.774 0 0 0 .35-.27" transform="translate(-2016.107 -199.617)" style="fill:#8f8f8f"/>
                    <path data-name="Rectángulo 235" transform="matrix(.897 -.441 .441 .897 54.922 70.1)" style="fill:#8f8f8f" d="M0 0h.294v3.076H0z"/>
                    <path data-name="Trazado 1723" d="M2006.59 154.749h-2.121c-.6 0-.695-.1-.7-.718a14.1 14.1 0 0 0-.059-1.578 3.32 3.32 0 0 0-.961-1.809 5.225 5.225 0 1 1 7.973-6.742 5.166 5.166 0 0 1-.21 6.671 3.813 3.813 0 0 0-1.081 2.866c.011.251.006.5 0 .755-.009.414-.148.551-.573.554h-2.265m1.947-.888a1.741 1.741 0 0 0 .017-.218 4.889 4.889 0 0 1 1.379-3.753 4.2 4.2 0 0 0 .39-5.015 4.345 4.345 0 1 0-6.979 5.113 4.671 4.671 0 0 1 1.3 3.458c-.006.137.012.275.019.415z" transform="translate(-1966.335 -104.452)" style="fill:#fff"/>
                    <path data-name="Trazado 1724" d="M1975.135 181.519h-2.516a1.655 1.655 0 0 1-1.823-1.828v-4.348a1.978 1.978 0 0 1 2.114-2.112q2.319-.006 4.637 0c.119 0 .275-.023.348.04.13.112.294.288.286.427s-.2.288-.339.384c-.084.057-.233.023-.352.023h-4.529a1.138 1.138 0 0 0-1.293 1.306v4.24c0 .726.253.987.963.987h5.1a.811.811 0 0 0 .833-.438.758.758 0 0 0-.74-1.083c-1.066-.013-2.133 0-3.2 0-.311 0-.623.005-.934 0s-.514-.189-.49-.447a.43.43 0 0 1 .486-.419c1.426 0 2.852-.013 4.277.007a1.6 1.6 0 0 1 1.544 1.586 1.569 1.569 0 0 1-1.465 1.65c-.968.043-1.94.01-2.91.01v.017" transform="translate(-1943.832 -127.521)" style="fill:#fff"/>
                    <path data-name="Trazado 1725" d="M2029.594 125.978c.935 0 1.87.011 2.8-.01a.844.844 0 0 0 .523-.215c.987-.961 1.952-1.946 2.933-2.914a1.67 1.67 0 0 1 2.833.936 1.689 1.689 0 0 1-.565 1.519c-1.342 1.336-2.675 2.68-4.023 4.01a.991.991 0 0 0-.346.809c.03.754.011 1.509.008 2.264 0 .374-.168.594-.443.567-.326-.032-.43-.252-.428-.556 0-.935-.014-1.87.015-2.8a.966.966 0 0 1 .28-.58c1.421-1.443 2.856-2.871 4.29-4.3a.91.91 0 0 0 .349-.787.75.75 0 0 0-.509-.643.786.786 0 0 0-.861.2l-1.374 1.371c-.585.584-1.159 1.181-1.762 1.746a.965.965 0 0 1-.593.248c-2 .018-4 .012-6 .01-.376 0-.583-.159-.584-.435s.2-.433.58-.433h2.876" transform="translate(-1984.565 -90.068)" style="fill:#fff"/>
                    <path data-name="Trazado 1726" d="M2044.328 168.054a3.051 3.051 0 0 1 6.1.016 3.051 3.051 0 1 1-6.1-.016m.87 0a2.176 2.176 0 1 0 2.17-2.175 2.189 2.189 0 0 0-2.17 2.175" transform="translate(-1997.953 -121.475)" style="fill:#fff"/>
                    <path data-name="Trazado 1727" d="M1977.985 153.753a3.05 3.05 0 1 1 3.04-3.038 3.058 3.058 0 0 1-3.04 3.038m0-.87a2.177 2.177 0 1 0-2.2-2.153 2.187 2.187 0 0 0 2.2 2.153" transform="translate(-1946.868 -108.698)" style="fill:#fff"/>
                    <path data-name="Trazado 1728" d="M1995.352 107.548a3.045 3.045 0 1 1 3.049-3.034 3.039 3.039 0 0 1-3.049 3.034m-.024-.875a2.17 2.17 0 1 0-2.16-2.177 2.172 2.172 0 0 0 2.16 2.177" transform="translate(-1959.658 -74.699)" style="fill:#fff"/>
                    <path data-name="Trazado 1729" d="M2035.526 113.57a3.052 3.052 0 1 1-3.037-3.039 3.062 3.062 0 0 1 3.037 3.039m-3.045-2.17a2.179 2.179 0 1 0 2.176 2.171 2.19 2.19 0 0 0-2.176-2.171" transform="translate(-1986.982 -81.376)" style="fill:#fff"/>
                    <path data-name="Trazado 1730" d="M1989.965 127.839c1.007 0 2.013-.008 3.02 0a2.027 2.027 0 0 1 2.1 2.405.414.414 0 0 1-.446.419c-.265-.008-.4-.176-.421-.444-.109-1.321-.309-1.5-1.627-1.5h-5.609a1.1 1.1 0 0 0-1.262 1.248v1.869c0 .38-.161.575-.446.573s-.426-.187-.428-.582c0-.659-.011-1.318 0-1.977a1.928 1.928 0 0 1 1.991-2c1.042-.022 2.085 0 3.128 0z" transform="translate(-1954.168 -94.112)" style="fill:#fff"/>
                    <path data-name="Trazado 1731" d="M2041.084 191.424h3.02a2.033 2.033 0 0 1 2.084 2.419.41.41 0 0 1-.463.4.406.406 0 0 1-.4-.422c-.132-1.367-.31-1.527-1.684-1.527h-5.541a1.122 1.122 0 0 0-1.282 1.273c0 .13.023.3-.047.382a.691.691 0 0 1-.434.273.509.509 0 0 1-.366-.308 2.016 2.016 0 0 1 1.874-2.487h3.236" transform="translate(-1991.755 -140.913)" style="fill:#fff"/>
                    <path data-name="Trazado 1732" d="M2013.8 195.1c-.24 0-.48.01-.719 0a2 2 0 0 1-1.857-2.464.539.539 0 0 1 .385-.331.6.6 0 0 1 .418.294 1.089 1.089 0 0 1 .045.492 1.079 1.079 0 0 0 1.155 1.14c.4.006.791.007 1.187 0a1.076 1.076 0 0 0 1.133-1.125v-.359c.019-.276.154-.465.444-.461s.4.192.428.473a2.015 2.015 0 0 1-2.191 2.351c-.143-.011-.287 0-.431 0z" transform="translate(-1973.549 -141.546)" style="fill:#fff"/>
                    <path data-name="Trazado 1733" d="m2013.023 159.291 2.131-3.548c.062-.1.107-.253.2-.291a.784.784 0 0 1 .539-.084c.115.054.162.306.189.478.013.086-.083.191-.138.283q-1.19 1.987-2.382 3.972c-.321.533-.6.551-.978.059q-.966-1.251-1.928-2.506l-.064-.086c-.174-.233-.208-.475.038-.664a.424.424 0 0 1 .651.129l1.446 1.879c.087.113.177.223.3.378" transform="translate(-1973.017 -114.359)" style="fill:#fff"/>
                </g>
            </g>
        </g>
    </g>
</svg>
