<svg xmlns="http://www.w3.org/2000/svg" width="81.107" height="81.285" viewBox="0 0 81.107 81.285">
    <g data-name="Grupo 767">
        <path data-name="Trazado 1541" d="M829.032 42.4a40.119 40.119 0 1 1-40.119-40.12 40.119 40.119 0 0 1 40.119 40.12" transform="translate(-748.442 -1.702)" style="fill:#fff"/>
        <path data-name="Trazado 1542" d="M809.615 86.494q0 1.092.1 2.159c17.079 7.465 25.09-8.524 35.809-8.039a24.753 24.753 0 0 1 12.47 3.837 24.23 24.23 0 0 0-48.374 2.044" transform="translate(-793.207 -45.851)" style="fill:#00833e"/>
        <path data-name="Trazado 1543" d="M809.976 139.781a24.23 24.23 0 0 0 48.364-2.159q0-1.032-.085-2.044a24.753 24.753 0 0 0-12.47-3.837c-10.719-.485-18.729 15.5-35.809 8.039" transform="translate(-793.472 -96.979)" style="fill:#a0c839"/>
        <path data-name="Trazado 1544" d="m761.282 160.074-6.523-2.276-6.3 2.895v-.031l-.093-.929 6.353-2.918 6.443 2.249a.041.041 0 0 0 0 .01z" transform="translate(-748.122 -115.442)" style="fill:#a0c839"/>
        <path data-name="Trazado 1545" d="m1018.836 162.34-6.824 2.157-5.953-2.951q-.034.49-.085.976l5.963 2.956 6.821-2.156z" transform="translate(-937.729 -118.923)" style="fill:#a0c839"/>
        <path data-name="Trazado 1546" d="M797.146 184.831a28.711 28.711 0 0 0 54.649 0c.079-.228.169-.55.266-.912h-.939a27.8 27.8 0 0 1-53.3 0h-.941c.1.362.189.686.267.912" transform="translate(-783.833 -135.39)" style="fill:#a0c839"/>
        <path data-name="Trazado 1547" d="M829.173 183.918c-.082.418-.158.756-.2.912a39.4 39.4 0 0 1-4.66 11.614 39.745 39.745 0 0 1-68.185 0 39.392 39.392 0 0 1-4.66-11.614c-.086-.326-.14-.574-.2-.912h-.92a40.651 40.651 0 0 0 79.754 0z" transform="translate(-749.582 -135.389)" style="fill:#a0c839"/>
        <path data-name="Trazado 1548" d="m827.818 32.328.042-.053a40.676 40.676 0 0 0-80.16 3.646l.039-.011a41.111 41.111 0 0 0-.28 4.22l6.42-2.608 6.434 2.8a27.7 27.7 0 0 1 8.26-19.359l.02-.02c.107-.1.215-.208.323-.311.086-.082.172-.164.259-.244l.089-.082a27.79 27.79 0 0 1 46.426 17.569l7.287 4.3 5.5-5.648a40.283 40.283 0 0 0-.663-4.2" transform="translate(-747.462 -.093)" style="fill:#00833e"/>
        <path data-name="Trazado 1549" d="m784.374 75.174-.445.672 1.157.767-.816 1.231-4.354-2.885 1.319-1.99a2.984 2.984 0 0 1 .876-.9 1.9 1.9 0 0 1 2.695.8 1.793 1.793 0 0 1 .132 1l1.991-.032-.874 1.319zm-1.674-1.949a1.019 1.019 0 0 0-.547.461l-.453.684 1.275.845.454-.684a1.031 1.031 0 0 0 .214-.681.7.7 0 0 0-.342-.5.713.713 0 0 0-.6-.121" transform="translate(-771.348 -52.848)" style="fill:#fff"/>
        <path data-name="Trazado 1550" d="m799.725 55.387.834.779-2.859 3.066-3.818-3.564 2.795-2.995.834.779-1.8 1.926.644.6 1.583-1.7.807.753-1.583 1.7.7.652z" transform="translate(-781.626 -38.792)" style="fill:#fff"/>
        <path data-name="Trazado 1551" d="M812.507 40.258a1.842 1.842 0 0 1 2.063 2.687 2.98 2.98 0 0 1-.833.936l-.722.554.832 1.083-1.172.9-3.181-4.142 1.894-1.454a2.979 2.979 0 0 1 1.12-.564m.874 2.18a.7.7 0 0 0-.16-.588.712.712 0 0 0-.529-.309 1.018 1.018 0 0 0-.667.258l-.651.5.932 1.213.651-.5a1.033 1.033 0 0 0 .424-.575" transform="translate(-793.117 -29.613)" style="fill:#fff"/>
        <path data-name="Rectángulo 230" transform="rotate(-30.212 27.473 -35.15)" style="fill:#fff" d="M0 0h1.477v5.223H0z"/>
        <path data-name="Trazado 1552" d="m839.677 24.238-1.472.636-.465-1.075 4.294-1.857.465 1.076-1.465.634 1.608 3.719-1.356.586z" transform="translate(-813.906 -16.174)" style="fill:#fff"/>
        <path data-name="Trazado 1553" d="m864.181 20.366.285 1.105-4.066 1.046-1.3-5.058 3.967-1.021.285 1.105-2.552.657.219.852 2.247-.579.275 1.069-2.247.579.238.925z" transform="translate(-829.63 -12.123)" style="fill:#fff"/>
        <path data-name="Trazado 1554" d="m895.687 17.979.02 1.141-4.193.072-.09-5.222 4.1-.07.02 1.141-2.634.045.015.88 2.32-.04.019 1.1-2.32.04.016.955z" transform="translate(-853.419 -10.254)" style="fill:#fff"/>
        <path data-name="Trazado 1555" d="m911.683 14.386 1.464.2-.539 4.015 2.47.332-.156 1.161-3.934-.529z" transform="translate(-867.818 -10.612)" style="fill:#fff"/>
        <path data-name="Trazado 1556" d="M939.584 27.187a2.593 2.593 0 0 1-.607-1.272 2.823 2.823 0 0 1 1.016-2.615 2.591 2.591 0 0 1 1.306-.529 3.089 3.089 0 0 1 1.5.21 3.159 3.159 0 0 1 1.111.7 2.488 2.488 0 0 1 .625 1.027l-1.185.452a1.547 1.547 0 0 0-.926-1.016 1.521 1.521 0 0 0-.774-.1 1.3 1.3 0 0 0-.671.3 1.754 1.754 0 0 0-.565 1.454 1.293 1.293 0 0 0 .289.677 1.52 1.52 0 0 0 .638.448 1.546 1.546 0 0 0 1.369-.124l.568 1.133a2.482 2.482 0 0 1-1.155.336 3.166 3.166 0 0 1-1.295-.231 3.09 3.09 0 0 1-1.248-.857" transform="translate(-888.391 -16.769)" style="fill:#fff"/>
        <path data-name="Rectángulo 231" transform="rotate(-61.282 38.096 -40.393)" style="fill:#fff" d="M0 0h5.223v1.477H0z"/>
        <path data-name="Trazado 1557" d="M968.692 42.945a2.59 2.59 0 0 1-.258-1.385 2.824 2.824 0 0 1 1.655-2.265 2.592 2.592 0 0 1 1.4-.175 3.09 3.09 0 0 1 1.394.589 3.17 3.17 0 0 1 .892.966 2.483 2.483 0 0 1 .34 1.154l-1.261.132a1.546 1.546 0 0 0-.633-1.22 1.518 1.518 0 0 0-.722-.3 1.293 1.293 0 0 0-.726.121 1.753 1.753 0 0 0-.92 1.259 1.292 1.292 0 0 0 .105.728 1.515 1.515 0 0 0 .5.6 1.547 1.547 0 0 0 1.355.232l.257 1.242a2.48 2.48 0 0 1-1.2.027 3.166 3.166 0 0 1-1.192-.557 3.092 3.092 0 0 1-.985-1.15" transform="translate(-910.091 -28.796)" style="fill:#fff"/>
        <path data-name="Trazado 1558" d="m985.822 50.742 1.04 1.049-2.877 2.852 1.754 1.77-.832.825-2.795-2.819z" transform="translate(-920.167 -37.37)" style="fill:#fff"/>
        <path data-name="Trazado 1559" d="M997.258 71.362a2.671 2.671 0 0 1 3.868-2.723 3.335 3.335 0 0 1 1.713 2.434 2.671 2.671 0 0 1-3.869 2.723 3.334 3.334 0 0 1-1.713-2.435m2.135 1.193a1.343 1.343 0 0 0 .722.112 1.723 1.723 0 0 0 1.275-.9 1.342 1.342 0 0 0 .138-.718 1.467 1.467 0 0 0-.824-1.171 1.341 1.341 0 0 0-.722-.112 1.722 1.722 0 0 0-1.275.9 1.337 1.337 0 0 0-.138.718 1.469 1.469 0 0 0 .824 1.172" transform="translate(-931.297 -50.325)" style="fill:#fff"/>
        <path data-name="Trazado 1560" d="m797.194 233.117.186.228-.857.7a1.418 1.418 0 0 1-.516-.2 1.789 1.789 0 0 1-.444-.392 1.6 1.6 0 0 1-.348-.727 1.406 1.406 0 0 1 .063-.758 1.539 1.539 0 0 1 1.171-.958 1.41 1.41 0 0 1 .756.089 1.612 1.612 0 0 1 .646.489 1.7 1.7 0 0 1 .3.539 1.213 1.213 0 0 1 .054.56l-.271-.024a1.192 1.192 0 0 0-.29-.892 1.3 1.3 0 0 0-.523-.394 1.14 1.14 0 0 0-.616-.072 1.248 1.248 0 0 0-.952.778 1.168 1.168 0 0 0-.053.616 1.279 1.279 0 0 0 .28.591 1.263 1.263 0 0 0 .653.446z" transform="translate(-782.59 -170.037)" style="fill:#00833e"/>
        <path data-name="Trazado 1561" d="m805.095 243.825-1.276-1.3a.78.78 0 0 0-.21.571.868.868 0 0 0 .268.573.942.942 0 0 0 .313.216.816.816 0 0 0 .359.061l-.02.252a.93.93 0 0 1-.443-.073 1.307 1.307 0 0 1-.714-.8 1.032 1.032 0 0 1 0-.566 1.128 1.128 0 0 1 .307-.5 1.166 1.166 0 0 1 .505-.3 1 1 0 0 1 .548 0 1.12 1.12 0 0 1 .762.777 1 1 0 0 1-.016.543 1.176 1.176 0 0 1-.314.5zm-.575-1.65a.788.788 0 0 0-.544.194l1.082 1.1a.789.789 0 0 0 .2-.54.8.8 0 0 0-.743-.758" transform="translate(-788.582 -178.07)" style="fill:#00833e"/>
        <path data-name="Trazado 1562" d="M809.9 250.054a1.089 1.089 0 0 1-.157-.4l.253-.086a1.121 1.121 0 0 0 .141.36 1.363 1.363 0 0 0 .278.336.823.823 0 0 0 .393.222.3.3 0 0 0 .281-.1.237.237 0 0 0 .065-.193.527.527 0 0 0-.08-.209 2.863 2.863 0 0 0-.194-.262 3.6 3.6 0 0 1-.253-.359.626.626 0 0 1-.09-.314.49.49 0 0 1 .142-.333.54.54 0 0 1 .467-.185 1.027 1.027 0 0 1 .591.289 1.643 1.643 0 0 1 .28.322 1.166 1.166 0 0 1 .164.341l-.253.092a1.1 1.1 0 0 0-.358-.565.744.744 0 0 0-.384-.206.3.3 0 0 0-.28.1.259.259 0 0 0-.071.2.5.5 0 0 0 .078.215 3.249 3.249 0 0 0 .2.273 3.761 3.761 0 0 1 .248.352.615.615 0 0 1 .09.305.468.468 0 0 1-.135.323.527.527 0 0 1-.479.183 1.134 1.134 0 0 1-.607-.312 1.667 1.667 0 0 1-.33-.393" transform="translate(-793.304 -182.944)" style="fill:#00833e"/>
        <path data-name="Trazado 1563" d="M818.508 254.933a.558.558 0 0 1-.232-.036.836.836 0 0 1-.225-.126.578.578 0 0 1-.114-.893l.81-1.04-.308-.239.153-.2.307.239.293-.376.232.181-.293.376.523.408-.153.2-.523-.408-.8 1.027a.413.413 0 0 0-.105.294.369.369 0 0 0 .158.252.538.538 0 0 0 .157.085.437.437 0 0 0 .167.025z" transform="translate(-799.213 -185.694)" style="fill:#00833e"/>
        <path data-name="Trazado 1564" d="m824.116 255.978.24.169-1.256 1.782-.241-.169zm.307-.443a.2.2 0 0 1 .035-.158.2.2 0 0 1 .134-.083.209.209 0 0 1 .161.038.213.213 0 0 1 .091.138.193.193 0 0 1-.032.153.217.217 0 0 1-.39-.087" transform="translate(-802.954 -187.921)" style="fill:#00833e"/>
        <path data-name="Trazado 1565" d="M828.309 262.381a1.045 1.045 0 0 1-.131-.546 1.2 1.2 0 0 1 .6-.974 1.032 1.032 0 0 1 .546-.126 1.215 1.215 0 0 1 .966.6 1.012 1.012 0 0 1 .13.543 1.215 1.215 0 0 1-.6.974 1.03 1.03 0 0 1-.545.129 1.2 1.2 0 0 1-.967-.6m.955.327a.737.737 0 0 0 .4-.1 1 1 0 0 0 .466-.755.737.737 0 0 0-.087-.407.874.874 0 0 0-.709-.437.749.749 0 0 0-.4.1.984.984 0 0 0-.466.755.752.752 0 0 0 .089.408.874.874 0 0 0 .709.437m1.308-2.352.335.207-.841.084-.247-.152z" transform="translate(-806.869 -191.648)" style="fill:#00833e"/>
        <path data-name="Trazado 1566" d="M839.524 267.158a.93.93 0 0 1-.1.729l-.569 1.129-.263-.132.556-1.1a.722.722 0 0 0 .082-.539.638.638 0 0 0-.353-.378.745.745 0 0 0-.592-.064.789.789 0 0 0-.444.424l-.515 1.022-.263-.133.981-1.947.252.127-.181.359a.817.817 0 0 1 .437-.125 1.063 1.063 0 0 1 .492.125.89.89 0 0 1 .476.507" transform="translate(-813.412 -195.925)" style="fill:#00833e"/>
        <path data-name="Trazado 1567" d="m855.93 272.011-1.021 2.9-.266-.093.143-.407a.9.9 0 0 1-.442.2 1.029 1.029 0 0 1-.5-.054 1.11 1.11 0 0 1-.477-.317 1.006 1.006 0 0 1-.237-.5 1.248 1.248 0 0 1 .382-1.087 1 1 0 0 1 .5-.24 1.118 1.118 0 0 1 .57.054 1.028 1.028 0 0 1 .415.262.911.911 0 0 1 .224.419l.434-1.235zm-1.553 2.347a.753.753 0 0 0 .373-.187.984.984 0 0 0 .294-.837.752.752 0 0 0-.174-.38.867.867 0 0 0-.782-.275.753.753 0 0 0-.374.187.984.984 0 0 0-.294.837.75.75 0 0 0 .174.38.865.865 0 0 0 .782.275" transform="translate(-825.222 -200.155)" style="fill:#00833e"/>
        <path data-name="Trazado 1568" d="m866.384 278.628-1.766-.457a.78.78 0 0 0 .115.6.868.868 0 0 0 .526.352.942.942 0 0 0 .379.023.812.812 0 0 0 .339-.133l.112.226a.932.932 0 0 1-.417.166 1.225 1.225 0 0 1-.487-.032 1.211 1.211 0 0 1-.54-.287 1.033 1.033 0 0 1-.292-.485 1.129 1.129 0 0 1 0-.59 1.167 1.167 0 0 1 .278-.519 1.01 1.01 0 0 1 .468-.286 1.122 1.122 0 0 1 1.054.273 1 1 0 0 1 .267.474 1.178 1.178 0 0 1-.011.59zm-1.345-1.116a.791.791 0 0 0-.366.447l1.5.387a.791.791 0 0 0-.1-.568.8.8 0 0 0-1.028-.266" transform="translate(-833.467 -204.021)" style="fill:#00833e"/>
        <path data-name="Trazado 1569" d="m882.24 280.326-.54-1.009a2.161 2.161 0 0 1-.232-.017l-.773-.1-.116.913-.3-.039.366-2.878 1.077.137a1.312 1.312 0 0 1 .83.373.9.9 0 0 1 .221.763.9.9 0 0 1-.773.821l.578 1.076zm-.07-1.392a.748.748 0 0 0 .136-1.067 1.011 1.011 0 0 0-.63-.27l-.765-.1-.184 1.443.765.1a1 1 0 0 0 .678-.106" transform="translate(-845.212 -204.044)" style="fill:#00833e"/>
        <path data-name="Trazado 1570" d="m894.171 282.492-1.822-.072a.78.78 0 0 0 .239.559.868.868 0 0 0 .588.233.944.944 0 0 0 .376-.058.816.816 0 0 0 .3-.2l.158.2a.934.934 0 0 1-.373.251 1.23 1.23 0 0 1-.482.072 1.211 1.211 0 0 1-.589-.166 1.032 1.032 0 0 1-.388-.412 1.127 1.127 0 0 1-.122-.577 1.167 1.167 0 0 1 .162-.566 1 1 0 0 1 .4-.379 1.065 1.065 0 0 1 .551-.119 1.053 1.053 0 0 1 .537.162 1 1 0 0 1 .361.406 1.181 1.181 0 0 1 .114.579zm-1.55-.806a.791.791 0 0 0-.263.515l1.545.061a.789.789 0 0 0-.221-.534.8.8 0 0 0-1.06-.042" transform="translate(-853.885 -207.028)" style="fill:#00833e"/>
        <path data-name="Trazado 1571" d="M902.774 283.443a1.092 1.092 0 0 1-.385-.18l.125-.237a1.118 1.118 0 0 0 .349.165 1.368 1.368 0 0 0 .433.054.824.824 0 0 0 .438-.107.3.3 0 0 0 .134-.268.237.237 0 0 0-.085-.186.525.525 0 0 0-.2-.1 2.925 2.925 0 0 0-.321-.058 3.716 3.716 0 0 1-.43-.088.63.63 0 0 1-.281-.167.49.49 0 0 1-.125-.34.539.539 0 0 1 .213-.455 1.024 1.024 0 0 1 .628-.194 1.648 1.648 0 0 1 .424.042 1.157 1.157 0 0 1 .353.136l-.121.24a1.1 1.1 0 0 0-.648-.165.745.745 0 0 0-.421.113.3.3 0 0 0-.135.266.258.258 0 0 0 .087.2.493.493 0 0 0 .2.1 3.263 3.263 0 0 0 .334.062 3.745 3.745 0 0 1 .422.086.613.613 0 0 1 .275.161.467.467 0 0 1 .122.328.527.527 0 0 1-.224.461 1.132 1.132 0 0 1-.655.189 1.671 1.671 0 0 1-.51-.06" transform="translate(-861.489 -207.051)" style="fill:#00833e"/>
        <path data-name="Trazado 1572" d="M911.358 277.946a.2.2 0 0 1-.075-.144.2.2 0 0 1 .05-.15.207.207 0 0 1 .148-.075.213.213 0 0 1 .158.047.193.193 0 0 1 .074.137.208.208 0 0 1-.049.158.211.211 0 0 1-.148.075.209.209 0 0 1-.158-.049m.05.536.293-.025.184 2.172-.293.025z" transform="translate(-868.035 -204.323)" style="fill:#00833e"/>
        <path data-name="Trazado 1573" d="m918.363 276.092.456 3.042-.279.042-.064-.427a.9.9 0 0 1-.3.384 1.025 1.025 0 0 1-.469.187 1.106 1.106 0 0 1-.57-.057 1.009 1.009 0 0 1-.444-.332 1.249 1.249 0 0 1-.171-1.14.994.994 0 0 1 .327-.445 1.117 1.117 0 0 1 .529-.22 1.03 1.03 0 0 1 .49.038.907.907 0 0 1 .394.266l-.194-1.3zm-.273 2.8a.751.751 0 0 0 .242-.34.982.982 0 0 0-.132-.877.749.749 0 0 0-.331-.254.813.813 0 0 0-.424-.043.823.823 0 0 0-.4.166.753.753 0 0 0-.242.34.984.984 0 0 0 .132.878.752.752 0 0 0 .332.254.867.867 0 0 0 .82-.123" transform="translate(-871.843 -203.23)" style="fill:#00833e"/>
        <path data-name="Trazado 1574" d="m929.765 276.959.514 2.119-.274.066-.094-.386a.8.8 0 0 1-.237.375.959.959 0 0 1-.425.216.844.844 0 0 1-1.115-.694l-.3-1.228.286-.07.291 1.2a.73.73 0 0 0 .288.467.639.639 0 0 0 .513.059.713.713 0 0 0 .478-.331.811.811 0 0 0 .056-.613l-.27-1.112z" transform="translate(-880.218 -203.868)" style="fill:#00833e"/>
        <path data-name="Trazado 1575" d="M940 276.709a1.042 1.042 0 0 1-.5-.248 1.2 1.2 0 0 1-.365-1.084 1.026 1.026 0 0 1 .252-.5 1.214 1.214 0 0 1 1.077-.362 1.015 1.015 0 0 1 .5.247 1.215 1.215 0 0 1 .365 1.084 1.029 1.029 0 0 1-.249.5 1.2 1.2 0 0 1-1.076.362m.862-.526a.736.736 0 0 0 .177-.377 1 1 0 0 0-.282-.841.736.736 0 0 0-.369-.193.873.873 0 0 0-.79.265.751.751 0 0 0-.179.378.983.983 0 0 0 .283.841.748.748 0 0 0 .371.192.874.874 0 0 0 .79-.265" transform="translate(-888.514 -202.055)" style="fill:#00833e"/>
        <path data-name="Trazado 1576" d="M949.633 273.175a1.1 1.1 0 0 1-.424-.03l.032-.266a1.115 1.115 0 0 0 .385.029 1.37 1.37 0 0 0 .424-.1.822.822 0 0 0 .37-.258.3.3 0 0 0 .029-.3.237.237 0 0 0-.146-.143.524.524 0 0 0-.224-.018 2.936 2.936 0 0 0-.321.061 3.773 3.773 0 0 1-.433.073.629.629 0 0 1-.323-.055.489.489 0 0 1-.239-.272.538.538 0 0 1 .036-.5 1.021 1.021 0 0 1 .517-.407 1.649 1.649 0 0 1 .411-.113 1.17 1.17 0 0 1 .378 0l-.026.268a1.1 1.1 0 0 0-.664.078.747.747 0 0 0-.353.257.305.305 0 0 0-.03.3.259.259 0 0 0 .152.152.5.5 0 0 0 .228.023 3.243 3.243 0 0 0 .334-.062 3.862 3.862 0 0 1 .424-.071.617.617 0 0 1 .314.052.467.467 0 0 1 .232.262.527.527 0 0 1-.043.511 1.135 1.135 0 0 1-.544.412 1.668 1.668 0 0 1-.5.127" transform="translate(-895.59 -199.376)" style="fill:#00833e"/>
        <path data-name="Trazado 1577" d="M961.609 264.752a1.135 1.135 0 0 1-.533-.014l-.011-.265a1.152 1.152 0 0 0 .49.017 1.529 1.529 0 0 0 .517-.179.986.986 0 0 0 .439-.411.44.44 0 0 0-.012-.419.371.371 0 0 0-.228-.19.713.713 0 0 0-.3-.012 4.1 4.1 0 0 0-.432.1 4.524 4.524 0 0 1-.534.117.859.859 0 0 1-.406-.041.623.623 0 0 1-.33-.3.725.725 0 0 1-.1-.406.8.8 0 0 1 .169-.426 1.461 1.461 0 0 1 .468-.387 1.757 1.757 0 0 1 .458-.179 1.4 1.4 0 0 1 .452-.038l.03.264a1.429 1.429 0 0 0-.428.034 1.457 1.457 0 0 0-.383.147.938.938 0 0 0-.428.41.457.457 0 0 0 .018.425.38.38 0 0 0 .229.192.692.692 0 0 0 .31.011q.167-.029.434-.1a4.342 4.342 0 0 1 .526-.118.847.847 0 0 1 .4.039.614.614 0 0 1 .326.3.713.713 0 0 1 .093.406.794.794 0 0 1-.176.427 1.513 1.513 0 0 1-.472.387 1.865 1.865 0 0 1-.591.214" transform="translate(-904.016 -192.647)" style="fill:#00833e"/>
        <path data-name="Trazado 1578" d="M971.931 261.036a1.041 1.041 0 0 1-.551-.105 1.2 1.2 0 0 1-.641-.948 1.029 1.029 0 0 1 .109-.549 1.215 1.215 0 0 1 .941-.637 1.015 1.015 0 0 1 .549.1 1.216 1.216 0 0 1 .641.948 1.028 1.028 0 0 1-.106.55 1.2 1.2 0 0 1-.941.636m.69-.737a.737.737 0 0 0 .07-.41 1 1 0 0 0-.5-.735.737.737 0 0 0-.407-.087.874.874 0 0 0-.69.467.748.748 0 0 0-.072.412.983.983 0 0 0 .5.735.75.75 0 0 0 .409.086.873.873 0 0 0 .69-.467" transform="translate(-911.793 -190.499)" style="fill:#00833e"/>
        <path data-name="Rectángulo 232" transform="rotate(-37.569 128.268 -55.535)" style="fill:#00833e" d="M0 0h.294v3.076H0z"/>
        <path data-name="Trazado 1579" d="M980.676 249.51a.2.2 0 0 1-.143-.075.2.2 0 0 1-.045-.152.208.208 0 0 1 .078-.146.213.213 0 0 1 .156-.052.192.192 0 0 1 .139.07.217.217 0 0 1-.185.354m.349.411.226-.189 1.4 1.674-.226.188z" transform="translate(-918.97 -183.353)" style="fill:#00833e"/>
        <path data-name="Trazado 1580" d="m987.9 241.393 2.117 2.231-.2.194-.3-.313a.9.9 0 0 1-.023.484 1.027 1.027 0 0 1-.276.422 1.1 1.1 0 0 1-.5.28 1.006 1.006 0 0 1-.554-.017 1.248 1.248 0 0 1-.793-.836.993.993 0 0 1 .013-.552 1.119 1.119 0 0 1 .307-.483 1.032 1.032 0 0 1 .423-.25.905.905 0 0 1 .475-.008l-.9-.95zm1.382 2.452a.753.753 0 0 0 0-.418.985.985 0 0 0-.611-.643.751.751 0 0 0-.417-.018.866.866 0 0 0-.6.57.751.751 0 0 0 0 .418.983.983 0 0 0 .611.644.751.751 0 0 0 .417.018.866.866 0 0 0 .6-.571" transform="translate(-924.011 -177.691)" style="fill:#00833e"/>
        <path data-name="Trazado 1581" d="M996.995 239.238a1.048 1.048 0 0 1-.56.035 1.2 1.2 0 0 1-.856-.76 1.031 1.031 0 0 1-.03-.559 1.214 1.214 0 0 1 .754-.849 1.012 1.012 0 0 1 .557-.035 1.214 1.214 0 0 1 .855.759 1.026 1.026 0 0 1 .033.559 1.2 1.2 0 0 1-.754.85m.486-.885a.737.737 0 0 0-.033-.415 1 1 0 0 0-.663-.589.737.737 0 0 0-.416.016.873.873 0 0 0-.553.623.751.751 0 0 0 .032.417.981.981 0 0 0 .663.589.746.746 0 0 0 .417-.017.873.873 0 0 0 .553-.623" transform="translate(-930.037 -174.493)" style="fill:#00833e"/>
        <path data-name="Trazado 1582" d="M1003.424 231.484a1.089 1.089 0 0 1-.383.185l-.1-.246a1.108 1.108 0 0 0 .349-.167 1.367 1.367 0 0 0 .316-.3.822.822 0 0 0 .194-.407.3.3 0 0 0-.123-.273.236.236 0 0 0-.2-.052.525.525 0 0 0-.2.1 2.775 2.775 0 0 0-.248.212 3.708 3.708 0 0 1-.34.278.628.628 0 0 1-.307.112.488.488 0 0 1-.343-.118.539.539 0 0 1-.218-.453 1.023 1.023 0 0 1 .246-.61 1.658 1.658 0 0 1 .3-.3 1.16 1.16 0 0 1 .328-.187l.11.246a1.1 1.1 0 0 0-.538.4.744.744 0 0 0-.179.4.3.3 0 0 0 .121.272.259.259 0 0 0 .207.057.5.5 0 0 0 .209-.093 3.194 3.194 0 0 0 .259-.219 3.819 3.819 0 0 1 .333-.273.615.615 0 0 1 .3-.111.468.468 0 0 1 .332.112.528.528 0 0 1 .216.465 1.131 1.131 0 0 1-.268.628 1.664 1.664 0 0 1-.369.357" transform="translate(-934.669 -168.753)" style="fill:#00833e"/>
        <path data-name="Trazado 1583" d="M883.534 106.325c.378-.221.744-.436 1.111-.649a.92.92 0 0 1 1.355 1.191q-.992 2.332-1.99 4.661a1.737 1.737 0 0 1-1.838 1.13c-1.368-.114-2.732-.268-4.1-.406-.407-.041-.814-.079-1.22-.133a.878.878 0 0 1-.785-.723.893.893 0 0 1 .429-.955c.176-.112.36-.212.54-.318l.555-.329c-.125-.206-.241-.4-.359-.591-1.183-1.919-2.371-3.834-3.543-5.76a.416.416 0 0 0-.51-.218 3.355 3.355 0 0 0-2.356 1.613c-.746 1.269-1.46 2.556-2.182 3.839a.5.5 0 0 0 .212.763q1.779 1.007 3.565 2a.515.515 0 0 0 .78-.231c.537-.939 1.068-1.881 1.6-2.821a1.9 1.9 0 0 1 .142-.232.4.4 0 0 1 .7.4 3.7 3.7 0 0 1-.236.43c-.493.869-.984 1.74-1.481 2.607a1.331 1.331 0 0 1-1.951.536q-1.738-.969-3.472-1.945a1.33 1.33 0 0 1-.551-1.946c.686-1.219 1.371-2.44 2.07-3.652a4.218 4.218 0 0 1 3.834-2.231q2.538-.029 5.076-.013a3.8 3.8 0 0 1 3.392 1.927c.371.6.717 1.223 1.075 1.834.04.069.086.136.14.221m1.758.035-.068-.054c-.086.044-.174.084-.258.133-.424.247-.847.5-1.271.742-.354.2-.53.158-.738-.2-.437-.745-.867-1.494-1.307-2.237a3.033 3.033 0 0 0-2.768-1.587c-1.374 0-2.748.006-4.122.01-.077 0-.154.01-.271.018.07.116.12.2.172.282l3.778 6.13c.22.357.173.549-.186.761-.391.231-.786.457-1.177.689-.078.046-.147.108-.288.215.208.037.328.064.449.078.289.032.579.058.869.087 1.33.135 2.659.278 3.99.4a1 1 0 0 0 1.195-.719q.955-2.229 1.906-4.46c.04-.095.063-.2.095-.295" transform="translate(-835.979 -75.346)" style="fill:#fff"/>
        <path data-name="Trazado 1584" d="m848.56 141.148-1.127-.659a.917.917 0 0 1 .388-1.754q2.534-.284 5.068-.575a1.818 1.818 0 0 1 1.907 1.155q.94 2.132 1.873 4.267c.08.183.167.364.236.551a.884.884 0 0 1-.245.993.87.87 0 0 1-1.014.129c-.377-.2-.742-.42-1.135-.645-.052.084-.1.155-.143.231q-1.749 3.176-3.5 6.351a.309.309 0 0 0 .031.407 3.334 3.334 0 0 0 2.608 1.332c1.474.027 2.948.01 4.422.008a.512.512 0 0 0 .578-.57q.008-2.033 0-4.067c0-.38-.2-.565-.611-.57-1.119-.015-2.238-.018-3.357-.03-.374 0-.605-.306-.426-.579a.56.56 0 0 1 .394-.228c1.192-.007 2.384 0 3.575.029a1.275 1.275 0 0 1 1.24 1.281q.029 2.128 0 4.258a1.3 1.3 0 0 1-1.34 1.3c-1.483.006-2.967.025-4.449-.007a3.969 3.969 0 0 1-3.466-1.942 95.69 95.69 0 0 1-2.816-4.921 3.614 3.614 0 0 1 .053-3.558c.389-.729.824-1.433 1.257-2.182m1.714 9.419c.082-.144.136-.238.188-.333l3.444-6.256c.22-.4.394-.445.792-.214s.769.449 1.155.671c.074.042.155.074.3.144a2.184 2.184 0 0 0-.073-.29c-.689-1.572-1.376-3.145-2.073-4.713a.982.982 0 0 0-1.086-.594c-1.418.161-2.837.316-4.255.476-.319.036-.637.081-.955.122l-.018.081c.074.054.146.115.225.162.431.253.864.5 1.295.755.351.206.4.39.2.739q-.642 1.109-1.289 2.215a3.052 3.052 0 0 0-.01 3.259l1.881 3.289.279.487" transform="translate(-820.581 -101.702)" style="fill:#fff"/>
        <path data-name="Trazado 1585" d="M906.184 153.67c.028.519.073 1 .075 1.479a.9.9 0 0 1-1.344.78 1.211 1.211 0 0 1-.305-.267q-1.651-1.945-3.293-3.9a1.769 1.769 0 0 1-.15-2.219q1.371-2.166 2.751-4.325a.921.921 0 0 1 1.749.455c.022.37.051.74.078 1.135.48-.039.94-.074 1.4-.114 2.02-.176 4.039-.358 6.06-.524a.361.361 0 0 0 .374-.3 3.355 3.355 0 0 0-.381-2.9c-.791-1.22-1.611-2.422-2.422-3.63a.517.517 0 0 0-.816-.159q-1.664 1.118-3.322 2.244a.522.522 0 0 0-.169.851q.758 1.15 1.522 2.3a2.093 2.093 0 0 1 .13.208.384.384 0 0 1-.123.529.389.389 0 0 1-.556-.092c-.137-.181-.256-.375-.382-.564-.433-.651-.868-1.3-1.3-1.955a1.317 1.317 0 0 1 .377-1.927q1.68-1.142 3.367-2.274a1.322 1.322 0 0 1 1.946.383c.788 1.168 1.578 2.335 2.351 3.513a4.183 4.183 0 0 1 .283 4.375q-1.116 2.291-2.268 4.563a3.86 3.86 0 0 1-3.422 2.206l-2.212.137m-.91 1.652.147-.107a2.821 2.821 0 0 0 .014-.306c-.03-.508-.072-1.016-.1-1.524-.017-.34.12-.488.455-.51.852-.056 1.705-.111 2.558-.161a3.081 3.081 0 0 0 2.755-1.791q.921-1.839 1.83-3.683c.033-.067.059-.137.1-.233l-2.592.22-4.971.43c-.354.03-.5-.108-.526-.463-.032-.481-.064-.961-.1-1.442a2.829 2.829 0 0 0-.069-.315c-.106.149-.166.224-.217.3l-2.651 4.161a1.012 1.012 0 0 0 .1 1.41l3.166 3.753a.891.891 0 0 1 .1.257" transform="translate(-860.353 -101.756)" style="fill:#fff"/>
    </g>
</svg>
