<svg xmlns="http://www.w3.org/2000/svg" width="33.18" height="41.641" viewBox="0 0 33.18 41.641">
    <g data-name="Group 1332">
        <g data-name="Group 1330">
            <g data-name="Group 1331">
                <path data-name="Path 2389" d="M16.59 0A16.59 16.59 0 1 1 0 16.59 16.59 16.59 0 0 1 16.59 0" style="fill:#ffafaf"/>
                <path data-name="Path 2390" d="m10.552 30.891 5.663-5.663 5.664 5.663-5.664 10.75z" style="fill:#ffafaf"/>
            </g>
            <g data-name="Group 1330">
                <path data-name="Path 2391" d="M13.446 10.457a3.4 3.4 0 0 1-6.8 0v0a3.4 3.4 0 0 1 6.8-.017z" style="fill:none;stroke:#fff;stroke-linecap:round;stroke-linejoin:round;stroke-width:1.4px"/>
                <path data-name="Path 2392" d="M16.664 7.6a9.335 9.335 0 0 1 5.986 2.721" style="fill:none;stroke:#fff;stroke-linecap:round;stroke-linejoin:round;stroke-width:1.4px"/>
                <path data-name="Path 2393" d="M9.41 23.556a9.325 9.325 0 0 1-2.746-6.471" style="fill:none;stroke:#fff;stroke-linecap:round;stroke-linejoin:round;stroke-width:1.4px"/>
                <path data-name="Path 2394" d="M22.65 10.315a9.362 9.362 0 0 1 0 13.24h0a9.362 9.362 0 0 1-13.239 0h0" style="fill:none;stroke:#fff;stroke-linecap:round;stroke-linejoin:round;stroke-width:1.4px"/>
            </g>
        </g>
    </g>
</svg>
