<svg xmlns="http://www.w3.org/2000/svg" width="81.59" height="81.752" viewBox="0 0 81.59 81.752">
    <defs>
        <clipPath id="1wias0d9ia">
            <path data-name="Rectángulo 345" style="fill:none" d="M0 0h81.59v81.752H0z"/>
        </clipPath>
    </defs>
    <g data-name="Grupo 928">
        <g data-name="Grupo 922">
            <path data-name="Trazado 3261" d="M455.512 42.459A40.272 40.272 0 1 1 415.24 2.187a40.272 40.272 0 0 1 40.272 40.272" transform="translate(-374.614 -1.607)" style="fill:#565656"/>
            <g data-name="Grupo 872" style="mix-blend-mode:multiply;isolation:isolate">
                <g data-name="Grupo 871">
                    <g data-name="Grupo 870" style="clip-path:url(#1wias0d9ia)">
                        <path data-name="Trazado 3262" d="M435.883 86.586q0 1.1.1 2.167c17.145 7.493 25.186-8.557 35.946-8.07a24.848 24.848 0 0 1 12.518 3.851 24.323 24.323 0 0 0-48.559 2.051" transform="translate(-419.388 -45.764)" style="fill:#8f8f8f"/>
                        <path data-name="Trazado 3263" d="M435.883 86.586q0 1.1.1 2.167c17.145 7.493 25.186-8.557 35.946-8.07a24.848 24.848 0 0 1 12.518 3.851 24.323 24.323 0 0 0-48.559 2.051z" transform="translate(-419.388 -45.764)" style="stroke:#b8b8b8;stroke-miterlimit:10;fill:none"/>
                        <path data-name="Trazado 3264" d="M436.245 139.812a24.323 24.323 0 0 0 48.549-2.167q0-1.036-.086-2.051a24.847 24.847 0 0 0-12.518-3.852c-10.76-.487-18.8 15.563-35.945 8.07" transform="translate(-419.654 -96.822)" style="fill:gray"/>
                        <path data-name="Trazado 3265" d="M436.245 139.812a24.323 24.323 0 0 0 48.549-2.167q0-1.036-.086-2.051a24.847 24.847 0 0 0-12.518-3.852c-10.759-.487-18.801 15.558-35.945 8.07z" transform="translate(-419.654 -96.822)" style="stroke:#b8b8b8;stroke-miterlimit:10;fill:none"/>
                        <path data-name="Trazado 3266" d="m387.6 160.087-6.548-2.284-6.327 2.906v-.031l-.093-.932 6.368-2.93 6.468 2.258a.044.044 0 0 0 0 .01z" transform="translate(-374.364 -115.26)" style="fill:#8f8f8f"/>
                        <path data-name="Trazado 3267" d="m387.6 160.087-6.548-2.284-6.327 2.906v-.031l-.093-.932 6.368-2.93 6.468 2.258a.044.044 0 0 0 0 .01z" transform="translate(-374.364 -115.26)" style="stroke:#b8b8b8;stroke-miterlimit:10;fill:none"/>
                        <path data-name="Trazado 3268" d="m645.154 162.343-6.85 2.165-5.976-2.962q-.034.492-.086.979l5.986 2.967 6.847-2.165z" transform="translate(-563.712 -118.736)" style="fill:#8f8f8f"/>
                        <path data-name="Trazado 3269" d="m645.154 162.343-6.85 2.165-5.976-2.962q-.034.492-.086.979l5.986 2.967 6.847-2.165z" transform="translate(-563.712 -118.736)" style="stroke:#b8b8b8;stroke-miterlimit:10;fill:none"/>
                        <path data-name="Trazado 3270" d="M423.415 184.834a28.821 28.821 0 0 0 54.858 0c.079-.228.17-.552.267-.915h-.94a27.9 27.9 0 0 1-53.507 0h-.944c.1.363.189.688.268.915" transform="translate(-410.027 -135.181)" style="fill:#8f8f8f"/>
                        <path data-name="Trazado 3271" d="M423.415 184.834a28.821 28.821 0 0 0 54.858 0c.079-.228.17-.552.267-.915h-.94a27.9 27.9 0 0 1-53.507 0h-.944c.095.363.187.688.266.915z" transform="translate(-410.027 -135.181)" style="stroke:#b8b8b8;stroke-miterlimit:10;fill:none"/>
                        <path data-name="Trazado 3272" d="M455.743 183.918c-.083.42-.158.758-.2.915a39.546 39.546 0 0 1-4.678 11.659 39.9 39.9 0 0 1-68.445 0 39.546 39.546 0 0 1-4.678-11.659 12.281 12.281 0 0 1-.205-.915h-.923a40.806 40.806 0 0 0 80.059 0z" transform="translate(-375.823 -135.18)" style="fill:#8f8f8f"/>
                        <path data-name="Trazado 3273" d="M455.743 183.918c-.083.42-.158.758-.2.915a39.546 39.546 0 0 1-4.678 11.659 39.9 39.9 0 0 1-68.445 0 39.546 39.546 0 0 1-4.678-11.659 12.281 12.281 0 0 1-.205-.915h-.923a40.806 40.806 0 0 0 80.059 0z" transform="translate(-375.823 -135.18)" style="stroke:#b8b8b8;stroke-miterlimit:10;fill:none"/>
                        <path data-name="Trazado 3274" d="m454.394 32.452.042-.053a40.831 40.831 0 0 0-80.462 3.659l.039-.011a41.207 41.207 0 0 0-.281 4.236l6.445-2.618 6.459 2.811a27.809 27.809 0 0 1 8.292-19.433l.02-.02a31.599 31.599 0 0 1 .584-.557l.089-.082a27.9 27.9 0 0 1 46.6 17.636l7.315 4.321 5.52-5.67a40.446 40.446 0 0 0-.666-4.217" transform="translate(-373.706 -.068)" style="fill:gray"/>
                        <path data-name="Trazado 3275" d="m454.394 32.452.042-.053a40.831 40.831 0 0 0-80.462 3.659l.039-.011a41.207 41.207 0 0 0-.281 4.236l6.445-2.618 6.459 2.811a27.809 27.809 0 0 1 8.292-19.433l.02-.02a31.599 31.599 0 0 1 .584-.557l.089-.082a27.9 27.9 0 0 1 46.6 17.636l7.315 4.321 5.52-5.67a40.446 40.446 0 0 0-.662-4.219z" transform="translate(-373.706 -.068)" style="stroke-width:.187px;stroke:#b8b8b8;stroke-miterlimit:10;fill:none"/>
                        <path data-name="Trazado 3276" d="m406.315 89.406-1.015 1.973.718.831-.69 1.346-3.61-4.451.666-1.3 5.725.326-.7 1.373zm-1.171-.112-1.8-.166 1.186 1.365z" transform="translate(-394.279 -64.537)" style="fill:#fff"/>
                        <path data-name="Trazado 3277" d="m406.315 89.406-1.015 1.973.718.831-.69 1.346-3.61-4.451.666-1.3 5.725.326-.7 1.373zm-1.171-.112-1.8-.166 1.186 1.365z" transform="translate(-394.279 -64.537)" style="stroke:#b8b8b8;stroke-miterlimit:10;fill:none"/>
                        <path data-name="Trazado 3278" d="m414.231 60.876 4.143 3.213-.909 1.172-1.616-1.253-1.239 1.6 1.616 1.253-.909 1.172-4.144-3.213.909-1.172 1.557 1.207 1.239-1.6-1.557-1.207z" transform="translate(-401.227 -44.744)" style="fill:#fff"/>
                        <path data-name="Trazado 3279" d="m414.231 60.876 4.143 3.213-.909 1.172-1.616-1.253-1.239 1.6 1.616 1.253-.909 1.172-4.144-3.213.909-1.172 1.557 1.207 1.239-1.6-1.557-1.207z" transform="translate(-401.227 -44.744)" style="stroke:#b8b8b8;stroke-miterlimit:10;fill:none"/>
                        <path data-name="Trazado 3280" d="M434.376 51.047a2.681 2.681 0 0 1-3.131-3.57 3.347 3.347 0 0 1 2.247-1.971 2.681 2.681 0 0 1 3.131 3.57 3.347 3.347 0 0 1-2.247 1.97m.963-2.259a1.346 1.346 0 0 0 .035-.733 1.73 1.73 0 0 0-1.032-1.177 1.353 1.353 0 0 0-.731-.061 1.473 1.473 0 0 0-1.081.948 1.344 1.344 0 0 0-.035.733 1.73 1.73 0 0 0 1.032 1.177 1.345 1.345 0 0 0 .731.061 1.473 1.473 0 0 0 1.081-.948" transform="translate(-415.846 -33.392)" style="fill:#fff"/>
                        <path data-name="Trazado 3281" d="M434.376 51.047a2.681 2.681 0 0 1-3.131-3.57 3.347 3.347 0 0 1 2.247-1.971 2.681 2.681 0 0 1 3.131 3.57 3.347 3.347 0 0 1-2.247 1.97zm.963-2.259a1.346 1.346 0 0 0 .035-.733 1.73 1.73 0 0 0-1.032-1.177 1.353 1.353 0 0 0-.731-.061 1.473 1.473 0 0 0-1.081.948 1.344 1.344 0 0 0-.035.733 1.73 1.73 0 0 0 1.032 1.177 1.345 1.345 0 0 0 .731.061 1.473 1.473 0 0 0 1.081-.948z" transform="translate(-415.846 -33.392)" style="stroke:#b8b8b8;stroke-miterlimit:10;fill:none"/>
                        <path data-name="Trazado 3282" d="m452.969 35.379-.7.413.71 1.2-1.275.757-2.675-4.509 2.062-1.223a2.987 2.987 0 0 1 1.183-.427 1.907 1.907 0 0 1 2.087 1.9 1.8 1.8 0 0 1-.315.958l1.813.84-1.365.81zm-.659-2.492a1.021 1.021 0 0 0-.7.178l-.709.421.784 1.32.709-.42a1.039 1.039 0 0 0 .492-.522.7.7 0 0 0-.089-.6.715.715 0 0 0-.49-.371" transform="translate(-429.054 -23.206)" style="fill:#fff"/>
                        <path data-name="Trazado 3283" d="m452.969 35.379-.7.413.71 1.2-1.275.757-2.675-4.509 2.062-1.223a2.987 2.987 0 0 1 1.183-.427 1.907 1.907 0 0 1 2.087 1.9 1.8 1.8 0 0 1-.315.958l1.813.84-1.365.81zm-.659-2.492a1.021 1.021 0 0 0-.7.178l-.709.421.784 1.32.709-.42a1.039 1.039 0 0 0 .492-.522.7.7 0 0 0-.089-.6.715.715 0 0 0-.487-.376z" transform="translate(-429.054 -23.206)" style="stroke:#b8b8b8;stroke-miterlimit:10;fill:none"/>
                        <path data-name="Trazado 3284" d="m473.81 25.821-.757.286.492 1.3-1.387.523-1.851-4.905 2.242-.846a2.984 2.984 0 0 1 1.239-.216 1.907 1.907 0 0 1 1.726 2.231 1.8 1.8 0 0 1-.477.889l1.64 1.142-1.486.56zm-.216-2.568a1.028 1.028 0 0 0-.716.054l-.771.291.542 1.437.771-.291a1.035 1.035 0 0 0 .575-.429.7.7 0 0 0 .017-.611.715.715 0 0 0-.418-.451" transform="translate(-444.689 -16.142)" style="fill:#fff"/>
                        <path data-name="Trazado 3285" d="m473.81 25.821-.757.286.492 1.3-1.387.523-1.851-4.905 2.242-.846a2.984 2.984 0 0 1 1.239-.216 1.907 1.907 0 0 1 1.726 2.231 1.8 1.8 0 0 1-.477.889l1.64 1.142-1.486.56zm-.216-2.568a1.028 1.028 0 0 0-.716.054l-.771.291.542 1.437.771-.291a1.035 1.035 0 0 0 .575-.429.7.7 0 0 0 .017-.611.715.715 0 0 0-.418-.451z" transform="translate(-444.689 -16.142)" style="stroke:#b8b8b8;stroke-miterlimit:10;fill:none"/>
                        <path data-name="Trazado 3286" d="m498.46 19.9-2.181.4-.222 1.076-1.488.272 1.333-5.573 1.437-.263 3.227 4.74-1.518.278zm-.624-1-.965-1.529-.361 1.772z" transform="translate(-462.522 -11.622)" style="fill:#fff"/>
                        <path data-name="Trazado 3287" d="m498.46 19.9-2.181.4-.222 1.076-1.488.272 1.333-5.573 1.437-.263 3.227 4.74-1.518.278zm-.624-1-.965-1.529-.361 1.772z" transform="translate(-462.522 -11.622)" style="stroke:#b8b8b8;stroke-miterlimit:10;fill:none"/>
                        <path data-name="Trazado 3288" d="M528.876 19.035a2.681 2.681 0 0 1 .4-4.732 3.347 3.347 0 0 1 2.978.249 2.68 2.68 0 0 1-.4 4.732 3.348 3.348 0 0 1-2.978-.249m2.294-.876a1.342 1.342 0 0 0 .551-.484 1.729 1.729 0 0 0 .13-1.56 1.352 1.352 0 0 0-.464-.569 1.475 1.475 0 0 0-1.433-.12 1.344 1.344 0 0 0-.552.484 1.73 1.73 0 0 0-.13 1.56 1.346 1.346 0 0 0 .463.568 1.475 1.475 0 0 0 1.433.12" transform="translate(-486.836 -10.337)" style="fill:#fff"/>
                        <path data-name="Trazado 3289" d="M528.876 19.035a2.681 2.681 0 0 1 .4-4.732 3.347 3.347 0 0 1 2.978.249 2.68 2.68 0 0 1-.4 4.732 3.348 3.348 0 0 1-2.978-.249zm2.294-.876a1.342 1.342 0 0 0 .551-.484 1.729 1.729 0 0 0 .13-1.56 1.352 1.352 0 0 0-.464-.569 1.475 1.475 0 0 0-1.433-.12 1.344 1.344 0 0 0-.552.484 1.73 1.73 0 0 0-.13 1.56 1.346 1.346 0 0 0 .463.568 1.475 1.475 0 0 0 1.433.12z" transform="translate(-486.836 -10.337)" style="stroke:#b8b8b8;stroke-miterlimit:10;fill:none"/>
                        <path data-name="Trazado 3290" d="m566.91 21.088-1.81 4.92-1.145-.422-1.206-3.422-.966 2.621-1.363-.5 1.813-4.919 1.146.422 1.205 3.422.966-2.621z" transform="translate(-510.92 -14.232)" style="fill:#fff"/>
                        <path data-name="Trazado 3291" d="m566.91 21.088-1.81 4.92-1.145-.422-1.206-3.422-.966 2.621-1.363-.5 1.813-4.919 1.146.422 1.205 3.422.966-2.621z" transform="translate(-510.92 -14.232)" style="stroke:#b8b8b8;stroke-miterlimit:10;fill:none"/>
                        <path data-name="Trazado 3292" d="M584.347 33.44a2.417 2.417 0 0 1 .372-1.881l1.494-2.493 1.272.762-1.471 2.454q-.647 1.08.208 1.591t1.495-.571l1.47-2.454 1.253.751-1.494 2.493a2.416 2.416 0 0 1-1.483 1.216 2.91 2.91 0 0 1-3.116-1.867" transform="translate(-528.463 -21.364)" style="fill:#fff"/>
                        <path data-name="Trazado 3293" d="M584.347 33.44a2.417 2.417 0 0 1 .372-1.881l1.494-2.493 1.272.762-1.471 2.454q-.647 1.08.208 1.591t1.495-.571l1.47-2.454 1.253.751-1.494 2.493a2.416 2.416 0 0 1-1.483 1.216 2.91 2.91 0 0 1-3.116-1.867z" transform="translate(-528.463 -21.364)" style="stroke:#b8b8b8;stroke-miterlimit:10;fill:none"/>
                        <path data-name="Trazado 3294" d="m607.558 46.287-3.478 3.923-.914-.81.121-3.626-1.853 2.091-1.087-.964 3.477-3.923.914.81-.121 3.626 1.853-2.091z" transform="translate(-540.269 -31.589)" style="fill:#fff"/>
                        <path data-name="Trazado 3295" d="m607.558 46.287-3.478 3.923-.914-.81.121-3.626-1.853 2.091-1.087-.964 3.477-3.923.914.81-.121 3.626 1.853-2.091z" transform="translate(-540.269 -31.589)" style="stroke:#b8b8b8;stroke-miterlimit:10;fill:none"/>
                        <path data-name="Trazado 3296" d="M620.293 67.177a2.6 2.6 0 0 1 .126-1.409 2.834 2.834 0 0 1 2.214-1.74 2.6 2.6 0 0 1 1.4.211 3.1 3.1 0 0 1 1.188.948 3.178 3.178 0 0 1 .6 1.176 2.491 2.491 0 0 1 .015 1.207l-1.254-.214A1.552 1.552 0 0 0 624.3 66a1.527 1.527 0 0 0-.617-.482 1.3 1.3 0 0 0-.734-.08 1.76 1.76 0 0 0-1.231.967 1.3 1.3 0 0 0-.1.732 1.523 1.523 0 0 0 .322.714 1.552 1.552 0 0 0 1.246.592l-.088 1.27a2.49 2.49 0 0 1-1.169-.3 3.174 3.174 0 0 1-1-.861 3.1 3.1 0 0 1-.64-1.378" transform="translate(-554.897 -47.045)" style="fill:#fff"/>
                        <path data-name="Trazado 3297" d="M620.293 67.177a2.6 2.6 0 0 1 .126-1.409 2.834 2.834 0 0 1 2.214-1.74 2.6 2.6 0 0 1 1.4.211 3.1 3.1 0 0 1 1.188.948 3.178 3.178 0 0 1 .6 1.176 2.491 2.491 0 0 1 .015 1.207l-1.254-.214A1.552 1.552 0 0 0 624.3 66a1.527 1.527 0 0 0-.617-.482 1.3 1.3 0 0 0-.734-.08 1.76 1.76 0 0 0-1.231.967 1.3 1.3 0 0 0-.1.732 1.523 1.523 0 0 0 .322.714 1.552 1.552 0 0 0 1.246.592l-.088 1.27a2.49 2.49 0 0 1-1.169-.3 3.174 3.174 0 0 1-1-.861 3.1 3.1 0 0 1-.636-1.375z" transform="translate(-554.897 -47.045)" style="stroke:#b8b8b8;stroke-miterlimit:10;fill:none"/>
                        <path data-name="Trazado 3298" d="m631.257 89.36-1.044-1.96-1.093.116-.713-1.335 5.715-.427.687 1.288-3.532 4.517-.726-1.361zm.76-.9 1.163-1.385-1.8.2z" transform="translate(-560.893 -63.033)" style="fill:#fff"/>
                        <path data-name="Trazado 3299" d="m631.257 89.36-1.044-1.96-1.093.116-.713-1.335 5.715-.427.687 1.288-3.532 4.517-.726-1.361zm.76-.9 1.163-1.385-1.8.2z" transform="translate(-560.893 -63.033)" style="stroke:#b8b8b8;stroke-miterlimit:10;fill:none"/>
                        <path data-name="Trazado 3300" d="m430.906 241.33.206.212-.8.773a1.417 1.417 0 0 1-.533-.155 1.794 1.794 0 0 1-.477-.355 1.612 1.612 0 0 1-.41-.7 1.413 1.413 0 0 1 0-.764 1.544 1.544 0 0 1 1.09-1.057 1.412 1.412 0 0 1 .763.025 1.619 1.619 0 0 1 .688.434 1.7 1.7 0 0 1 .35.513 1.215 1.215 0 0 1 .1.556h-.274a1.2 1.2 0 0 0-.366-.868 1.3 1.3 0 0 0-.557-.35 1.144 1.144 0 0 0-.622-.02 1.254 1.254 0 0 0-.886.859 1.17 1.17 0 0 0 0 .621 1.384 1.384 0 0 0 1.021.957z" transform="translate(-414.211 -175.846)" style="fill:#8f8f8f"/>
                        <path data-name="Trazado 3301" d="m430.906 241.33.206.212-.8.773a1.417 1.417 0 0 1-.533-.155 1.794 1.794 0 0 1-.477-.355 1.612 1.612 0 0 1-.41-.7 1.413 1.413 0 0 1 0-.764 1.544 1.544 0 0 1 1.09-1.057 1.412 1.412 0 0 1 .763.025 1.619 1.619 0 0 1 .688.434 1.7 1.7 0 0 1 .35.513 1.215 1.215 0 0 1 .1.556h-.274a1.2 1.2 0 0 0-.366-.868 1.3 1.3 0 0 0-.557-.35 1.144 1.144 0 0 0-.622-.02 1.254 1.254 0 0 0-.886.859 1.17 1.17 0 0 0 0 .621 1.384 1.384 0 0 0 1.021.957z" transform="translate(-414.211 -175.846)" style="stroke:#b8b8b8;stroke-miterlimit:10;fill:none"/>
                        <path data-name="Trazado 3302" d="m439.586 251.4-1.387-1.2a.782.782 0 0 0-.161.589.869.869 0 0 0 .317.55.944.944 0 0 0 .331.189.821.821 0 0 0 .364.03v.254a.935.935 0 0 1-.45-.036 1.226 1.226 0 0 1-.424-.244 1.212 1.212 0 0 1-.359-.5 1.035 1.035 0 0 1-.048-.566 1.132 1.132 0 0 1 .265-.53 1.172 1.172 0 0 1 .48-.344 1.008 1.008 0 0 1 .548-.05 1.07 1.07 0 0 1 .507.25 1.057 1.057 0 0 1 .321.463 1.006 1.006 0 0 1 .03.545 1.188 1.188 0 0 1-.272.526zm-.715-1.6a.793.793 0 0 0-.528.24l1.176 1.013a.793.793 0 0 0 .159-.558.8.8 0 0 0-.807-.7" transform="translate(-420.761 -183.406)" style="fill:#8f8f8f"/>
                        <path data-name="Trazado 3303" d="m439.586 251.4-1.387-1.2a.782.782 0 0 0-.161.589.869.869 0 0 0 .317.55.944.944 0 0 0 .331.189.821.821 0 0 0 .364.03v.254a.935.935 0 0 1-.45-.036 1.226 1.226 0 0 1-.424-.244 1.212 1.212 0 0 1-.359-.5 1.035 1.035 0 0 1-.048-.566 1.132 1.132 0 0 1 .265-.53 1.172 1.172 0 0 1 .48-.344 1.008 1.008 0 0 1 .548-.05 1.07 1.07 0 0 1 .507.25 1.057 1.057 0 0 1 .321.463 1.006 1.006 0 0 1 .03.545 1.188 1.188 0 0 1-.272.526zm-.715-1.6a.793.793 0 0 0-.528.24l1.176 1.013a.793.793 0 0 0 .159-.558.8.8 0 0 0-.807-.7z" transform="translate(-420.761 -183.406)" style="stroke:#b8b8b8;stroke-miterlimit:10;fill:none"/>
                        <path data-name="Trazado 3304" d="M444.917 257.159a1.1 1.1 0 0 1-.191-.382l.246-.108a1.126 1.126 0 0 0 .172.348 1.379 1.379 0 0 0 .307.313.825.825 0 0 0 .412.189.3.3 0 0 0 .273-.127.237.237 0 0 0 .049-.2.525.525 0 0 0-.1-.2 2.886 2.886 0 0 0-.217-.246 3.641 3.641 0 0 1-.283-.337.629.629 0 0 1-.117-.307.493.493 0 0 1 .114-.346.542.542 0 0 1 .452-.224 1.026 1.026 0 0 1 .615.239 1.65 1.65 0 0 1 .307.3 1.17 1.17 0 0 1 .193.327l-.245.114a1.1 1.1 0 0 0-.406-.535.75.75 0 0 0-.4-.174.307.307 0 0 0-.271.125.26.26 0 0 0-.054.209.5.5 0 0 0 .1.209 3.292 3.292 0 0 0 .224.257 3.8 3.8 0 0 1 .278.331.616.616 0 0 1 .116.3.469.469 0 0 1-.108.334.529.529 0 0 1-.463.223 1.14 1.14 0 0 1-.634-.26 1.686 1.686 0 0 1-.363-.366" transform="translate(-425.887 -187.814)" style="fill:#8f8f8f"/>
                        <path data-name="Trazado 3305" d="M444.917 257.159a1.1 1.1 0 0 1-.191-.382l.246-.108a1.126 1.126 0 0 0 .172.348 1.379 1.379 0 0 0 .307.313.825.825 0 0 0 .412.189.3.3 0 0 0 .273-.127.237.237 0 0 0 .049-.2.525.525 0 0 0-.1-.2 2.886 2.886 0 0 0-.217-.246 3.641 3.641 0 0 1-.283-.337.629.629 0 0 1-.117-.307.493.493 0 0 1 .114-.346.542.542 0 0 1 .452-.224 1.026 1.026 0 0 1 .615.239 1.65 1.65 0 0 1 .307.3 1.17 1.17 0 0 1 .193.327l-.245.114a1.1 1.1 0 0 0-.406-.535.75.75 0 0 0-.4-.174.307.307 0 0 0-.271.125.26.26 0 0 0-.054.209.5.5 0 0 0 .1.209 3.292 3.292 0 0 0 .224.257 3.8 3.8 0 0 1 .278.331.616.616 0 0 1 .116.3.469.469 0 0 1-.108.334.529.529 0 0 1-.463.223 1.14 1.14 0 0 1-.634-.26 1.686 1.686 0 0 1-.369-.372z" transform="translate(-425.887 -187.814)" style="stroke:#b8b8b8;stroke-miterlimit:10;fill:none"/>
                        <path data-name="Trazado 3306" d="M454.1 261.284a.559.559 0 0 1-.235-.017.835.835 0 0 1-.236-.106.643.643 0 0 1-.307-.4.635.635 0 0 1 .117-.485l.722-1.109-.328-.214.136-.209.328.213.261-.4.247.161-.261.4.558.363-.136.209-.558-.363-.713 1.095a.413.413 0 0 0-.081.3.371.371 0 0 0 .18.239.543.543 0 0 0 .164.072.433.433 0 0 0 .169.011z" transform="translate(-432.201 -190.041)" style="fill:#8f8f8f"/>
                        <path data-name="Trazado 3307" d="M454.1 261.284a.559.559 0 0 1-.235-.017.835.835 0 0 1-.236-.106.643.643 0 0 1-.307-.4.635.635 0 0 1 .117-.485l.722-1.109-.328-.214.136-.209.328.213.261-.4.247.161-.261.4.558.363-.136.209-.558-.363-.713 1.095a.413.413 0 0 0-.081.3.371.371 0 0 0 .18.239.543.543 0 0 0 .164.072.433.433 0 0 0 .169.011z" transform="translate(-432.201 -190.041)" style="stroke:#b8b8b8;stroke-miterlimit:10;fill:none"/>
                        <path data-name="Trazado 3308" d="m459.9 261.761.255.149-1.105 1.89-.255-.149zm.269-.469a.2.2 0 0 1 .022-.161.2.2 0 0 1 .127-.094.21.21 0 0 1 .164.024.212.212 0 0 1 .1.13.193.193 0 0 1-.019.155.218.218 0 0 1-.4-.054" transform="translate(-436.228 -191.857)" style="fill:#8f8f8f"/>
                        <path data-name="Trazado 3309" d="m459.9 261.761.255.149-1.105 1.89-.255-.149zm.269-.469a.2.2 0 0 1 .022-.161.2.2 0 0 1 .127-.094.21.21 0 0 1 .164.024.212.212 0 0 1 .1.13.193.193 0 0 1-.019.155.218.218 0 0 1-.4-.054z" transform="translate(-436.228 -191.857)" style="stroke:#b8b8b8;stroke-miterlimit:10;fill:none"/>
                        <path data-name="Trazado 3310" d="M464.378 267.643a1.049 1.049 0 0 1-.177-.535 1.2 1.2 0 0 1 .518-1.025 1.034 1.034 0 0 1 .535-.173 1.221 1.221 0 0 1 1.018.514 1.019 1.019 0 0 1 .176.532 1.219 1.219 0 0 1-.518 1.025 1.034 1.034 0 0 1-.534.176 1.2 1.2 0 0 1-1.018-.514m.983.245a.739.739 0 0 0 .394-.139 1 1 0 0 0 .4-.795.739.739 0 0 0-.122-.4.878.878 0 0 0-.746-.377.755.755 0 0 0-.4.138.987.987 0 0 0-.4.795.753.753 0 0 0 .124.4.877.877 0 0 0 .746.377m1.107-2.464.353.178-.834.156-.26-.131z" transform="translate(-440.2 -195.087)" style="fill:#8f8f8f"/>
                        <path data-name="Trazado 3311" d="M464.378 267.643a1.049 1.049 0 0 1-.177-.535 1.2 1.2 0 0 1 .518-1.025 1.034 1.034 0 0 1 .535-.173 1.221 1.221 0 0 1 1.018.514 1.019 1.019 0 0 1 .176.532 1.219 1.219 0 0 1-.518 1.025 1.034 1.034 0 0 1-.534.176 1.2 1.2 0 0 1-1.018-.514zm.983.245a.739.739 0 0 0 .394-.139 1 1 0 0 0 .4-.795.739.739 0 0 0-.122-.4.878.878 0 0 0-.746-.377.755.755 0 0 0-.4.138.987.987 0 0 0-.4.795.753.753 0 0 0 .124.4.877.877 0 0 0 .746.377zm1.107-2.464.353.178-.834.156-.26-.131z" transform="translate(-440.2 -195.087)" style="stroke:#b8b8b8;stroke-miterlimit:10;fill:none"/>
                        <path data-name="Trazado 3312" d="M476.072 271.774a.936.936 0 0 1-.034.737l-.473 1.178-.274-.11.462-1.151a.725.725 0 0 0 .035-.546.64.64 0 0 0-.385-.347.749.749 0 0 0-.6-.014.794.794 0 0 0-.407.462l-.428 1.066-.274-.11.815-2.031.263.105-.151.375a.824.824 0 0 1 .426-.163 1.073 1.073 0 0 1 .5.083.894.894 0 0 1 .519.466" transform="translate(-447.181 -199.117)" style="fill:#8f8f8f"/>
                        <path data-name="Trazado 3313" d="M476.072 271.774a.936.936 0 0 1-.034.737l-.473 1.178-.274-.11.462-1.151a.725.725 0 0 0 .035-.546.64.64 0 0 0-.385-.347.749.749 0 0 0-.6-.014.794.794 0 0 0-.407.462l-.428 1.066-.274-.11.815-2.031.263.105-.151.375a.824.824 0 0 1 .426-.163 1.073 1.073 0 0 1 .5.083.894.894 0 0 1 .525.466z" transform="translate(-447.181 -199.117)" style="stroke:#b8b8b8;stroke-miterlimit:10;fill:none"/>
                        <path data-name="Rectángulo 339" transform="rotate(-74.21 65.272 17.286)" style="fill:#8f8f8f" d="M0 0h2.913v.308H0z"/>
                        <path data-name="Rectángulo 340" transform="rotate(-74.21 65.272 17.286)" style="stroke:#b8b8b8;stroke-miterlimit:10;fill:none" d="M0 0h2.913v.308H0z"/>
                        <path data-name="Trazado 3314" d="M497.881 278.459a.934.934 0 0 1 .094.732l-.263 1.242-.289-.061.257-1.213a.725.725 0 0 0-.059-.544.64.64 0 0 0-.439-.276.748.748 0 0 0-.591.089.794.794 0 0 0-.322.526l-.238 1.123-.289-.061.453-2.141.277.059-.084.395a.825.825 0 0 1 .392-.234 1.073 1.073 0 0 1 .509 0 .894.894 0 0 1 .591.37" transform="translate(-463.384 -204.237)" style="fill:#8f8f8f"/>
                        <path data-name="Trazado 3315" d="M497.881 278.459a.934.934 0 0 1 .094.732l-.263 1.242-.289-.061.257-1.213a.725.725 0 0 0-.059-.544.64.64 0 0 0-.439-.276.748.748 0 0 0-.591.089.794.794 0 0 0-.322.526l-.238 1.123-.289-.061.453-2.141.277.059-.084.395a.825.825 0 0 1 .392-.234 1.073 1.073 0 0 1 .509 0 .894.894 0 0 1 .592.364z" transform="translate(-463.384 -204.237)" style="stroke:#b8b8b8;stroke-miterlimit:10;fill:none"/>
                        <path data-name="Trazado 3316" d="M508.46 280.915a.562.562 0 0 1-.219.086.829.829 0 0 1-.259 0 .579.579 0 0 1-.549-.717l.179-1.311-.388-.053.034-.248.387.053.065-.474.293.04-.065.474.66.09-.034.247-.66-.09-.177 1.295a.413.413 0 0 0 .056.308.371.371 0 0 0 .264.139.535.535 0 0 0 .179 0 .437.437 0 0 0 .157-.062z" transform="translate(-471.824 -204.518)" style="fill:#8f8f8f"/>
                        <path data-name="Trazado 3317" d="M508.46 280.915a.562.562 0 0 1-.219.086.829.829 0 0 1-.259 0 .579.579 0 0 1-.549-.717l.179-1.311-.388-.053.034-.248.387.053.065-.474.293.04-.065.474.66.09-.034.247-.66-.09-.177 1.295a.413.413 0 0 0 .056.308.371.371 0 0 0 .264.139.535.535 0 0 0 .179 0 .437.437 0 0 0 .157-.062z" transform="translate(-471.824 -204.518)" style="stroke:#b8b8b8;stroke-miterlimit:10;fill:none"/>
                        <path data-name="Trazado 3318" d="m516.376 282.3-1.826-.129a.785.785 0 0 0 .223.568.872.872 0 0 0 .583.252.942.942 0 0 0 .379-.046.815.815 0 0 0 .31-.193l.153.2a.938.938 0 0 1-.382.24 1.233 1.233 0 0 1-.486.058 1.217 1.217 0 0 1-.585-.185 1.035 1.035 0 0 1-.377-.425 1.13 1.13 0 0 1-.105-.583 1.172 1.172 0 0 1 .18-.563 1.009 1.009 0 0 1 .41-.368 1.07 1.07 0 0 1 .556-.1 1.057 1.057 0 0 1 .534.179 1 1 0 0 1 .35.419 1.185 1.185 0 0 1 .1.584zm-1.531-.857a.792.792 0 0 0-.28.508l1.548.109a.8.8 0 0 0-.206-.542.8.8 0 0 0-1.063-.075" transform="translate(-476.994 -206.555)" style="fill:#8f8f8f"/>
                        <path data-name="Trazado 3319" d="m516.376 282.3-1.826-.129a.785.785 0 0 0 .223.568.872.872 0 0 0 .583.252.942.942 0 0 0 .379-.046.815.815 0 0 0 .31-.193l.153.2a.938.938 0 0 1-.382.24 1.233 1.233 0 0 1-.486.058 1.217 1.217 0 0 1-.585-.185 1.035 1.035 0 0 1-.377-.425 1.13 1.13 0 0 1-.105-.583 1.172 1.172 0 0 1 .18-.563 1.009 1.009 0 0 1 .41-.368 1.07 1.07 0 0 1 .556-.1 1.057 1.057 0 0 1 .534.179 1 1 0 0 1 .35.419 1.185 1.185 0 0 1 .1.584zm-1.531-.857a.792.792 0 0 0-.28.508l1.548.109a.8.8 0 0 0-.206-.542.8.8 0 0 0-1.063-.075z" transform="translate(-476.994 -206.555)" style="stroke:#b8b8b8;stroke-miterlimit:10;fill:none"/>
                        <path data-name="Trazado 3320" d="m527.038 281.347.031 1.922a1.115 1.115 0 0 1-.259.83 1.128 1.128 0 0 1-.817.282 1.836 1.836 0 0 1-.578-.08 1.183 1.183 0 0 1-.447-.24l.147-.227a1.121 1.121 0 0 0 .388.214 1.443 1.443 0 0 0 .478.071.84.84 0 0 0 .608-.2.813.813 0 0 0 .186-.6v-.279a.891.891 0 0 1-.355.322 1.114 1.114 0 0 1-.491.116 1.165 1.165 0 0 1-.562-.126 1 1 0 0 1-.4-.372 1.068 1.068 0 0 1-.152-.549 1.054 1.054 0 0 1 .135-.551.987.987 0 0 1 .387-.381 1.174 1.174 0 0 1 .56-.143 1.11 1.11 0 0 1 .505.1.906.906 0 0 1 .367.319l-.007-.42zm-.662 1.752a.737.737 0 0 0 .293-.29.817.817 0 0 0 .1-.418.8.8 0 0 0-.113-.412.744.744 0 0 0-.3-.278.96.96 0 0 0-.857.012.728.728 0 0 0-.291.288.869.869 0 0 0 .014.832.738.738 0 0 0 .3.28.888.888 0 0 0 .428.1.9.9 0 0 0 .427-.109" transform="translate(-484.747 -206.79)" style="fill:#8f8f8f"/>
                        <path data-name="Trazado 3321" d="m527.038 281.347.031 1.922a1.115 1.115 0 0 1-.259.83 1.128 1.128 0 0 1-.817.282 1.836 1.836 0 0 1-.578-.08 1.183 1.183 0 0 1-.447-.24l.147-.227a1.121 1.121 0 0 0 .388.214 1.443 1.443 0 0 0 .478.071.84.84 0 0 0 .608-.2.813.813 0 0 0 .186-.6v-.279a.891.891 0 0 1-.355.322 1.114 1.114 0 0 1-.491.116 1.165 1.165 0 0 1-.562-.126 1 1 0 0 1-.4-.372 1.068 1.068 0 0 1-.152-.549 1.054 1.054 0 0 1 .135-.551.987.987 0 0 1 .387-.381 1.174 1.174 0 0 1 .56-.143 1.11 1.11 0 0 1 .505.1.906.906 0 0 1 .367.319l-.007-.42zm-.662 1.752a.737.737 0 0 0 .293-.29.817.817 0 0 0 .1-.418.8.8 0 0 0-.113-.412.744.744 0 0 0-.3-.278.96.96 0 0 0-.857.012.728.728 0 0 0-.291.288.869.869 0 0 0 .014.832.738.738 0 0 0 .3.28.888.888 0 0 0 .428.1.9.9 0 0 0 .425-.113z" transform="translate(-484.747 -206.79)" style="stroke:#b8b8b8;stroke-miterlimit:10;fill:none"/>
                        <path data-name="Trazado 3322" d="M537.691 280.825a1.058 1.058 0 0 1 .5-.156l.025.286h-.071a.7.7 0 0 0-.521.258.845.845 0 0 0-.144.609l.1 1.111-.294.025-.187-2.181.282-.024.036.427a.717.717 0 0 1 .281-.358" transform="translate(-493.776 -206.292)" style="fill:#8f8f8f"/>
                        <path data-name="Trazado 3323" d="M537.691 280.825a1.058 1.058 0 0 1 .5-.156l.025.286h-.071a.7.7 0 0 0-.521.258.845.845 0 0 0-.144.609l.1 1.111-.294.025-.187-2.181.282-.024.036.427a.717.717 0 0 1 .274-.355z" transform="translate(-493.776 -206.292)" style="stroke:#b8b8b8;stroke-miterlimit:10;fill:none"/>
                        <path data-name="Trazado 3324" d="M545.187 279.992a.826.826 0 0 1 .322.593l.2 1.341-.28.043-.052-.338a.673.673 0 0 1-.25.307 1.026 1.026 0 0 1-.44.164.9.9 0 0 1-.6-.085.6.6 0 0 1-.152-.9.987.987 0 0 1 .61-.265l.687-.1-.02-.131a.562.562 0 0 0-.221-.4.656.656 0 0 0-.479-.076 1.183 1.183 0 0 0-.385.128 1.014 1.014 0 0 0-.3.237l-.165-.2a1.193 1.193 0 0 1 .362-.276 1.569 1.569 0 0 1 .474-.15.924.924 0 0 1 .682.113m-.078 1.7a.684.684 0 0 0 .214-.367l-.054-.353-.679.1q-.555.084-.5.471a.358.358 0 0 0 .189.276.663.663 0 0 0 .42.047.775.775 0 0 0 .407-.178" transform="translate(-498.61 -205.699)" style="fill:#8f8f8f"/>
                        <path data-name="Trazado 3325" d="M545.187 279.992a.826.826 0 0 1 .322.593l.2 1.341-.28.043-.052-.338a.673.673 0 0 1-.25.307 1.026 1.026 0 0 1-.44.164.9.9 0 0 1-.6-.085.6.6 0 0 1-.152-.9.987.987 0 0 1 .61-.265l.687-.1-.02-.131a.562.562 0 0 0-.221-.4.656.656 0 0 0-.479-.076 1.183 1.183 0 0 0-.385.128 1.014 1.014 0 0 0-.3.237l-.165-.2a1.193 1.193 0 0 1 .362-.276 1.569 1.569 0 0 1 .474-.15.924.924 0 0 1 .689.108zm-.078 1.7a.684.684 0 0 0 .214-.367l-.054-.353-.679.1q-.555.084-.5.471a.358.358 0 0 0 .189.276.663.663 0 0 0 .42.047.775.775 0 0 0 .41-.178z" transform="translate(-498.61 -205.699)" style="stroke:#b8b8b8;stroke-miterlimit:10;fill:none"/>
                        <path data-name="Rectángulo 341" transform="rotate(-12.066 369.066 -188.57)" style="fill:#8f8f8f" d="M0 0h.296v3.087H0z"/>
                        <path data-name="Rectángulo 342" transform="rotate(-12.066 369.066 -188.57)" style="stroke:#b8b8b8;stroke-miterlimit:10;fill:none" d="M0 0h.296v3.087H0z"/>
                        <path data-name="Trazado 3326" d="m565.322 270.806.955 2.936-.269.087-.134-.412a.9.9 0 0 1-.23.429 1.031 1.031 0 0 1-.433.263 1.108 1.108 0 0 1-.574.038 1.013 1.013 0 0 1-.494-.255 1.254 1.254 0 0 1-.358-1.1 1 1 0 0 1 .25-.5 1.127 1.127 0 0 1 .487-.305 1.035 1.035 0 0 1 .491-.044.909.909 0 0 1 .434.2l-.407-1.25zm.193 2.819a.751.751 0 0 0 .184-.377.985.985 0 0 0-.275-.847.753.753 0 0 0-.37-.2.817.817 0 0 0-.426.027.828.828 0 0 0-.365.23.753.753 0 0 0-.184.377.988.988 0 0 0 .275.847.752.752 0 0 0 .37.2.868.868 0 0 0 .791-.257" transform="translate(-513.381 -199.042)" style="fill:#8f8f8f"/>
                        <path data-name="Trazado 3327" d="m565.322 270.806.955 2.936-.269.087-.134-.412a.9.9 0 0 1-.23.429 1.031 1.031 0 0 1-.433.263 1.108 1.108 0 0 1-.574.038 1.013 1.013 0 0 1-.494-.255 1.254 1.254 0 0 1-.358-1.1 1 1 0 0 1 .25-.5 1.127 1.127 0 0 1 .487-.305 1.035 1.035 0 0 1 .491-.044.909.909 0 0 1 .434.2l-.407-1.25zm.193 2.819a.751.751 0 0 0 .184-.377.985.985 0 0 0-.275-.847.753.753 0 0 0-.37-.2.817.817 0 0 0-.426.027.828.828 0 0 0-.365.23.753.753 0 0 0-.184.377.988.988 0 0 0 .275.847.752.752 0 0 0 .37.2.868.868 0 0 0 .791-.257z" transform="translate(-513.381 -199.042)" style="stroke:#b8b8b8;stroke-miterlimit:10;fill:none"/>
                        <path data-name="Trazado 3328" d="m576.82 271.812-1.686.713a.782.782 0 0 0 .456.406.871.871 0 0 0 .634-.039.949.949 0 0 0 .317-.213.819.819 0 0 0 .189-.312l.228.112a.941.941 0 0 1-.232.387 1.232 1.232 0 0 1-.407.271 1.215 1.215 0 0 1-.606.1 1.034 1.034 0 0 1-.528-.208 1.133 1.133 0 0 1-.358-.472 1.174 1.174 0 0 1-.095-.583 1.008 1.008 0 0 1 .2-.513 1.069 1.069 0 0 1 .449-.343 1.057 1.057 0 0 1 .557-.082 1 1 0 0 1 .5.215 1.184 1.184 0 0 1 .351.478zm-1.753-.07a.793.793 0 0 0-.019.58l1.43-.6a.794.794 0 0 0-.429-.39.8.8 0 0 0-.981.415" transform="translate(-521.437 -199.204)" style="fill:#8f8f8f"/>
                        <path data-name="Trazado 3329" d="m576.82 271.812-1.686.713a.782.782 0 0 0 .456.406.871.871 0 0 0 .634-.039.949.949 0 0 0 .317-.213.819.819 0 0 0 .189-.312l.228.112a.941.941 0 0 1-.232.387 1.232 1.232 0 0 1-.407.271 1.215 1.215 0 0 1-.606.1 1.034 1.034 0 0 1-.528-.208 1.133 1.133 0 0 1-.358-.472 1.174 1.174 0 0 1-.095-.583 1.008 1.008 0 0 1 .2-.513 1.069 1.069 0 0 1 .449-.343 1.057 1.057 0 0 1 .557-.082 1 1 0 0 1 .5.215 1.184 1.184 0 0 1 .351.478zm-1.753-.07a.793.793 0 0 0-.019.58l1.43-.6a.794.794 0 0 0-.429-.39.8.8 0 0 0-.981.415z" transform="translate(-521.437 -199.204)" style="stroke:#b8b8b8;stroke-miterlimit:10;fill:none"/>
                        <path data-name="Rectángulo 343" transform="rotate(-26.359 177.83 -82.791)" style="fill:#8f8f8f" d="M0 0h.295v3.087H0z"/>
                        <path data-name="Rectángulo 344" transform="rotate(-26.359 177.83 -82.791)" style="stroke:#b8b8b8;stroke-miterlimit:10;fill:none" d="M0 0h.295v3.087H0z"/>
                        <path data-name="Trazado 3330" d="m595.84 260.5-1.37.87.122.844-.271.172-.437-3.173.256-.163 2.685 1.746-.274.174zm-.228-.151-1.429-.946.248 1.7z" transform="translate(-535.519 -190.403)" style="fill:#8f8f8f"/>
                        <path data-name="Trazado 3331" d="m595.84 260.5-1.37.87.122.844-.271.172-.437-3.173.256-.163 2.685 1.746-.274.174zm-.228-.151-1.429-.946.248 1.7z" transform="translate(-535.519 -190.403)" style="stroke:#b8b8b8;stroke-miterlimit:10;fill:none"/>
                        <path data-name="Trazado 3332" d="m604.573 252.659 1.173 1.523a1.116 1.116 0 0 1 .289.82 1.127 1.127 0 0 1-.487.714 1.84 1.84 0 0 1-.511.281 1.182 1.182 0 0 1-.5.074l-.018-.269a1.128 1.128 0 0 0 .439-.06 1.442 1.442 0 0 0 .426-.228.841.841 0 0 0 .367-.527.816.816 0 0 0-.212-.6l-.17-.221a.889.889 0 0 1-.092.47 1.108 1.108 0 0 1-.324.387 1.164 1.164 0 0 1-.526.235 1 1 0 0 1-.544-.059 1.127 1.127 0 0 1-.672-.872.994.994 0 0 1 .083-.537 1.177 1.177 0 0 1 .364-.448 1.108 1.108 0 0 1 .467-.218.907.907 0 0 1 .485.036l-.257-.333zm.516 1.8a.734.734 0 0 0 .061-.407.814.814 0 0 0-.17-.395.8.8 0 0 0-.337-.263.742.742 0 0 0-.407-.044.89.89 0 0 0-.4.182.9.9 0 0 0-.277.339.725.725 0 0 0-.061.4.868.868 0 0 0 .508.659.738.738 0 0 0 .408.045.883.883 0 0 0 .4-.18.894.894 0 0 0 .277-.342" transform="translate(-542.365 -185.704)" style="fill:#8f8f8f"/>
                        <path data-name="Trazado 3333" d="m604.573 252.659 1.173 1.523a1.116 1.116 0 0 1 .289.82 1.127 1.127 0 0 1-.487.714 1.84 1.84 0 0 1-.511.281 1.182 1.182 0 0 1-.5.074l-.018-.269a1.128 1.128 0 0 0 .439-.06 1.442 1.442 0 0 0 .426-.228.841.841 0 0 0 .367-.527.816.816 0 0 0-.212-.6l-.17-.221a.889.889 0 0 1-.092.47 1.108 1.108 0 0 1-.324.387 1.164 1.164 0 0 1-.526.235 1 1 0 0 1-.544-.059 1.127 1.127 0 0 1-.672-.872.994.994 0 0 1 .083-.537 1.177 1.177 0 0 1 .364-.448 1.108 1.108 0 0 1 .467-.218.907.907 0 0 1 .485.036l-.257-.333zm.516 1.8a.734.734 0 0 0 .061-.407.814.814 0 0 0-.17-.395.8.8 0 0 0-.337-.263.742.742 0 0 0-.407-.044.89.89 0 0 0-.4.182.9.9 0 0 0-.277.339.725.725 0 0 0-.061.4.868.868 0 0 0 .508.659.738.738 0 0 0 .408.045.883.883 0 0 0 .4-.18.894.894 0 0 0 .275-.335z" transform="translate(-542.365 -185.704)" style="stroke:#b8b8b8;stroke-miterlimit:10;fill:none"/>
                        <path data-name="Trazado 3334" d="m612.7 245.151 1.484 1.608-.208.192-.271-.293a.809.809 0 0 1-.025.445.967.967 0 0 1-.268.4.848.848 0 0 1-1.317-.065l-.861-.933.217-.2.841.911a.73.73 0 0 0 .481.27.641.641 0 0 0 .479-.2.716.716 0 0 0 .258-.524.815.815 0 0 0-.25-.565l-.779-.844z" transform="translate(-548.27 -180.186)" style="fill:#8f8f8f"/>
                        <path data-name="Trazado 3335" d="m612.7 245.151 1.484 1.608-.208.192-.271-.293a.809.809 0 0 1-.025.445.967.967 0 0 1-.268.4.848.848 0 0 1-1.317-.065l-.861-.933.217-.2.841.911a.73.73 0 0 0 .481.27.641.641 0 0 0 .479-.2.716.716 0 0 0 .258-.524.815.815 0 0 0-.25-.565l-.779-.844z" transform="translate(-548.27 -180.186)" style="stroke:#b8b8b8;stroke-miterlimit:10;fill:none"/>
                        <path data-name="Trazado 3336" d="M620.9 238.949a.828.828 0 0 1 .622.26l1 .917-.191.209-.251-.231a.679.679 0 0 1 0 .4 1.028 1.028 0 0 1-.241.4.9.9 0 0 1-.523.311.6.6 0 0 1-.681-.606.986.986 0 0 1 .309-.589l.47-.512-.1-.09a.561.561 0 0 0-.424-.175.653.653 0 0 0-.421.24 1.176 1.176 0 0 0-.22.341 1.009 1.009 0 0 0-.083.37l-.253-.051a1.18 1.18 0 0 1 .109-.442 1.552 1.552 0 0 1 .275-.414.926.926 0 0 1 .6-.339m1 1.371a.685.685 0 0 0-.064-.42l-.264-.242-.464.506q-.38.414-.092.678a.358.358 0 0 0 .321.1.663.663 0 0 0 .357-.226.776.776 0 0 0 .206-.393" transform="translate(-554.653 -175.626)" style="fill:#8f8f8f"/>
                        <path data-name="Trazado 3337" d="M620.9 238.949a.828.828 0 0 1 .622.26l1 .917-.191.209-.251-.231a.679.679 0 0 1 0 .4 1.028 1.028 0 0 1-.241.4.9.9 0 0 1-.523.311.6.6 0 0 1-.681-.606.986.986 0 0 1 .309-.589l.47-.512-.1-.09a.561.561 0 0 0-.424-.175.653.653 0 0 0-.421.24 1.176 1.176 0 0 0-.22.341 1.009 1.009 0 0 0-.083.37l-.253-.051a1.18 1.18 0 0 1 .109-.442 1.552 1.552 0 0 1 .275-.414.926.926 0 0 1 .603-.338zm1 1.371a.685.685 0 0 0-.064-.42l-.264-.242-.464.506q-.38.414-.092.678a.358.358 0 0 0 .321.1.663.663 0 0 0 .357-.226.776.776 0 0 0 .206-.396z" transform="translate(-554.653 -175.626)" style="stroke:#b8b8b8;stroke-miterlimit:10;fill:none"/>
                        <path data-name="Trazado 3338" d="m502.112 109.139.65-.962c.25-.37.495-.743.749-1.108a.533.533 0 0 1 .946-.007c1.2 1.772 2.423 3.531 3.581 5.331a4.684 4.684 0 0 1-.668 5.833.65.65 0 0 0-.2.584 9.986 9.986 0 0 1-9.092 10.906A9.991 9.991 0 0 1 489.082 114q3.785-5.565 7.518-11.165c.45-.675.882-.59 1.268 0 1.34 2.044 2.722 4.061 4.088 6.087.045.066.092.131.157.223m-4.874-5.3-.191.272c-2.353 3.491-4.693 6.991-7.064 10.469a8.914 8.914 0 1 0 16.033 6.7 8.217 8.217 0 0 0 .105-2.121l-.292.116a4.764 4.764 0 0 1-5.784-7.07c.414-.613.82-1.233 1.246-1.838a.378.378 0 0 0 .007-.513c-.907-1.325-1.8-2.66-2.7-3.991l-1.366-2.025m6.747 4.442c-1.083 1.611-2.155 3.169-3.183 4.755a3.384 3.384 0 0 0-.421 2.629 3.661 3.661 0 0 0 2.909 2.839 3.579 3.579 0 0 0 3.78-1.606 3.631 3.631 0 0 0-.042-4.105q-.771-1.142-1.54-2.286l-1.5-2.227" transform="translate(-457.14 -75.232)" style="fill:#fff"/>
                        <path data-name="Trazado 3339" d="m502.112 109.139.65-.962c.25-.37.495-.743.749-1.108a.533.533 0 0 1 .946-.007c1.2 1.772 2.423 3.531 3.581 5.331a4.684 4.684 0 0 1-.668 5.833.65.65 0 0 0-.2.584 9.986 9.986 0 0 1-9.092 10.906A9.991 9.991 0 0 1 489.082 114q3.785-5.565 7.518-11.165c.45-.675.882-.59 1.268 0 1.34 2.044 2.722 4.061 4.088 6.087l.156.217zm-4.874-5.3-.191.272c-2.353 3.491-4.693 6.991-7.064 10.469a8.914 8.914 0 1 0 16.033 6.7 8.217 8.217 0 0 0 .105-2.121l-.292.116a4.764 4.764 0 0 1-5.784-7.07c.414-.613.82-1.233 1.246-1.838a.378.378 0 0 0 .007-.513c-.907-1.325-1.8-2.66-2.7-3.991zm6.747 4.442c-1.083 1.611-2.155 3.169-3.183 4.755a3.384 3.384 0 0 0-.421 2.629 3.661 3.661 0 0 0 2.909 2.839 3.579 3.579 0 0 0 3.78-1.606 3.631 3.631 0 0 0-.042-4.105q-.771-1.142-1.54-2.286z" transform="translate(-457.14 -75.232)" style="stroke:#b8b8b8;stroke-miterlimit:10;fill:none"/>
                        <path data-name="Trazado 3340" d="M497.408 151.358c.5 0 .755.378.608.731a1.259 1.259 0 0 1-.136.229 6.286 6.286 0 0 0 3.186 9.607c.378.126.537.391.434.7a.539.539 0 0 1-.76.318 7.369 7.369 0 0 1-3.7-11.281 1.481 1.481 0 0 1 .373-.308" transform="translate(-463.306 -111.248)" style="fill:#fff"/>
                        <path data-name="Trazado 3341" d="M497.408 151.358c.5 0 .755.378.608.731a1.259 1.259 0 0 1-.136.229 6.286 6.286 0 0 0 3.186 9.607c.378.126.537.391.434.7a.539.539 0 0 1-.76.318 7.369 7.369 0 0 1-3.7-11.281 1.481 1.481 0 0 1 .368-.304z" transform="translate(-463.306 -111.248)" style="stroke:#b8b8b8;stroke-miterlimit:10;fill:none"/>
                        <path data-name="Trazado 3342" d="M520.64 193.976a.532.532 0 0 1-.011-1.064.532.532 0 1 1 .011 1.064" transform="translate(-481.291 -141.79)" style="fill:#fff"/>
                        <path data-name="Trazado 3343" d="M520.64 193.976a.532.532 0 0 1-.011-1.064.532.532 0 1 1 .011 1.064z" transform="translate(-481.291 -141.79)" style="stroke:#b8b8b8;stroke-miterlimit:10;fill:none"/>
                        <path data-name="Trazado 3344" d="M540.518 144.074c-.016.051-.046.161-.084.27a1.852 1.852 0 0 0 .609 2.091 1 1 0 0 1 .312.411.458.458 0 0 1-.206.537.507.507 0 0 1-.624 0 2.8 2.8 0 0 1-1.265-2.513 4.084 4.084 0 0 1 .251-1.086.5.5 0 0 1 .62-.293.558.558 0 0 1 .387.584" transform="translate(-495.368 -105.451)" style="fill:#fff"/>
                        <path data-name="Trazado 3345" d="M540.518 144.074c-.016.051-.046.161-.084.27a1.852 1.852 0 0 0 .609 2.091 1 1 0 0 1 .312.411.458.458 0 0 1-.206.537.507.507 0 0 1-.624 0 2.8 2.8 0 0 1-1.265-2.513 4.084 4.084 0 0 1 .251-1.086.5.5 0 0 1 .62-.293.558.558 0 0 1 .387.583z" transform="translate(-495.368 -105.451)" style="stroke:#b8b8b8;stroke-miterlimit:10;fill:none"/>
                        <path data-name="Trazado 3346" d="M549.527 156.97a.545.545 0 0 1-.549.537.536.536 0 0 1-.519-.539.526.526 0 0 1 .521-.532.533.533 0 0 1 .547.534" transform="translate(-502.131 -114.98)" style="fill:#fff"/>
                        <path data-name="Trazado 3347" d="M549.527 156.97a.545.545 0 0 1-.549.537.536.536 0 0 1-.519-.539.526.526 0 0 1 .521-.532.533.533 0 0 1 .547.534z" transform="translate(-502.131 -114.98)" style="stroke:#b8b8b8;stroke-miterlimit:10;fill:none"/>
                    </g>
                </g>
            </g>
        </g>
    </g>
</svg>
