<svg xmlns="http://www.w3.org/2000/svg" width="81.416" height="81.595" viewBox="0 0 81.416 81.595">
    <defs>
        <clipPath id="2qkb7n66xa">
            <path data-name="Rectángulo 352" style="fill:none" d="M0 0h81.416v81.595H0z"/>
        </clipPath>
    </defs>
    <g data-name="Grupo 926">
        <path data-name="Trazado 3496" d="M1950.533 42.552a40.272 40.272 0 1 1-40.272-40.272 40.272 40.272 0 0 1 40.272 40.272" transform="translate(-1869.636 -1.701)" style="fill:#565656"/>
        <g data-name="Grupo 878" style="opacity:.65;mix-blend-mode:multiply;isolation:isolate">
            <g data-name="Grupo 877">
                <g data-name="Grupo 876" style="clip-path:url(#2qkb7n66xa)">
                    <path data-name="Trazado 3497" d="M1930.808 86.586q0 1.1.1 2.167c17.145 7.493 25.186-8.557 35.946-8.07a24.848 24.848 0 0 1 12.518 3.851 24.323 24.323 0 0 0-48.559 2.051" transform="translate(-1914.339 -45.789)" style="fill:#8f8f8f"/>
                    <path data-name="Trazado 3498" d="M1931.169 139.812a24.323 24.323 0 0 0 48.549-2.167q0-1.036-.086-2.051a24.848 24.848 0 0 0-12.518-3.852c-10.759-.487-18.8 15.563-35.946 8.07" transform="translate(-1914.604 -96.847)" style="fill:gray"/>
                    <path data-name="Trazado 3499" d="m1882.524 160.087-6.548-2.284-6.327 2.906v-.031l-.093-.932 6.377-2.929 6.468 2.258a.036.036 0 0 0 0 .01z" transform="translate(-1869.316 -115.284)" style="fill:gray"/>
                    <path data-name="Trazado 3500" d="m2140.079 162.343-6.85 2.165-5.976-2.962q-.034.492-.086.979l5.986 2.967 6.847-2.165z" transform="translate(-2058.664 -118.761)" style="fill:gray"/>
                    <path data-name="Trazado 3501" d="M1918.34 184.834a28.821 28.821 0 0 0 54.858 0c.079-.228.17-.552.267-.915h-.943a27.9 27.9 0 0 1-53.507 0h-.944c.1.363.189.688.268.915" transform="translate(-1904.978 -135.205)" style="fill:gray"/>
                    <path data-name="Trazado 3502" d="M1950.668 183.918c-.083.42-.158.758-.2.915a39.538 39.538 0 0 1-4.678 11.659 39.9 39.9 0 0 1-68.445 0 39.551 39.551 0 0 1-4.678-11.659 12.281 12.281 0 0 1-.205-.915h-.923a40.806 40.806 0 0 0 80.059 0z" transform="translate(-1870.774 -135.204)" style="fill:gray"/>
                    <path data-name="Trazado 3503" d="m1949.319 32.452.042-.053a40.831 40.831 0 0 0-80.462 3.659l.039-.011a41.284 41.284 0 0 0-.281 4.236l6.444-2.618 6.459 2.811a27.809 27.809 0 0 1 8.292-19.433l.02-.02a31.599 31.599 0 0 1 .584-.557l.089-.082a27.9 27.9 0 0 1 46.6 17.636l7.315 4.321 5.521-5.67a40.405 40.405 0 0 0-.666-4.217" transform="translate(-1868.657 -.093)" style="fill:#8f8f8f"/>
                    <path data-name="Trazado 3504" d="m1888.21 101.167 4.978 1.644-.383 1.159-3.379 1.322 2.653.876-.456 1.38-4.978-1.644.383-1.159 3.378-1.322-2.653-.876z" transform="translate(-1881.88 -74.383)" style="fill:#fff"/>
                    <path data-name="Trazado 3505" d="M1902.651 84.766a2.68 2.68 0 0 1-4.138-2.328 3.349 3.349 0 0 1 1.465-2.6 2.681 2.681 0 0 1 4.138 2.328 3.344 3.344 0 0 1-1.465 2.6m.158-2.45a1.346 1.346 0 0 0-.21-.7 1.728 1.728 0 0 0-1.365-.767 1.347 1.347 0 0 0-.71.185 1.473 1.473 0 0 0-.7 1.253 1.346 1.346 0 0 0 .211.7 1.729 1.729 0 0 0 1.364.767 1.347 1.347 0 0 0 .71-.185 1.473 1.473 0 0 0 .7-1.253" transform="translate(-1890.601 -58.385)" style="fill:#fff"/>
                    <path data-name="Trazado 3506" d="M1915.516 65.794a3.044 3.044 0 0 1-.942.487l-.536-1.07a3.14 3.14 0 0 0 .807-.394 3.1 3.1 0 0 0 .69-.616q.542-.66.212-.931a.354.354 0 0 0-.412-.023 4.519 4.519 0 0 0-.673.46 7.452 7.452 0 0 1-.838.591 1.666 1.666 0 0 1-.794.23 1.264 1.264 0 0 1-.852-.331 1.5 1.5 0 0 1-.5-.752 1.753 1.753 0 0 1 .025-.992 3.217 3.217 0 0 1 .636-1.13 4.514 4.514 0 0 1 .736-.714 3.121 3.121 0 0 1 .824-.467l.562 1.052a3.051 3.051 0 0 0-1.234.867 1.216 1.216 0 0 0-.307.581.393.393 0 0 0 .135.372.338.338 0 0 0 .4.015 4.342 4.342 0 0 0 .657-.459 7.26 7.26 0 0 1 .841-.594 1.71 1.71 0 0 1 .791-.232 1.242 1.242 0 0 1 .852.326 1.477 1.477 0 0 1 .494.744 1.788 1.788 0 0 1-.027 1 3.184 3.184 0 0 1-.631 1.129 4.855 4.855 0 0 1-.905.856" transform="translate(-1900.231 -44.23)" style="fill:#fff"/>
                    <path data-name="Trazado 3507" d="m1935.838 43.21-.646.486.838 1.113-1.185.892-3.153-4.189 1.915-1.441a2.989 2.989 0 0 1 1.129-.554 1.906 1.906 0 0 1 2.282 1.657 1.8 1.8 0 0 1-.209.987l1.895.637-1.269.955zm-.928-2.4a1.023 1.023 0 0 0-.672.253l-.658.5.923 1.227.658-.5a1.035 1.035 0 0 0 .431-.573.7.7 0 0 0-.154-.591.715.715 0 0 0-.528-.315" transform="translate(-1914.989 -29.03)" style="fill:#fff"/>
                    <path data-name="Trazado 3508" d="m1957.116 29.595.528 1.017-3.736 1.939-2.415-4.653 3.649-1.898.528 1.017-2.346 1.218.407.785 2.067-1.073.511.984-2.068 1.073.441.851z" transform="translate(-1929.542 -19.137)" style="fill:#fff"/>
                    <path data-name="Trazado 3509" d="m1971.477 22.155 1.405-.474 1.3 3.853 2.37-.8.376 1.114-3.775 1.275z" transform="translate(-1944.231 -15.96)" style="fill:#fff"/>
                    <path data-name="Trazado 3510" d="m1996.056 19.454-2.189.349-.246 1.071-1.494.238 1.46-5.542 1.442-.23 3.119 4.812-1.524.243zm-.6-1.012-.93-1.551-.4 1.763z" transform="translate(-1959.407 -11.3)" style="fill:#fff"/>
                    <path data-name="Trazado 3511" d="M2016.694 18.742a2.6 2.6 0 0 1-1.014-.987 2.834 2.834 0 0 1 .047-2.816 2.6 2.6 0 0 1 1.046-.953 3.1 3.1 0 0 1 1.485-.324 3.177 3.177 0 0 1 1.291.276 2.491 2.491 0 0 1 .946.75l-.958.838a1.552 1.552 0 0 0-1.225-.634 1.521 1.521 0 0 0-.763.174 1.3 1.3 0 0 0-.525.519 1.759 1.759 0 0 0-.026 1.565 1.3 1.3 0 0 0 .508.537 1.524 1.524 0 0 0 .757.2 1.551 1.551 0 0 0 1.246-.594l.93.869a2.49 2.49 0 0 1-.971.718 3.178 3.178 0 0 1-1.3.233 3.106 3.106 0 0 1-1.473-.373" transform="translate(-1976.462 -10.066)" style="fill:#fff"/>
                    <path data-name="Rectángulo 350" transform="rotate(-81.66 27.676 -21.306)" style="fill:#fff" d="M0 0h5.243v1.483H0z"/>
                    <path data-name="Trazado 3512" d="M2049.449 23.457a2.681 2.681 0 0 1 1.35-4.553 3.348 3.348 0 0 1 2.865.849 2.681 2.681 0 0 1-1.35 4.553 3.347 3.347 0 0 1-2.865-.849m2.424-.391a1.345 1.345 0 0 0 .638-.361 1.728 1.728 0 0 0 .445-1.5 1.349 1.349 0 0 0-.338-.651 1.475 1.475 0 0 0-1.379-.409 1.349 1.349 0 0 0-.638.361 1.732 1.732 0 0 0-.445 1.5 1.343 1.343 0 0 0 .338.651 1.474 1.474 0 0 0 1.379.409" transform="translate(-2000.947 -13.877)" style="fill:#fff"/>
                    <path data-name="Trazado 3513" d="m2076.725 27.827-2.429 4.646-1.082-.566-.757-3.548-1.294 2.476-1.288-.673 2.429-4.646 1.082.566.757 3.548 1.294-2.476z" transform="translate(-2016.553 -18.779)" style="fill:#fff"/>
                    <path data-name="Trazado 3514" d="m2091.816 46.752-1.741-1.372-.954.545-1.188-.937L2093 42.3l1.147.9-1.422 5.554-1.212-.955zm.336-1.128.509-1.734-1.568.9z" transform="translate(-2029.826 -31.117)" style="fill:#fff"/>
                    <path data-name="Trazado 3515" d="m2110.039 61.842 2.111-1.807-2.6.432-.426-.5.8-2.436-2.064 1.747-.885-1.046 4-3.387.789.932-1.119 3.361 3.471-.583.789.932-3.992 3.4z" transform="translate(-2043.826 -40.333)" style="fill:#fff"/>
                    <path data-name="Trazado 3516" d="M2126.659 84.151a2.68 2.68 0 0 1 4.179-2.253 3.346 3.346 0 0 1 1.418 2.63 2.681 2.681 0 0 1-4.18 2.253 3.346 3.346 0 0 1-1.418-2.63m1.986 1.443a1.346 1.346 0 0 0 .707.2 1.728 1.728 0 0 0 1.378-.743 1.349 1.349 0 0 0 .223-.7 1.473 1.473 0 0 0-.683-1.266 1.348 1.348 0 0 0-.707-.2 1.732 1.732 0 0 0-1.378.743 1.341 1.341 0 0 0-.223.7 1.476 1.476 0 0 0 .683 1.266" transform="translate(-2058.289 -59.883)" style="fill:#fff"/>
                    <path data-name="Trazado 3517" d="M2135.467 106.032a3.033 3.033 0 0 1 .094-1.056l1.191.12a3.15 3.15 0 0 0-.1.893 3.1 3.1 0 0 0 .151.912q.267.811.673.678a.354.354 0 0 0 .24-.335 4.449 4.449 0 0 0-.028-.815 7.424 7.424 0 0 1-.049-1.024 1.66 1.66 0 0 1 .231-.794 1.262 1.262 0 0 1 .736-.542 1.5 1.5 0 0 1 .9-.021 1.752 1.752 0 0 1 .824.552 3.218 3.218 0 0 1 .613 1.143 4.53 4.53 0 0 1 .208 1 3.128 3.128 0 0 1-.047.946l-1.188-.09a3.053 3.053 0 0 0-.071-1.507 1.216 1.216 0 0 0-.326-.571.394.394 0 0 0-.387-.086.338.338 0 0 0-.223.326 4.267 4.267 0 0 0 .035.8 7.246 7.246 0 0 1 .051 1.028 1.721 1.721 0 0 1-.228.793 1.241 1.241 0 0 1-.732.544 1.473 1.473 0 0 1-.893.018 1.785 1.785 0 0 1-.825-.556 3.189 3.189 0 0 1-.616-1.138 4.857 4.857 0 0 1-.237-1.223" transform="translate(-2064.757 -76.455)" style="fill:#fff"/>
                    <path data-name="Trazado 3518" d="m1967.739 269.826.271.118-.443 1.019a1.419 1.419 0 0 1-.552.06 1.785 1.785 0 0 1-.576-.146 1.611 1.611 0 0 1-.645-.489 1.412 1.412 0 0 1-.292-.705 1.543 1.543 0 0 1 .6-1.393 1.415 1.415 0 0 1 .715-.268 1.621 1.621 0 0 1 .8.14 1.709 1.709 0 0 1 .519.341 1.223 1.223 0 0 1 .306.475l-.254.1a1.2 1.2 0 0 0-.669-.663 1.3 1.3 0 0 0-.648-.111 1.147 1.147 0 0 0-.583.219 1.254 1.254 0 0 0-.492 1.132 1.174 1.174 0 0 0 .236.574 1.285 1.285 0 0 0 .521.4 1.269 1.269 0 0 0 .788.1z" transform="translate(-1939.83 -197.016)" style="fill:#8f8f8f"/>
                    <path data-name="Trazado 3519" d="m1979.345 276.285-1.739-.574a.781.781 0 0 0 .076.606.868.868 0 0 0 .5.387.94.94 0 0 0 .378.048.816.816 0 0 0 .348-.111l.1.234a.935.935 0 0 1-.429.139 1.236 1.236 0 0 1-.485-.064 1.216 1.216 0 0 1-.522-.324 1.034 1.034 0 0 1-.261-.5 1.132 1.132 0 0 1 .042-.591 1.175 1.175 0 0 1 .312-.5 1.01 1.01 0 0 1 .487-.255 1.126 1.126 0 0 1 1.037.342 1 1 0 0 1 .236.492 1.185 1.185 0 0 1-.05.59zm-1.273-1.207a.791.791 0 0 0-.4.424l1.474.486a.793.793 0 0 0-.066-.576.8.8 0 0 0-1.011-.334" transform="translate(-1948.504 -201.968)" style="fill:#8f8f8f"/>
                    <path data-name="Trazado 3520" d="M1986.811 279.416a1.094 1.094 0 0 1-.323-.28l.186-.194a1.119 1.119 0 0 0 .292.255 1.368 1.368 0 0 0 .4.171.826.826 0 0 0 .453.017.3.3 0 0 0 .2-.222.237.237 0 0 0-.031-.2.527.527 0 0 0-.169-.149 2.894 2.894 0 0 0-.294-.144 3.711 3.711 0 0 1-.391-.2.629.629 0 0 1-.225-.239.492.492 0 0 1-.027-.363.541.541 0 0 1 .331-.38 1.026 1.026 0 0 1 .66-.015 1.652 1.652 0 0 1 .4.158 1.171 1.171 0 0 1 .3.228l-.183.2a1.1 1.1 0 0 0-.58-.338.747.747 0 0 0-.438-.006.306.306 0 0 0-.2.219.26.26 0 0 0 .03.214.5.5 0 0 0 .169.156 3.271 3.271 0 0 0 .305.151 3.83 3.83 0 0 1 .383.2.618.618 0 0 1 .221.231.47.47 0 0 1 .028.35.529.529 0 0 1-.342.384 1.138 1.138 0 0 1-.685 0 1.671 1.671 0 0 1-.476-.2" transform="translate(-1955.264 -203.93)" style="fill:#8f8f8f"/>
                    <path data-name="Trazado 3521" d="M1997.305 279.934a.555.555 0 0 1-.223.075.827.827 0 0 1-.259-.008.643.643 0 0 1-.436-.25.636.636 0 0 1-.078-.493l.241-1.3-.384-.071.045-.245.385.071.087-.471.291.054-.087.47.655.121-.046.246-.655-.122-.238 1.285a.414.414 0 0 0 .042.31.372.372 0 0 0 .258.152.551.551 0 0 0 .179 0 .447.447 0 0 0 .16-.055z" transform="translate(-1962.377 -203.797)" style="fill:#8f8f8f"/>
                    <path data-name="Trazado 3522" d="m2003.874 277.754.293.04-.3 2.169-.293-.04zm.069-.537a.206.206 0 0 1-.042-.157.2.2 0 0 1 .082-.136.21.21 0 0 1 .161-.041.213.213 0 0 1 .144.081.193.193 0 0 1 .042.151.218.218 0 0 1-.388.1" transform="translate(-1967.825 -203.533)" style="fill:#8f8f8f"/>
                    <path data-name="Trazado 3523" d="M2008.983 280.775a1.045 1.045 0 0 1-.369-.426 1.206 1.206 0 0 1 .085-1.145 1.031 1.031 0 0 1 .428-.365 1.219 1.219 0 0 1 1.137.085 1.018 1.018 0 0 1 .367.424 1.219 1.219 0 0 1-.085 1.145 1.033 1.033 0 0 1-.426.367 1.2 1.2 0 0 1-1.137-.085m1-.151a.737.737 0 0 0 .311-.28 1 1 0 0 0 .066-.888.74.74 0 0 0-.266-.322.877.877 0 0 0-.834-.062.754.754 0 0 0-.313.279.988.988 0 0 0-.066.888.752.752 0 0 0 .268.323.878.878 0 0 0 .834.062m.078-2.7.394.029-.71.465-.29-.022z" transform="translate(-1971.448 -204.299)" style="fill:#8f8f8f"/>
                    <path data-name="Trazado 3524" d="M2021.94 281.572a.933.933 0 0 1 .255.693l.021 1.269h-.3l-.02-1.24a.727.727 0 0 0-.179-.517.64.64 0 0 0-.49-.171.748.748 0 0 0-.556.219.793.793 0 0 0-.2.584l.019 1.148h-.3l-.036-2.188h.283l.006.4a.822.822 0 0 1 .33-.315 1.071 1.071 0 0 1 .5-.118.893.893 0 0 1 .659.228" transform="translate(-1980.017 -206.812)" style="fill:#8f8f8f"/>
                    <path data-name="Trazado 3525" d="M2036.4 282.5a1.1 1.1 0 0 1-.4-.144l.1-.248a1.124 1.124 0 0 0 .365.132 1.377 1.377 0 0 0 .438.014.823.823 0 0 0 .428-.149.3.3 0 0 0 .109-.28.238.238 0 0 0-.1-.178.532.532 0 0 0-.211-.078 2.864 2.864 0 0 0-.327-.028 3.68 3.68 0 0 1-.438-.047.627.627 0 0 1-.3-.141.492.492 0 0 1-.157-.328.542.542 0 0 1 .171-.474 1.029 1.029 0 0 1 .61-.253 1.655 1.655 0 0 1 .428 0 1.166 1.166 0 0 1 .365.1l-.1.251a1.106 1.106 0 0 0-.663-.1.747.747 0 0 0-.411.153.306.306 0 0 0-.11.278.261.261 0 0 0 .106.188.5.5 0 0 0 .214.084 3.294 3.294 0 0 0 .34.03 3.758 3.758 0 0 1 .429.046.614.614 0 0 1 .29.135.47.47 0 0 1 .154.316.531.531 0 0 1-.18.482 1.142 1.142 0 0 1-.637.25 1.693 1.693 0 0 1-.515-.012" transform="translate(-1991.584 -206.03)" style="fill:#8f8f8f"/>
                    <path data-name="Trazado 3526" d="M2045.456 280.886a1.048 1.048 0 0 1-.471-.31 1.2 1.2 0 0 1-.229-1.125 1.034 1.034 0 0 1 .313-.467 1.22 1.22 0 0 1 1.117-.227 1.019 1.019 0 0 1 .468.308 1.219 1.219 0 0 1 .229 1.125 1.033 1.033 0 0 1-.31.469 1.2 1.2 0 0 1-1.117.227m.924-.417a.74.74 0 0 0 .223-.353 1.006 1.006 0 0 0-.177-.873.739.739 0 0 0-.344-.238.877.877 0 0 0-.819.166.754.754 0 0 0-.226.354.986.986 0 0 0 .177.872.752.752 0 0 0 .345.238.878.878 0 0 0 .82-.166" transform="translate(-1998.051 -204.873)" style="fill:#8f8f8f"/>
                    <path data-name="Trazado 3527" d="M2056.122 278.282a1.021 1.021 0 0 1-.5-.271 1.211 1.211 0 0 1-.318-1.106 1.029 1.029 0 0 1 .276-.491 1.18 1.18 0 0 1 .519-.3 1.124 1.124 0 0 1 .516-.034.845.845 0 0 1 .427.213l-.171.2a.692.692 0 0 0-.331-.158.816.816 0 0 0-.37.022.855.855 0 0 0-.38.22.746.746 0 0 0-.2.372.991.991 0 0 0 .248.858.743.743 0 0 0 .366.206.859.859 0 0 0 .44-.016.836.836 0 0 0 .326-.176.675.675 0 0 0 .2-.308l.253.083a.835.835 0 0 1-.251.408 1.128 1.128 0 0 1-.453.245 1.178 1.178 0 0 1-.6.025" transform="translate(-2005.824 -202.934)" style="fill:#8f8f8f"/>
                    <path data-name="Trazado 3528" d="M2063.3 271.392a.2.2 0 0 1-.109-.121.2.2 0 0 1 .01-.158.209.209 0 0 1 .125-.11.213.213 0 0 1 .166.006.193.193 0 0 1 .106.115.218.218 0 0 1-.3.268m.183.509.279-.1.726 2.065-.279.1z" transform="translate(-2011.632 -199.202)" style="fill:#8f8f8f"/>
                    <path data-name="Trazado 3529" d="M2070.388 271.225a.828.828 0 0 1 .457.5l.525 1.251-.261.109-.132-.315a.677.677 0 0 1-.167.359 1.025 1.025 0 0 1-.387.266.9.9 0 0 1-.6.064.565.565 0 0 1-.378-.342.56.56 0 0 1 .012-.493.985.985 0 0 1 .527-.406l.64-.269-.051-.123a.561.561 0 0 0-.312-.336.655.655 0 0 0-.483.042 1.174 1.174 0 0 0-.342.218 1 1 0 0 0-.23.3l-.208-.152a1.179 1.179 0 0 1 .284-.356 1.548 1.548 0 0 1 .423-.261.927.927 0 0 1 .689-.057m.338 1.663a.687.687 0 0 0 .117-.408l-.139-.33-.633.266q-.518.217-.366.578a.357.357 0 0 0 .251.222.662.662 0 0 0 .419-.056.775.775 0 0 0 .351-.271" transform="translate(-2015.905 -199.344)" style="fill:#8f8f8f"/>
                    <path data-name="Rectángulo 351" transform="rotate(-26.18 178.958 -83.403)" style="fill:#8f8f8f" d="M0 0h.296v3.087H0z"/>
                    <path data-name="Trazado 3530" d="M2006.61 154.8h-2.13c-.606 0-.7-.1-.707-.721a14.145 14.145 0 0 0-.059-1.584 3.332 3.332 0 0 0-.965-1.816 5.245 5.245 0 1 1 8-6.768 5.186 5.186 0 0 1-.211 6.7 3.827 3.827 0 0 0-1.085 2.877c.011.252.006.505 0 .758-.009.416-.149.554-.575.556h-2.274m1.954-.891a1.754 1.754 0 0 0 .017-.219 4.908 4.908 0 0 1 1.384-3.768 4.211 4.211 0 0 0 .392-5.034 4.361 4.361 0 1 0-7.006 5.133 4.689 4.689 0 0 1 1.308 3.471c-.005.137.012.276.019.416z" transform="translate(-1966.201 -104.309)" style="fill:#fff"/>
                    <path data-name="Trazado 3531" d="M1975.152 181.55h-2.526a1.661 1.661 0 0 1-1.83-1.835v-4.365a1.986 1.986 0 0 1 2.122-2.12q2.327-.006 4.654 0c.119 0 .276-.023.349.04.13.113.3.289.287.429s-.2.289-.341.385c-.085.057-.234.023-.354.023h-4.546a1.142 1.142 0 0 0-1.3 1.311v4.256c0 .728.254.99.967.991h5.123a.814.814 0 0 0 .836-.44.761.761 0 0 0-.743-1.087c-1.07-.013-2.141 0-3.211 0-.313 0-.626.005-.938 0s-.516-.189-.492-.448a.432.432 0 0 1 .488-.42c1.431 0 2.862-.013 4.293.007a1.608 1.608 0 0 1 1.55 1.592 1.575 1.575 0 0 1-1.47 1.656c-.972.043-1.948.01-2.922.01v.017" transform="translate(-1943.729 -127.346)" style="fill:#fff"/>
                    <path data-name="Trazado 3532" d="M2029.607 125.992c.938 0 1.877.011 2.815-.01a.848.848 0 0 0 .525-.215c.991-.965 1.959-1.953 2.944-2.925a1.676 1.676 0 0 1 2.844.939 1.7 1.7 0 0 1-.567 1.525c-1.347 1.341-2.685 2.691-4.038 4.025a.994.994 0 0 0-.347.812c.03.757.011 1.515.008 2.273 0 .375-.169.6-.445.569-.327-.033-.431-.253-.43-.558 0-.938-.015-1.877.015-2.814a.972.972 0 0 1 .281-.582c1.427-1.448 2.867-2.882 4.307-4.318a.913.913 0 0 0 .35-.79.753.753 0 0 0-.51-.645.79.79 0 0 0-.865.2l-1.379 1.377c-.587.587-1.163 1.185-1.769 1.752a.969.969 0 0 1-.6.249c-2.009.018-4.018.012-6.027.01-.377 0-.585-.16-.586-.436s.2-.434.583-.435h2.887" transform="translate(-1984.406 -89.944)" style="fill:#fff"/>
                    <path data-name="Trazado 3533" d="M2044.328 168.066a3.063 3.063 0 0 1 6.126.016 3.063 3.063 0 1 1-6.126-.016m.873 0a2.184 2.184 0 1 0 2.179-2.183 2.2 2.2 0 0 0-2.179 2.183" transform="translate(-1997.776 -121.309)" style="fill:#fff"/>
                    <path data-name="Trazado 3534" d="M1978 153.776a3.062 3.062 0 1 1 3.051-3.049 3.07 3.07 0 0 1-3.051 3.049m0-.873a2.185 2.185 0 1 0-2.2-2.161 2.2 2.2 0 0 0 2.2 2.161" transform="translate(-1946.76 -108.549)" style="fill:#fff"/>
                    <path data-name="Trazado 3535" d="M1995.363 107.571a3.056 3.056 0 1 1 3.06-3.046 3.051 3.051 0 0 1-3.06 3.046m-.024-.878a2.178 2.178 0 1 0-2.169-2.185 2.18 2.18 0 0 0 2.169 2.185" transform="translate(-1959.533 -74.597)" style="fill:#fff"/>
                    <path data-name="Trazado 3536" d="M2035.549 113.582a3.064 3.064 0 1 1-3.049-3.051 3.074 3.074 0 0 1 3.049 3.051m-3.057-2.178a2.187 2.187 0 1 0 2.184 2.179 2.2 2.2 0 0 0-2.184-2.179" transform="translate(-1986.819 -81.265)" style="fill:#fff"/>
                    <path data-name="Trazado 3537" d="M1989.984 127.839c1.01 0 2.021-.008 3.032 0a2.035 2.035 0 0 1 2.107 2.414.416.416 0 0 1-.447.421c-.266-.008-.4-.176-.423-.445-.11-1.326-.311-1.51-1.633-1.51h-5.63a1.106 1.106 0 0 0-1.267 1.253v1.876c0 .381-.162.577-.447.575s-.428-.188-.43-.585c0-.661-.011-1.323 0-1.985a1.935 1.935 0 0 1 2-2.011c1.046-.022 2.093 0 3.14 0z" transform="translate(-1954.051 -93.983)" style="fill:#fff"/>
                    <path data-name="Trazado 3538" d="M2041.1 191.424h3.031a2.041 2.041 0 0 1 2.092 2.428.412.412 0 0 1-.465.4.407.407 0 0 1-.4-.423c-.133-1.372-.311-1.533-1.691-1.533h-5.557a1.127 1.127 0 0 0-1.287 1.278c0 .131.023.3-.047.383a.694.694 0 0 1-.436.274.511.511 0 0 1-.367-.31 2.023 2.023 0 0 1 1.881-2.5h3.248" transform="translate(-1991.587 -140.72)" style="fill:#fff"/>
                    <path data-name="Trazado 3539" d="M2013.813 195.109c-.241 0-.482.01-.722 0a2.007 2.007 0 0 1-1.864-2.474.541.541 0 0 1 .387-.332.6.6 0 0 1 .419.3 1.1 1.1 0 0 1 .045.493 1.083 1.083 0 0 0 1.159 1.145c.4.006.794.007 1.191 0a1.08 1.08 0 0 0 1.138-1.129v-.361c.019-.277.155-.467.446-.463s.406.193.429.475a2.023 2.023 0 0 1-2.2 2.36c-.144-.011-.289 0-.433 0z" transform="translate(-1973.405 -141.352)" style="fill:#fff"/>
                    <path data-name="Trazado 3540" d="m2013.032 159.306 2.139-3.561c.062-.1.107-.254.2-.292a.786.786 0 0 1 .54-.085c.116.055.163.307.19.48.013.086-.084.192-.139.284q-1.195 1.995-2.392 3.987c-.322.535-.6.553-.982.06q-.97-1.256-1.935-2.515l-.065-.087c-.175-.233-.208-.476.038-.667a.426.426 0 0 1 .654.13l1.452 1.887c.087.113.178.223.3.379" transform="translate(-1972.874 -114.202)" style="fill:#fff"/>
                </g>
            </g>
        </g>
    </g>
</svg>
