<svg xmlns="http://www.w3.org/2000/svg" width="81.418" height="81.595" viewBox="0 0 81.418 81.595">
    <defs>
        <clipPath id="7hoocnuj6a">
            <path data-name="Rectángulo 349" style="fill:none" d="M0 0h81.418v81.595H0z"/>
        </clipPath>
    </defs>
    <g data-name="Grupo 925">
        <path data-name="Trazado 3441" d="M1576.8 42.552a40.272 40.272 0 1 1-40.27-40.272 40.272 40.272 0 0 1 40.27 40.272" transform="translate(-1495.902 -1.701)" style="fill:#565656"/>
        <g data-name="Grupo 875" style="opacity:.65;mix-blend-mode:multiply;isolation:isolate">
            <g data-name="Grupo 874">
                <g data-name="Grupo 873" style="clip-path:url(#7hoocnuj6a)">
                    <path data-name="Trazado 3442" d="M1557.077 86.586q0 1.1.1 2.167c17.145 7.493 25.186-8.557 35.946-8.07a24.848 24.848 0 0 1 12.518 3.851 24.323 24.323 0 0 0-48.559 2.051" transform="translate(-1540.605 -45.789)" style="fill:#8f8f8f"/>
                    <path data-name="Trazado 3443" d="M1557.438 139.812a24.323 24.323 0 0 0 48.549-2.167q0-1.036-.086-2.051a24.848 24.848 0 0 0-12.518-3.852c-10.759-.487-18.8 15.563-35.946 8.07" transform="translate(-1540.871 -96.847)" style="fill:gray"/>
                    <path data-name="Trazado 3444" d="m1508.793 160.087-6.548-2.284-6.327 2.906v-.031l-.093-.932 6.377-2.929 6.468 2.258a.036.036 0 0 0 0 .01z" transform="translate(-1495.582 -115.284)" style="fill:gray"/>
                    <path data-name="Trazado 3445" d="m1766.348 162.343-6.85 2.165-5.976-2.962q-.034.492-.086.979l5.986 2.967 6.847-2.165z" transform="translate(-1684.93 -118.761)" style="fill:gray"/>
                    <path data-name="Trazado 3446" d="M1544.609 184.834a28.821 28.821 0 0 0 54.858 0c.079-.228.17-.552.267-.915h-.943a27.9 27.9 0 0 1-53.507 0h-.944c.1.363.189.688.268.915" transform="translate(-1531.244 -135.205)" style="fill:gray"/>
                    <path data-name="Trazado 3447" d="M1576.937 183.918c-.083.42-.158.758-.2.915a39.547 39.547 0 0 1-4.678 11.659 39.9 39.9 0 0 1-68.445 0 39.551 39.551 0 0 1-4.678-11.659 12.281 12.281 0 0 1-.205-.915h-.923a40.806 40.806 0 0 0 80.058 0z" transform="translate(-1497.041 -135.204)" style="fill:gray"/>
                    <path data-name="Trazado 3448" d="m1575.587 32.452.042-.053a40.831 40.831 0 0 0-80.462 3.659l.038-.011a41.215 41.215 0 0 0-.281 4.236l6.445-2.618 6.459 2.811a27.811 27.811 0 0 1 8.292-19.433l.02-.02c.107-.105.216-.209.324-.312.086-.082.172-.164.26-.245l.089-.082a27.9 27.9 0 0 1 46.6 17.636l7.315 4.321 5.52-5.67a40.5 40.5 0 0 0-.665-4.217" transform="translate(-1494.923 -.093)" style="fill:#8f8f8f"/>
                    <path data-name="Trazado 3449" d="M1545.512 52.649a1.849 1.849 0 0 1 2.432 2.377 2.992 2.992 0 0 1-.695 1.049l-.639.653.98.958-1.036 1.061-3.75-3.664 1.675-1.714a2.992 2.992 0 0 1 1.032-.719m1.178 2.042a.7.7 0 0 0-.242-.561.715.715 0 0 0-.569-.232 1.022 1.022 0 0 0-.626.352l-.576.589 1.1 1.073.576-.589a1.036 1.036 0 0 0 .34-.631" transform="translate(-1530.115 -38.618)" style="fill:#fff"/>
                    <path data-name="Trazado 3450" d="m1564.076 41.792-.655.474.817 1.128-1.2.869-3.074-4.247 1.941-1.406a3 3 0 0 1 1.14-.533 1.907 1.907 0 0 1 2.251 1.7 1.8 1.8 0 0 1-.227.983l1.882.672-1.286.931zm-.883-2.421a1.024 1.024 0 0 0-.677.24l-.667.483.9 1.244.668-.483a1.037 1.037 0 0 0 .442-.565.7.7 0 0 0-.144-.594.714.714 0 0 0-.522-.325" transform="translate(-1542.726 -27.98)" style="fill:#fff"/>
                    <path data-name="Trazado 3451" d="m1585.594 28.592.509 1.027-3.771 1.87-2.329-4.7 3.684-1.826.509 1.027-2.368 1.174.392.792 2.087-1.035.492.993-2.087 1.035.426.859z" transform="translate(-1557.456 -18.374)" style="fill:#fff"/>
                    <path data-name="Trazado 3452" d="M1603.812 19.244a1.849 1.849 0 0 1 .982 3.256 2.992 2.992 0 0 1-1.115.583l-.875.264.4 1.312-1.42.429-1.515-5.019 2.295-.692a2.991 2.991 0 0 1 1.251-.131m.046 2.357a.7.7 0 0 0 .059-.608.714.714 0 0 0-.387-.478 1.022 1.022 0 0 0-.718.006l-.789.238.444 1.47.789-.238a1.036 1.036 0 0 0 .6-.389" transform="translate(-1572.349 -14.155)" style="fill:#fff"/>
                    <path data-name="Trazado 3453" d="m1626.432 18.9-2.2.273-.283 1.062-1.5.187 1.65-5.488 1.449-.18 2.951 4.916-1.531.19zm-.566-1.032-.876-1.582-.462 1.748z" transform="translate(-1588.652 -10.87)" style="fill:#fff"/>
                    <path data-name="Trazado 3454" d="m1649.241 17.732-.808-.043-.074 1.391-1.48-.08.278-5.236 2.393.127a2.994 2.994 0 0 1 1.222.3 1.908 1.908 0 0 1 .684 2.737 1.8 1.8 0 0 1-.795.621l1.042 1.706-1.586-.084zm.834-2.439a1.025 1.025 0 0 0-.677-.238l-.823-.044-.081 1.533.823.043a1.036 1.036 0 0 0 .7-.162.7.7 0 0 0 .262-.552.715.715 0 0 0-.2-.581" transform="translate(-1606.61 -10.143)" style="fill:#fff"/>
                    <path data-name="Trazado 3455" d="m1669.661 21.652-2.158-.509-.635.9-1.473-.347 3.457-4.571 1.421.335 1.055 5.636-1.5-.354zm-.172-1.164-.271-1.788-1.042 1.478z" transform="translate(-1620.22 -12.609)" style="fill:#fff"/>
                    <path data-name="Trazado 3456" d="m1691.262 22.232 2.262 1.014a3.472 3.472 0 0 1 1.263.918 2.428 2.428 0 0 1 .57 1.256 2.8 2.8 0 0 1-1.133 2.529 2.427 2.427 0 0 1-1.317.411 3.469 3.469 0 0 1-1.526-.331l-2.263-1.014zm.548 4.694a1.519 1.519 0 0 0 1.144.094 1.571 1.571 0 0 0 .863-1.928 1.52 1.52 0 0 0-.832-.791l-.854-.383-1.176 2.625z" transform="translate(-1637.656 -16.365)" style="fill:#fff"/>
                    <path data-name="Trazado 3457" d="M1713.373 41a2.681 2.681 0 0 1 2.743-3.876 3.349 3.349 0 0 1 2.439 1.726 2.681 2.681 0 0 1-2.744 3.876 3.347 3.347 0 0 1-2.438-1.726m2.421.411a1.348 1.348 0 0 0 .721-.137 1.73 1.73 0 0 0 .9-1.278 1.349 1.349 0 0 0-.111-.725 1.475 1.475 0 0 0-1.174-.831 1.348 1.348 0 0 0-.721.137 1.729 1.729 0 0 0-.9 1.278 1.343 1.343 0 0 0 .111.725 1.474 1.474 0 0 0 1.174.831" transform="translate(-1655.267 -27.29)" style="fill:#fff"/>
                    <path data-name="Trazado 3458" d="M1729.936 55.834a3.037 3.037 0 0 1-.387-.987l1.12-.424a3.315 3.315 0 0 0 .85 1.593q.6.607.9.306a.353.353 0 0 0 .065-.408 4.463 4.463 0 0 0-.388-.717 7.486 7.486 0 0 1-.5-.895 1.668 1.668 0 0 1-.147-.814 1.266 1.266 0 0 1 .417-.814 1.5 1.5 0 0 1 .8-.422 1.757 1.757 0 0 1 .984.126 3.224 3.224 0 0 1 1.058.749 4.519 4.519 0 0 1 .634.806 3.135 3.135 0 0 1 .38.868l-1.1.45a3.055 3.055 0 0 0-.735-1.317 1.221 1.221 0 0 0-.546-.365.394.394 0 0 0-.385.1.338.338 0 0 0-.055.392 4.315 4.315 0 0 0 .389.7 7.191 7.191 0 0 1 .5.9 1.712 1.712 0 0 1 .15.811 1.239 1.239 0 0 1-.412.813 1.473 1.473 0 0 1-.791.415 1.785 1.785 0 0 1-.987-.129 3.18 3.18 0 0 1-1.058-.744 4.851 4.851 0 0 1-.758-.989" transform="translate(-1667.373 -38.414)" style="fill:#fff"/>
                    <path data-name="Trazado 3459" d="m1522.7 200.9.612-.973a2.032 2.032 0 0 1-.1-.211l-.3-.723-.854.352-.117-.285 2.693-1.111.415 1.008a1.318 1.318 0 0 1 .087.909.907.907 0 0 1-.557.572.946.946 0 0 1-.6.06.955.955 0 0 1-.5-.326l-.652 1.039zm1.179-.752a.751.751 0 0 0 1-.412 1.015 1.015 0 0 0-.077-.684l-.295-.715-1.35.557.295.715a1.006 1.006 0 0 0 .429.538" transform="translate(-1514.782 -145.518)" style="fill:#8f8f8f"/>
                    <path data-name="Trazado 3460" d="m1529.439 212.538-.844-1.625a.782.782 0 0 0-.368.487.868.868 0 0 0 .09.629.945.945 0 0 0 .237.3.817.817 0 0 0 .327.163l-.093.236a.94.94 0 0 1-.4-.2 1.231 1.231 0 0 1-.3-.384 1.217 1.217 0 0 1-.148-.6 1.034 1.034 0 0 1 .166-.543 1.136 1.136 0 0 1 .443-.394 1.171 1.171 0 0 1 .574-.141 1.008 1.008 0 0 1 .527.157 1.125 1.125 0 0 1 .5.969 1.007 1.007 0 0 1-.175.517 1.186 1.186 0 0 1-.448.387zm-.069-1.753a.792.792 0 0 0-.579.027l.715 1.377a.794.794 0 0 0 .355-.459.8.8 0 0 0-.491-.945" transform="translate(-1519.184 -154.719)" style="fill:#8f8f8f"/>
                    <path data-name="Trazado 3461" d="M1532.321 220.128a1.1 1.1 0 0 1-.035-.426l.268-.009a1.115 1.115 0 0 0 .031.387 1.36 1.36 0 0 0 .168.4.832.832 0 0 0 .312.328.3.3 0 0 0 .3-.016.237.237 0 0 0 .119-.167.52.52 0 0 0-.016-.225 2.894 2.894 0 0 0-.11-.309 3.7 3.7 0 0 1-.138-.418.633.633 0 0 1 .005-.329.491.491 0 0 1 .234-.279.542.542 0 0 1 .5-.041 1.031 1.031 0 0 1 .483.45 1.639 1.639 0 0 1 .174.391 1.164 1.164 0 0 1 .058.375l-.27.015a1.1 1.1 0 0 0-.179-.647.747.747 0 0 0-.309-.311.306.306 0 0 0-.3.015.26.26 0 0 0-.128.174.5.5 0 0 0 .012.23 3.241 3.241 0 0 0 .113.321 3.839 3.839 0 0 1 .135.41.61.61 0 0 1 0 .32.469.469 0 0 1-.224.27.529.529 0 0 1-.513.036 1.139 1.139 0 0 1-.492-.477 1.669 1.669 0 0 1-.2-.474" transform="translate(-1522.378 -160.98)" style="fill:#8f8f8f"/>
                    <path data-name="Trazado 3462" d="M1537.811 227.372a1 1 0 0 1-.088.547 1.261 1.261 0 0 1-.938.684 1 1 0 0 1-.547-.083 1.121 1.121 0 0 1-.442-.37 1.03 1.03 0 0 1-.194-.453.908.908 0 0 1 .053-.474l-.985.718-.174-.239 2.421-1.765.166.229-.349.255a.909.909 0 0 1 .476.088 1.026 1.026 0 0 1 .384.33 1.128 1.128 0 0 1 .216.533m-1.485.881a.75.75 0 0 0 .417.059.919.919 0 0 0 .422-.176.9.9 0 0 0 .3-.347.766.766 0 0 0 .071-.415.858.858 0 0 0-.491-.674.767.767 0 0 0-.415-.058.908.908 0 0 0-.421.175.92.92 0 0 0-.3.348.753.753 0 0 0-.072.413.82.82 0 0 0 .161.4.831.831 0 0 0 .331.274" transform="translate(-1524.008 -166.089)" style="fill:#8f8f8f"/>
                    <path data-name="Trazado 3463" d="m1548.047 236.451-1.648 1.44-.186-.213.3-.263a.811.811 0 0 1-.444-.037.962.962 0 0 1-.39-.279.847.847 0 0 1 .1-1.314l.955-.835.195.223-.934.816a.731.731 0 0 0-.282.474.64.64 0 0 0 .185.484.717.717 0 0 0 .517.272.814.814 0 0 0 .572-.234l.865-.756z" transform="translate(-1532.033 -172.713)" style="fill:#8f8f8f"/>
                    <path data-name="Trazado 3464" d="m1555.088 246.3-1.316-1.273a.782.782 0 0 0-.195.578.871.871 0 0 0 .284.568.948.948 0 0 0 .32.208.817.817 0 0 0 .361.051l-.013.253a.936.936 0 0 1-.447-.062 1.234 1.234 0 0 1-.409-.268 1.216 1.216 0 0 1-.329-.519 1.035 1.035 0 0 1-.015-.567 1.134 1.134 0 0 1 .295-.514 1.173 1.173 0 0 1 .5-.316 1.006 1.006 0 0 1 .55-.018 1.125 1.125 0 0 1 .785.759 1 1 0 0 1 0 .546 1.184 1.184 0 0 1-.3.51zm-.621-1.641a.793.793 0 0 0-.541.209l1.115 1.079a.793.793 0 0 0 .191-.547.8.8 0 0 0-.766-.741" transform="translate(-1537.827 -179.65)" style="fill:#8f8f8f"/>
                    <path data-name="Trazado 3465" d="M1560.067 252.386a1.1 1.1 0 0 1-.168-.393l.252-.093a1.124 1.124 0 0 0 .151.357 1.382 1.382 0 0 0 .288.33.826.826 0 0 0 .4.212.3.3 0 0 0 .28-.111.238.238 0 0 0 .061-.2.529.529 0 0 0-.086-.208 2.928 2.928 0 0 0-.2-.258 3.659 3.659 0 0 1-.263-.353.628.628 0 0 1-.1-.313.492.492 0 0 1 .134-.338.541.541 0 0 1 .464-.2 1.027 1.027 0 0 1 .6.274 1.648 1.648 0 0 1 .29.315 1.171 1.171 0 0 1 .173.337l-.251.1a1.1 1.1 0 0 0-.375-.557.749.749 0 0 0-.391-.2.306.306 0 0 0-.278.109.257.257 0 0 0-.066.205.5.5 0 0 0 .084.214 3.26 3.26 0 0 0 .209.27 3.755 3.755 0 0 1 .258.346.619.619 0 0 1 .1.3.469.469 0 0 1-.127.327.53.53 0 0 1-.476.2 1.137 1.137 0 0 1-.617-.3 1.68 1.68 0 0 1-.342-.386" transform="translate(-1542.68 -184.38)" style="fill:#8f8f8f"/>
                    <path data-name="Trazado 3466" d="M1568.861 257.029a.558.558 0 0 1-.234-.03.822.822 0 0 1-.229-.12.643.643 0 0 1-.283-.416.635.635 0 0 1 .145-.477l.785-1.065-.315-.232.148-.2.315.232.284-.385.238.175-.284.385.536.4-.148.2-.536-.395-.775 1.052a.412.412 0 0 0-.1.3.371.371 0 0 0 .166.249.541.541 0 0 0 .16.082.443.443 0 0 0 .168.021z" transform="translate(-1548.714 -186.961)" style="fill:#8f8f8f"/>
                    <path data-name="Trazado 3467" d="M1575.882 261.212a.828.828 0 0 1-.148.658l-.73 1.143-.238-.152.184-.288a.679.679 0 0 1-.391.067 1.026 1.026 0 0 1-.439-.167.9.9 0 0 1-.4-.461.6.6 0 0 1 .478-.776.987.987 0 0 1 .634.2l.586.374.072-.112a.562.562 0 0 0 .1-.448.654.654 0 0 0-.31-.373 1.175 1.175 0 0 0-.374-.157 1.009 1.009 0 0 0-.379-.017l.006-.258a1.18 1.18 0 0 1 .454.031 1.558 1.558 0 0 1 .455.2.927.927 0 0 1 .439.534m-1.176 1.224a.684.684 0 0 0 .4-.135l.192-.3-.579-.37q-.473-.3-.684.028a.357.357 0 0 0-.04.333.664.664 0 0 0 .284.312.778.778 0 0 0 .423.134" transform="translate(-1552.816 -191.447)" style="fill:#8f8f8f"/>
                    <path data-name="Trazado 3468" d="m1587.633 267.736-2.058 1.723a1.043 1.043 0 0 1-.468.258.687.687 0 0 1-.434-.068.865.865 0 0 1-.244-.174.641.641 0 0 1-.148-.238l.22-.138a.545.545 0 0 0 .286.325.4.4 0 0 0 .266.037.756.756 0 0 0 .3-.168l.179-.149.078-2.392.277.135-.075 2.033 1.556-1.311z" transform="translate(-1560.601 -196.087)" style="fill:#8f8f8f"/>
                    <path data-name="Trazado 3469" d="M1604.824 274.552a.953.953 0 0 1 .01.737l-.387 1.209-.281-.09.378-1.181a.743.743 0 0 0 0-.545.6.6 0 0 0-.387-.312.7.7 0 0 0-.575.037.817.817 0 0 0-.363.493l-.35 1.094-.282-.09.378-1.181a.742.742 0 0 0 0-.545.6.6 0 0 0-.391-.313.7.7 0 0 0-.573.037.815.815 0 0 0-.365.492l-.35 1.094-.281-.09.667-2.084.27.086-.122.38a.787.787 0 0 1 .4-.194 1.019 1.019 0 0 1 .489.043.937.937 0 0 1 .418.256.716.716 0 0 1 .182.421.851.851 0 0 1 .434-.217 1.072 1.072 0 0 1 .531.041.87.87 0 0 1 .544.423" transform="translate(-1572.895 -200.909)" style="fill:#8f8f8f"/>
                    <path data-name="Trazado 3470" d="M1620.065 278.974a.828.828 0 0 1 .1.668l-.272 1.329-.277-.057.069-.334a.676.676 0 0 1-.341.2 1.023 1.023 0 0 1-.47 0 .9.9 0 0 1-.536-.288.6.6 0 0 1 .169-.9.989.989 0 0 1 .664-.038l.681.14.027-.131a.56.56 0 0 0-.068-.453.653.653 0 0 0-.423-.238 1.177 1.177 0 0 0-.4-.013 1 1 0 0 0-.36.12l-.086-.243a1.179 1.179 0 0 1 .435-.134 1.557 1.557 0 0 1 .5.023.928.928 0 0 1 .6.342m-.661 1.564a.686.686 0 0 0 .327-.271l.072-.351-.672-.138q-.55-.112-.629.271a.357.357 0 0 0 .082.325.664.664 0 0 0 .378.19.778.778 0 0 0 .443-.026" transform="translate(-1585.531 -204.795)" style="fill:#8f8f8f"/>
                    <path data-name="Trazado 3471" d="M1630.936 280.51a.935.935 0 0 1 .16.721l-.15 1.26-.293-.035.146-1.231a.726.726 0 0 0-.108-.537.641.641 0 0 0-.462-.235.748.748 0 0 0-.581.143.794.794 0 0 0-.273.552l-.136 1.141-.293-.035.258-2.173.281.033-.048.4a.821.821 0 0 1 .369-.268 1.072 1.072 0 0 1 .507-.051.894.894 0 0 1 .622.315" transform="translate(-1593.429 -205.884)" style="fill:#8f8f8f"/>
                    <path data-name="Trazado 3472" d="m1642.381 282.52-1.83-.063a.782.782 0 0 0 .243.56.869.869 0 0 0 .591.231.949.949 0 0 0 .377-.06.822.822 0 0 0 .3-.2l.16.2a.936.936 0 0 1-.373.254 1.23 1.23 0 0 1-.483.075 1.215 1.215 0 0 1-.592-.164 1.035 1.035 0 0 1-.392-.411 1.135 1.135 0 0 1-.126-.579 1.171 1.171 0 0 1 .159-.569 1.009 1.009 0 0 1 .4-.382 1.069 1.069 0 0 1 .552-.123 1.056 1.056 0 0 1 .54.16 1 1 0 0 1 .365.406 1.18 1.18 0 0 1 .117.581zm-1.561-.8a.793.793 0 0 0-.261.518l1.551.053a.791.791 0 0 0-.225-.534.8.8 0 0 0-1.064-.037" transform="translate(-1601.744 -206.766)" style="fill:#8f8f8f"/>
                    <path data-name="Trazado 3473" d="M1649.009 281.874a.508.508 0 0 1-.2-.1l.1-.227a.5.5 0 0 0 .344.1.343.343 0 0 0 .266-.111.446.446 0 0 0 .086-.31l-.059-2.35.3-.007.059 2.35a.686.686 0 0 1-.154.491.616.616 0 0 1-.47.191.933.933 0 0 1-.261-.029m.513-3.54a.2.2 0 0 1-.066-.148.2.2 0 0 1 .059-.147.208.208 0 0 1 .152-.066.212.212 0 0 1 .155.056.194.194 0 0 1 .066.142.218.218 0 0 1-.366.163" transform="translate(-1608.025 -204.335)" style="fill:#8f8f8f"/>
                    <path data-name="Trazado 3474" d="M1656.707 282.993a1.048 1.048 0 0 1-.432-.361 1.207 1.207 0 0 1-.1-1.145 1.037 1.037 0 0 1 .364-.428 1.22 1.22 0 0 1 1.136-.1 1.021 1.021 0 0 1 .43.36 1.221 1.221 0 0 1 .1 1.144 1.033 1.033 0 0 1-.362.43 1.2 1.2 0 0 1-1.136.1m.965-.308a.742.742 0 0 0 .262-.325 1 1 0 0 0-.076-.887.741.741 0 0 0-.314-.276.877.877 0 0 0-.833.072.754.754 0 0 0-.264.325.987.987 0 0 0 .076.887.757.757 0 0 0 .316.276.878.878 0 0 0 .833-.072" transform="translate(-1613.37 -206.46)" style="fill:#8f8f8f"/>
                    <path data-name="Trazado 3475" d="m1673.682 274.494.646 3.019-.277.059-.09-.423a.906.906 0 0 1-.273.4 1.033 1.033 0 0 1-.458.217 1.112 1.112 0 0 1-.574-.022 1.01 1.01 0 0 1-.465-.3 1.255 1.255 0 0 1-.242-1.131 1 1 0 0 1 .3-.466 1.122 1.122 0 0 1 .516-.253 1.038 1.038 0 0 1 .493.007.913.913 0 0 1 .411.242l-.275-1.286zm-.1 2.824a.754.754 0 0 0 .222-.356.987.987 0 0 0-.186-.871.753.753 0 0 0-.348-.234.868.868 0 0 0-.813.174.752.752 0 0 0-.222.356.987.987 0 0 0 .186.871.753.753 0 0 0 .348.234.87.87 0 0 0 .814-.174" transform="translate(-1625.001 -201.778)" style="fill:#8f8f8f"/>
                    <path data-name="Trazado 3476" d="m1685.321 276.539-1.751.534a.784.784 0 0 0 .412.451.87.87 0 0 0 .635.026.937.937 0 0 0 .337-.179.814.814 0 0 0 .22-.291l.215.135a.942.942 0 0 1-.271.361 1.235 1.235 0 0 1-.433.228 1.219 1.219 0 0 1-.613.037 1.036 1.036 0 0 1-.5-.262 1.131 1.131 0 0 1-.307-.507 1.173 1.173 0 0 1-.034-.59 1.011 1.011 0 0 1 .251-.49 1.073 1.073 0 0 1 .482-.295 1.061 1.061 0 0 1 .563-.023 1 1 0 0 1 .477.266 1.184 1.184 0 0 1 .3.511zm-1.736-.252a.793.793 0 0 0-.079.575l1.485-.453a.79.79 0 0 0-.386-.432.8.8 0 0 0-1.019.31" transform="translate(-1633.308 -202.625)" style="fill:#8f8f8f"/>
                    <path data-name="Trazado 3477" d="m1699.934 270.963-1.675.739a.781.781 0 0 0 .462.4.869.869 0 0 0 .633-.05.945.945 0 0 0 .313-.218.818.818 0 0 0 .184-.315l.229.108a.939.939 0 0 1-.225.391 1.239 1.239 0 0 1-.4.278 1.213 1.213 0 0 1-.6.11 1.035 1.035 0 0 1-.532-.2 1.132 1.132 0 0 1-.365-.466 1.17 1.17 0 0 1-.1-.582 1.006 1.006 0 0 1 .19-.516 1.07 1.07 0 0 1 .443-.35 1.058 1.058 0 0 1 .556-.091 1 1 0 0 1 .505.207 1.182 1.182 0 0 1 .358.471zm-1.753-.042a.79.79 0 0 0-.01.58l1.42-.627a.791.791 0 0 0-.435-.383.749.749 0 0 0-.57.031.742.742 0 0 0-.4.4" transform="translate(-1644.069 -198.616)" style="fill:#8f8f8f"/>
                    <path data-name="Trazado 3478" d="M1709.656 262.078a.954.954 0 0 1 .553.488l.635 1.1-.256.148-.62-1.074a.744.744 0 0 0-.4-.368.6.6 0 0 0-.491.077.7.7 0 0 0-.359.451.818.818 0 0 0 .121.6l.574.994-.256.148-.62-1.073a.744.744 0 0 0-.4-.368.6.6 0 0 0-.495.079.7.7 0 0 0-.358.449.814.814 0 0 0 .119.6l.574.995-.256.148-1.095-1.9.245-.142.2.346a.788.788 0 0 1 .127-.429 1.021 1.021 0 0 1 .36-.333.937.937 0 0 1 .471-.138.715.715 0 0 1 .434.148.855.855 0 0 1 .131-.467 1.071 1.071 0 0 1 .387-.365.872.872 0 0 1 .679-.118" transform="translate(-1650.521 -192.633)" style="fill:#8f8f8f"/>
                    <path data-name="Trazado 3479" d="m1724.3 256.61-1.478 1.081a.783.783 0 0 0 .537.29.871.871 0 0 0 .608-.184.941.941 0 0 0 .259-.28.815.815 0 0 0 .112-.347l.247.056a.93.93 0 0 1-.137.43 1.308 1.308 0 0 1-.9.594 1.037 1.037 0 0 1-.562-.081 1.135 1.135 0 0 1-.457-.377 1.175 1.175 0 0 1-.227-.546 1.011 1.011 0 0 1 .076-.545 1.126 1.126 0 0 1 .881-.645 1 1 0 0 1 .538.094 1.18 1.18 0 0 1 .451.384zm-1.722.335a.792.792 0 0 0 .115.568l1.252-.916a.793.793 0 0 0-.507-.281.8.8 0 0 0-.86.629" transform="translate(-1662.041 -188.222)" style="fill:#8f8f8f"/>
                    <path data-name="Trazado 3480" d="M1730.094 250.284a1.053 1.053 0 0 1 .318-.414l.185.22-.057.042a.7.7 0 0 0-.278.511.846.846 0 0 0 .233.581l.718.854-.226.19-1.409-1.675.216-.182.276.328a.716.716 0 0 1 .023-.454" transform="translate(-1667.395 -183.679)" style="fill:#8f8f8f"/>
                    <path data-name="Trazado 3481" d="m1736.954 242.831 1.338 1.38a1.114 1.114 0 0 1 .38.783 1.128 1.128 0 0 1-.4.765 1.835 1.835 0 0 1-.476.337 1.179 1.179 0 0 1-.49.131l-.049-.266a1.124 1.124 0 0 0 .43-.109 1.446 1.446 0 0 0 .4-.275.841.841 0 0 0 .3-.565.815.815 0 0 0-.278-.568l-.194-.2a.889.889 0 0 1-.038.478 1.111 1.111 0 0 1-.279.421 1.166 1.166 0 0 1-.5.293 1 1 0 0 1-.547 0 1.127 1.127 0 0 1-.766-.79 1 1 0 0 1 .021-.543 1.177 1.177 0 0 1 .311-.487 1.112 1.112 0 0 1 .44-.27.909.909 0 0 1 .486-.019l-.292-.3zm.717 1.731a.737.737 0 0 0 .015-.412.811.811 0 0 0-.214-.373.8.8 0 0 0-.364-.223.746.746 0 0 0-.409 0 .96.96 0 0 0-.617.6.726.726 0 0 0-.015.409.87.87 0 0 0 .58.6.741.741 0 0 0 .411 0 .883.883 0 0 0 .377-.224.9.9 0 0 0 .237-.372" transform="translate(-1671.936 -178.505)" style="fill:#8f8f8f"/>
                    <path data-name="Trazado 3482" d="m1745.783 236.548-1.2 1.381a.782.782 0 0 0 .588.164.872.872 0 0 0 .552-.314.944.944 0 0 0 .191-.33.815.815 0 0 0 .032-.363h.254a.938.938 0 0 1-.038.45 1.233 1.233 0 0 1-.246.422 1.214 1.214 0 0 1-.5.356 1.035 1.035 0 0 1-.566.045 1.134 1.134 0 0 1-.529-.267 1.175 1.175 0 0 1-.342-.482 1.006 1.006 0 0 1-.047-.548 1.069 1.069 0 0 1 .252-.506 1.056 1.056 0 0 1 .465-.318 1 1 0 0 1 .545-.028 1.181 1.181 0 0 1 .525.275zm-1.605.707a.791.791 0 0 0 .237.529l1.019-1.171a.793.793 0 0 0-.557-.162.75.75 0 0 0-.5.271.741.741 0 0 0-.2.532" transform="translate(-1677.929 -173.621)" style="fill:#8f8f8f"/>
                    <path data-name="Trazado 3483" d="M1750.7 227.33a.936.936 0 0 1 .706.215l1.024.75-.175.238-1-.732a.727.727 0 0 0-.521-.17.641.641 0 0 0-.432.287.748.748 0 0 0-.161.576.793.793 0 0 0 .347.509l.927.678-.175.238-1.766-1.293.167-.228.326.238a.822.822 0 0 1-.052-.453 1.07 1.07 0 0 1 .2-.466.894.894 0 0 1 .58-.387" transform="translate(-1682.02 -167.106)" style="fill:#8f8f8f"/>
                    <path data-name="Trazado 3484" d="M1758.735 220.2a1.024 1.024 0 0 1-.549.135 1.146 1.146 0 0 1-.568-.177 1.133 1.133 0 0 1-.413-.424 1.028 1.028 0 0 1-.127-.549 1.179 1.179 0 0 1 .183-.569 1.126 1.126 0 0 1 .358-.373.839.839 0 0 1 .459-.131l.012.266a.691.691 0 0 0-.351.107.818.818 0 0 0-.258.266.857.857 0 0 0-.132.419.747.747 0 0 0 .1.41.992.992 0 0 0 .761.466.748.748 0 0 0 .41-.1.854.854 0 0 0 .313-.308.826.826 0 0 0 .122-.35.671.671 0 0 0-.062-.36l.243-.11a.836.836 0 0 1 .09.47 1.126 1.126 0 0 1-.169.487 1.18 1.18 0 0 1-.424.421" transform="translate(-1687.605 -160.336)" style="fill:#8f8f8f"/>
                    <path data-name="Trazado 3485" d="M1758.359 212.544a.2.2 0 0 1-.161-.016.2.2 0 0 1-.1-.124.208.208 0 0 1 .018-.165.213.213 0 0 1 .126-.107.193.193 0 0 1 .156.013.218.218 0 0 1-.04.4m.479.252.14-.26 1.929 1.035-.14.26z" transform="translate(-1688.349 -155.934)" style="fill:#8f8f8f"/>
                    <path data-name="Trazado 3486" d="M1764.463 205.556a.828.828 0 0 1 .672.059l1.231.569-.119.257-.31-.143a.677.677 0 0 1 .119.378 1.023 1.023 0 0 1-.106.457.9.9 0 0 1-.4.455.6.6 0 0 1-.833-.369.989.989 0 0 1 .115-.655l.292-.631-.121-.056a.56.56 0 0 0-.457-.037.654.654 0 0 0-.328.357 1.178 1.178 0 0 0-.106.391 1.011 1.011 0 0 0 .034.378l-.256.028a1.178 1.178 0 0 1-.031-.454 1.561 1.561 0 0 1 .136-.478.927.927 0 0 1 .471-.507m1.371 1a.682.682 0 0 0-.188-.381l-.325-.15-.288.623q-.236.51.119.674a.358.358 0 0 0 .335-.006.663.663 0 0 0 .271-.324.776.776 0 0 0 .076-.437" transform="translate(-1692.582 -151.074)" style="fill:#8f8f8f"/>
                    <path data-name="Trazado 3487" d="M1769.639 198.29a1.1 1.1 0 0 1-.315.288l-.171-.207a1.136 1.136 0 0 0 .287-.261 1.374 1.374 0 0 0 .217-.381.826.826 0 0 0 .069-.448.3.3 0 0 0-.2-.227.238.238 0 0 0-.205.007.525.525 0 0 0-.168.15 2.815 2.815 0 0 0-.177.276 3.641 3.641 0 0 1-.247.365.629.629 0 0 1-.263.2.491.491 0 0 1-.363-.015.54.54 0 0 1-.34-.372 1.029 1.029 0 0 1 .061-.657 1.659 1.659 0 0 1 .2-.377 1.161 1.161 0 0 1 .261-.275l.177.2a1.105 1.105 0 0 0-.4.537.747.747 0 0 0-.057.434.305.305 0 0 0 .195.227.258.258 0 0 0 .215-.006.5.5 0 0 0 .174-.15 3.279 3.279 0 0 0 .186-.286 3.844 3.844 0 0 1 .242-.358.614.614 0 0 1 .255-.193.468.468 0 0 1 .351.012.529.529 0 0 1 .342.385 1.135 1.135 0 0 1-.076.681 1.682 1.682 0 0 1-.252.45" transform="translate(-1695.439 -144.343)" style="fill:#8f8f8f"/>
                    <path data-name="Trazado 3488" d="M1624.612 144.246c.235 0 .449-.005.663 0a1.758 1.758 0 0 1 1.78 1.79c.012.732.005 1.464 0 2.2a.615.615 0 0 1-.706.7h-20.712c-.675 0-.849-.174-.849-.851v-1.962a1.772 1.772 0 0 1 1.874-1.874h.58l.414-2.305c.508-2.831.99-5.667 1.531-8.491a4.023 4.023 0 0 1 3.968-3.258c1.816-.016 3.633-.01 5.449 0a4.116 4.116 0 0 1 4.112 3.492q.906 5.157 1.832 10.31c.014.077.036.152.061.256m-1.216-.014c-.019-.132-.03-.239-.049-.344l-1.745-9.791a3 3 0 0 0-3.253-2.737h-5.039a2.929 2.929 0 0 0-3.016 2.52q-.623 3.455-1.235 6.911c-.2 1.141-.41 2.282-.618 3.44zm2.489 3.514v-1.469c0-.691-.17-.859-.87-.859h-18.182a2.6 2.6 0 0 0-.322.008.555.555 0 0 0-.534.529c-.021.591-.006 1.184-.006 1.79z" transform="translate(-1575.673 -95.707)" style="fill:#fff"/>
                    <path data-name="Trazado 3489" d="M1593.3 149.057c-.809 0-1.618.006-2.427 0a.584.584 0 0 1-.617-.789.574.574 0 0 1 .571-.378q2.486-.006 4.971 0a.584.584 0 1 1-.013 1.165c-.829.009-1.657 0-2.485 0" transform="translate(-1564.962 -108.72)" style="fill:#fff"/>
                    <path data-name="Trazado 3490" d="M1683.106 147.882c.809 0 1.618-.006 2.427 0a.584.584 0 0 1 .617.789.573.573 0 0 1-.571.378q-2.486.006-4.971 0a.584.584 0 1 1 .013-1.165c.828-.009 1.657 0 2.485 0" transform="translate(-1630.947 -108.716)" style="fill:#fff"/>
                    <path data-name="Trazado 3491" d="M1611.586 114.208a.6.6 0 0 1-.846.607 1.181 1.181 0 0 1-.273-.216q-1.544-1.538-3.082-3.081a1.322 1.322 0 0 1-.185-.225.57.57 0 0 1 .781-.795 1.412 1.412 0 0 1 .247.2c1.022 1.019 2.045 2.036 3.058 3.063a2.474 2.474 0 0 1 .3.444" transform="translate(-1577.379 -81.178)" style="fill:#fff"/>
                    <path data-name="Trazado 3492" d="M1670.321 114.888a.6.6 0 0 1-.605-.846 1.184 1.184 0 0 1 .217-.273q1.538-1.543 3.081-3.081a1.309 1.309 0 0 1 .225-.184.57.57 0 0 1 .794.782 1.427 1.427 0 0 1-.2.247c-1.019 1.021-2.037 2.044-3.064 3.057a2.453 2.453 0 0 1-.444.3" transform="translate(-1623.348 -81.178)" style="fill:#fff"/>
                    <path data-name="Trazado 3493" d="M1645.763 97.766v2.251a.6.6 0 0 1-.493.661.593.593 0 0 1-.676-.652c-.007-.838 0-1.676 0-2.514v-2.046a.585.585 0 0 1 .367-.579.489.489 0 0 1 .612.129.972.972 0 0 1 .184.53c.02.74.008 1.481.008 2.221" transform="translate(-1604.927 -69.727)" style="fill:#fff"/>
                    <path data-name="Trazado 3494" d="M1663.85 161.829a.6.6 0 0 1-.5.659.608.608 0 0 1-.662-.563c-.127-.66-.242-1.323-.362-1.985-.149-.825-.3-1.649-.444-2.475a1.066 1.066 0 0 1 0-.461.531.531 0 0 1 .548-.4.585.585 0 0 1 .581.52c.087.42.157.844.233 1.265q.3 1.626.591 3.251c.014.077.017.155.021.188" transform="translate(-1617.614 -115.129)" style="fill:#fff"/>
                    <path data-name="Trazado 3495" d="M1660.658 149.067a.582.582 0 1 1 .6-.56.6.6 0 0 1-.6.56" transform="translate(-1616.32 -108.734)" style="fill:#fff"/>
                </g>
            </g>
        </g>
    </g>
</svg>
