<svg xmlns="http://www.w3.org/2000/svg" width="79.383" height="79.715" viewBox="0 0 79.383 79.715">
    <g data-name="Grupo 1236">
        <path data-name="Trazado 1807" d="M454.1 39.871A39.661 39.661 0 1 1 414.441.056 39.739 39.739 0 0 1 454.1 39.871" transform="translate(-374.72 .027)" style="fill:#fff"/>
        <path data-name="Trazado 1808" d="M437.068 86q0 1.069.093 2.114c16.689 7.311 24.517-8.349 34.99-7.873a24.148 24.148 0 0 1 12.185 3.758 23.674 23.674 0 0 0-47.268 2" transform="translate(-420.94 -46.096)" style="fill:#3966a9"/>
        <path data-name="Trazado 1809" d="M437.429 139.615a23.674 23.674 0 0 0 47.258-2.114q0-1.011-.083-2a24.147 24.147 0 0 0-12.185-3.758c-10.473-.475-18.3 15.185-34.99 7.874" transform="translate(-421.208 -97.602)" style="fill:#31b1b3"/>
        <path data-name="Trazado 1810" d="m388.439 160.007-6.374-2.229-6.159 2.835v-.03l-.091-.91 6.208-2.858 6.3 2.2a.045.045 0 0 0 0 .01z" transform="translate(-375.485 -116.201)" style="fill:#3966a9"/>
        <path data-name="Trazado 1811" d="m645.995 162.324-6.667 2.113-5.817-2.89c-.022.32-.049.639-.083.956l5.827 2.9 6.665-2.112z" transform="translate(-566.648 -119.708)" style="fill:#3966a9"/>
        <path data-name="Trazado 1812" d="M424.593 184.812a28.043 28.043 0 0 0 53.4 0c.077-.223.166-.539.26-.893h-.918a27.142 27.142 0 0 1-52.084 0h-.919c.095.354.184.672.261.893" transform="translate(-411.49 -136.297)" style="fill:#3966a9"/>
        <path data-name="Trazado 1813" d="M454.824 183.918c-.081.41-.154.74-.2.893a38.821 38.821 0 0 1-75.732 0 12.08 12.08 0 0 1-.2-.893h-.9a39.7 39.7 0 0 0 77.929 0z" transform="translate(-376.959 -136.296)" style="fill:#3966a9"/>
        <path data-name="Trazado 1814" d="m453.432 31.666.041-.052a39.735 39.735 0 0 0-78.323 3.57l.038-.011a40.3 40.3 0 0 0-.273 4.133l6.273-2.554 6.287 2.743a27.163 27.163 0 0 1 8.071-18.961l.02-.02c.1-.1.21-.2.315-.3.084-.08.168-.161.253-.239l.087-.08A27.137 27.137 0 0 1 441.586 37.1l7.121 4.215 5.374-5.532a39.552 39.552 0 0 0-.648-4.115" transform="translate(-374.82 -.001)" style="fill:#31b1b3"/>
        <path data-name="Trazado 1815" d="m453.432 31.666.041-.052a39.735 39.735 0 0 0-78.323 3.57l.038-.011a40.3 40.3 0 0 0-.273 4.133l6.273-2.554 6.287 2.743a27.163 27.163 0 0 1 8.071-18.961l.02-.02c.1-.1.21-.2.315-.3.084-.08.168-.161.253-.239l.087-.08A27.137 27.137 0 0 1 441.586 37.1l7.121 4.215 5.374-5.532a39.552 39.552 0 0 0-.649-4.117z" transform="translate(-374.82 -.001)" style="fill:none;stroke:#fff;stroke-miterlimit:10;stroke-width:.187px"/>
        <path data-name="Trazado 1816" d="m407.378 89.367-.985 1.925.7.811-.672 1.314-3.514-4.343.648-1.268 5.573.318-.685 1.34zm-1.14-.11-1.753-.162 1.154 1.332z" transform="translate(-395.591 -65.034)" style="fill:#fff"/>
        <path data-name="Trazado 1817" d="m415.334 60.877 4.033 3.134-.884 1.143-1.573-1.222-1.21 1.559 1.573 1.222-.884 1.144-4.033-3.134.885-1.144 1.515 1.178 1.206-1.559-1.515-1.177z" transform="translate(-402.605 -45.068)" style="fill:#fff"/>
        <path data-name="Trazado 1818" d="M435.473 50.912a2.615 2.615 0 0 1-3.048-3.483 3.26 3.26 0 0 1 2.187-1.923 2.615 2.615 0 0 1 3.048 3.483 3.261 3.261 0 0 1-2.187 1.922m.937-2.2a1.316 1.316 0 0 0 .034-.715 1.686 1.686 0 0 0-1-1.148 1.314 1.314 0 0 0-.712-.06 1.435 1.435 0 0 0-1.052.925 1.314 1.314 0 0 0-.034.715 1.686 1.686 0 0 0 1 1.149 1.306 1.306 0 0 0 .712.059 1.435 1.435 0 0 0 1.052-.925" transform="translate(-417.365 -33.616)" style="fill:#fff"/>
        <path data-name="Trazado 1819" d="m454.05 35.287-.677.4.692 1.169-1.242.738-2.6-4.4L452.226 32a2.9 2.9 0 0 1 1.152-.417 1.781 1.781 0 0 1 1.012.163 1.948 1.948 0 0 1 1.02 1.688 1.755 1.755 0 0 1-.307.935l1.765.82-1.329.79zm-.642-2.431a.993.993 0 0 0-.677.173l-.69.41.763 1.288.689-.41a1.009 1.009 0 0 0 .478-.51.687.687 0 0 0-.086-.59.7.7 0 0 0-.477-.362" transform="translate(-430.699 -23.341)" style="fill:#fff"/>
        <path data-name="Trazado 1820" d="m474.9 25.727-.737.279.479 1.272-1.35.511-1.8-4.789 2.183-.825a2.906 2.906 0 0 1 1.206-.21 1.784 1.784 0 0 1 .968.337 1.806 1.806 0 0 1 .613.842 1.786 1.786 0 0 1 .1 1 1.755 1.755 0 0 1-.465.867l1.6 1.115-1.446.547zm-.211-2.506a1 1 0 0 0-.7.053l-.75.284.528 1.4.75-.284a1.01 1.01 0 0 0 .56-.419.687.687 0 0 0 .017-.6.7.7 0 0 0-.407-.44" transform="translate(-446.485 -16.215)" style="fill:#fff"/>
        <path data-name="Trazado 1821" d="m499.54 19.8-2.123.389-.216 1.05-1.449.266 1.3-5.438 1.4-.256 3.141 4.624-1.477.271zm-.608-.973-.939-1.492-.352 1.728z" transform="translate(-464.488 -11.655)" style="fill:#fff"/>
        <path data-name="Trazado 1822" d="M530.029 18.914a2.618 2.618 0 0 1 .385-4.617 3.251 3.251 0 0 1 2.9.243 2.617 2.617 0 0 1-.385 4.617 3.253 3.253 0 0 1-2.9-.243m2.233-.854a1.31 1.31 0 0 0 .537-.472 1.69 1.69 0 0 0 .127-1.522 1.319 1.319 0 0 0-.451-.555 1.431 1.431 0 0 0-1.395-.117 1.31 1.31 0 0 0-.537.472 1.691 1.691 0 0 0-.127 1.522 1.314 1.314 0 0 0 .451.555 1.433 1.433 0 0 0 1.4.117" transform="translate(-489.035 -10.358)" style="fill:#fff"/>
        <path data-name="Trazado 1823" d="m567.922 21.047-1.765 4.8-1.115-.412-1.173-3.335-.941 2.558-1.327-.49 1.765-4.8 1.115.412 1.173 3.338.94-2.558z" transform="translate(-513.35 -14.288)" style="fill:#fff"/>
        <path data-name="Trazado 1824" d="M585.53 33.334a2.362 2.362 0 0 1 .362-1.836l1.454-2.432 1.238.744-1.432 2.39q-.63 1.053.2 1.553t1.455-.557l1.431-2.394 1.22.732-1.454 2.432a2.353 2.353 0 0 1-1.444 1.186 2.831 2.831 0 0 1-3.033-1.822" transform="translate(-531.061 -21.482)" style="fill:#fff"/>
        <path data-name="Trazado 1825" d="m608.55 46.207-3.385 3.828-.889-.79.118-3.538-1.8 2.04-1.058-.941 3.385-3.828.889.79-.118 3.538 1.8-2.04z" transform="translate(-542.98 -31.797)" style="fill:#fff"/>
        <path data-name="Trazado 1826" d="M621.477 67.1a2.546 2.546 0 0 1 .123-1.375 2.76 2.76 0 0 1 2.155-1.7 2.527 2.527 0 0 1 1.362.206 3.019 3.019 0 0 1 1.156.925 3.1 3.1 0 0 1 .584 1.148 2.436 2.436 0 0 1 .015 1.178l-1.221-.209a1.517 1.517 0 0 0-.273-1.318 1.488 1.488 0 0 0-.6-.47 1.26 1.26 0 0 0-.715-.078 1.713 1.713 0 0 0-1.2.943 1.268 1.268 0 0 0-.093.715 1.487 1.487 0 0 0 .314.7 1.509 1.509 0 0 0 1.213.578l-.086 1.239a2.42 2.42 0 0 1-1.138-.293 3.089 3.089 0 0 1-.974-.84 3.033 3.033 0 0 1-.623-1.345" transform="translate(-557.749 -47.389)" style="fill:#fff"/>
        <path data-name="Trazado 1827" d="m632.366 89.273-1.016-1.908-1.064.114-.694-1.3 5.563-.416.669 1.257-3.438 4.407-.706-1.327zm.74-.876 1.132-1.351-1.75.19z" transform="translate(-563.803 -63.517)" style="fill:#fff"/>
        <path data-name="Trazado 1828" d="m432.035 241.28.2.207-.776.754a1.376 1.376 0 0 1-.519-.152 1.747 1.747 0 0 1-.464-.346 1.574 1.574 0 0 1-.4-.681 1.383 1.383 0 0 1 0-.745 1.5 1.5 0 0 1 1.061-1.032 1.372 1.372 0 0 1 .743.025 1.576 1.576 0 0 1 .67.424 1.662 1.662 0 0 1 .34.5 1.187 1.187 0 0 1 .1.543h-.266a1.168 1.168 0 0 0-.356-.846 1.27 1.27 0 0 0-.542-.342 1.111 1.111 0 0 0-.605-.019 1.222 1.222 0 0 0-.862.838 1.144 1.144 0 0 0 0 .606 1.249 1.249 0 0 0 .321.553 1.234 1.234 0 0 0 .673.381z" transform="translate(-415.713 -177.319)" style="fill:#3966a9"/>
        <path data-name="Trazado 1829" d="m440.722 251.355-1.35-1.166a.764.764 0 0 0-.157.574.849.849 0 0 0 .308.537.92.92 0 0 0 .322.185.8.8 0 0 0 .354.03v.247a.908.908 0 0 1-.438-.035A1.277 1.277 0 0 1 439 251a1.013 1.013 0 0 1-.047-.552 1.1 1.1 0 0 1 .258-.517 1.14 1.14 0 0 1 .468-.336.979.979 0 0 1 .533-.048 1.041 1.041 0 0 1 .493.244 1.031 1.031 0 0 1 .312.452.983.983 0 0 1 .029.532 1.159 1.159 0 0 1-.265.513zm-.7-1.563a.771.771 0 0 0-.514.234l1.144.988a.775.775 0 0 0 .155-.544.733.733 0 0 0-.266-.49.723.723 0 0 0-.52-.189" transform="translate(-422.327 -184.945)" style="fill:#3966a9"/>
        <path data-name="Trazado 1830" d="M446.1 257.12a1.07 1.07 0 0 1-.185-.373l.239-.105a1.1 1.1 0 0 0 .168.339 1.342 1.342 0 0 0 .3.305.8.8 0 0 0 .4.184.29.29 0 0 0 .265-.124.232.232 0 0 0 .048-.194.514.514 0 0 0-.1-.2 2.818 2.818 0 0 0-.211-.24 3.568 3.568 0 0 1-.276-.329.615.615 0 0 1-.114-.3.482.482 0 0 1 .111-.337.527.527 0 0 1 .44-.219 1 1 0 0 1 .6.233 1.6 1.6 0 0 1 .3.291 1.14 1.14 0 0 1 .188.319l-.239.111a1.074 1.074 0 0 0-.4-.522.729.729 0 0 0-.391-.17.3.3 0 0 0-.264.122.254.254 0 0 0-.053.2.49.49 0 0 0 .094.2 3.173 3.173 0 0 0 .218.251 3.7 3.7 0 0 1 .271.323.6.6 0 0 1 .113.291.459.459 0 0 1-.105.326.515.515 0 0 1-.451.218 1.109 1.109 0 0 1-.617-.254 1.644 1.644 0 0 1-.354-.357" transform="translate(-427.501 -189.393)" style="fill:#3966a9"/>
        <path data-name="Trazado 1831" d="M455.269 261.219a.543.543 0 0 1-.229-.016.811.811 0 0 1-.23-.1.566.566 0 0 1-.184-.862l.7-1.082-.319-.208.133-.2.319.208.254-.391.241.157-.254.391.543.354-.133.2-.543-.354-.694 1.068a.4.4 0 0 0-.078.3.362.362 0 0 0 .175.233.529.529 0 0 0 .16.07.423.423 0 0 0 .165.011z" transform="translate(-433.876 -191.639)" style="fill:#3966a9"/>
        <path data-name="Trazado 1832" d="m461.055 261.744.248.146-1.076 1.843-.248-.146zm.262-.458a.2.2 0 0 1 .021-.157.2.2 0 0 1 .124-.092.2.2 0 0 1 .16.023.208.208 0 0 1 .1.127.189.189 0 0 1-.018.152.212.212 0 0 1-.387-.053" transform="translate(-437.941 -193.47)" style="fill:#3966a9"/>
        <path data-name="Trazado 1833" d="M465.558 267.59a1.025 1.025 0 0 1-.173-.522 1.176 1.176 0 0 1 .5-1 1 1 0 0 1 .521-.169 1.187 1.187 0 0 1 .99.5 1 1 0 0 1 .172.519 1.192 1.192 0 0 1-.5 1 1 1 0 0 1-.52.171 1.171 1.171 0 0 1-.991-.5m.957.239a.718.718 0 0 0 .384-.135.98.98 0 0 0 .391-.775.722.722 0 0 0-.119-.39.854.854 0 0 0-.726-.368.734.734 0 0 0-.386.135.964.964 0 0 0-.391.775.737.737 0 0 0 .121.391.853.853 0 0 0 .727.368m1.078-2.4.343.174-.812.153-.253-.128z" transform="translate(-441.952 -196.729)" style="fill:#3966a9"/>
        <path data-name="Trazado 1834" d="M477.193 271.753a.915.915 0 0 1-.033.72l-.46 1.149-.267-.107.45-1.123a.709.709 0 0 0 .034-.533.624.624 0 0 0-.375-.339.727.727 0 0 0-.582-.013.774.774 0 0 0-.4.451l-.416 1.04-.267-.107.793-1.982.256.1-.146.366a.8.8 0 0 1 .415-.159 1.041 1.041 0 0 1 .489.081.871.871 0 0 1 .505.455" transform="translate(-449 -200.794)" style="fill:#3966a9"/>
        <path data-name="Trazado 2300" d="M0 0h2.841v.3H0z" transform="rotate(-74.21 63.731 16.9)" style="fill:#3966a9"/>
        <path data-name="Trazado 1835" d="M499.008 278.445a.913.913 0 0 1 .091.714l-.256 1.211-.281-.06.25-1.184a.708.708 0 0 0-.058-.531.622.622 0 0 0-.427-.269.727.727 0 0 0-.575.087.777.777 0 0 0-.313.513l-.232 1.1-.281-.06.441-2.089.27.057-.081.385a.8.8 0 0 1 .382-.228 1.042 1.042 0 0 1 .5 0 .87.87 0 0 1 .576.361" transform="translate(-465.358 -205.959)" style="fill:#3966a9"/>
        <path data-name="Trazado 1836" d="M509.612 280.85a.545.545 0 0 1-.214.083.806.806 0 0 1-.252 0 .565.565 0 0 1-.534-.7l.175-1.279-.377-.051.033-.242.377.052.063-.463.285.039-.063.463.642.088-.033.241-.642-.088-.172 1.263a.4.4 0 0 0 .055.3.361.361 0 0 0 .257.136.518.518 0 0 0 .174 0 .425.425 0 0 0 .153-.061z" transform="translate(-473.879 -206.241)" style="fill:#3966a9"/>
        <path data-name="Trazado 1837" d="m517.5 282.273-1.778-.126a.767.767 0 0 0 .217.555.848.848 0 0 0 .567.246.916.916 0 0 0 .369-.045.793.793 0 0 0 .3-.188l.149.2a.913.913 0 0 1-.372.234 1.2 1.2 0 0 1-.473.056 1.182 1.182 0 0 1-.57-.181 1.01 1.01 0 0 1-.367-.415 1.106 1.106 0 0 1-.1-.569 1.146 1.146 0 0 1 .175-.549.984.984 0 0 1 .4-.359 1.04 1.04 0 0 1 .541-.1 1.028 1.028 0 0 1 .52.175.98.98 0 0 1 .341.409 1.159 1.159 0 0 1 .094.57zm-1.49-.836a.774.774 0 0 0-.272.5l1.507.107a.776.776 0 0 0-.2-.529.781.781 0 0 0-1.034-.073" transform="translate(-479.098 -208.297)" style="fill:#3966a9"/>
        <path data-name="Trazado 1838" d="m528.163 281.347.03 1.876a.936.936 0 0 1-1.048 1.085 1.782 1.782 0 0 1-.562-.078 1.152 1.152 0 0 1-.435-.234l.142-.222a1.094 1.094 0 0 0 .378.209 1.4 1.4 0 0 0 .465.07.818.818 0 0 0 .592-.2.8.8 0 0 0 .181-.59v-.272a.868.868 0 0 1-.345.314 1.083 1.083 0 0 1-.478.114 1.133 1.133 0 0 1-.547-.123.973.973 0 0 1-.391-.363 1.046 1.046 0 0 1-.148-.536 1.031 1.031 0 0 1 .131-.538.965.965 0 0 1 .377-.371 1.141 1.141 0 0 1 .545-.139 1.078 1.078 0 0 1 .492.1.883.883 0 0 1 .358.311l-.007-.41zm-.645 1.71a.718.718 0 0 0 .285-.283.8.8 0 0 0 .1-.407.786.786 0 0 0-.11-.4.724.724 0 0 0-.292-.271.867.867 0 0 0-.421-.093.876.876 0 0 0-.414.1.709.709 0 0 0-.283.281.851.851 0 0 0 .013.812.72.72 0 0 0 .292.273.861.861 0 0 0 .417.093.873.873 0 0 0 .416-.106" transform="translate(-486.927 -208.534)" style="fill:#3966a9"/>
        <path data-name="Trazado 1839" d="M538.86 280.821a1.028 1.028 0 0 1 .485-.152l.024.279h-.069a.682.682 0 0 0-.508.251.828.828 0 0 0-.14.595l.093 1.084-.287.025-.182-2.128.275-.024.035.417a.7.7 0 0 1 .273-.349" transform="translate(-496.042 -208.031)" style="fill:#3966a9"/>
        <path data-name="Trazado 1840" d="M546.331 279.99a.807.807 0 0 1 .313.578l.2 1.308-.272.042-.05-.329a.658.658 0 0 1-.243.3 1 1 0 0 1-.428.16.877.877 0 0 1-.586-.083.588.588 0 0 1-.148-.877.959.959 0 0 1 .594-.259l.669-.1-.019-.129a.547.547 0 0 0-.215-.392.635.635 0 0 0-.466-.074 1.144 1.144 0 0 0-.374.125.985.985 0 0 0-.289.231l-.16-.193a1.153 1.153 0 0 1 .352-.269 1.518 1.518 0 0 1 .461-.146.9.9 0 0 1 .664.11m-.076 1.654a.67.67 0 0 0 .208-.358l-.053-.345-.661.1q-.541.082-.483.46a.349.349 0 0 0 .184.27.643.643 0 0 0 .409.046.756.756 0 0 0 .4-.173" transform="translate(-500.923 -207.434)" style="fill:#3966a9"/>
        <path data-name="Rectángulo 253" transform="rotate(-12.066 360.403 -183.77)" style="fill:#3966a9" d="M0 0h.286v3.012H0z"/>
        <path data-name="Trazado 1841" d="m566.465 270.806.93 2.865-.262.085-.13-.4a.882.882 0 0 1-.224.419 1 1 0 0 1-.421.257 1.076 1.076 0 0 1-.559.037.984.984 0 0 1-.481-.249 1.224 1.224 0 0 1-.348-1.073.977.977 0 0 1 .244-.483 1.1 1.1 0 0 1 .474-.3 1.006 1.006 0 0 1 .478-.043.883.883 0 0 1 .422.193l-.4-1.22zm.188 2.75a.732.732 0 0 0 .179-.368.963.963 0 0 0-.268-.826.733.733 0 0 0-.361-.192.794.794 0 0 0-.415.026.806.806 0 0 0-.355.225.734.734 0 0 0-.179.368.966.966 0 0 0 .268.826.73.73 0 0 0 .361.192.843.843 0 0 0 .77-.251" transform="translate(-515.834 -200.718)" style="fill:#3966a9"/>
        <path data-name="Trazado 1842" d="m577.949 271.794-1.642.7a.761.761 0 0 0 .444.4.845.845 0 0 0 .617-.038.923.923 0 0 0 .308-.208.8.8 0 0 0 .184-.3l.222.109a.919.919 0 0 1-.225.378 1.2 1.2 0 0 1-.4.265 1.179 1.179 0 0 1-.59.1 1.006 1.006 0 0 1-.514-.2 1.106 1.106 0 0 1-.348-.461 1.147 1.147 0 0 1-.092-.569.984.984 0 0 1 .194-.5 1.04 1.04 0 0 1 .437-.335 1.027 1.027 0 0 1 .542-.08.976.976 0 0 1 .489.209 1.157 1.157 0 0 1 .341.466zm-1.706-.069a.775.775 0 0 0-.019.565l1.392-.589a.774.774 0 0 0-.418-.381.782.782 0 0 0-.955.4" transform="translate(-523.967 -200.882)" style="fill:#3966a9"/>
        <path data-name="Trazado 2301" d="M0 0h.288v3.011H0z" transform="rotate(-26.359 173.627 -80.625)" style="fill:#3966a9"/>
        <path data-name="Trazado 1843" d="m596.972 260.467-1.334.849.119.824-.263.168-.425-3.1.249-.159 2.614 1.7-.267.17zm-.222-.147-1.391-.923.242 1.654z" transform="translate(-538.185 -192.003)" style="fill:#3966a9"/>
        <path data-name="Trazado 1844" d="m605.721 252.659 1.142 1.486a1.089 1.089 0 0 1 .281.8 1.1 1.1 0 0 1-.474.7 1.787 1.787 0 0 1-.5.274 1.148 1.148 0 0 1-.489.072l-.018-.263a1.1 1.1 0 0 0 .428-.059 1.4 1.4 0 0 0 .414-.223.821.821 0 0 0 .357-.514.8.8 0 0 0-.207-.581l-.166-.215a.87.87 0 0 1-.09.459 1.079 1.079 0 0 1-.316.377 1.132 1.132 0 0 1-.512.229.972.972 0 0 1-.53-.057 1.1 1.1 0 0 1-.654-.85.972.972 0 0 1 .081-.524 1.15 1.15 0 0 1 .354-.437 1.078 1.078 0 0 1 .455-.213.881.881 0 0 1 .472.035l-.25-.325zm.5 1.757a.718.718 0 0 0 .06-.4.8.8 0 0 0-.165-.385.78.78 0 0 0-.328-.256.721.721 0 0 0-.4-.043.865.865 0 0 0-.392.178.88.88 0 0 0-.27.331.709.709 0 0 0-.06.395.846.846 0 0 0 .494.643.718.718 0 0 0 .4.044.858.858 0 0 0 .389-.175.872.872 0 0 0 .27-.334" transform="translate(-545.097 -187.263)" style="fill:#3966a9"/>
        <path data-name="Trazado 1845" d="m613.844 245.152 1.445 1.569-.2.187-.264-.286a.789.789 0 0 1-.024.434.943.943 0 0 1-.261.388.824.824 0 0 1-1.282-.063l-.838-.91.211-.2.819.889a.71.71 0 0 0 .468.263.623.623 0 0 0 .466-.194.7.7 0 0 0 .251-.512.8.8 0 0 0-.243-.551l-.758-.823z" transform="translate(-551.059 -181.697)" style="fill:#3966a9"/>
        <path data-name="Trazado 1846" d="M622.062 238.949a.806.806 0 0 1 .606.254l.973.895-.186.2-.245-.225a.665.665 0 0 1 0 .387 1 1 0 0 1-.234.394.875.875 0 0 1-.509.3.586.586 0 0 1-.663-.591.963.963 0 0 1 .3-.575l.457-.5-.1-.088a.545.545 0 0 0-.413-.17.635.635 0 0 0-.41.235 1.151 1.151 0 0 0-.214.332.988.988 0 0 0-.08.361l-.246-.05a1.151 1.151 0 0 1 .106-.431 1.512 1.512 0 0 1 .268-.4.9.9 0 0 1 .587-.331m.975 1.337a.67.67 0 0 0-.062-.41l-.257-.236-.452.494q-.369.4-.089.662a.348.348 0 0 0 .312.094.645.645 0 0 0 .347-.221.76.76 0 0 0 .2-.383" transform="translate(-557.502 -177.097)" style="fill:#3966a9"/>
        <path data-name="Trazado 1847" d="m502.9 108.974.633-.939c.243-.361.482-.724.729-1.082a.519.519 0 0 1 .921-.007c1.169 1.729 2.358 3.446 3.486 5.2a4.579 4.579 0 0 1-.65 5.691.635.635 0 0 0-.2.57 9.738 9.738 0 0 1-8.85 10.641 9.75 9.75 0 0 1-8.753-15.336q3.684-5.43 7.318-10.894c.438-.659.859-.576 1.234 0 1.3 1.994 2.649 3.962 3.979 5.939.044.065.09.128.152.217m-4.744-5.17c-.077.11-.132.187-.185.266-2.291 3.406-4.568 6.821-6.876 10.215a8.684 8.684 0 1 0 15.606 6.537 8.038 8.038 0 0 0 .1-2.069c-.11.044-.2.077-.284.113a4.645 4.645 0 0 1-5.631-6.9c.4-.6.8-1.2 1.213-1.793a.37.37 0 0 0 .007-.5c-.883-1.293-1.751-2.6-2.624-3.894l-1.329-1.976m6.567 4.334c-1.054 1.572-2.1 3.092-3.1 4.64a3.309 3.309 0 0 0-.41 2.565 3.568 3.568 0 0 0 2.831 2.77 3.48 3.48 0 0 0 3.679-1.567 3.549 3.549 0 0 0-.041-4.006l-1.5-2.23-1.463-2.173" transform="translate(-459.054 -75.822)" style="fill:#fff"/>
        <path data-name="Trazado 1848" d="M498.546 151.358c.49 0 .735.369.592.713a1.249 1.249 0 0 1-.133.223 6.144 6.144 0 0 0 1.006 8.192 6.059 6.059 0 0 0 2.1 1.182c.368.123.523.381.423.686a.525.525 0 0 1-.74.31 7.2 7.2 0 0 1-3.606-11.006 1.438 1.438 0 0 1 .363-.3" transform="translate(-465.28 -112.154)" style="fill:#fff"/>
        <path data-name="Trazado 1849" d="M521.81 193.95a.519.519 0 0 1-.011-1.038.519.519 0 1 1 .011 1.038" transform="translate(-483.436 -142.964)" style="fill:#fff"/>
        <path data-name="Trazado 1850" d="M541.669 144.06c-.015.049-.045.157-.082.263a1.81 1.81 0 0 0 .593 2.041.975.975 0 0 1 .3.4.447.447 0 0 1-.2.524.492.492 0 0 1-.608 0 2.734 2.734 0 0 1-1.231-2.452 4 4 0 0 1 .244-1.059.486.486 0 0 1 .6-.285.545.545 0 0 1 .376.569" transform="translate(-497.649 -106.306)" style="fill:#fff"/>
        <path data-name="Trazado 1851" d="M550.682 156.957a.531.531 0 0 1-.535.524.523.523 0 0 1-.5-.526.513.513 0 0 1 .507-.519.519.519 0 0 1 .533.521" transform="translate(-504.476 -115.919)" style="fill:#fff"/>
    </g>
</svg>
