<svg xmlns="http://www.w3.org/2000/svg" width="79.322" height="79.631" viewBox="0 0 79.322 79.631">
    <g data-name="Grupo 1238">
        <path data-name="Trazado 1897" d="M1203.661 39.871A39.661 39.661 0 1 1 1164 .056a39.738 39.738 0 0 1 39.661 39.815" transform="translate(-1124.338 -.056)" style="fill:#fff"/>
        <path data-name="Trazado 1898" d="M1186.627 86q0 1.069.093 2.114c16.689 7.311 24.516-8.349 34.99-7.873a24.147 24.147 0 0 1 12.185 3.758 23.674 23.674 0 0 0-47.268 2" transform="translate(-1170.559 -46.179)" style="fill:#ffce00"/>
        <path data-name="Trazado 1899" d="M1186.988 139.615a23.674 23.674 0 0 0 47.258-2.114q0-1.011-.083-2a24.147 24.147 0 0 0-12.185-3.758c-10.473-.475-18.3 15.185-34.99 7.874" transform="translate(-1170.827 -97.685)" style="fill:#eb6344"/>
        <path data-name="Trazado 1900" d="m1138 160.007-6.375-2.229-6.159 2.835v-.03l-.091-.91 6.207-2.858 6.3 2.2a.039.039 0 0 0 0 .01z" transform="translate(-1125.104 -116.284)" style="fill:#ffce00"/>
        <path data-name="Trazado 1901" d="m1395.555 162.324-6.667 2.113-5.817-2.89c-.022.32-.05.639-.083.956l5.827 2.9 6.665-2.112z" transform="translate(-1316.268 -119.791)" style="fill:#ffce00"/>
        <path data-name="Trazado 1902" d="M1174.151 184.812a28.043 28.043 0 0 0 53.4 0c.077-.223.166-.539.26-.893h-.918a27.142 27.142 0 0 1-52.083 0h-.919c.095.354.184.672.261.893" transform="translate(-1161.108 -136.38)" style="fill:#ffce00"/>
        <path data-name="Trazado 1903" d="M1204.382 183.918c-.08.41-.154.74-.2.893a38.821 38.821 0 0 1-75.732 0 12.08 12.08 0 0 1-.2-.893h-.9a39.7 39.7 0 0 0 77.929 0z" transform="translate(-1126.577 -136.379)" style="fill:#ffce00"/>
        <path data-name="Trazado 1904" d="m1202.992 31.666.041-.052a39.735 39.735 0 0 0-78.322 3.57l.037-.011a40.228 40.228 0 0 0-.273 4.133l6.273-2.554 6.287 2.743a27.164 27.164 0 0 1 8.072-18.961l.02-.02c.1-.1.21-.2.316-.3.084-.08.168-.161.253-.239l.087-.08a27.137 27.137 0 0 1 45.363 17.205l7.121 4.215 5.374-5.532a39.544 39.544 0 0 0-.648-4.115" transform="translate(-1124.439 -.084)" style="fill:#eb6344"/>
        <path data-name="Trazado 1905" d="m1157.264 81.893.979.535-1.962 3.606-4.48-2.45 1.917-3.522.979.535-1.232 2.265.755.413 1.086-2 .948.518-1.086 2 .819.448z" transform="translate(-1144.717 -59.376)" style="fill:#fff"/>
        <path data-name="Trazado 1906" d="M1169.84 67.289a2.529 2.529 0 0 1-1.362.207 2.76 2.76 0 0 1-2.157-1.7 2.547 2.547 0 0 1-.124-1.374 3.03 3.03 0 0 1 .622-1.345 3.1 3.1 0 0 1 .973-.841 2.425 2.425 0 0 1 1.138-.294l.087 1.238a1.512 1.512 0 0 0-1.213.579 1.489 1.489 0 0 0-.313.7 1.272 1.272 0 0 0 .094.715 1.715 1.715 0 0 0 1.2.942 1.261 1.261 0 0 0 .715-.079 1.484 1.484 0 0 0 .6-.471 1.518 1.518 0 0 0 .272-1.318l1.221-.21a2.437 2.437 0 0 1-.014 1.178 3.1 3.1 0 0 1-.583 1.148 3.022 3.022 0 0 1-1.155.926" transform="translate(-1155.368 -45.942)" style="fill:#fff"/>
        <path data-name="Trazado 1907" d="m1182.058 43.06 3.389 3.825-1.08.961-1.321-1.492-1.472 1.31 1.322 1.492-1.079.961-3.389-3.825 1.08-.961 1.273 1.437 1.472-1.31-1.274-1.437z" transform="translate(-1164.474 -31.94)" style="fill:#fff"/>
        <path data-name="Trazado 1908" d="m1207.692 35.851-1.85 1.113.167 1.059-1.263.76-.7-5.548 1.219-.734 4.564 3.22-1.287.775zm-.91-.7-1.4-1.065.278 1.742z" transform="translate(-1183.488 -24.113)" style="fill:#fff"/>
        <path data-name="Trazado 1909" d="m1225.587 19.4 1.769 4.8-1.114.413-3.056-1.774.943 2.556-1.327.492-1.77-4.8 1.115-.413 3.056 1.774-.943-2.557z" transform="translate(-1196.09 -14.399)" style="fill:#fff"/>
        <path data-name="Trazado 1910" d="m1246.026 16.159 2.381-.391a3.372 3.372 0 0 1 1.519.069 2.363 2.363 0 0 1 1.136.716 2.735 2.735 0 0 1 .436 2.668 2.363 2.363 0 0 1-.849 1.043 3.369 3.369 0 0 1-1.417.551l-2.381.391zm2.963 3.526a1.477 1.477 0 0 0 .979-.539 1.533 1.533 0 0 0-.332-2.033 1.476 1.476 0 0 0-1.1-.2l-.9.148.453 2.769z" transform="translate(-1214.636 -11.664)" style="fill:#fff"/>
        <path data-name="Trazado 1911" d="M1272.74 18.611a2.618 2.618 0 0 1 .14-4.631 3.251 3.251 0 0 1 2.908.088 2.618 2.618 0 0 1-.14 4.631 3.252 3.252 0 0 1-2.908-.088m2.185-.972a1.314 1.314 0 0 0 .511-.5 1.691 1.691 0 0 0 .046-1.527 1.318 1.318 0 0 0-.48-.53 1.432 1.432 0 0 0-1.4-.042 1.312 1.312 0 0 0-.511.5 1.692 1.692 0 0 0-.046 1.527 1.31 1.31 0 0 0 .48.53 1.431 1.431 0 0 0 1.4.042" transform="translate(-1233.485 -10.157)" style="fill:#fff"/>
        <path data-name="Trazado 1912" d="m1307.474 21.721-.754-.227-.39 1.3-1.382-.416 1.468-4.9 2.234.673a2.91 2.91 0 0 1 1.086.567 1.789 1.789 0 0 1 .565.857 1.808 1.808 0 0 1-.023 1.042 1.785 1.785 0 0 1-.526.853 1.751 1.751 0 0 1-.894.406l.593 1.857-1.48-.446zm1.351-2.119a1 1 0 0 0-.586-.382l-.768-.231-.43 1.435.768.231a1.008 1.008 0 0 0 .7.008.688.688 0 0 0 .375-.463.7.7 0 0 0-.057-.6" transform="translate(-1258.358 -12.975)" style="fill:#fff"/>
        <path data-name="Trazado 1913" d="m1326.78 32.467-1.922-.983-.808.7-1.312-.671 4.326-3.53 1.267.648-.307 5.586-1.338-.684zm.107-1.143.158-1.757-1.327 1.159z" transform="translate(-1271.56 -20.763)" style="fill:#fff"/>
        <path data-name="Trazado 1914" d="m1347.513 35.37 1.186.825-2.911 4.2-1.186-.825zm1.678-.692 1.138.792-1.758.129-.814-.567z" transform="translate(-1287.784 -25.726)" style="fill:#fff"/>
        <path data-name="Trazado 1915" d="M1356.217 51.353a2.548 2.548 0 0 1-.109-1.376 2.762 2.762 0 0 1 1.841-2.036 2.529 2.529 0 0 1 1.377-.026 3.023 3.023 0 0 1 1.295.717 3.109 3.109 0 0 1 .768 1.033 2.437 2.437 0 0 1 .211 1.159h-1.239a1.516 1.516 0 0 0-.49-1.254 1.481 1.481 0 0 0-.671-.363 1.26 1.26 0 0 0-.718.043 1.715 1.715 0 0 0-1.023 1.131 1.271 1.271 0 0 0 .027.72 1.484 1.484 0 0 0 .426.633 1.507 1.507 0 0 0 1.292.366l.123 1.236a2.422 2.422 0 0 1-1.172-.1 3.093 3.093 0 0 1-1.1-.665 3.03 3.03 0 0 1-.839-1.221" transform="translate(-1296.286 -35.479)" style="fill:#fff"/>
        <path data-name="Trazado 1916" d="m1371.529 67.042-.875.694-2.542-3.221 4-3.174 2.483 3.146-.875.694-1.6-2.023-.675.535 1.407 1.783-.846.671-1.406-1.782-.732.58z" transform="translate(-1305.229 -45.495)" style="fill:#fff"/>
        <path data-name="Trazado 1917" d="M1380.677 83.1a2.966 2.966 0 0 1-.11-1.029l1.16-.11a3.071 3.071 0 0 0 .073.873 3.02 3.02 0 0 0 .316.845q.408.726.77.521a.345.345 0 0 0 .166-.366 4.359 4.359 0 0 0-.18-.775 7.318 7.318 0 0 1-.241-.971 1.627 1.627 0 0 1 .071-.8 1.232 1.232 0 0 1 .6-.658 1.463 1.463 0 0 1 .859-.192 1.707 1.707 0 0 1 .892.373 3.15 3.15 0 0 1 .8.978 4.4 4.4 0 0 1 .389.921 3.056 3.056 0 0 1 .133.914l-1.152.139a2.988 2.988 0 0 0-.352-1.429 1.189 1.189 0 0 0-.419-.485.381.381 0 0 0-.386-.009.33.33 0 0 0-.152.354 4.27 4.27 0 0 0 .185.76 7.1 7.1 0 0 1 .243.975 1.68 1.68 0 0 1-.068.8 1.21 1.21 0 0 1-.6.659 1.432 1.432 0 0 1-.849.186 1.737 1.737 0 0 1-.893-.376 3.109 3.109 0 0 1-.8-.973 4.73 4.73 0 0 1-.457-1.126" transform="translate(-1314.464 -59.645)" style="fill:#fff"/>
        <path data-name="Trazado 1918" d="M1188.9 248.185a.7.7 0 0 1-.189.451.652.652 0 0 1-.571.247 1.34 1.34 0 0 1-.729-.374l-.985-.857 1.859-2.146.924.8a1.232 1.232 0 0 1 .43.627.629.629 0 0 1-.156.579.677.677 0 0 1-.349.226.69.69 0 0 1-.4-.024.754.754 0 0 1 .168.466m-.812.414a.451.451 0 0 0 .412-.179q.348-.4-.233-.907l-.755-.657-.7.806.755.657a1.039 1.039 0 0 0 .519.28m.26-2.709-.674.779.682.594a.91.91 0 0 0 .487.249.487.487 0 0 0 .5-.579.917.917 0 0 0-.314-.448z" transform="translate(-1170.407 -182.043)" style="fill:#eb6344"/>
        <path data-name="Trazado 1919" d="m1197.646 253.584.229.173-1.283 1.7-.229-.174zm.314-.424a.2.2 0 0 1 .039-.153.2.2 0 0 1 .134-.077.206.206 0 0 1 .156.042.209.209 0 0 1 .084.138.188.188 0 0 1-.036.148.212.212 0 0 1-.378-.1" transform="translate(-1177.784 -187.546)" style="fill:#eb6344"/>
        <path data-name="Trazado 1920" d="M1201.734 261.088a1.025 1.025 0 0 1-.111-.539 1.177 1.177 0 0 1 .617-.934 1 1 0 0 1 .537-.106 1.186 1.186 0 0 1 .925.614 1 1 0 0 1 .11.535 1.191 1.191 0 0 1-.617.934 1 1 0 0 1-.536.109 1.171 1.171 0 0 1-.925-.614m.923.35a.719.719 0 0 0 .4-.089.979.979 0 0 0 .479-.724.722.722 0 0 0-.073-.4.852.852 0 0 0-.679-.451.736.736 0 0 0-.4.088.966.966 0 0 0-.479.724.738.738 0 0 0 .075.4.855.855 0 0 0 .678.451" transform="translate(-1181.686 -192.423)" style="fill:#eb6344"/>
        <path data-name="Trazado 1921" d="m1213.909 264.387-1.438 2.645-.242-.132.2-.371a.876.876 0 0 1-.458.125 1 1 0 0 1-.476-.131 1.085 1.085 0 0 1-.411-.382.991.991 0 0 1-.15-.521 1.224 1.224 0 0 1 .539-.991.966.966 0 0 1 .517-.154 1.089 1.089 0 0 1 .542.141 1.008 1.008 0 0 1 .36.319.893.893 0 0 1 .15.44l.613-1.126zm-1.865 2.026a.733.733 0 0 0 .39-.122.965.965 0 0 0 .415-.763.738.738 0 0 0-.108-.394.847.847 0 0 0-.711-.389.735.735 0 0 0-.389.123.963.963 0 0 0-.415.763.736.736 0 0 0 .109.395.844.844 0 0 0 .711.389" transform="translate(-1188.597 -195.94)" style="fill:#eb6344"/>
        <path data-name="Trazado 1922" d="m1221.763 267.247.261.121-.9 1.937-.261-.121zm.218-.48a.2.2 0 0 1 .006-.158.194.194 0 0 1 .115-.1.2.2 0 0 1 .161.008.207.207 0 0 1 .111.117.186.186 0 0 1 0 .153.207.207 0 0 1-.28.1.206.206 0 0 1-.11-.118" transform="translate(-1195.966 -197.603)" style="fill:#eb6344"/>
        <path data-name="Trazado 1923" d="m1229.5 271.715-1.667 1.634-.275-.11-.091-2.334.279.111.072 1.985 1.419-1.392z" transform="translate(-1200.868 -200.875)" style="fill:#eb6344"/>
        <path data-name="Trazado 1924" d="m1237.088 276.866-1.7-.533a.765.765 0 0 0 .083.59.845.845 0 0 0 .5.37.92.92 0 0 0 .369.041.791.791 0 0 0 .337-.114l.1.227a.908.908 0 0 1-.415.142 1.2 1.2 0 0 1-.473-.055 1.18 1.18 0 0 1-.513-.307 1.009 1.009 0 0 1-.262-.488 1.11 1.11 0 0 1 .031-.577 1.148 1.148 0 0 1 .3-.494.986.986 0 0 1 .47-.257 1.093 1.093 0 0 1 1.015.318.978.978 0 0 1 .238.477 1.155 1.155 0 0 1-.04.577zm-1.258-1.158a.772.772 0 0 0-.379.419l1.442.452a.777.777 0 0 0-.073-.561.733.733 0 0 0-.438-.344.723.723 0 0 0-.552.034" transform="translate(-1206.516 -204.197)" style="fill:#eb6344"/>
        <path data-name="Trazado 1925" d="M1246.269 277.8a1.023 1.023 0 0 1 .508.009l-.065.272-.066-.02a.68.68 0 0 0-.56.079.824.824 0 0 0-.32.52l-.252 1.058-.28-.067.5-2.077.268.064-.1.407a.7.7 0 0 1 .369-.246" transform="translate(-1214.048 -205.816)" style="fill:#eb6344"/>
        <path data-name="Trazado 1926" d="M1251.915 281.36a1.07 1.07 0 0 1-.333-.25l.167-.2a1.088 1.088 0 0 0 .3.228 1.324 1.324 0 0 0 .4.139.8.8 0 0 0 .441-.015.29.29 0 0 0 .182-.23.234.234 0 0 0-.044-.2.516.516 0 0 0-.174-.134 2.8 2.8 0 0 0-.3-.12 3.494 3.494 0 0 1-.393-.17.612.612 0 0 1-.236-.217.481.481 0 0 1-.051-.351.528.528 0 0 1 .295-.393 1 1 0 0 1 .64-.06 1.609 1.609 0 0 1 .4.126 1.147 1.147 0 0 1 .31.2l-.163.206a1.074 1.074 0 0 0-.587-.289.726.726 0 0 0-.426.024.3.3 0 0 0-.182.228.253.253 0 0 0 .044.206.486.486 0 0 0 .175.14 3.142 3.142 0 0 0 .307.126 3.761 3.761 0 0 1 .386.167.605.605 0 0 1 .231.21.458.458 0 0 1 .052.339.517.517 0 0 1-.306.4 1.1 1.1 0 0 1-.664.05 1.629 1.629 0 0 1-.476-.16" transform="translate(-1218.759 -207.148)" style="fill:#eb6344"/>
        <path data-name="Trazado 1927" d="m1261.615 277.969.285.035-.256 2.12-.285-.035zm.059-.524a.2.2 0 0 1-.043-.153.2.2 0 0 1 .077-.134.2.2 0 0 1 .156-.042.208.208 0 0 1 .142.076.19.19 0 0 1 .043.146.212.212 0 0 1-.376.106" transform="translate(-1226.014 -205.478)" style="fill:#eb6344"/>
        <path data-name="Trazado 1928" d="m1268.5 277.994-.171 3.008-.275-.015.024-.421a.88.88 0 0 1-.36.309 1 1 0 0 1-.486.086 1.081 1.081 0 0 1-.534-.169.985.985 0 0 1-.358-.407 1.226 1.226 0 0 1 .064-1.127.97.97 0 0 1 .4-.361 1.092 1.092 0 0 1 .549-.1 1 1 0 0 1 .461.134.89.89 0 0 1 .324.334l.073-1.281zm-.821 2.631a.733.733 0 0 0 .3-.278.967.967 0 0 0 .049-.867.736.736 0 0 0-.267-.31.845.845 0 0 0-.809-.046.737.737 0 0 0-.3.278.963.963 0 0 0-.049.867.734.734 0 0 0 .266.31.844.844 0 0 0 .809.046" transform="translate(-1229.627 -206.119)" style="fill:#eb6344"/>
        <path data-name="Trazado 1929" d="M1279.651 281.511a.81.81 0 0 1 .239.613l.034 1.323-.275.007-.008-.333a.658.658 0 0 1-.279.267 1 1 0 0 1-.445.1.875.875 0 0 1-.571-.156.588.588 0 0 1-.037-.888.961.961 0 0 1 .622-.183l.676-.017v-.13a.549.549 0 0 0-.165-.416.635.635 0 0 0-.453-.133 1.144 1.144 0 0 0-.387.077.984.984 0 0 0-.315.193l-.135-.212a1.146 1.146 0 0 1 .383-.223 1.516 1.516 0 0 1 .476-.087.9.9 0 0 1 .645.193m-.282 1.632a.667.667 0 0 0 .251-.329l-.009-.349-.668.017q-.547.014-.537.4a.349.349 0 0 0 .15.291.642.642 0 0 0 .4.1.756.756 0 0 0 .414-.122" transform="translate(-1238.453 -208.595)" style="fill:#eb6344"/>
        <path data-name="Trazado 1930" d="m1290.2 276.879.327 2.995-.274.03-.046-.42a.877.877 0 0 1-.3.364 1 1 0 0 1-.465.165 1.076 1.076 0 0 1-.554-.078.985.985 0 0 1-.42-.342 1.224 1.224 0 0 1-.122-1.122.969.969 0 0 1 .337-.423 1.093 1.093 0 0 1 .525-.194 1 1 0 0 1 .477.056.89.89 0 0 1 .375.276l-.14-1.275zm-.376 2.731a.735.735 0 0 0 .25-.323.967.967 0 0 0-.094-.864.733.733 0 0 0-.314-.262.8.8 0 0 0-.412-.059.8.8 0 0 0-.393.147.735.735 0 0 0-.25.323.967.967 0 0 0 .094.864.737.737 0 0 0 .314.262.844.844 0 0 0 .806-.088" transform="translate(-1245.974 -205.304)" style="fill:#eb6344"/>
        <path data-name="Trazado 1931" d="m1305.42 277.142-.5 2.571a1.02 1.02 0 0 1-.2.483.67.67 0 0 1-.37.216.832.832 0 0 1-.291.018.624.624 0 0 1-.258-.09l.081-.24a.53.53 0 0 0 .415.07.393.393 0 0 0 .224-.136.742.742 0 0 0 .125-.313l.044-.223-1.41-1.86.292-.068 1.192 1.585.37-1.95z" transform="translate(-1257.129 -205.499)" style="fill:#eb6344"/>
        <path data-name="Trazado 1932" d="M1319.651 270.634a.98.98 0 0 1 .491 1.339 1.287 1.287 0 0 1-.71.536l-.715.263.309.842-.281.1-.977-2.668 1-.367a1.277 1.277 0 0 1 .888-.05m.224 1.234a.732.732 0 0 0-.362-.987.984.984 0 0 0-.668.049l-.707.26.489 1.334.707-.26a.989.989 0 0 0 .541-.4" transform="translate(-1267.871 -200.63)" style="fill:#eb6344"/>
        <path data-name="Trazado 1933" d="M1330.8 269.135a.807.807 0 0 1 .463.466l.558 1.2-.249.117-.141-.3a.662.662 0 0 1-.149.356.994.994 0 0 1-.366.274.875.875 0 0 1-.586.086.587.587 0 0 1-.388-.8.963.963 0 0 1 .5-.416l.613-.287-.055-.118a.546.546 0 0 0-.317-.315.635.635 0 0 0-.468.06 1.138 1.138 0 0 0-.324.226.978.978 0 0 0-.212.3l-.208-.14a1.152 1.152 0 0 1 .262-.358 1.516 1.516 0 0 1 .4-.271.9.9 0 0 1 .669-.082m.391 1.609a.668.668 0 0 0 .1-.4l-.147-.316-.606.284q-.5.231-.335.577a.348.348 0 0 0 .253.207.642.642 0 0 0 .405-.071.759.759 0 0 0 .331-.278" transform="translate(-1276.551 -199.538)" style="fill:#eb6344"/>
        <path data-name="Trazado 1934" d="M1337.056 263.454a.2.2 0 0 1-.123-.1.194.194 0 0 1-.014-.154.2.2 0 0 1 .1-.125.207.207 0 0 1 .16-.02.189.189 0 0 1 .12.094.205.205 0 0 1 .018.161.215.215 0 0 1-.264.143m.254.462.253-.137 1.014 1.878-.253.137z" transform="translate(-1282.076 -195.049)" style="fill:#eb6344"/>
        <path data-name="Trazado 1935" d="M1344.112 264.084a1.066 1.066 0 0 1-.414.033l-.008-.262a1.087 1.087 0 0 0 .377-.029 1.343 1.343 0 0 0 .394-.163.8.8 0 0 0 .32-.3.291.291 0 0 0-.015-.293.231.231 0 0 0-.162-.117.511.511 0 0 0-.219.015 2.841 2.841 0 0 0-.3.106 3.557 3.557 0 0 1-.408.133.615.615 0 0 1-.32-.006.481.481 0 0 1-.271-.229.529.529 0 0 1-.038-.491 1 1 0 0 1 .44-.47 1.6 1.6 0 0 1 .381-.169 1.135 1.135 0 0 1 .365-.055l.013.263a1.073 1.073 0 0 0-.63.173.729.729 0 0 0-.3.3.3.3 0 0 0 .014.291.254.254 0 0 0 .169.125.483.483 0 0 0 .223-.011 3.169 3.169 0 0 0 .313-.109 3.657 3.657 0 0 1 .4-.131.6.6 0 0 1 .311 0 .457.457 0 0 1 .262.22.516.516 0 0 1 .033.5 1.109 1.109 0 0 1-.465.478 1.63 1.63 0 0 1-.462.2" transform="translate(-1286.599 -194.112)" style="fill:#eb6344"/>
        <path data-name="Trazado 1936" d="M1351.381 256.942a.807.807 0 0 1 .541.373l.769 1.076-.224.161-.194-.271a.658.658 0 0 1-.081.378 1 1 0 0 1-.309.337.875.875 0 0 1-.56.192.587.587 0 0 1-.528-.715.965.965 0 0 1 .412-.5l.55-.395-.076-.106a.546.546 0 0 0-.369-.252.636.636 0 0 0-.449.145 1.147 1.147 0 0 0-.277.281.984.984 0 0 0-.153.337l-.23-.1a1.155 1.155 0 0 1 .192-.4 1.515 1.515 0 0 1 .345-.34.9.9 0 0 1 .642-.2m.68 1.509a.67.67 0 0 0 .023-.414l-.2-.284-.543.39q-.445.319-.223.63a.348.348 0 0 0 .286.156.645.645 0 0 0 .385-.144.761.761 0 0 0 .274-.334" transform="translate(-1291.94 -190.518)" style="fill:#eb6344"/>
        <path data-name="Trazado 1937" d="M1356.253 250.652a.2.2 0 0 1-.139-.075.2.2 0 0 1-.042-.149.206.206 0 0 1 .078-.142.208.208 0 0 1 .153-.049.189.189 0 0 1 .135.071.208.208 0 0 1-.031.3.2.2 0 0 1-.155.047m1.7 3.044a.5.5 0 0 1-.218.043l-.059-.234a.488.488 0 0 0 .327-.124.335.335 0 0 0 .139-.244.434.434 0 0 0-.117-.291l-1.44-1.783.223-.181 1.44 1.783a.671.671 0 0 1 .172.472.6.6 0 0 1-.249.427.927.927 0 0 1-.218.133" transform="translate(-1296.295 -185.551)" style="fill:#eb6344"/>
        <path data-name="Trazado 1938" d="m1364.824 247.421-1.316 1.2a.762.762 0 0 0 .55.225.847.847 0 0 0 .569-.243.92.92 0 0 0 .221-.3.8.8 0 0 0 .072-.349l.246.028a.919.919 0 0 1-.087.432 1.275 1.275 0 0 1-.808.672 1 1 0 0 1-.552-.019 1.1 1.1 0 0 1-.482-.318 1.139 1.139 0 0 1-.277-.505.988.988 0 0 1 .015-.537 1.044 1.044 0 0 1 .3-.462 1.026 1.026 0 0 1 .485-.257.973.973 0 0 1 .53.034 1.152 1.152 0 0 1 .477.325zm-1.631.507a.776.776 0 0 0 .17.539l1.116-1.022a.773.773 0 0 0-.521-.219.783.783 0 0 0-.765.7" transform="translate(-1301.384 -183.13)" style="fill:#eb6344"/>
        <path data-name="Trazado 1939" d="M1235.313 129.772c0 .553.007 1.029-.005 1.506a.922.922 0 0 1-.113.359 9.053 9.053 0 0 0 1.8 10.468.362.362 0 0 0 .044.033 2.036 2.036 0 0 0 .187-2.764 3.353 3.353 0 0 1 .11-3.986 3.739 3.739 0 0 1 1.216-.874c.475-.234.516-.427.191-.841a1.274 1.274 0 0 1-.071-1.514c.226-.356.47-.7.7-1.053a1.758 1.758 0 0 0 .23-1.577 3.116 3.116 0 0 1-.027-2.31 10.808 10.808 0 0 0-2.5 1.816c0-.409-.009-.753.007-1.1a.365.365 0 0 1 .143-.213 11.6 11.6 0 0 1 5.02-2.408 11.937 11.937 0 0 1 4.3-.143v.864c-.388-.029-.777-.048-1.162-.091-.2-.022-.269.055-.371.219a2.692 2.692 0 0 0-.24 2.385 1.815 1.815 0 0 1 .083.783 1.611 1.611 0 0 1-.3.661c-.208.3-.221.424.043.684.248.244.507.478.746.73a.6.6 0 0 0 .545.182c.936-.105 1.875-.187 2.808-.312a1.522 1.522 0 0 1 1.564.612c.356.477.748.927 1.131 1.382a1.4 1.4 0 0 1 .341.958c-.01.7 0 1.394 0 2.091a.44.44 0 0 0 .248.449q1.443.7 2.884 1.405a.417.417 0 0 0 .092.018 8.3 8.3 0 0 0 .389-2.295 8.913 8.913 0 0 0-.571-3.448 1.133 1.133 0 0 1-.071-.373c-.007-.541 0-1.081.042-1.649.051.076.106.15.151.229a9.871 9.871 0 0 1-.742 11.006 11.274 11.274 0 0 1-7.414 4.343 11.71 11.71 0 0 1-9.06-2.167 10.075 10.075 0 0 1-4.152-6.626 9.7 9.7 0 0 1 1.641-7.265c.029-.043.065-.081.144-.178m16.312 13.234v-.083c-.273-.051-.546-.1-.819-.153a1.507 1.507 0 0 1-1.278-1.164.649.649 0 0 0-1.035-.432c-.462.261-.918.531-1.379.794-.088.05-.184.085-.308.14 0-.312-.011-.569.007-.824a.34.34 0 0 1 .138-.232c.4-.243.8-.483 1.211-.7a1.505 1.505 0 0 1 2.194.967.747.747 0 0 0 .636.593c.478.1.95.221 1.472.345a9.49 9.49 0 0 0 2.194-3.2c-1-.485-1.961-.968-2.937-1.424a1.367 1.367 0 0 1-.883-1.4c.024-.65.016-1.3 0-1.953a.87.87 0 0 0-.166-.47c-.32-.424-.7-.807-1-1.243a.911.911 0 0 0-1.007-.4c-.9.129-1.817.206-2.726.305a1.4 1.4 0 0 1-1.217-.437c-.248-.257-.512-.5-.767-.748a1.239 1.239 0 0 1-.113-1.834.653.653 0 0 0 .105-.447 15.233 15.233 0 0 0-.252-1.266 1.517 1.517 0 0 1 .107-1.042c.114-.234.206-.478.321-.749a10.883 10.883 0 0 0-3.12.633.266.266 0 0 0-.129.092 2.566 2.566 0 0 0-.462 2.5 2.561 2.561 0 0 1-.28 2.368c-.2.319-.414.626-.621.939-.223.337-.219.437.032.753a1.283 1.283 0 0 1-.365 1.942 2.848 2.848 0 0 1-.365.19 2.378 2.378 0 0 0-.844 3.522 2.765 2.765 0 0 1 .153 3.267c-.122.2-.246.4-.366.6a8.641 8.641 0 0 0 2.724 1.638 1.876 1.876 0 0 1 1.857-1.312.8.8 0 0 0 .679-.454c.075-.136.142-.277.22-.411a1.737 1.737 0 0 1 1.792-.848v.862a1.071 1.071 0 0 0-1.207.751 1.731 1.731 0 0 1-1.588 1 .91.91 0 0 0-.91.783 11.314 11.314 0 0 0 10.3-1.745" transform="translate(-1205.256 -92.727)" style="fill:#fff"/>
        <path data-name="Trazado 1940" d="M1232.841 114.57v6.351a2.61 2.61 0 0 1-.005.275.409.409 0 0 1-.388.395.4.4 0 0 1-.456-.312 1.151 1.151 0 0 1-.029-.326V114.563a4.055 4.055 0 0 1-1.8-.5 3.756 3.756 0 0 1-1.843-3.866c.06-.35.191-.469.55-.481a3.7 3.7 0 0 1 3.388 1.756c.04.06.077.122.135.215l.171-.254a3.694 3.694 0 0 1 3.382-1.716c.341.013.464.128.531.471a3.76 3.76 0 0 1-3.1 4.314c-.171.024-.342.044-.543.07m2.77-3.95a2.79 2.79 0 0 0-2.727 3.031 2.82 2.82 0 0 0 2.727-3.031m-3.684 3.039a2.815 2.815 0 0 0-2.738-3.041 2.831 2.831 0 0 0 2.738 3.041" transform="translate(-1201.46 -81.358)" style="fill:#fff"/>
        <path data-name="Trazado 1941" d="M1301.512 120.074a3.4 3.4 0 0 1-2.546-1.3 3.332 3.332 0 0 1-.7-2.58c.047-.381.2-.513.575-.522a3.35 3.35 0 0 1 2.991 1.524l.12.17c.092-.129.17-.248.258-.359a3.338 3.338 0 0 1 2.9-1.333c.333.013.462.138.521.481a3.38 3.38 0 0 1-2.822 3.868c-.126.017-.252.037-.417.061v6.563a2.262 2.262 0 0 1-.009.3.4.4 0 0 1-.4.378.4.4 0 0 1-.432-.307 1.292 1.292 0 0 1-.034-.353v-6.244zm.9-.9a2.431 2.431 0 0 0 2.341-2.6 2.468 2.468 0 0 0-2.341 2.6m-.929 0a2.43 2.43 0 0 0-2.333-2.589 2.44 2.44 0 0 0 2.333 2.589" transform="translate(-1253.38 -85.778)" style="fill:#fff"/>
        <path data-name="Trazado 1942" d="M1278.809 105.168v4.695c0 .373-.155.578-.435.581s-.444-.2-.444-.571V105.164a3.035 3.035 0 0 1-2.02-.919 2.982 2.982 0 0 1-.826-2.522c.043-.375.2-.512.578-.519a2.971 2.971 0 0 1 2.575 1.265l.124.17c.1-.134.193-.259.293-.374a2.942 2.942 0 0 1 2.48-1.059c.306.014.435.136.5.445a3.012 3.012 0 0 1-2.438 3.458l-.385.058m1.955-3.069a2.071 2.071 0 0 0-1.92 2.162 2.066 2.066 0 0 0 1.92-2.162m-2.86 2.169a2.037 2.037 0 0 0-1.941-2.132 2.092 2.092 0 0 0 1.941 2.132" transform="translate(-1236.179 -75.05)" style="fill:#fff"/>
        <path data-name="Trazado 1943" d="M1295.892 130.914c-.527-.45-1.029-.916-1.571-1.331a9.889 9.889 0 0 0-2.826-1.483.261.261 0 0 1-.215-.312c.013-.209 0-.42 0-.656a1.95 1.95 0 0 1 .22.042 11.73 11.73 0 0 1 4.171 2.355.6.6 0 0 1 .235.541c-.019.264-.005.531-.007.8a.224.224 0 0 1-.011.048" transform="translate(-1248.216 -94.275)" style="fill:#fff"/>
        <path data-name="Trazado 1944" d="M1270.85 164.356a3.393 3.393 0 0 1-2.1-.828 3.337 3.337 0 0 1-1.14-3.085.482.482 0 0 1 .55-.488 3.355 3.355 0 0 1 2.969 1.462c.048.066.1.133.144.2 0 .006.016.008.035.017a3.278 3.278 0 0 1 1.958-1.528 5.509 5.509 0 0 1 1.19-.142c.318-.012.454.141.506.46a3.372 3.372 0 0 1-2.832 3.884l-.4.062V168.77a1.687 1.687 0 0 1-.009.275.408.408 0 0 1-.387.366.393.393 0 0 1-.434-.264.987.987 0 0 1-.048-.35v-4.126zm.914-.912a2.444 2.444 0 0 0 2.341-2.584 2.448 2.448 0 0 0-2.341 2.584m-.936.009a2.43 2.43 0 0 0-2.333-2.589 2.44 2.44 0 0 0 2.333 2.589" transform="translate(-1230.629 -118.61)" style="fill:#fff"/>
    </g>
</svg>
