<svg xmlns="http://www.w3.org/2000/svg" width="79.287" height="79.621" viewBox="0 0 79.287 79.621">
    <g data-name="Grupo 1240">
        <path data-name="Trazado 2000" d="M1953.253 39.886A39.644 39.644 0 1 1 1913.609.075a39.727 39.727 0 0 1 39.644 39.811" transform="translate(-1873.965 -.075)" style="opacity:.35;fill:#fff"/>
        <path data-name="Trazado 2001" d="M1936.119 85.976q0 1.069.093 2.114c16.689 7.311 24.517-8.349 34.99-7.873a24.148 24.148 0 0 1 12.185 3.758 23.674 23.674 0 0 0-47.268 2" transform="translate(-1920.086 -46.17)" style="fill:#763f92;opacity:.35"/>
        <path data-name="Trazado 2002" d="M1936.48 139.6a23.674 23.674 0 0 0 47.258-2.114q0-1.011-.083-2a24.147 24.147 0 0 0-12.185-3.758c-10.473-.475-18.3 15.185-34.989 7.874" transform="translate(-1920.354 -97.676)" style="fill:#ffce00;opacity:.35"/>
        <path data-name="Trazado 2003" d="m1887.49 159.988-6.374-2.229-6.159 2.835v-.03l-.091-.91 6.208-2.858 6.3 2.2a.045.045 0 0 0 0 .01z" transform="translate(-1874.631 -116.275)" style="fill:#ffce00;opacity:.35"/>
        <path data-name="Trazado 2004" d="m2145.046 162.306-6.668 2.113-5.817-2.89q-.033.48-.083.956l5.827 2.9 6.666-2.112z" transform="translate(-2065.794 -119.783)" style="fill:#ffce00;opacity:.35"/>
        <path data-name="Trazado 2005" d="M1923.643 184.793a28.042 28.042 0 0 0 53.4 0c.077-.223.166-.539.26-.893h-.918a27.142 27.142 0 0 1-52.083 0h-.919c.095.354.184.672.261.893" transform="translate(-1910.635 -136.37)" style="fill:#ffce00;opacity:.35"/>
        <path data-name="Trazado 2006" d="M1953.874 183.9c-.08.41-.154.74-.2.893a38.821 38.821 0 0 1-75.732 0 12.196 12.196 0 0 1-.2-.893h-.9a39.7 39.7 0 0 0 77.93 0z" transform="translate(-1876.103 -136.37)" style="fill:#ffce00;opacity:.35"/>
        <path data-name="Trazado 2007" d="m1952.484 31.647.041-.052a39.735 39.735 0 0 0-78.323 3.57l.038-.011a40.366 40.366 0 0 0-.273 4.133l6.273-2.554 6.287 2.742a27.164 27.164 0 0 1 8.072-18.961l.019-.02c.1-.1.21-.2.316-.3l.253-.239.087-.08a27.137 27.137 0 0 1 45.364 17.207l7.121 4.216 5.373-5.532a39.485 39.485 0 0 0-.648-4.114" transform="translate(-1873.966 -.075)" style="fill:#763f92;opacity:.35"/>
        <path data-name="Trazado 2008" d="m1893.479 101.149 4.846 1.6-.372 1.131-3.289 1.289 2.582.855-.443 1.346-4.846-1.6.373-1.131 3.289-1.289-2.583-.855z" transform="translate(-1887.315 -75.015)" style="opacity:.35;fill:#fff"/>
        <path data-name="Trazado 2009" d="M1907.851 84.618a2.61 2.61 0 0 1-4.028-2.271 3.268 3.268 0 0 1 1.426-2.541 2.611 2.611 0 0 1 4.029 2.271 3.266 3.266 0 0 1-1.426 2.541m.154-2.391a1.312 1.312 0 0 0-.2-.685 1.681 1.681 0 0 0-1.328-.749 1.309 1.309 0 0 0-.691.18 1.439 1.439 0 0 0-.686 1.223 1.318 1.318 0 0 0 .205.686 1.682 1.682 0 0 0 1.328.749 1.306 1.306 0 0 0 .691-.18 1.438 1.438 0 0 0 .686-1.223" transform="translate(-1896.12 -58.878)" style="opacity:.35;fill:#fff"/>
        <path data-name="Trazado 2010" d="M1920.722 65.638a2.961 2.961 0 0 1-.917.475l-.522-1.044a3.053 3.053 0 0 0 .786-.384 3.023 3.023 0 0 0 .671-.6q.527-.644.206-.908a.343.343 0 0 0-.4-.023 4.377 4.377 0 0 0-.655.449 7.218 7.218 0 0 1-.816.577 1.616 1.616 0 0 1-.773.224 1.228 1.228 0 0 1-.829-.323 1.467 1.467 0 0 1-.489-.733 1.714 1.714 0 0 1 .024-.968 3.14 3.14 0 0 1 .619-1.1 4.416 4.416 0 0 1 .716-.7 3.036 3.036 0 0 1 .8-.456l.547 1.026a2.97 2.97 0 0 0-1.2.845 1.186 1.186 0 0 0-.3.567.383.383 0 0 0 .131.363.328.328 0 0 0 .385.014 4.212 4.212 0 0 0 .64-.448 7.054 7.054 0 0 1 .818-.579 1.664 1.664 0 0 1 .77-.226 1.208 1.208 0 0 1 .829.318 1.438 1.438 0 0 1 .48.726 1.744 1.744 0 0 1-.026.971 3.108 3.108 0 0 1-.614 1.1 4.734 4.734 0 0 1-.881.835" transform="translate(-1905.842 -44.598)" style="opacity:.35;fill:#fff"/>
        <path data-name="Trazado 2011" d="m1941.038 43.1-.63.474.816 1.086-1.153.87-3.071-4.087 1.864-1.406a2.9 2.9 0 0 1 1.1-.541 1.779 1.779 0 0 1 1.023.051 1.8 1.8 0 0 1 .824.636 1.78 1.78 0 0 1 .374.93 1.76 1.76 0 0 1-.2.963l1.844.621-1.235.932zm-.9-2.346a1 1 0 0 0-.654.247l-.641.483.9 1.2.64-.484a1.009 1.009 0 0 0 .42-.559.687.687 0 0 0-.151-.577.7.7 0 0 0-.514-.308" transform="translate(-1920.741 -29.265)" style="opacity:.35;fill:#fff"/>
        <path data-name="Trazado 2012" d="m1962.276 29.489.514.992-3.636 1.892-2.351-4.54 3.552-1.848.514.992-2.284 1.189.4.765 2.012-1.047.5.96-2.013 1.047.43.83z" transform="translate(-1935.434 -19.285)" style="opacity:.35;fill:#fff"/>
        <path data-name="Trazado 2013" d="m1976.787 22.125 1.368-.463 1.266 3.759 2.307-.781.366 1.087-3.674 1.244z" transform="translate(-1950.264 -16.08)" style="opacity:.35;fill:#fff"/>
        <path data-name="Trazado 2014" d="m2001.261 19.334-2.131.341-.24 1.045-1.454.232 1.421-5.407 1.4-.224 3.036 4.695-1.483.237zm-.585-.987-.905-1.513-.391 1.72z" transform="translate(-1965.586 -11.379)" style="opacity:.35;fill:#fff"/>
        <path data-name="Trazado 2015" d="M2021.968 18.6a2.537 2.537 0 0 1-.987-.963 2.772 2.772 0 0 1 .046-2.747 2.538 2.538 0 0 1 1.018-.93 3.017 3.017 0 0 1 1.445-.316 3.086 3.086 0 0 1 1.257.269 2.426 2.426 0 0 1 .921.732l-.932.818a1.51 1.51 0 0 0-1.193-.619 1.479 1.479 0 0 0-.743.17 1.265 1.265 0 0 0-.512.507 1.719 1.719 0 0 0-.025 1.527 1.264 1.264 0 0 0 .495.523 1.478 1.478 0 0 0 .737.2 1.509 1.509 0 0 0 1.213-.579l.9.848a2.424 2.424 0 0 1-.945.7 3.088 3.088 0 0 1-1.266.228 3.017 3.017 0 0 1-1.434-.364" transform="translate(-1982.804 -10.135)" style="opacity:.35;fill:#fff"/>
        <path data-name="Rectángulo 258" transform="rotate(-81.66 26.952 -20.73)" style="opacity:.35;fill:#fff" d="M0 0h5.115v1.442H0z"/>
        <path data-name="Trazado 2016" d="M2054.738 23.327a2.617 2.617 0 0 1 1.314-4.442 3.253 3.253 0 0 1 2.789.829 2.616 2.616 0 0 1-1.314 4.442 3.253 3.253 0 0 1-2.789-.829m2.36-.381a1.308 1.308 0 0 0 .621-.353 1.688 1.688 0 0 0 .434-1.464 1.319 1.319 0 0 0-.329-.635 1.434 1.434 0 0 0-1.343-.4 1.313 1.313 0 0 0-.621.353 1.691 1.691 0 0 0-.433 1.464 1.319 1.319 0 0 0 .329.635 1.433 1.433 0 0 0 1.342.4" transform="translate(-2007.525 -13.98)" style="opacity:.35;fill:#fff"/>
        <path data-name="Trazado 2017" d="m2081.853 27.752-2.364 4.533-1.054-.552-.737-3.462-1.26 2.416-1.253-.657 2.365-4.533 1.053.552.736 3.462 1.26-2.416z" transform="translate(-2023.28 -18.924)" style="opacity:.35;fill:#fff"/>
        <path data-name="Trazado 2018" d="m2097.023 46.625-1.695-1.339-.929.532-1.156-.914 4.929-2.619 1.116.882-1.384 5.42-1.18-.932zm.327-1.1.5-1.693-1.527.878z" transform="translate(-2036.679 -31.371)" style="opacity:.35;fill:#fff"/>
        <path data-name="Trazado 2019" d="m2115.269 61.653 2.055-1.763-2.528.422-.415-.491.782-2.377-2.009 1.7-.862-1.021 3.9-3.3.768.909-1.089 3.28 3.378-.569.768.909-3.886 3.316z" transform="translate(-2050.814 -40.667)" style="opacity:.35;fill:#fff"/>
        <path data-name="Trazado 2020" d="M2131.969 84.067a2.608 2.608 0 0 1 4.069-2.2 3.268 3.268 0 0 1 1.38 2.566 2.608 2.608 0 0 1-4.069 2.2 3.267 3.267 0 0 1-1.38-2.566m1.934 1.408a1.309 1.309 0 0 0 .688.193 1.683 1.683 0 0 0 1.341-.725 1.324 1.324 0 0 0 .217-.682 1.442 1.442 0 0 0-.664-1.235 1.314 1.314 0 0 0-.688-.193 1.685 1.685 0 0 0-1.341.725 1.314 1.314 0 0 0-.217.682 1.441 1.441 0 0 0 .664 1.235" transform="translate(-2065.415 -60.389)" style="opacity:.35;fill:#fff"/>
        <path data-name="Trazado 2021" d="M2140.777 105.963a2.964 2.964 0 0 1 .091-1.03l1.159.117a3.091 3.091 0 0 0-.1.871 3.044 3.044 0 0 0 .147.89q.26.791.655.661a.346.346 0 0 0 .234-.327 4.409 4.409 0 0 0-.027-.8 7.2 7.2 0 0 1-.049-1 1.621 1.621 0 0 1 .225-.775 1.228 1.228 0 0 1 .716-.529 1.46 1.46 0 0 1 .88-.021 1.707 1.707 0 0 1 .8.539 3.153 3.153 0 0 1 .6 1.115 4.411 4.411 0 0 1 .2.979 3.05 3.05 0 0 1-.046.923l-1.157-.087a2.986 2.986 0 0 0-.069-1.47 1.19 1.19 0 0 0-.317-.557.382.382 0 0 0-.377-.084.329.329 0 0 0-.217.318 4.189 4.189 0 0 0 .034.781 7.085 7.085 0 0 1 .049 1 1.673 1.673 0 0 1-.222.773 1.206 1.206 0 0 1-.712.531 1.43 1.43 0 0 1-.869.018 1.738 1.738 0 0 1-.8-.542 3.1 3.1 0 0 1-.6-1.11 4.7 4.7 0 0 1-.231-1.193" transform="translate(-2071.946 -77.105)" style="opacity:.35;fill:#fff"/>
        <path data-name="Trazado 2022" d="m1972.989 269.764.264.115-.431.994a1.377 1.377 0 0 1-.537.058 1.736 1.736 0 0 1-.561-.142 1.57 1.57 0 0 1-.628-.477 1.384 1.384 0 0 1-.284-.688 1.506 1.506 0 0 1 .589-1.359 1.374 1.374 0 0 1 .7-.261 1.575 1.575 0 0 1 .78.136 1.661 1.661 0 0 1 .505.333 1.19 1.19 0 0 1 .3.464l-.247.1a1.166 1.166 0 0 0-.651-.647 1.268 1.268 0 0 0-.631-.109 1.115 1.115 0 0 0-.567.213 1.226 1.226 0 0 0-.479 1.1 1.145 1.145 0 0 0 .23.56 1.248 1.248 0 0 0 .507.389 1.233 1.233 0 0 0 .767.095z" transform="translate(-1945.821 -198.723)" style="fill:#763f92;opacity:.35"/>
        <path data-name="Trazado 2023" d="m1984.6 276.229-1.693-.56a.764.764 0 0 0 .074.591.846.846 0 0 0 .49.378.913.913 0 0 0 .368.047.793.793 0 0 0 .338-.108l.1.228a.908.908 0 0 1-.418.135 1.2 1.2 0 0 1-.472-.062 1.185 1.185 0 0 1-.508-.316 1.009 1.009 0 0 1-.254-.492 1.108 1.108 0 0 1 .041-.576 1.144 1.144 0 0 1 .3-.49.982.982 0 0 1 .474-.249 1.093 1.093 0 0 1 1.01.334.982.982 0 0 1 .23.48 1.157 1.157 0 0 1-.049.576zm-1.239-1.177a.771.771 0 0 0-.385.413l1.435.474a.776.776 0 0 0-.065-.562.732.732 0 0 0-.433-.351.723.723 0 0 0-.552.025" transform="translate(-1954.578 -203.719)" style="fill:#763f92;opacity:.35"/>
        <path data-name="Trazado 2024" d="M1992.112 279.349a1.069 1.069 0 0 1-.314-.273l.181-.189a1.083 1.083 0 0 0 .285.249 1.328 1.328 0 0 0 .392.167.8.8 0 0 0 .441.016.29.29 0 0 0 .2-.216.233.233 0 0 0-.03-.2.514.514 0 0 0-.164-.146 2.819 2.819 0 0 0-.286-.141 3.583 3.583 0 0 1-.381-.2.613.613 0 0 1-.219-.233.481.481 0 0 1-.027-.354.527.527 0 0 1 .323-.371 1 1 0 0 1 .642-.015 1.6 1.6 0 0 1 .387.154 1.135 1.135 0 0 1 .3.222l-.178.194a1.076 1.076 0 0 0-.565-.33.725.725 0 0 0-.426-.006.3.3 0 0 0-.2.214.254.254 0 0 0 .03.208.486.486 0 0 0 .165.152 3.155 3.155 0 0 0 .3.148 3.731 3.731 0 0 1 .373.194.6.6 0 0 1 .215.225.459.459 0 0 1 .027.342.515.515 0 0 1-.333.375 1.107 1.107 0 0 1-.667 0 1.631 1.631 0 0 1-.464-.193" transform="translate(-1961.403 -205.698)" style="fill:#763f92;opacity:.35"/>
        <path data-name="Trazado 2025" d="M2002.584 279.849a.539.539 0 0 1-.218.073.8.8 0 0 1-.252-.008.566.566 0 0 1-.5-.725l.235-1.27-.375-.07.045-.239.374.07.085-.459.283.053-.085.459.638.118-.044.24-.637-.119-.232 1.253a.4.4 0 0 0 .04.3.361.361 0 0 0 .251.148.533.533 0 0 0 .175 0 .433.433 0 0 0 .156-.054z" transform="translate(-1968.583 -205.563)" style="fill:#763f92;opacity:.35"/>
        <path data-name="Trazado 2026" d="m2009.176 277.714.285.039-.288 2.116-.285-.039zm.067-.524a.2.2 0 0 1-.041-.153.2.2 0 0 1 .079-.133.2.2 0 0 1 .157-.04.208.208 0 0 1 .141.079.189.189 0 0 1 .041.147.212.212 0 0 1-.377.1" transform="translate(-1974.085 -205.297)" style="fill:#763f92;opacity:.35"/>
        <path data-name="Trazado 2027" d="M2014.28 280.688a1.016 1.016 0 0 1-.359-.415 1.179 1.179 0 0 1 .083-1.118 1 1 0 0 1 .416-.356 1.184 1.184 0 0 1 1.107.082.993.993 0 0 1 .357.413 1.191 1.191 0 0 1-.083 1.117 1 1 0 0 1-.414.358 1.169 1.169 0 0 1-1.107-.083m.975-.147a.721.721 0 0 0 .3-.273.984.984 0 0 0 .064-.866.722.722 0 0 0-.259-.314.852.852 0 0 0-.812-.06.735.735 0 0 0-.3.272.966.966 0 0 0-.064.866.733.733 0 0 0 .261.315.853.853 0 0 0 .812.061m.076-2.634.384.028-.692.453-.283-.021z" transform="translate(-1977.742 -206.071)" style="fill:#763f92;opacity:.35"/>
        <path data-name="Trazado 2028" d="M2027.2 281.548a.912.912 0 0 1 .248.676l.02 1.238h-.288l-.02-1.209a.71.71 0 0 0-.174-.5.623.623 0 0 0-.477-.167.727.727 0 0 0-.542.214.774.774 0 0 0-.191.569l.018 1.12h-.288l-.035-2.135h.275l.007.394a.8.8 0 0 1 .321-.308 1.041 1.041 0 0 1 .482-.115.868.868 0 0 1 .642.223" transform="translate(-1986.394 -208.606)" style="fill:#763f92;opacity:.35"/>
        <path data-name="Trazado 2029" d="M2041.7 282.423a1.068 1.068 0 0 1-.391-.141l.1-.242a1.1 1.1 0 0 0 .355.129 1.337 1.337 0 0 0 .426.013.8.8 0 0 0 .416-.145.289.289 0 0 0 .106-.273.23.23 0 0 0-.1-.174.514.514 0 0 0-.206-.076 2.784 2.784 0 0 0-.318-.027 3.572 3.572 0 0 1-.427-.046.609.609 0 0 1-.289-.137.481.481 0 0 1-.153-.32.529.529 0 0 1 .166-.463 1 1 0 0 1 .594-.247 1.6 1.6 0 0 1 .417 0 1.138 1.138 0 0 1 .356.1l-.1.245a1.075 1.075 0 0 0-.646-.1.726.726 0 0 0-.4.149.3.3 0 0 0-.107.271.255.255 0 0 0 .1.184.485.485 0 0 0 .208.082 3.194 3.194 0 0 0 .33.03 3.643 3.643 0 0 1 .418.045.6.6 0 0 1 .282.132.459.459 0 0 1 .149.308.519.519 0 0 1-.175.47 1.11 1.11 0 0 1-.62.245 1.643 1.643 0 0 1-.5-.012" transform="translate(-1998.071 -207.817)" style="fill:#763f92;opacity:.35"/>
        <path data-name="Trazado 2030" d="M2050.746 280.814a1.018 1.018 0 0 1-.458-.3 1.18 1.18 0 0 1-.223-1.1 1.008 1.008 0 0 1 .305-.456 1.185 1.185 0 0 1 1.087-.222.99.99 0 0 1 .456.3 1.192 1.192 0 0 1 .223 1.1 1 1 0 0 1-.3.457 1.171 1.171 0 0 1-1.087.221m.9-.407a.729.729 0 0 0 .218-.345.921.921 0 0 0 .012-.446.911.911 0 0 0-.185-.405.721.721 0 0 0-.335-.232.852.852 0 0 0-.8.162.735.735 0 0 0-.22.345.964.964 0 0 0 .173.851.732.732 0 0 0 .336.232.853.853 0 0 0 .8-.162" transform="translate(-2004.6 -206.649)" style="fill:#763f92;opacity:.35"/>
        <path data-name="Trazado 2031" d="M2061.409 278.21a.989.989 0 0 1-.482-.264 1.179 1.179 0 0 1-.31-1.079 1 1 0 0 1 .269-.479 1.151 1.151 0 0 1 .5-.289 1.094 1.094 0 0 1 .5-.033.821.821 0 0 1 .416.208l-.166.2a.675.675 0 0 0-.322-.154.8.8 0 0 0-.361.022.833.833 0 0 0-.37.215.726.726 0 0 0-.2.363.9.9 0 0 0 .021.446.885.885 0 0 0 .22.391.725.725 0 0 0 .356.2.832.832 0 0 0 .427-.016.815.815 0 0 0 .318-.172.657.657 0 0 0 .191-.3l.247.081a.813.813 0 0 1-.244.4 1.1 1.1 0 0 1-.441.239 1.145 1.145 0 0 1-.581.024" transform="translate(-2012.447 -204.694)" style="fill:#763f92;opacity:.35"/>
        <path data-name="Trazado 2032" d="M2068.606 271.363a.2.2 0 0 1-.106-.118.2.2 0 0 1 .01-.154.2.2 0 0 1 .121-.107.206.206 0 0 1 .161.006.188.188 0 0 1 .1.112.2.2 0 0 1-.008.162.214.214 0 0 1-.282.1m.178.5.272-.1.706 2.015-.271.1z" transform="translate(-2018.311 -200.928)" style="fill:#763f92;opacity:.35"/>
        <path data-name="Trazado 2033" d="M2075.661 271.205a.808.808 0 0 1 .445.484l.511 1.22-.254.107-.128-.307a.659.659 0 0 1-.163.35 1 1 0 0 1-.377.26.874.874 0 0 1-.588.063.587.587 0 0 1-.357-.814.96.96 0 0 1 .513-.4l.624-.262-.05-.12a.549.549 0 0 0-.3-.328.637.637 0 0 0-.471.041 1.148 1.148 0 0 0-.333.213.978.978 0 0 0-.224.294l-.2-.148a1.15 1.15 0 0 1 .277-.347 1.5 1.5 0 0 1 .411-.255.9.9 0 0 1 .671-.056m.328 1.623a.67.67 0 0 0 .115-.4l-.136-.322-.615.259q-.5.212-.357.564a.349.349 0 0 0 .244.217.643.643 0 0 0 .408-.055.756.756 0 0 0 .341-.265" transform="translate(-2022.624 -201.071)" style="fill:#763f92;opacity:.35"/>
        <path data-name="Trazado 2305" d="M0 0h.288v3.011H0z" transform="rotate(-26.18 174.545 -81.11)" style="fill:#763f92;opacity:.35"/>
        <path data-name="Trazado 2034" d="M2011.781 154.465h-2.073c-.59 0-.679-.1-.688-.7a13.779 13.779 0 0 0-.057-1.546 3.255 3.255 0 0 0-.939-1.771 5.111 5.111 0 1 1 7.791-6.6 5.069 5.069 0 0 1-.206 6.534 3.739 3.739 0 0 0-1.056 2.807c.011.246.006.493 0 .739-.008.405-.145.54-.559.542h-2.213m1.9-.869a1.777 1.777 0 0 0 .016-.213 4.8 4.8 0 0 1 1.347-3.676 4.115 4.115 0 0 0 .381-4.912 4.25 4.25 0 1 0-6.82 5.008 4.58 4.58 0 0 1 1.273 3.387c-.005.134.012.269.018.406z" transform="translate(-1972.446 -105.204)" style="opacity:.35;fill:#fff"/>
        <path data-name="Trazado 2035" d="M1980.345 181.329h-2.459a1.619 1.619 0 0 1-1.781-1.79v-4.258a1.935 1.935 0 0 1 2.066-2.068q2.265-.006 4.53 0c.116 0 .268-.023.34.039.127.11.287.282.279.418s-.192.282-.331.376c-.083.056-.228.022-.344.023h-4.425a1.113 1.113 0 0 0-1.263 1.279v4.153c0 .711.247.966.94.967h4.988a.792.792 0 0 0 .814-.429.742.742 0 0 0-.723-1.061c-1.042-.013-2.084 0-3.126 0-.3 0-.609.005-.913 0s-.5-.185-.478-.437a.421.421 0 0 1 .475-.41c1.393 0 2.786-.013 4.179.006a1.568 1.568 0 0 1 1.509 1.553 1.536 1.536 0 0 1-1.431 1.616c-.947.042-1.9.01-2.844.01v.016" transform="translate(-1949.757 -128.442)" style="opacity:.35;fill:#fff"/>
        <path data-name="Trazado 2036" d="M2034.824 125.884c.913 0 1.827.011 2.74-.01a.826.826 0 0 0 .511-.21c.965-.942 1.907-1.906 2.866-2.854a1.631 1.631 0 0 1 2.768.917 1.657 1.657 0 0 1-.552 1.488c-1.311 1.308-2.613 2.625-3.931 3.927a.971.971 0 0 0-.338.793c.029.738.011 1.478.008 2.218 0 .366-.165.582-.433.555-.318-.032-.42-.247-.418-.545 0-.915-.014-1.831.014-2.746a.948.948 0 0 1 .273-.568c1.389-1.413 2.791-2.812 4.193-4.213a.891.891 0 0 0 .341-.771.734.734 0 0 0-.5-.63.767.767 0 0 0-.841.193l-1.343 1.343c-.572.572-1.132 1.157-1.721 1.71a.943.943 0 0 1-.579.243c-1.955.018-3.911.012-5.867.01-.367 0-.569-.156-.571-.426s.2-.424.567-.425h2.811" transform="translate(-1990.824 -90.713)" style="opacity:.35;fill:#fff"/>
        <path data-name="Trazado 2037" d="M2049.639 167.972a2.981 2.981 0 1 1 5.963.016 2.981 2.981 0 1 1-5.963-.016m.85 0a2.126 2.126 0 1 0 2.121-2.13 2.141 2.141 0 0 0-2.121 2.13" transform="translate(-2004.323 -122.353)" style="opacity:.35;fill:#fff"/>
        <path data-name="Trazado 2038" d="M1983.225 153.609a2.988 2.988 0 1 1 2.97-2.975 2.992 2.992 0 0 1-2.97 2.975m0-.852a2.132 2.132 0 1 0-2.146-2.109 2.14 2.14 0 0 0 2.146 2.109" transform="translate(-1952.818 -109.481)" style="opacity:.35;fill:#fff"/>
        <path data-name="Trazado 2039" d="M2000.592 107.4a2.982 2.982 0 1 1 2.979-2.972 2.973 2.973 0 0 1-2.979 2.972m-.024-.857a2.125 2.125 0 1 0-2.111-2.132 2.124 2.124 0 0 0 2.111 2.132" transform="translate(-1965.713 -75.232)" style="opacity:.35;fill:#fff"/>
        <path data-name="Trazado 2040" d="M2040.7 113.489a2.982 2.982 0 1 1-2.968-2.977 3 3 0 0 1 2.968 2.977m-2.975-2.125a2.134 2.134 0 1 0 2.126 2.126 2.144 2.144 0 0 0-2.126-2.126" transform="translate(-1993.261 -81.957)" style="opacity:.35;fill:#fff"/>
        <path data-name="Trazado 2041" d="M1995.158 127.82c.984 0 1.967-.008 2.951 0a1.984 1.984 0 0 1 2.051 2.356.405.405 0 0 1-.435.411c-.259-.008-.39-.172-.412-.435-.107-1.294-.3-1.473-1.589-1.473h-5.48a1.078 1.078 0 0 0-1.233 1.222v1.831c0 .372-.158.563-.436.561s-.416-.183-.418-.57c0-.645-.011-1.291 0-1.936a1.886 1.886 0 0 1 1.946-1.962c1.018-.021 2.038 0 3.056 0z" transform="translate(-1960.179 -94.787)" style="opacity:.35;fill:#fff"/>
        <path data-name="Trazado 2042" d="M2046.276 191.406h2.951a1.99 1.99 0 0 1 2.036 2.369.423.423 0 0 1-.845-.023c-.129-1.339-.3-1.5-1.646-1.5h-5.41a1.1 1.1 0 0 0-1.253 1.247c0 .128.022.293-.045.374a.675.675 0 0 1-.424.267.5.5 0 0 1-.357-.3 1.973 1.973 0 0 1 1.832-2.436h3.161" transform="translate(-1998.073 -141.935)" style="opacity:.35;fill:#fff"/>
        <path data-name="Trazado 2043" d="M2019.054 195.021c-.234 0-.469.01-.7 0a1.958 1.958 0 0 1-1.814-2.414.527.527 0 0 1 .377-.324.586.586 0 0 1 .408.288 1.07 1.07 0 0 1 .044.481 1.055 1.055 0 0 0 1.128 1.117c.387.006.773.006 1.16 0a1.052 1.052 0 0 0 1.107-1.1v-.352c.018-.27.15-.456.433-.451s.4.188.418.463a1.972 1.972 0 0 1-2.141 2.3c-.14-.011-.281 0-.422 0z" transform="translate(-1979.719 -142.571)" style="opacity:.35;fill:#fff"/>
        <path data-name="Trazado 2044" d="m2018.274 159.191 2.082-3.474c.061-.1.1-.248.193-.285a.764.764 0 0 1 .526-.082c.113.053.159.3.184.468.013.084-.081.187-.135.277q-1.163 1.946-2.328 3.89c-.313.522-.585.539-.956.058q-.944-1.226-1.884-2.454l-.063-.085c-.17-.228-.2-.465.037-.651a.414.414 0 0 1 .636.127l1.413 1.841c.085.11.173.218.294.37" transform="translate(-1979.182 -115.184)" style="opacity:.35;fill:#fff"/>
    </g>
</svg>
