<svg xmlns="http://www.w3.org/2000/svg" width="79.287" height="79.631" viewBox="0 0 79.287 79.631">
    <g data-name="Grupo 1239">
        <path data-name="Trazado 1945" d="M1578.474 39.871A39.644 39.644 0 1 1 1538.83.056a39.73 39.73 0 0 1 39.644 39.815" transform="translate(-1499.187 -.056)" style="fill:#fff"/>
        <path data-name="Trazado 1946" d="M1561.339 86q0 1.069.093 2.114c16.689 7.311 24.516-8.349 34.99-7.873a24.147 24.147 0 0 1 12.185 3.758 23.674 23.674 0 0 0-47.268 2" transform="translate(-1545.307 -46.179)" style="fill:#8f2168"/>
        <path data-name="Trazado 1947" d="M1561.7 139.615a23.674 23.674 0 0 0 47.258-2.114q0-1.011-.083-2a24.146 24.146 0 0 0-12.185-3.758c-10.473-.475-18.3 15.185-34.99 7.874" transform="translate(-1545.575 -97.685)" style="fill:#eb6344"/>
        <path data-name="Trazado 1948" d="m1512.71 160.007-6.374-2.229-6.159 2.835v-.03l-.091-.91 6.208-2.858 6.3 2.2a.045.045 0 0 0 0 .01z" transform="translate(-1499.853 -116.284)" style="fill:#eb6344"/>
        <path data-name="Trazado 1949" d="m1770.267 162.324-6.667 2.113-5.817-2.89c-.022.32-.049.639-.083.956l5.827 2.9 6.665-2.112z" transform="translate(-1691.015 -119.791)" style="fill:#eb6344"/>
        <path data-name="Trazado 1950" d="M1548.863 184.812a28.043 28.043 0 0 0 53.4 0c.077-.223.166-.539.26-.893h-.918a27.142 27.142 0 0 1-52.084 0h-.919c.094.354.184.672.26.893" transform="translate(-1535.856 -136.38)" style="fill:#eb6344"/>
        <path data-name="Trazado 1951" d="M1579.095 183.918c-.081.41-.154.74-.2.893a38.821 38.821 0 0 1-75.732 0 12.08 12.08 0 0 1-.2-.893h-.9a39.7 39.7 0 0 0 77.929 0z" transform="translate(-1501.325 -136.379)" style="fill:#eb6344"/>
        <path data-name="Trazado 1952" d="m1577.7 31.666.041-.052a39.735 39.735 0 0 0-78.323 3.57l.038-.011a40.262 40.262 0 0 0-.273 4.133l6.273-2.554 6.288 2.743a27.163 27.163 0 0 1 8.071-18.961l.02-.02c.1-.1.21-.2.315-.3.084-.08.168-.161.253-.239l.087-.08a27.137 27.137 0 0 1 45.368 17.205l7.12 4.215 5.374-5.532a39.544 39.544 0 0 0-.648-4.115" transform="translate(-1499.187 -.084)" style="fill:#8f2168"/>
        <path data-name="Trazado 1953" d="M1549.7 52.646a1.86 1.86 0 0 1 2.451 1.3 1.8 1.8 0 0 1-.084 1.022 2.916 2.916 0 0 1-.677 1.023l-.621.638.954.935-1.009 1.035-3.65-3.575 1.63-1.672a2.914 2.914 0 0 1 1.005-.7m1.147 1.992a.686.686 0 0 0-.236-.548.7.7 0 0 0-.554-.226 1 1 0 0 0-.61.343l-.561.575 1.069 1.047.56-.575a1.009 1.009 0 0 0 .331-.616" transform="translate(-1534.716 -38.946)" style="fill:#fff"/>
        <path data-name="Trazado 1954" d="m1568.228 41.7-.638.463.8 1.1-1.169.848-2.993-4.143 1.89-1.371a2.912 2.912 0 0 1 1.109-.52 1.858 1.858 0 0 1 2.192 1.657 1.759 1.759 0 0 1-.221.959l1.832.655-1.252.908zm-.859-2.362a1 1 0 0 0-.659.235l-.649.471.876 1.213.65-.471a1.011 1.011 0 0 0 .43-.551.687.687 0 0 0-.14-.579.694.694 0 0 0-.508-.317" transform="translate(-1547.448 -28.215)" style="fill:#fff"/>
        <path data-name="Trazado 1955" d="m1589.708 28.5.5 1-3.671 1.824-2.267-4.583 3.586-1.782.5 1-2.306 1.146.382.773 2.031-1.009.48.969-2.032 1.009.415.838z" transform="translate(-1562.32 -18.524)" style="fill:#fff"/>
        <path data-name="Trazado 1956" d="M1607.98 19.244a1.784 1.784 0 0 1 .943.4 1.807 1.807 0 0 1 .555.882 1.729 1.729 0 0 1-.542 1.893 2.911 2.911 0 0 1-1.085.569l-.852.258.385 1.28-1.382.418-1.474-4.9 2.233-.676a2.9 2.9 0 0 1 1.218-.128m.045 2.3a.687.687 0 0 0 .057-.594.7.7 0 0 0-.376-.466.992.992 0 0 0-.7.005l-.768.232.432 1.434.768-.232a1.009 1.009 0 0 0 .586-.38" transform="translate(-1577.356 -14.268)" style="fill:#fff"/>
        <path data-name="Trazado 1957" d="m1630.587 18.8-2.141.267-.276 1.036-1.462.182 1.606-5.355 1.411-.176 2.872 4.8-1.49.186zm-.551-1.007-.853-1.543-.45 1.705z" transform="translate(-1593.815 -10.954)" style="fill:#fff"/>
        <path data-name="Trazado 1958" d="m1653.44 17.637-.786-.042-.072 1.357-1.442-.077.27-5.108 2.33.124a2.9 2.9 0 0 1 1.189.294 1.785 1.785 0 0 1 .751.7 1.95 1.95 0 0 1-.086 1.971 1.755 1.755 0 0 1-.774.606l1.015 1.664-1.543-.082zm.812-2.379a1 1 0 0 0-.659-.232l-.8-.043-.079 1.5.8.042a1 1 0 0 0 .68-.158.686.686 0 0 0 .255-.539.7.7 0 0 0-.2-.567" transform="translate(-1611.944 -10.222)" style="fill:#fff"/>
        <path data-name="Trazado 1959" d="m1673.809 21.542-2.1-.5-.618.875-1.434-.339 3.365-4.46 1.384.327 1.027 5.5-1.461-.346zm-.167-1.136-.263-1.744-1.014 1.442z" transform="translate(-1625.685 -12.708)" style="fill:#fff"/>
        <path data-name="Trazado 1960" d="m1695.467 22.232 2.2.989a3.376 3.376 0 0 1 1.229.9 2.371 2.371 0 0 1 .555 1.226 2.735 2.735 0 0 1-1.1 2.468 2.359 2.359 0 0 1-1.282.4 3.369 3.369 0 0 1-1.485-.323l-2.2-.989zm.533 4.58a1.476 1.476 0 0 0 1.114.092 1.534 1.534 0 0 0 .84-1.881 1.482 1.482 0 0 0-.81-.772l-.832-.374-1.144 2.561z" transform="translate(-1643.289 -16.498)" style="fill:#fff"/>
        <path data-name="Trazado 1961" d="M1717.627 40.9a2.613 2.613 0 0 1 2.671-3.781 3.26 3.26 0 0 1 2.374 1.684 2.613 2.613 0 0 1-2.672 3.782 3.259 3.259 0 0 1-2.374-1.685m2.357.4a1.309 1.309 0 0 0 .7-.133 1.687 1.687 0 0 0 .88-1.247 1.317 1.317 0 0 0-.108-.707 1.437 1.437 0 0 0-1.142-.811 1.308 1.308 0 0 0-.7.134 1.687 1.687 0 0 0-.881 1.246 1.313 1.313 0 0 0 .108.707 1.433 1.433 0 0 0 1.142.811" transform="translate(-1661.068 -27.519)" style="fill:#fff"/>
        <path data-name="Trazado 1962" d="M1734.188 55.747a2.977 2.977 0 0 1-.377-.963l1.09-.413a3.232 3.232 0 0 0 .827 1.554q.585.592.88.3a.345.345 0 0 0 .064-.4 4.355 4.355 0 0 0-.378-.7 7.3 7.3 0 0 1-.488-.873 1.63 1.63 0 0 1-.143-.794 1.237 1.237 0 0 1 .406-.794 1.463 1.463 0 0 1 .778-.412 1.706 1.706 0 0 1 .958.123 3.133 3.133 0 0 1 1.03.731 4.4 4.4 0 0 1 .618.786 3.054 3.054 0 0 1 .37.847l-1.075.439a2.984 2.984 0 0 0-.715-1.285 1.19 1.19 0 0 0-.532-.357.383.383 0 0 0-.374.094.33.33 0 0 0-.053.382 4.209 4.209 0 0 0 .378.684 7.074 7.074 0 0 1 .491.876 1.676 1.676 0 0 1 .146.791 1.21 1.21 0 0 1-.4.794 1.435 1.435 0 0 1-.77.4 1.734 1.734 0 0 1-.961-.126 3.1 3.1 0 0 1-1.03-.726 4.731 4.731 0 0 1-.738-.965" transform="translate(-1673.29 -38.74)" style="fill:#fff"/>
        <path data-name="Trazado 1963" d="m1526.943 200.828.6-.949a2.112 2.112 0 0 1-.1-.206l-.291-.706-.831.344-.114-.278 2.621-1.084.4.983a1.288 1.288 0 0 1 .085.887.883.883 0 0 1-.542.558.919.919 0 0 1-.583.059.931.931 0 0 1-.488-.319l-.634 1.013zm1.148-.734a.731.731 0 0 0 .972-.4.992.992 0 0 0-.075-.667l-.287-.7-1.314.543.287.7a.98.98 0 0 0 .418.525" transform="translate(-1519.236 -146.783)" style="fill:#8f2168"/>
        <path data-name="Trazado 1964" d="m1533.661 212.488-.821-1.585a.763.763 0 0 0-.358.475.848.848 0 0 0 .087.613.917.917 0 0 0 .231.292.793.793 0 0 0 .318.16l-.091.23a.915.915 0 0 1-.393-.2 1.2 1.2 0 0 1-.295-.375 1.186 1.186 0 0 1-.144-.582 1.01 1.01 0 0 1 .161-.53 1.1 1.1 0 0 1 .431-.384 1.138 1.138 0 0 1 .559-.137.979.979 0 0 1 .513.154 1.1 1.1 0 0 1 .49.946.986.986 0 0 1-.17.5 1.156 1.156 0 0 1-.436.378zm-.067-1.71a.769.769 0 0 0-.564.026l.7 1.344a.773.773 0 0 0 .346-.448.733.733 0 0 0-.066-.554.722.722 0 0 0-.412-.369" transform="translate(-1523.68 -156.064)" style="fill:#8f2168"/>
        <path data-name="Trazado 1965" d="M1536.582 220.1a1.075 1.075 0 0 1-.034-.416l.261-.008a1.089 1.089 0 0 0 .03.377 1.34 1.34 0 0 0 .164.395.811.811 0 0 0 .3.32.291.291 0 0 0 .293-.016.231.231 0 0 0 .116-.163.5.5 0 0 0-.016-.219 2.814 2.814 0 0 0-.107-.3 3.594 3.594 0 0 1-.134-.408.623.623 0 0 1 .005-.321.478.478 0 0 1 .228-.272.526.526 0 0 1 .489-.04 1 1 0 0 1 .47.44 1.6 1.6 0 0 1 .17.381 1.148 1.148 0 0 1 .056.366l-.263.014a1.081 1.081 0 0 0-.174-.632.727.727 0 0 0-.3-.3.3.3 0 0 0-.29.015.252.252 0 0 0-.124.17.482.482 0 0 0 .012.224 3.069 3.069 0 0 0 .109.314 3.674 3.674 0 0 1 .132.4.6.6 0 0 1 0 .312.457.457 0 0 1-.218.264.514.514 0 0 1-.5.035 1.111 1.111 0 0 1-.479-.465 1.637 1.637 0 0 1-.2-.463" transform="translate(-1526.905 -162.381)" style="fill:#8f2168"/>
        <path data-name="Trazado 1966" d="M1541.984 227.338a.974.974 0 0 1-.085.534 1.229 1.229 0 0 1-.913.667.97.97 0 0 1-.532-.081 1.1 1.1 0 0 1-.431-.361 1.013 1.013 0 0 1-.189-.442.891.891 0 0 1 .052-.463l-.959.7-.17-.233 2.357-1.722.162.223-.34.248a.883.883 0 0 1 .464.086 1 1 0 0 1 .374.322 1.1 1.1 0 0 1 .21.52m-1.445.859a.729.729 0 0 0 .405.058.89.89 0 0 0 .411-.172.881.881 0 0 0 .288-.338.749.749 0 0 0 .069-.4.836.836 0 0 0-.478-.658.746.746 0 0 0-.4-.056.884.884 0 0 0-.41.171.9.9 0 0 0-.289.339.733.733 0 0 0-.07.4.8.8 0 0 0 .156.391.81.81 0 0 0 .322.267" transform="translate(-1528.551 -167.534)" style="fill:#8f2168"/>
        <path data-name="Trazado 1967" d="m1552.238 236.414-1.6 1.405-.182-.208.293-.256a.788.788 0 0 1-.432-.036.939.939 0 0 1-.38-.272.828.828 0 0 1 .1-1.282l.93-.815.189.217-.909.8a.714.714 0 0 0-.275.462.627.627 0 0 0 .181.473.7.7 0 0 0 .5.266.791.791 0 0 0 .556-.229l.842-.737z" transform="translate(-1536.652 -174.216)" style="fill:#8f2168"/>
        <path data-name="Trazado 1968" d="m1559.3 246.249-1.281-1.242a.764.764 0 0 0-.19.564.851.851 0 0 0 .277.554.927.927 0 0 0 .311.2.8.8 0 0 0 .352.05l-.013.247a.91.91 0 0 1-.435-.06 1.2 1.2 0 0 1-.4-.262 1.187 1.187 0 0 1-.321-.506 1.009 1.009 0 0 1-.015-.554 1.105 1.105 0 0 1 .287-.5 1.143 1.143 0 0 1 .486-.308.977.977 0 0 1 .535-.017 1.1 1.1 0 0 1 .764.741.983.983 0 0 1 0 .533 1.158 1.158 0 0 1-.294.5zm-.6-1.6a.771.771 0 0 0-.527.2l1.086 1.053a.775.775 0 0 0 .186-.534.734.734 0 0 0-.237-.5.725.725 0 0 0-.508-.218" transform="translate(-1542.501 -181.214)" style="fill:#8f2168"/>
        <path data-name="Trazado 1969" d="M1564.324 252.349a1.071 1.071 0 0 1-.164-.383l.245-.091a1.1 1.1 0 0 0 .147.349 1.35 1.35 0 0 0 .281.322.8.8 0 0 0 .389.207.29.29 0 0 0 .272-.108.232.232 0 0 0 .059-.191.509.509 0 0 0-.084-.2 2.822 2.822 0 0 0-.2-.252 3.63 3.63 0 0 1-.256-.344.615.615 0 0 1-.1-.306.48.48 0 0 1 .13-.33.526.526 0 0 1 .451-.193 1 1 0 0 1 .585.268 1.618 1.618 0 0 1 .282.308 1.151 1.151 0 0 1 .169.329l-.245.1a1.074 1.074 0 0 0-.365-.544.728.728 0 0 0-.381-.192.3.3 0 0 0-.271.107.252.252 0 0 0-.064.2.492.492 0 0 0 .082.209 3.161 3.161 0 0 0 .2.263 3.733 3.733 0 0 1 .252.338.607.607 0 0 1 .1.3.458.458 0 0 1-.124.319.515.515 0 0 1-.463.192 1.105 1.105 0 0 1-.6-.289 1.633 1.633 0 0 1-.333-.376" transform="translate(-1547.401 -185.986)" style="fill:#8f2168"/>
        <path data-name="Trazado 1970" d="M1573.1 256.964a.543.543 0 0 1-.228-.029.8.8 0 0 1-.223-.117.567.567 0 0 1-.134-.871l.764-1.039-.306-.227.144-.2.306.226.276-.376.232.171-.276.376.522.385-.144.2-.522-.385-.755 1.026a.4.4 0 0 0-.1.29.361.361 0 0 0 .161.242.524.524 0 0 0 .155.08.431.431 0 0 0 .164.02z" transform="translate(-1553.493 -188.589)" style="fill:#8f2168"/>
        <path data-name="Trazado 1971" d="M1580.086 261.193a.81.81 0 0 1-.144.642l-.71 1.116-.232-.151.179-.281a.66.66 0 0 1-.38.065 1 1 0 0 1-.427-.163.877.877 0 0 1-.387-.449.552.552 0 0 1 .064-.494.544.544 0 0 1 .4-.263.959.959 0 0 1 .617.2l.57.365.07-.109a.548.548 0 0 0 .1-.437.636.636 0 0 0-.3-.364 1.139 1.139 0 0 0-.364-.153.98.98 0 0 0-.369-.017l.006-.251a1.144 1.144 0 0 1 .442.03 1.512 1.512 0 0 1 .443.195.9.9 0 0 1 .427.521m-1.145 1.194a.665.665 0 0 0 .392-.132l.187-.294-.563-.361q-.461-.295-.666.027a.35.35 0 0 0-.039.324.647.647 0 0 0 .277.3.755.755 0 0 0 .412.131" transform="translate(-1557.635 -193.114)" style="fill:#8f2168"/>
        <path data-name="Trazado 1972" d="m1591.806 267.712-2 1.681a1.016 1.016 0 0 1-.456.252.667.667 0 0 1-.423-.066.844.844 0 0 1-.238-.17.624.624 0 0 1-.144-.233l.214-.135a.531.531 0 0 0 .279.317.39.39 0 0 0 .259.036.735.735 0 0 0 .293-.164l.174-.145.076-2.334.27.132-.073 1.984 1.514-1.279z" transform="translate(-1565.495 -197.795)" style="fill:#8f2168"/>
        <path data-name="Trazado 1973" d="M1608.984 274.523a.932.932 0 0 1 .01.719l-.377 1.179-.274-.088.368-1.152a.726.726 0 0 0 0-.532.583.583 0 0 0-.377-.3.678.678 0 0 0-.56.036.8.8 0 0 0-.354.481l-.341 1.067-.274-.088.368-1.152a.726.726 0 0 0 0-.532.588.588 0 0 0-.381-.306.678.678 0 0 0-.558.036.8.8 0 0 0-.356.48l-.341 1.067-.274-.088.65-2.034.262.084-.119.371a.767.767 0 0 1 .393-.189.991.991 0 0 1 .476.042.913.913 0 0 1 .407.25.7.7 0 0 1 .177.411.828.828 0 0 1 .423-.212 1.041 1.041 0 0 1 .517.04.846.846 0 0 1 .529.413" transform="translate(-1577.906 -202.66)" style="fill:#8f2168"/>
        <path data-name="Trazado 1974" d="M1624.276 278.965a.807.807 0 0 1 .094.651l-.265 1.3-.27-.055.067-.326a.659.659 0 0 1-.332.2.993.993 0 0 1-.457 0 .877.877 0 0 1-.521-.281.553.553 0 0 1-.116-.484.547.547 0 0 1 .281-.39.959.959 0 0 1 .646-.037l.662.136.026-.128a.546.546 0 0 0-.066-.442.636.636 0 0 0-.411-.232 1.146 1.146 0 0 0-.394-.012.971.971 0 0 0-.35.117l-.084-.237a1.146 1.146 0 0 1 .423-.13 1.512 1.512 0 0 1 .483.023.9.9 0 0 1 .585.334m-.643 1.526a.666.666 0 0 0 .319-.264l.07-.342-.655-.135q-.536-.11-.613.264a.35.35 0 0 0 .08.317.647.647 0 0 0 .368.185.756.756 0 0 0 .431-.025" transform="translate(-1590.664 -206.579)" style="fill:#8f2168"/>
        <path data-name="Trazado 1975" d="M1635.145 280.5a.914.914 0 0 1 .155.7l-.146 1.229-.286-.034.143-1.2a.708.708 0 0 0-.105-.524.622.622 0 0 0-.45-.23.727.727 0 0 0-.565.139.774.774 0 0 0-.266.539l-.132 1.113-.286-.034.251-2.12.274.033-.046.391a.8.8 0 0 1 .36-.262 1.04 1.04 0 0 1 .493-.049.869.869 0 0 1 .606.307" transform="translate(-1598.637 -207.677)" style="fill:#8f2168"/>
        <path data-name="Trazado 1976" d="m1646.586 282.49-1.781-.061a.763.763 0 0 0 .236.546.845.845 0 0 0 .576.225.924.924 0 0 0 .367-.058.8.8 0 0 0 .294-.2l.155.192a.91.91 0 0 1-.363.247 1.194 1.194 0 0 1-.471.073 1.181 1.181 0 0 1-.576-.16 1.011 1.011 0 0 1-.381-.4 1.107 1.107 0 0 1-.123-.565 1.147 1.147 0 0 1 .155-.555.983.983 0 0 1 .386-.373 1.039 1.039 0 0 1 .537-.12 1.025 1.025 0 0 1 .525.156.976.976 0 0 1 .355.4 1.151 1.151 0 0 1 .114.567zm-1.52-.781a.773.773 0 0 0-.254.505l1.51.052a.773.773 0 0 0-.219-.521.781.781 0 0 0-1.036-.036" transform="translate(-1607.032 -208.568)" style="fill:#8f2168"/>
        <path data-name="Trazado 1977" d="M1653.266 281.779a.5.5 0 0 1-.2-.1l.1-.222a.489.489 0 0 0 .335.1.333.333 0 0 0 .259-.108.437.437 0 0 0 .083-.3l-.057-2.293.287-.007.057 2.293a.669.669 0 0 1-.15.479.6.6 0 0 1-.457.186.914.914 0 0 1-.255-.028m.5-3.454a.2.2 0 0 1-.064-.145.2.2 0 0 1 .057-.144.2.2 0 0 1 .148-.065.206.206 0 0 1 .151.055.19.19 0 0 1 .064.139.212.212 0 0 1-.357.159" transform="translate(-1613.374 -206.115)" style="fill:#8f2168"/>
        <path data-name="Trazado 1978" d="M1660.952 282.941a1.019 1.019 0 0 1-.42-.353 1.181 1.181 0 0 1-.1-1.117 1.016 1.016 0 0 1 .354-.418 1.186 1.186 0 0 1 1.106-.1 1 1 0 0 1 .419.351 1.195 1.195 0 0 1 .1 1.116 1.007 1.007 0 0 1-.352.42 1.169 1.169 0 0 1-1.106.1m.94-.3a.722.722 0 0 0 .255-.318.982.982 0 0 0-.074-.866.72.72 0 0 0-.306-.269.852.852 0 0 0-.811.07.736.736 0 0 0-.257.318.964.964 0 0 0 .075.866.734.734 0 0 0 .307.269.853.853 0 0 0 .811-.07" transform="translate(-1618.77 -208.259)" style="fill:#8f2168"/>
        <path data-name="Trazado 1979" d="m1677.9 274.494.629 2.946-.269.058-.088-.413a.882.882 0 0 1-.266.393 1 1 0 0 1-.445.212 1.082 1.082 0 0 1-.56-.021.983.983 0 0 1-.453-.3 1.225 1.225 0 0 1-.236-1.1.973.973 0 0 1 .292-.455 1.093 1.093 0 0 1 .5-.247 1.006 1.006 0 0 1 .479.007.886.886 0 0 1 .4.236l-.268-1.255zm-.1 2.755a.737.737 0 0 0 .215-.347.964.964 0 0 0-.181-.85.733.733 0 0 0-.339-.228.793.793 0 0 0-.415-.017.8.8 0 0 0-.377.187.731.731 0 0 0-.216.347.961.961 0 0 0 .181.85.733.733 0 0 0 .339.228.846.846 0 0 0 .792-.17" transform="translate(-1630.511 -203.536)" style="fill:#8f2168"/>
        <path data-name="Trazado 1980" d="m1689.527 276.518-1.7.521a.763.763 0 0 0 .4.44.845.845 0 0 0 .617.025.916.916 0 0 0 .328-.174.8.8 0 0 0 .215-.284l.209.131a.915.915 0 0 1-.264.352 1.2 1.2 0 0 1-.422.222 1.18 1.18 0 0 1-.6.036 1.006 1.006 0 0 1-.49-.255 1.108 1.108 0 0 1-.3-.494 1.148 1.148 0 0 1-.033-.576.989.989 0 0 1 .245-.478 1.04 1.04 0 0 1 .469-.288 1.028 1.028 0 0 1 .547-.023.975.975 0 0 1 .464.259 1.153 1.153 0 0 1 .291.5zm-1.69-.245a.774.774 0 0 0-.077.561l1.445-.442a.77.77 0 0 0-.376-.422.782.782 0 0 0-.992.3" transform="translate(-1638.899 -204.39)" style="fill:#8f2168"/>
        <path data-name="Trazado 1981" d="m1704.14 270.944-1.63.721a.762.762 0 0 0 .45.389.844.844 0 0 0 .616-.049.922.922 0 0 0 .305-.213.8.8 0 0 0 .179-.308l.223.105a.912.912 0 0 1-.219.381 1.2 1.2 0 0 1-.392.271 1.179 1.179 0 0 1-.588.107 1.006 1.006 0 0 1-.517-.195 1.106 1.106 0 0 1-.355-.455 1.147 1.147 0 0 1-.1-.568.988.988 0 0 1 .185-.5 1.044 1.044 0 0 1 .432-.342 1.027 1.027 0 0 1 .541-.089.975.975 0 0 1 .492.2 1.157 1.157 0 0 1 .349.46zm-1.707-.041a.775.775 0 0 0-.01.566l1.382-.612a.772.772 0 0 0-.424-.374.782.782 0 0 0-.949.42" transform="translate(-1649.763 -200.346)" style="fill:#8f2168"/>
        <path data-name="Trazado 1982" d="M1713.837 262.077a.928.928 0 0 1 .538.476l.618 1.072-.249.144-.6-1.048a.724.724 0 0 0-.392-.359.582.582 0 0 0-.478.076.68.68 0 0 0-.35.44.8.8 0 0 0 .118.586l.559.97-.249.144-.6-1.047a.725.725 0 0 0-.392-.359.586.586 0 0 0-.482.077.682.682 0 0 0-.348.438.8.8 0 0 0 .116.587l.559.97-.249.144-1.066-1.849.238-.138.195.337a.772.772 0 0 1 .123-.418 1 1 0 0 1 .351-.325.91.91 0 0 1 .458-.134.7.7 0 0 1 .422.145.836.836 0 0 1 .128-.456 1.046 1.046 0 0 1 .377-.357.847.847 0 0 1 .661-.116" transform="translate(-1656.277 -194.31)" style="fill:#8f2168"/>
        <path data-name="Trazado 1983" d="m1728.51 256.6-1.438 1.055a.761.761 0 0 0 .523.283.847.847 0 0 0 .592-.18.923.923 0 0 0 .252-.273.8.8 0 0 0 .109-.339l.241.055a.916.916 0 0 1-.133.419 1.2 1.2 0 0 1-.325.349 1.184 1.184 0 0 1-.552.231 1.008 1.008 0 0 1-.547-.079 1.105 1.105 0 0 1-.445-.368 1.149 1.149 0 0 1-.22-.533.989.989 0 0 1 .073-.532 1.048 1.048 0 0 1 .349-.427 1.031 1.031 0 0 1 .509-.2.975.975 0 0 1 .524.092 1.15 1.15 0 0 1 .439.374zm-1.677.327a.775.775 0 0 0 .112.555l1.219-.894a.771.771 0 0 0-.494-.274.783.783 0 0 0-.837.614" transform="translate(-1667.907 -189.861)" style="fill:#8f2168"/>
        <path data-name="Trazado 1984" d="M1734.343 250.274a1.024 1.024 0 0 1 .309-.4l.18.214-.055.041a.681.681 0 0 0-.27.5.826.826 0 0 0 .227.567l.7.833-.22.185-1.372-1.634.211-.178.268.32a.7.7 0 0 1 .023-.443" transform="translate(-1673.312 -185.278)" style="fill:#8f2168"/>
        <path data-name="Trazado 1985" d="m1741.184 242.831 1.3 1.346a1.088 1.088 0 0 1 .369.764 1.1 1.1 0 0 1-.392.746 1.782 1.782 0 0 1-.464.329 1.143 1.143 0 0 1-.477.127l-.047-.259a1.09 1.09 0 0 0 .418-.107 1.4 1.4 0 0 0 .387-.268.823.823 0 0 0 .3-.551.8.8 0 0 0-.271-.554l-.189-.2a.868.868 0 0 1-.037.466 1.082 1.082 0 0 1-.271.411 1.132 1.132 0 0 1-.483.285.969.969 0 0 1-.533 0 1.1 1.1 0 0 1-.746-.771.973.973 0 0 1 .021-.53 1.146 1.146 0 0 1 .3-.475 1.082 1.082 0 0 1 .428-.263.883.883 0 0 1 .473-.019l-.285-.294zm.7 1.689a.717.717 0 0 0 .015-.4.789.789 0 0 0-.208-.364.78.78 0 0 0-.354-.218.723.723 0 0 0-.4 0 .865.865 0 0 0-.37.221.879.879 0 0 0-.23.36.71.71 0 0 0-.015.4.848.848 0 0 0 .564.583.718.718 0 0 0 .4 0 .858.858 0 0 0 .367-.218.875.875 0 0 0 .23-.363" transform="translate(-1677.897 -180.059)" style="fill:#8f2168"/>
        <path data-name="Trazado 1986" d="m1750 236.539-1.17 1.347a.76.76 0 0 0 .573.16.849.849 0 0 0 .537-.306.925.925 0 0 0 .186-.322.8.8 0 0 0 .031-.354h.247a.914.914 0 0 1-.037.439 1.206 1.206 0 0 1-.24.412 1.183 1.183 0 0 1-.487.348 1 1 0 0 1-.551.044 1.1 1.1 0 0 1-.515-.261 1.145 1.145 0 0 1-.333-.471.987.987 0 0 1-.045-.535 1.042 1.042 0 0 1 .246-.493 1.03 1.03 0 0 1 .452-.31.973.973 0 0 1 .531-.027 1.15 1.15 0 0 1 .511.268zm-1.563.69a.773.773 0 0 0 .231.516l.992-1.142a.772.772 0 0 0-.542-.158.784.784 0 0 0-.681.784" transform="translate(-1683.947 -175.132)" style="fill:#8f2168"/>
        <path data-name="Trazado 1987" d="M1754.933 227.33a.909.909 0 0 1 .687.21l1 .731-.17.232-.974-.715a.707.707 0 0 0-.507-.165.624.624 0 0 0-.421.28.73.73 0 0 0-.157.562.774.774 0 0 0 .338.5l.9.662-.17.233-1.719-1.262.163-.223.317.233a.8.8 0 0 1-.051-.442 1.049 1.049 0 0 1 .2-.455.872.872 0 0 1 .565-.378" transform="translate(-1688.078 -168.56)" style="fill:#8f2168"/>
        <path data-name="Trazado 1988" d="M1762.953 220.149a1 1 0 0 1-.534.131 1.177 1.177 0 0 1-.955-.587 1 1 0 0 1-.123-.536 1.148 1.148 0 0 1 .178-.555 1.1 1.1 0 0 1 .349-.364.815.815 0 0 1 .446-.128l.012.26a.672.672 0 0 0-.342.1.794.794 0 0 0-.251.26.84.84 0 0 0-.129.409.729.729 0 0 0 .1.4.966.966 0 0 0 .741.455.727.727 0 0 0 .4-.093.832.832 0 0 0 .3-.3.811.811 0 0 0 .119-.341.655.655 0 0 0-.061-.351l.236-.107a.817.817 0 0 1 .088.458 1.107 1.107 0 0 1-.165.475 1.152 1.152 0 0 1-.413.411" transform="translate(-1693.717 -161.731)" style="fill:#8f2168"/>
        <path data-name="Trazado 1989" d="M1762.613 212.534a.2.2 0 0 1-.157-.016.194.194 0 0 1-.1-.121.2.2 0 0 1 .017-.161.208.208 0 0 1 .123-.1.187.187 0 0 1 .152.012.213.213 0 0 1-.039.39m.466.246.136-.254 1.878 1.01-.136.254z" transform="translate(-1694.468 -157.29)" style="fill:#8f2168"/>
        <path data-name="Trazado 1990" d="M1768.708 205.555a.8.8 0 0 1 .654.057l1.2.556-.116.25-.3-.14a.661.661 0 0 1 .115.369 1 1 0 0 1-.1.446.874.874 0 0 1-.393.444.585.585 0 0 1-.811-.36.969.969 0 0 1 .112-.639l.284-.615-.117-.055a.545.545 0 0 0-.445-.036.636.636 0 0 0-.319.349 1.146 1.146 0 0 0-.1.382.989.989 0 0 0 .033.369l-.249.027a1.158 1.158 0 0 1-.03-.443 1.537 1.537 0 0 1 .133-.466.9.9 0 0 1 .458-.494m1.335.976a.667.667 0 0 0-.184-.371l-.316-.147-.28.608q-.229.5.116.658a.347.347 0 0 0 .326-.005.648.648 0 0 0 .264-.316.762.762 0 0 0 .074-.426" transform="translate(-1698.741 -152.387)" style="fill:#8f2168"/>
        <path data-name="Trazado 1991" d="M1773.85 198.243a1.073 1.073 0 0 1-.307.281l-.166-.2a1.108 1.108 0 0 0 .279-.254 1.342 1.342 0 0 0 .211-.372.805.805 0 0 0 .067-.437.29.29 0 0 0-.191-.222.231.231 0 0 0-.2.007.513.513 0 0 0-.163.147 2.794 2.794 0 0 0-.172.269 3.6 3.6 0 0 1-.24.356.612.612 0 0 1-.256.192.476.476 0 0 1-.354-.014.527.527 0 0 1-.331-.363 1.006 1.006 0 0 1 .059-.642 1.617 1.617 0 0 1 .2-.368 1.134 1.134 0 0 1 .254-.268l.172.2a1.077 1.077 0 0 0-.392.524.733.733 0 0 0-.056.424.3.3 0 0 0 .19.221.25.25 0 0 0 .21-.005.489.489 0 0 0 .17-.146 3.21 3.21 0 0 0 .18-.279 3.694 3.694 0 0 1 .236-.349.594.594 0 0 1 .248-.188.454.454 0 0 1 .342.012.515.515 0 0 1 .333.375 1.112 1.112 0 0 1-.075.664 1.647 1.647 0 0 1-.245.439" transform="translate(-1701.626 -145.598)" style="fill:#8f2168"/>
        <path data-name="Trazado 1992" d="M1628.346 143.9h.646a1.712 1.712 0 0 1 1.732 1.747c.012.714.006 1.429 0 2.143a.6.6 0 0 1-.687.682H1609.876c-.657 0-.826-.17-.826-.83v-1.915a1.727 1.727 0 0 1 1.824-1.829h.565c.136-.757.27-1.5.4-2.249.494-2.762.963-5.529 1.49-8.285a3.918 3.918 0 0 1 3.862-3.179c1.768-.015 3.536-.01 5.3 0a4.009 4.009 0 0 1 4 3.407q.881 5.031 1.784 10.059c.013.075.035.148.059.25m-1.184-.014c-.018-.129-.029-.233-.047-.336l-1.7-9.553a2.917 2.917 0 0 0-3.166-2.671h-4.905a2.853 2.853 0 0 0-2.936 2.459q-.607 3.371-1.2 6.743c-.2 1.114-.4 2.227-.6 3.357zm2.422 3.428v-1.433c0-.674-.165-.838-.846-.838h-17.7a2.529 2.529 0 0 0-.313.007.542.542 0 0 0-.52.517c-.021.577-.006 1.155-.006 1.747z" transform="translate(-1580.711 -96.535)" style="fill:#fff"/>
        <path data-name="Trazado 1993" d="M1597.483 149.029c-.788 0-1.575.006-2.362 0a.57.57 0 0 1-.6-.77.558.558 0 0 1 .556-.369q2.419-.005 4.839 0a.57.57 0 1 1-.013 1.137c-.806.009-1.613 0-2.419 0" transform="translate(-1569.897 -109.662)" style="fill:#fff"/>
        <path data-name="Trazado 1994" d="M1687.285 147.882c.788 0 1.575-.006 2.363 0a.57.57 0 0 1 .6.77.559.559 0 0 1-.556.369q-2.419.005-4.839 0a.57.57 0 1 1 .013-1.137c.806-.009 1.613 0 2.419 0" transform="translate(-1636.515 -109.658)" style="fill:#fff"/>
        <path data-name="Trazado 1995" d="M1615.729 114.116a.585.585 0 0 1-.823.592 1.157 1.157 0 0 1-.266-.211q-1.5-1.5-3-3.006a1.318 1.318 0 0 1-.18-.22.556.556 0 0 1 .76-.776 1.381 1.381 0 0 1 .241.2c.994.994 1.99 1.986 2.976 2.988a2.414 2.414 0 0 1 .292.433" transform="translate(-1582.433 -81.879)" style="fill:#fff"/>
        <path data-name="Trazado 1996" d="M1674.565 114.78a.586.586 0 0 1-.589-.826 1.158 1.158 0 0 1 .211-.267q1.5-1.506 3-3.006a1.269 1.269 0 0 1 .219-.18.556.556 0 0 1 .773.763 1.408 1.408 0 0 1-.2.241c-.992 1-1.983 1.995-2.983 2.983a2.387 2.387 0 0 1-.432.292" transform="translate(-1628.843 -81.879)" style="fill:#fff"/>
        <path data-name="Trazado 1997" d="M1649.994 97.695v2.2a.589.589 0 0 1-.48.645.577.577 0 0 1-.658-.637c-.007-.817 0-1.635 0-2.452v-2a.57.57 0 0 1 .358-.565.475.475 0 0 1 .6.125.952.952 0 0 1 .179.517c.019.722.008 1.445.008 2.167" transform="translate(-1610.245 -70.328)" style="fill:#fff"/>
        <path data-name="Trazado 1998" d="M1668.058 161.7a.582.582 0 0 1-.49.643.593.593 0 0 1-.645-.549c-.123-.644-.235-1.291-.352-1.937-.145-.8-.294-1.609-.432-2.415a1.041 1.041 0 0 1 0-.449.517.517 0 0 1 .534-.39.57.57 0 0 1 .566.507c.085.41.152.823.227 1.234l.575 3.172c.013.075.017.151.02.184" transform="translate(-1623.054 -116.128)" style="fill:#fff"/>
        <path data-name="Trazado 1999" d="M1664.9 149.039a.568.568 0 1 1 .58-.547.585.585 0 0 1-.58.547" transform="translate(-1621.748 -109.676)" style="fill:#fff"/>
    </g>
</svg>
