<svg xmlns="http://www.w3.org/2000/svg" width="79.322" height="79.631" viewBox="0 0 79.322 79.631">
    <g data-name="Grupo 1237">
        <path data-name="Trazado 1852" d="M828.881 39.871A39.661 39.661 0 1 1 789.22.056a39.739 39.739 0 0 1 39.661 39.815" transform="translate(-749.559 -.056)" style="fill:#fff"/>
        <path data-name="Trazado 1853" d="M811.847 86q0 1.069.093 2.114c16.689 7.311 24.516-8.349 34.99-7.873a24.148 24.148 0 0 1 12.185 3.758 23.674 23.674 0 0 0-47.268 2" transform="translate(-795.779 -46.179)" style="fill:#00833e"/>
        <path data-name="Trazado 1854" d="M812.209 139.615a23.674 23.674 0 0 0 47.258-2.114q0-1.011-.083-2a24.148 24.148 0 0 0-12.185-3.758c-10.473-.475-18.3 15.185-34.99 7.874" transform="translate(-796.048 -97.685)" style="fill:#a0c839"/>
        <path data-name="Trazado 1855" d="m763.219 160.007-6.374-2.229-6.159 2.835v-.03l-.091-.91 6.208-2.858 6.3 2.2a.039.039 0 0 0 0 .01z" transform="translate(-750.325 -116.284)" style="fill:#a0c839"/>
        <path data-name="Trazado 1856" d="m1020.775 162.324-6.667 2.113-5.817-2.89c-.022.32-.049.639-.083.956l5.827 2.9 6.665-2.112z" transform="translate(-941.488 -119.791)" style="fill:#a0c839"/>
        <path data-name="Trazado 1857" d="M799.372 184.812a28.043 28.043 0 0 0 53.4 0c.077-.223.166-.539.26-.893h-.918a27.142 27.142 0 0 1-52.084 0h-.919c.095.354.184.672.26.893" transform="translate(-786.329 -136.38)" style="fill:#a0c839"/>
        <path data-name="Trazado 1858" d="M829.6 183.918c-.081.41-.154.74-.2.893a38.821 38.821 0 0 1-75.732 0 12.08 12.08 0 0 1-.2-.893h-.9a39.7 39.7 0 0 0 77.929 0z" transform="translate(-751.797 -136.379)" style="fill:#a0c839"/>
        <path data-name="Trazado 1859" d="m828.212 31.666.041-.052a39.735 39.735 0 0 0-78.323 3.57l.038-.011a40.366 40.366 0 0 0-.273 4.133l6.273-2.554 6.287 2.743a27.163 27.163 0 0 1 8.071-18.961l.02-.02c.1-.1.21-.2.315-.3.084-.08.168-.161.253-.239l.087-.08A27.137 27.137 0 0 1 816.366 37.1l7.121 4.215 5.374-5.532a39.512 39.512 0 0 0-.648-4.115" transform="translate(-749.66 -.084)" style="fill:#00833e"/>
        <path data-name="Trazado 1860" d="m786.5 75.1-.435.658 1.13.751-.8 1.206-4.254-2.826 1.289-1.949a2.92 2.92 0 0 1 .856-.878 1.855 1.855 0 0 1 2.633.781 1.759 1.759 0 0 1 .129.975L789 73.79l-.854 1.291zm-1.633-1.909a1 1 0 0 0-.535.451l-.443.67 1.246.827.443-.67a1.011 1.011 0 0 0 .21-.667.687.687 0 0 0-.334-.494.7.7 0 0 0-.587-.118" transform="translate(-773.742 -53.228)" style="fill:#fff"/>
        <path data-name="Trazado 1861" d="m801.824 55.332.815.763-2.8 3-3.731-3.49 2.731-2.933.815.763-1.754 1.887.629.588 1.547-1.661.789.738-1.547 1.661.682.638z" transform="translate(-784.104 -39.069)" style="fill:#fff"/>
        <path data-name="Trazado 1862" d="M814.67 40.257a1.781 1.781 0 0 1 1.024.041 1.8 1.8 0 0 1 .992 2.59 2.917 2.917 0 0 1-.814.917l-.705.543.812 1.061-1.145.881-3.108-4.057 1.851-1.424a2.908 2.908 0 0 1 1.094-.552m.854 2.135a.687.687 0 0 0-.156-.576.7.7 0 0 0-.517-.3.994.994 0 0 0-.652.253l-.636.49.91 1.188.636-.489a1.011 1.011 0 0 0 .414-.563" transform="translate(-795.689 -29.821)" style="fill:#fff"/>
        <path data-name="Trazado 2302" d="M0 0h1.444l-.005 5.111H-.005z" transform="rotate(-30.212 26.918 -34.395)" style="fill:#fff"/>
        <path data-name="Trazado 1863" d="m841.865 24.191-1.439.623-.455-1.053 4.2-1.819.451 1.058-1.432.621 1.571 3.642-1.325.574z" transform="translate(-816.649 -16.283)" style="fill:#fff"/>
        <path data-name="Trazado 1864" d="m866.3 20.285.278 1.083-3.968 1.024-1.272-4.954 3.876-1 .278 1.083-2.492.643.214.835 2.2-.567.269 1.047-2.2.567.232.906z" transform="translate(-832.502 -12.202)" style="fill:#fff"/>
        <path data-name="Trazado 1865" d="m897.823 17.9.019 1.118-4.1.071-.088-5.115 4-.069.019 1.118-2.573.044.015.862 2.267-.039.018 1.081-2.267.039.016.935z" transform="translate(-856.486 -10.32)" style="fill:#fff"/>
        <path data-name="Trazado 1866" d="m913.9 14.386 1.431.193-.527 3.933 2.413.325-.152 1.137-3.844-.518z" transform="translate(-871.003 -10.681)" style="fill:#fff"/>
        <path data-name="Trazado 1867" d="M941.8 27.1a2.543 2.543 0 0 1-.593-1.246 2.77 2.77 0 0 1 .993-2.561 2.529 2.529 0 0 1 1.276-.518 3.011 3.011 0 0 1 1.465.206 3.086 3.086 0 0 1 1.086.689 2.437 2.437 0 0 1 .611 1.006l-1.158.443a1.513 1.513 0 0 0-.9-1 1.482 1.482 0 0 0-.756-.1 1.262 1.262 0 0 0-.655.3 1.72 1.72 0 0 0-.552 1.424 1.269 1.269 0 0 0 .283.663 1.486 1.486 0 0 0 .624.439 1.508 1.508 0 0 0 1.338-.122l.555 1.11a2.421 2.421 0 0 1-1.129.329 3.088 3.088 0 0 1-1.265-.226 3.019 3.019 0 0 1-1.219-.84" transform="translate(-891.746 -16.883)" style="fill:#fff"/>
        <path data-name="Trazado 2303" d="m0 0 5.113-.005v1.444L0 1.444z" transform="rotate(-61.282 37.275 -39.48)" style="fill:#fff"/>
        <path data-name="Trazado 1868" d="M970.918 42.867a2.544 2.544 0 0 1-.252-1.357 2.765 2.765 0 0 1 1.617-2.218 2.527 2.527 0 0 1 1.366-.171 3.014 3.014 0 0 1 1.362.577 3.1 3.1 0 0 1 .872.947 2.441 2.441 0 0 1 .332 1.13l-1.232.129a1.516 1.516 0 0 0-.618-1.2 1.481 1.481 0 0 0-.705-.29 1.262 1.262 0 0 0-.709.118 1.719 1.719 0 0 0-.9 1.233 1.271 1.271 0 0 0 .1.713 1.486 1.486 0 0 0 .49.585 1.508 1.508 0 0 0 1.324.228l.251 1.216a2.42 2.42 0 0 1-1.175.026 3.09 3.09 0 0 1-1.164-.545 3.028 3.028 0 0 1-.963-1.126" transform="translate(-913.622 -28.999)" style="fill:#fff"/>
        <path data-name="Trazado 1869" d="m987.971 50.742 1.016 1.028-2.811 2.794 1.714 1.733-.813.808-2.731-2.761z" transform="translate(-923.783 -37.636)" style="fill:#fff"/>
        <path data-name="Trazado 1870" d="M999.49 71.3a2.609 2.609 0 0 1 3.78-2.667 3.265 3.265 0 0 1 1.674 2.384 2.609 2.609 0 0 1-3.78 2.667 3.265 3.265 0 0 1-1.674-2.384m2.087 1.169a1.31 1.31 0 0 0 .706.11 1.684 1.684 0 0 0 1.246-.879 1.317 1.317 0 0 0 .135-.7 1.438 1.438 0 0 0-.806-1.147 1.308 1.308 0 0 0-.706-.11 1.682 1.682 0 0 0-1.246.879 1.312 1.312 0 0 0-.135.7 1.438 1.438 0 0 0 .806 1.147" transform="translate(-935.003 -50.687)" style="fill:#fff"/>
        <path data-name="Trazado 1871" d="m799.381 233.073.182.223-.837.686a1.384 1.384 0 0 1-.5-.195 1.748 1.748 0 0 1-.433-.384 1.571 1.571 0 0 1-.34-.712 1.379 1.379 0 0 1 .061-.743 1.5 1.5 0 0 1 1.145-.938 1.375 1.375 0 0 1 .738.087 1.576 1.576 0 0 1 .631.479 1.664 1.664 0 0 1 .3.528 1.191 1.191 0 0 1 .053.549l-.265-.024a1.169 1.169 0 0 0-.284-.874 1.27 1.27 0 0 0-.511-.386 1.112 1.112 0 0 0-.6-.071 1.221 1.221 0 0 0-.93.762 1.147 1.147 0 0 0-.052.6 1.254 1.254 0 0 0 .273.579 1.234 1.234 0 0 0 .638.436z" transform="translate(-785.076 -171.283)" style="fill:#00833e"/>
        <path data-name="Trazado 1872" d="m807.287 243.787-1.247-1.276a.764.764 0 0 0-.2.559.851.851 0 0 0 .262.561.919.919 0 0 0 .306.211.8.8 0 0 0 .35.059l-.02.247a.907.907 0 0 1-.433-.072 1.278 1.278 0 0 1-.7-.787 1.013 1.013 0 0 1 0-.554 1.106 1.106 0 0 1 .3-.494 1.139 1.139 0 0 1 .494-.295.978.978 0 0 1 .536 0 1.1 1.1 0 0 1 .744.761.983.983 0 0 1-.015.532 1.154 1.154 0 0 1-.307.489zm-.562-1.617a.77.77 0 0 0-.532.19l1.057 1.082a.773.773 0 0 0 .2-.529.732.732 0 0 0-.224-.51.723.723 0 0 0-.5-.232" transform="translate(-791.117 -179.375)" style="fill:#00833e"/>
        <path data-name="Trazado 1873" d="M812.133 250.023a1.07 1.07 0 0 1-.153-.387l.247-.084a1.1 1.1 0 0 0 .138.352 1.336 1.336 0 0 0 .272.329.8.8 0 0 0 .384.218.29.29 0 0 0 .275-.1.232.232 0 0 0 .064-.19.514.514 0 0 0-.079-.205 2.794 2.794 0 0 0-.19-.257 3.561 3.561 0 0 1-.247-.351.616.616 0 0 1-.088-.308.482.482 0 0 1 .139-.327.527.527 0 0 1 .456-.181 1 1 0 0 1 .577.283 1.612 1.612 0 0 1 .274.315 1.144 1.144 0 0 1 .16.334l-.247.09a1.076 1.076 0 0 0-.35-.553.726.726 0 0 0-.375-.2.3.3 0 0 0-.274.1.255.255 0 0 0-.07.2.492.492 0 0 0 .076.211 3.177 3.177 0 0 0 .2.268 3.662 3.662 0 0 1 .242.345.6.6 0 0 1 .087.3.46.46 0 0 1-.132.316.515.515 0 0 1-.468.179 1.107 1.107 0 0 1-.593-.305 1.639 1.639 0 0 1-.323-.385" transform="translate(-795.878 -184.284)" style="fill:#00833e"/>
        <path data-name="Trazado 1874" d="M820.724 254.878a.544.544 0 0 1-.227-.035.818.818 0 0 1-.22-.123.566.566 0 0 1-.111-.874l.792-1.018-.3-.234.149-.192.3.234.286-.368.227.177-.286.368.511.4-.149.192-.511-.4-.782 1.006a.405.405 0 0 0-.1.288.362.362 0 0 0 .155.247.525.525 0 0 0 .153.084.424.424 0 0 0 .163.025z" transform="translate(-801.836 -187.055)" style="fill:#00833e"/>
        <path data-name="Trazado 1875" d="m826.319 255.964.235.166-1.227 1.745-.235-.166zm.3-.434a.2.2 0 0 1 .034-.155.194.194 0 0 1 .131-.081.2.2 0 0 1 .157.037.209.209 0 0 1 .089.135.189.189 0 0 1-.031.15.212.212 0 0 1-.381-.086" transform="translate(-805.607 -189.298)" style="fill:#00833e"/>
        <path data-name="Trazado 1876" d="M830.539 262.339a1.024 1.024 0 0 1-.128-.534 1.177 1.177 0 0 1 .587-.954 1.007 1.007 0 0 1 .533-.123 1.187 1.187 0 0 1 .944.584.992.992 0 0 1 .127.532 1.191 1.191 0 0 1-.587.954 1 1 0 0 1-.532.126 1.171 1.171 0 0 1-.945-.584m.934.32a.719.719 0 0 0 .394-.1.981.981 0 0 0 .455-.739.722.722 0 0 0-.085-.4.854.854 0 0 0-.693-.428.732.732 0 0 0-.4.1.963.963 0 0 0-.455.739.738.738 0 0 0 .087.4.855.855 0 0 0 .693.428m1.278-2.3.327.2-.822.083-.241-.149z" transform="translate(-809.555 -193.053)" style="fill:#00833e"/>
        <path data-name="Trazado 1877" d="M841.7 267.138a.913.913 0 0 1-.094.714l-.556 1.106-.257-.13.543-1.081a.709.709 0 0 0 .08-.528.625.625 0 0 0-.345-.37.726.726 0 0 0-.578-.063.772.772 0 0 0-.433.415l-.5 1-.257-.13.959-1.907.246.124-.177.352a.8.8 0 0 1 .427-.123 1.037 1.037 0 0 1 .481.122.871.871 0 0 1 .465.5" transform="translate(-816.152 -197.361)" style="fill:#00833e"/>
        <path data-name="Trazado 1878" d="m858.1 272.009-1 2.842-.26-.092.14-.4a.874.874 0 0 1-.432.2 1 1 0 0 1-.49-.052 1.083 1.083 0 0 1-.466-.311.99.99 0 0 1-.231-.49 1.225 1.225 0 0 1 .374-1.065.971.971 0 0 1 .486-.235 1.091 1.091 0 0 1 .557.052 1.006 1.006 0 0 1 .406.257.892.892 0 0 1 .219.411l.425-1.21zm-1.518 2.3a.735.735 0 0 0 .365-.183.964.964 0 0 0 .288-.82.739.739 0 0 0-.17-.372.846.846 0 0 0-.764-.269.734.734 0 0 0-.365.183.965.965 0 0 0-.288.82.734.734 0 0 0 .17.372.844.844 0 0 0 .764.27" transform="translate(-828.058 -201.622)" style="fill:#00833e"/>
        <path data-name="Trazado 1879" d="m868.57 278.6-1.725-.448a.766.766 0 0 0 .112.585.848.848 0 0 0 .514.345.919.919 0 0 0 .371.023.793.793 0 0 0 .331-.13l.11.221a.909.909 0 0 1-.408.163 1.274 1.274 0 0 1-1-.312 1.012 1.012 0 0 1-.286-.475 1.11 1.11 0 0 1 0-.578 1.146 1.146 0 0 1 .271-.509.987.987 0 0 1 .457-.28 1.094 1.094 0 0 1 1.029.267.981.981 0 0 1 .261.464 1.158 1.158 0 0 1-.011.578zm-1.314-1.093a.775.775 0 0 0-.358.438l1.463.379a.775.775 0 0 0-.1-.557.781.781 0 0 0-1-.26" transform="translate(-836.371 -205.518)" style="fill:#00833e"/>
        <path data-name="Trazado 1880" d="m884.428 280.262-.528-.988a2.081 2.081 0 0 1-.226-.017l-.756-.1-.113.894-.3-.038.357-2.819 1.053.134a1.28 1.28 0 0 1 .811.365.885.885 0 0 1 .216.748.88.88 0 0 1-.755.8l.564 1.054zm-.068-1.363a.734.734 0 0 0 .132-1.045.987.987 0 0 0-.616-.265l-.747-.1-.179 1.414.747.1a.978.978 0 0 0 .663-.1" transform="translate(-848.213 -205.541)" style="fill:#00833e"/>
        <path data-name="Trazado 1881" d="m896.355 282.467-1.781-.071a.764.764 0 0 0 .234.548.847.847 0 0 0 .575.228.918.918 0 0 0 .367-.057.8.8 0 0 0 .3-.2l.154.193a.913.913 0 0 1-.364.246 1.2 1.2 0 0 1-.471.07 1.181 1.181 0 0 1-.575-.163 1.009 1.009 0 0 1-.379-.4 1.1 1.1 0 0 1-.119-.565 1.141 1.141 0 0 1 .158-.554.982.982 0 0 1 .387-.371 1.038 1.038 0 0 1 .538-.117 1.027 1.027 0 0 1 .525.159.98.98 0 0 1 .353.4 1.156 1.156 0 0 1 .111.567zm-1.515-.79a.775.775 0 0 0-.257.5l1.51.06a.772.772 0 0 0-.216-.522.781.781 0 0 0-1.036-.041" transform="translate(-856.956 -208.547)" style="fill:#00833e"/>
        <path data-name="Trazado 1882" d="M905 283.4a1.071 1.071 0 0 1-.376-.177l.122-.232a1.094 1.094 0 0 0 .342.162 1.332 1.332 0 0 0 .423.053.8.8 0 0 0 .428-.1.291.291 0 0 0 .131-.262.232.232 0 0 0-.083-.182.512.512 0 0 0-.2-.1 2.853 2.853 0 0 0-.314-.057 3.623 3.623 0 0 1-.42-.086.615.615 0 0 1-.275-.164.481.481 0 0 1-.122-.333.528.528 0 0 1 .208-.446 1 1 0 0 1 .614-.19 1.605 1.605 0 0 1 .415.041 1.13 1.13 0 0 1 .345.133l-.118.235a1.073 1.073 0 0 0-.633-.162.727.727 0 0 0-.412.111.3.3 0 0 0-.132.26.253.253 0 0 0 .085.192.482.482 0 0 0 .2.1 3.189 3.189 0 0 0 .326.061 3.662 3.662 0 0 1 .412.084.6.6 0 0 1 .269.158.458.458 0 0 1 .12.321.516.516 0 0 1-.219.452 1.1 1.1 0 0 1-.64.185 1.626 1.626 0 0 1-.5-.059" transform="translate(-864.623 -208.57)" style="fill:#00833e"/>
        <path data-name="Trazado 1883" d="M913.589 277.938a.2.2 0 0 1-.073-.141.194.194 0 0 1 .049-.147.2.2 0 0 1 .144-.073.208.208 0 0 1 .154.046.189.189 0 0 1 .072.134.212.212 0 0 1-.346.18m.048.525.287-.024.18 2.128-.287.025z" transform="translate(-871.222 -205.821)" style="fill:#00833e"/>
        <path data-name="Trazado 1884" d="m920.552 276.092.446 2.979-.272.041-.062-.418a.877.877 0 0 1-.29.376 1 1 0 0 1-.458.184 1.078 1.078 0 0 1-.557-.056.985.985 0 0 1-.434-.325 1.225 1.225 0 0 1-.167-1.116.972.972 0 0 1 .32-.436 1.091 1.091 0 0 1 .517-.215 1 1 0 0 1 .478.037.886.886 0 0 1 .385.26l-.19-1.268zm-.267 2.744a.735.735 0 0 0 .237-.333.964.964 0 0 0-.129-.859.732.732 0 0 0-.324-.249.793.793 0 0 0-.414-.042.8.8 0 0 0-.387.163.735.735 0 0 0-.237.333.966.966 0 0 0 .128.859.735.735 0 0 0 .324.249.846.846 0 0 0 .8-.12" transform="translate(-875.062 -204.721)" style="fill:#00833e"/>
        <path data-name="Trazado 1885" d="m931.953 276.96.5 2.075-.267.065-.092-.379a.79.79 0 0 1-.232.368.938.938 0 0 1-.416.212.825.825 0 0 1-1.09-.679l-.291-1.2.279-.068.285 1.176a.714.714 0 0 0 .282.458.623.623 0 0 0 .5.058.7.7 0 0 0 .468-.325.8.8 0 0 0 .055-.6l-.263-1.089z" transform="translate(-883.505 -205.364)" style="fill:#00833e"/>
        <path data-name="Trazado 1886" d="M942.208 276.663a1.018 1.018 0 0 1-.492-.243 1.175 1.175 0 0 1-.356-1.062 1 1 0 0 1 .246-.49 1.184 1.184 0 0 1 1.052-.354.99.99 0 0 1 .489.242 1.191 1.191 0 0 1 .356 1.062 1.009 1.009 0 0 1-.244.491 1.17 1.17 0 0 1-1.052.354m.842-.515a.723.723 0 0 0 .173-.369.982.982 0 0 0-.276-.824.719.719 0 0 0-.361-.189.852.852 0 0 0-.771.26.735.735 0 0 0-.175.37.965.965 0 0 0 .276.824.73.73 0 0 0 .362.188.852.852 0 0 0 .772-.26" transform="translate(-891.869 -203.537)" style="fill:#00833e"/>
        <path data-name="Trazado 1887" d="M951.845 273.127a1.073 1.073 0 0 1-.415-.029l.031-.26a1.087 1.087 0 0 0 .376.028 1.337 1.337 0 0 0 .414-.1.8.8 0 0 0 .362-.252.291.291 0 0 0 .029-.292.232.232 0 0 0-.142-.14.509.509 0 0 0-.218-.018 2.847 2.847 0 0 0-.314.06 3.645 3.645 0 0 1-.423.071.611.611 0 0 1-.315-.054.478.478 0 0 1-.233-.267.528.528 0 0 1 .035-.491 1 1 0 0 1 .5-.4 1.606 1.606 0 0 1 .4-.111 1.144 1.144 0 0 1 .369 0l-.026.262a1.073 1.073 0 0 0-.649.076.731.731 0 0 0-.345.252.3.3 0 0 0-.03.29.253.253 0 0 0 .149.149.485.485 0 0 0 .223.022 3.164 3.164 0 0 0 .326-.061 3.766 3.766 0 0 1 .415-.07.6.6 0 0 1 .307.051.457.457 0 0 1 .227.256.518.518 0 0 1-.042.5 1.11 1.11 0 0 1-.531.4 1.629 1.629 0 0 1-.486.124" transform="translate(-899.003 -200.838)" style="fill:#00833e"/>
        <path data-name="Trazado 1888" d="M963.809 264.689a1.106 1.106 0 0 1-.521-.013l-.011-.26a1.12 1.12 0 0 0 .478.017 1.489 1.489 0 0 0 .506-.176.964.964 0 0 0 .429-.4.433.433 0 0 0-.012-.41.363.363 0 0 0-.223-.186.7.7 0 0 0-.3-.012 4.021 4.021 0 0 0-.422.1 4.4 4.4 0 0 1-.521.115.837.837 0 0 1-.4-.04.609.609 0 0 1-.323-.3.712.712 0 0 1-.093-.4.782.782 0 0 1 .165-.417 1.429 1.429 0 0 1 .457-.379 1.714 1.714 0 0 1 .447-.176 1.37 1.37 0 0 1 .442-.037l.029.259a1.392 1.392 0 0 0-.418.033 1.418 1.418 0 0 0-.374.144.917.917 0 0 0-.418.4.448.448 0 0 0 .018.416.371.371 0 0 0 .224.188.676.676 0 0 0 .3.01c.109-.019.25-.053.424-.1a4.23 4.23 0 0 1 .514-.115.826.826 0 0 1 .4.038.6.6 0 0 1 .318.293.7.7 0 0 1 .091.4.781.781 0 0 1-.172.418 1.479 1.479 0 0 1-.461.379 1.818 1.818 0 0 1-.577.209" transform="translate(-907.498 -194.06)" style="fill:#00833e"/>
        <path data-name="Trazado 1889" d="M974.137 260.99a1.014 1.014 0 0 1-.539-.1 1.175 1.175 0 0 1-.627-.928 1.01 1.01 0 0 1 .107-.538 1.186 1.186 0 0 1 .922-.624.989.989 0 0 1 .536.1 1.191 1.191 0 0 1 .626.928 1.009 1.009 0 0 1-.1.538 1.171 1.171 0 0 1-.919.623m.674-.722a.725.725 0 0 0 .069-.4.981.981 0 0 0-.486-.72.718.718 0 0 0-.4-.086.853.853 0 0 0-.674.457.733.733 0 0 0-.07.4.962.962 0 0 0 .486.72.731.731 0 0 0 .4.085.853.853 0 0 0 .674-.457" transform="translate(-915.339 -191.895)" style="fill:#00833e"/>
        <path data-name="Trazado 2304" d="M0 0h.288v3.01H0z" transform="rotate(-37.569 125.59 -54.235)" style="fill:#00833e"/>
        <path data-name="Trazado 1890" d="M982.9 249.5a.2.2 0 0 1-.14-.073.2.2 0 0 1-.044-.148.2.2 0 0 1 .076-.143.208.208 0 0 1 .153-.051.187.187 0 0 1 .136.069.213.213 0 0 1-.181.347m.34.4.221-.185 1.365 1.64-.221.185z" transform="translate(-922.575 -184.696)" style="fill:#00833e"/>
        <path data-name="Trazado 1891" d="m990.12 241.393 2.069 2.185-.2.19-.29-.306a.878.878 0 0 1-.022.474 1.006 1.006 0 0 1-.27.414 1.079 1.079 0 0 1-.488.274.981.981 0 0 1-.541-.017 1.221 1.221 0 0 1-.775-.819.975.975 0 0 1 .013-.541 1.093 1.093 0 0 1 .3-.473 1.008 1.008 0 0 1 .413-.245.883.883 0 0 1 .464-.008l-.881-.931zm1.35 2.4a.739.739 0 0 0 0-.409.9.9 0 0 0-.224-.386.889.889 0 0 0-.373-.244.732.732 0 0 0-.408-.018.793.793 0 0 0-.363.2.8.8 0 0 0-.224.356.737.737 0 0 0 0 .409.962.962 0 0 0 .6.63.733.733 0 0 0 .408.018.848.848 0 0 0 .588-.559" transform="translate(-927.658 -178.993)" style="fill:#00833e"/>
        <path data-name="Trazado 1892" d="M999.194 239.194a1.022 1.022 0 0 1-.548.034 1.175 1.175 0 0 1-.836-.744 1.014 1.014 0 0 1-.03-.548 1.189 1.189 0 0 1 .737-.832.986.986 0 0 1 .544-.034 1.188 1.188 0 0 1 .836.744 1.009 1.009 0 0 1 .032.547 1.172 1.172 0 0 1-.736.832m.475-.867a.722.722 0 0 0-.033-.406.978.978 0 0 0-.648-.577.719.719 0 0 0-.407.016.855.855 0 0 0-.54.61.736.736 0 0 0 .032.408.959.959 0 0 0 .648.577.728.728 0 0 0 .408-.017.855.855 0 0 0 .54-.61" transform="translate(-933.733 -175.771)" style="fill:#00833e"/>
        <path data-name="Trazado 1893" d="M1005.62 231.438a1.06 1.06 0 0 1-.374.181l-.1-.241a1.083 1.083 0 0 0 .341-.163 1.339 1.339 0 0 0 .309-.3.808.808 0 0 0 .189-.4.29.29 0 0 0-.12-.268.23.23 0 0 0-.193-.051.514.514 0 0 0-.2.093 2.751 2.751 0 0 0-.242.208 3.6 3.6 0 0 1-.332.272.612.612 0 0 1-.3.11.476.476 0 0 1-.335-.116.529.529 0 0 1-.213-.443 1 1 0 0 1 .241-.6 1.62 1.62 0 0 1 .294-.3 1.136 1.136 0 0 1 .321-.184l.107.24a1.076 1.076 0 0 0-.526.389.729.729 0 0 0-.175.39.3.3 0 0 0 .118.267.253.253 0 0 0 .2.055.486.486 0 0 0 .2-.092 3.126 3.126 0 0 0 .253-.215 3.765 3.765 0 0 1 .325-.267.6.6 0 0 1 .292-.109.457.457 0 0 1 .324.11.517.517 0 0 1 .211.455 1.11 1.11 0 0 1-.261.615 1.63 1.63 0 0 1-.361.35" transform="translate(-938.402 -169.989)" style="fill:#00833e"/>
        <path data-name="Trazado 1894" d="M885.405 106.244c.369-.216.727-.427 1.086-.636a.9.9 0 0 1 1.32 1.166q-.969 2.284-1.944 4.565a1.7 1.7 0 0 1-1.8 1.106c-1.336-.112-2.67-.262-4-.4-.4-.04-.8-.078-1.192-.13a.858.858 0 0 1-.767-.708.875.875 0 0 1 .419-.935c.172-.11.352-.208.528-.312l.543-.322c-.122-.2-.235-.391-.351-.579-1.156-1.879-2.317-3.755-3.462-5.641a.406.406 0 0 0-.5-.213 3.278 3.278 0 0 0-2.3 1.58c-.729 1.243-1.426 2.5-2.133 3.76a.5.5 0 0 0 .207.747q1.738.986 3.484 1.96a.5.5 0 0 0 .762-.226c.524-.919 1.043-1.842 1.564-2.763a1.867 1.867 0 0 1 .139-.228.395.395 0 0 1 .682.393 3.619 3.619 0 0 1-.231.421l-1.447 2.554a1.3 1.3 0 0 1-1.906.525q-1.7-.949-3.393-1.905a1.3 1.3 0 0 1-.539-1.906c.671-1.194 1.34-2.39 2.022-3.577a4.12 4.12 0 0 1 3.746-2.185q2.48-.029 4.96-.013a3.707 3.707 0 0 1 3.314 1.887c.362.592.7 1.2 1.051 1.8.039.068.084.133.136.216m1.718.034-.066-.053c-.084.043-.17.082-.252.13-.414.242-.827.487-1.242.727-.346.2-.518.155-.721-.193-.427-.73-.847-1.463-1.277-2.191a2.962 2.962 0 0 0-2.7-1.554c-1.343 0-2.685.005-4.028.01-.075 0-.15.01-.265.018l.168.276 3.692 6c.215.35.169.538-.182.746-.382.226-.768.448-1.15.675-.076.045-.143.106-.281.21.2.036.32.063.439.076.283.032.566.057.849.086 1.3.133 2.6.272 3.9.4a.98.98 0 0 0 1.167-.7q.933-2.184 1.862-4.369c.039-.093.062-.192.092-.289" transform="translate(-838.903 -75.892)" style="fill:#fff"/>
        <path data-name="Trazado 1895" d="m850.752 141.088-1.1-.646a.9.9 0 0 1 .379-1.718q2.476-.278 4.952-.563a1.776 1.776 0 0 1 1.863 1.131q.918 2.088 1.83 4.179c.079.179.164.356.23.54a.866.866 0 0 1-.24.973.849.849 0 0 1-.99.126c-.368-.195-.725-.412-1.109-.632-.05.082-.1.152-.14.226q-1.709 3.111-3.421 6.22a.3.3 0 0 0 .03.4 3.255 3.255 0 0 0 2.548 1.3c1.44.027 2.88.01 4.321.008a.5.5 0 0 0 .565-.558q.008-1.992 0-3.983c0-.372-.2-.553-.6-.558-1.094-.014-2.187-.018-3.28-.029-.366 0-.591-.3-.416-.568a.546.546 0 0 1 .385-.224c1.164-.007 2.33 0 3.493.028a1.247 1.247 0 0 1 1.214 1.26q.028 2.085 0 4.17a1.267 1.267 0 0 1-1.309 1.27c-1.449.006-2.9.025-4.347-.006a3.876 3.876 0 0 1-3.387-1.9 94.313 94.313 0 0 1-2.752-4.82 3.547 3.547 0 0 1 .052-3.485c.38-.714.805-1.4 1.229-2.137m1.675 9.225c.079-.141.133-.233.184-.327l3.365-6.127c.215-.391.386-.436.774-.209s.752.439 1.129.657c.072.042.151.073.294.141a2.171 2.171 0 0 0-.071-.284q-1.01-2.31-2.026-4.616a.959.959 0 0 0-1.061-.581c-1.386.158-2.772.31-4.157.466-.312.035-.622.079-.933.119l-.018.08c.073.053.142.112.219.158.421.248.845.491 1.265.74.343.2.391.382.194.724q-.628 1.086-1.26 2.169a3 3 0 0 0-.01 3.192q.92 1.61 1.838 3.222l.273.477" transform="translate(-823.378 -102.443)" style="fill:#fff"/>
        <path data-name="Trazado 1896" d="M908.293 153.352c.027.509.072.979.073 1.449a.876.876 0 0 1-1.313.764 1.185 1.185 0 0 1-.3-.262q-1.613-1.905-3.217-3.817a1.735 1.735 0 0 1-.147-2.173q1.34-2.121 2.688-4.236a.9.9 0 0 1 1.709.446c.022.363.05.725.076 1.112.469-.038.918-.072 1.367-.111 1.974-.172 3.947-.351 5.921-.513a.353.353 0 0 0 .365-.3 3.293 3.293 0 0 0-.373-2.843c-.773-1.2-1.574-2.372-2.366-3.555a.5.5 0 0 0-.8-.156q-1.626 1.095-3.246 2.2a.512.512 0 0 0-.165.834q.741 1.126 1.488 2.248a2.079 2.079 0 0 1 .127.2.4.4 0 0 1-.664.428c-.134-.177-.25-.367-.373-.553-.423-.638-.848-1.274-1.267-1.914a1.291 1.291 0 0 1 .368-1.887q1.642-1.119 3.29-2.227a1.29 1.29 0 0 1 1.9.375c.77 1.144 1.542 2.287 2.3 3.441a4.1 4.1 0 0 1 .276 4.285q-1.09 2.244-2.217 4.469a3.772 3.772 0 0 1-3.344 2.16l-2.161.134m-.889 1.618.144-.1a2.783 2.783 0 0 0 .013-.3c-.03-.5-.07-.995-.1-1.493-.017-.333.117-.478.444-.5.833-.055 1.667-.109 2.5-.157a3.011 3.011 0 0 0 2.692-1.755q.9-1.8 1.788-3.607c.033-.065.058-.134.1-.228-.871.074-1.7.143-2.532.215l-4.857.421c-.346.03-.491-.106-.514-.453-.032-.471-.062-.942-.1-1.412a2.734 2.734 0 0 0-.068-.309c-.1.146-.162.22-.212.3q-1.3 2.037-2.59 4.075a.993.993 0 0 0 .095 1.381l3.094 3.675a.871.871 0 0 1 .1.251" transform="translate(-863.477 -102.498)" style="fill:#fff"/>
    </g>
</svg>
