<?xml version="1.0" encoding="UTF-8"?>
<svg id="Layer_1" xmlns="http://www.w3.org/2000/svg" version="1.1" viewBox="0 0 213.98 285.56">
  <!-- Generator: Adobe Illustrator 29.5.1, SVG Export Plug-In . SVG Version: 2.1.0 Build 141)  -->
  <defs>
    <style>
      .st0 {
        fill: none;
        stroke: #ffd800;
        stroke-miterlimit: 10;
        stroke-width: 2px;
      }
    </style>
  </defs>
  <g id="Group_898">
    <g id="Group_901">
      <g id="Group_900">
        <path id="Path_2149" class="st0" d="M208.16,5.08c2.37.05,4.26,2.02,4.2,4.39,0,.21-.02.41-.06.61l-8.28,49.66-18.79,86.99c-.06.29-.15.57-.27.84l-16.41,36.92c-.13.29-.29.57-.49.83l-47.11,63.04c-.11.14-.22.28-.35.41l-32.71,34.02c-1.25,1.3-3.17,1.68-4.82.96l-48.56-19.53c-1.49-.65-14.65-6.68-32.92-15.45-.29-.64-.03-26.52,1.7-97.41L6.36,13.98c.05-2.35,1.99-4.23,4.34-4.21l31.28.27c2.37.02,4.32-1.89,4.34-4.26,0-.01,0-.03,0-.04,0-2.37,1.92-4.3,4.3-4.3.03,0,.07,0,.1,0l157.44,3.63Z"/>
      </g>
    </g>
  </g>
</svg>