<svg xmlns="http://www.w3.org/2000/svg" xmlns:xlink="http://www.w3.org/1999/xlink" width="468.065" height="156" viewBox="0 0 468.065 156">
  <defs>
    <clipPath id="clip-path">
      <rect id="Rectangle_456" data-name="Rectangle 456" width="468.065" height="156" fill="none"/>
    </clipPath>
  </defs>
  <g id="Group_1251" data-name="Group 1251" transform="translate(-1061.633 -152.667)">
    <g id="Group_1250" data-name="Group 1250" transform="translate(1061.633 152.667)">
      <g id="Group_1249" data-name="Group 1249" clip-path="url(#clip-path)">
        <path id="Path_2385" data-name="Path 2385" d="M1988.791,11.007l-2.915.761h0l2.907.767-.7-.522,2.1.013,1.048.017c.174,0,.349.007.52.016l.258.011c.044,0,.073.008.111.011l.053.005.027,0h.024c0-.005,0,.017.011-.032l.111-.443c-.1-.013-.209-.027-.3-.034l-.267-.012c-.179-.01-.354-.012-.53-.017l-1.054-.017-2.1-.013Z" transform="translate(-1524.278 -8.449)" fill="#41fbff"/>
        <path id="Path_2386" data-name="Path 2386" d="M1952.6,11.1l-2.905.784h0l2.916.744-.706-.516,4.2-.023,0-.49-4.2.023Z" transform="translate(-1496.504 -8.52)" fill="#41fbff"/>
        <path id="Path_2387" data-name="Path 2387" d="M1816.415,12.549l-2.9.8h0l2.92.73-.709-.512,4.2-.05-.006-.49-4.2.05Z" transform="translate(-1391.98 -9.632)" fill="#41fbff"/>
        <path id="Path_2388" data-name="Path 2388" d="M1888.762,11.69l-2.9.8h0l2.918.729-.707-.512,4.2-.05,0-.49-4.2.05Z" transform="translate(-1447.509 -8.973)" fill="#41fbff"/>
        <path id="Path_2389" data-name="Path 2389" d="M1852.588,12.12l-2.9.8h0l2.919.73-.708-.512,4.2-.05-.005-.49-4.2.05Z" transform="translate(-1419.745 -9.303)" fill="#41fbff"/>
        <path id="Path_2390" data-name="Path 2390" d="M1722.771,40.564l-2.915.747h0l2.906.781-.7-.524,4.2.025,0-.49-4.2-.025Z" transform="translate(-1320.09 -31.136)" fill="#41fbff"/>
        <path id="Path_2391" data-name="Path 2391" d="M1790.856,16.079l-2.3,1.943-.017.008.009,0-.006,0,.011-.006,2.955-.564-.857-.167,3.793-1.811-.211-.442-3.791,1.809Z" transform="translate(-1372.825 -11.546)" fill="#41fbff"/>
        <path id="Path_2392" data-name="Path 2392" d="M1758.209,31.661l-2.3,1.943-.017.008.009,0-.005,0,.011-.005,2.955-.564-.858-.167,3.793-1.811-.211-.442-3.79,1.809Z" transform="translate(-1347.767 -23.506)" fill="#41fbff"/>
        <path id="Path_2393" data-name="Path 2393" d="M1622.773,39.965l-2.915.747h0l2.906.781-.7-.524,4.2.025,0-.49-4.2-.025Z" transform="translate(-1243.335 -30.676)" fill="#41fbff"/>
        <path id="Path_2394" data-name="Path 2394" d="M1695.12,40.4l-2.915.747h0l2.905.781-.7-.524,4.2.025,0-.49-4.2-.025Z" transform="translate(-1298.866 -31.009)" fill="#41fbff"/>
        <path id="Path_2395" data-name="Path 2395" d="M1658.945,40.182l-2.914.747h0l2.906.781-.7-.524,4.2.025,0-.49-4.2-.025Z" transform="translate(-1271.1 -30.842)" fill="#41fbff"/>
        <path id="Path_2396" data-name="Path 2396" d="M1522.775,39.366l-2.915.747h0l2.906.781-.7-.524,4.2.025,0-.49-4.2-.025Z" transform="translate(-1166.58 -30.216)" fill="#41fbff"/>
        <path id="Path_2397" data-name="Path 2397" d="M1595.122,39.8l-2.915.747h0l2.905.781-.7-.524,4.2.025,0-.49-4.2-.025Z" transform="translate(-1222.111 -30.549)" fill="#41fbff"/>
        <path id="Path_2398" data-name="Path 2398" d="M1558.948,39.583l-2.914.747h0l2.906.781-.7-.524,4.2.025,0-.49-4.2-.025Z" transform="translate(-1194.346 -30.383)" fill="#41fbff"/>
        <path id="Path_2399" data-name="Path 2399" d="M1422.776,38.768l-2.915.747h0l2.906.781-.7-.524,4.2.025,0-.49-4.2-.025Z" transform="translate(-1089.824 -29.757)" fill="#41fbff"/>
        <path id="Path_2400" data-name="Path 2400" d="M1495.124,39.2l-2.915.747h0l2.905.781-.7-.524,4.2.025,0-.49-4.2-.025Z" transform="translate(-1145.356 -30.089)" fill="#41fbff"/>
        <path id="Path_2401" data-name="Path 2401" d="M1458.949,38.984l-2.914.747h0l2.906.781-.7-.524,4.2.025,0-.49-4.2-.025Z" transform="translate(-1117.59 -29.923)" fill="#41fbff"/>
        <path id="Path_2402" data-name="Path 2402" d="M1322.778,38.169l-2.915.747h0l2.906.781-.7-.524,4.2.025,0-.49-4.2-.025Z" transform="translate(-1013.069 -29.297)" fill="#41fbff"/>
        <path id="Path_2403" data-name="Path 2403" d="M1395.126,38.6l-2.915.747h0l2.906.781-.7-.524,4.2.025,0-.49-4.2-.025Z" transform="translate(-1068.601 -29.63)" fill="#41fbff"/>
        <path id="Path_2404" data-name="Path 2404" d="M1358.951,38.385l-2.914.747h0l2.906.781-.7-.524,4.2.025,0-.49-4.2-.025Z" transform="translate(-1040.834 -29.463)" fill="#41fbff"/>
        <path id="Path_2405" data-name="Path 2405" d="M1267.514,79.865l.759,2.9v0l.77-2.915-.521.707.008-4.211-.49.014-.008,4.194Z" transform="translate(-972.902 -58.607)" fill="#41fbff"/>
        <path id="Path_2406" data-name="Path 2406" d="M1295.241,37.629a10.973,10.973,0,0,0-2.917,1.033l-.018,0h.01l-.006,0,.012,0a10.2,10.2,0,0,1,2.861.493c-.213-.181-.436-.355-.669-.524.294,0,.588,0,.881.013.146.008.293.018.439.032l.218.023.108.013.124.018,2.422.015,0-.49-2.386-.014-.213-.028-.229-.024c-.153-.014-.305-.025-.458-.033-.305-.017-.611-.018-.917-.013.235-.178.48-.351.736-.515" transform="translate(-991.932 -28.883)" fill="#41fbff"/>
        <path id="Path_2407" data-name="Path 2407" d="M1270.521,46.517a7.686,7.686,0,0,0-.033,3.14v.019l0-.01V49.66a6.9,6.9,0,0,1,1.4-2.461,6.249,6.249,0,0,0-.732.389,5.7,5.7,0,0,1,1-1.735,5.463,5.463,0,0,1,1.557-1.256l-.235-.43a5.951,5.951,0,0,0-1.694,1.366,6.194,6.194,0,0,0-1.088,1.884,7.418,7.418,0,0,1-.179-.9" transform="translate(-975.072 -33.901)" fill="#41fbff"/>
        <path id="Path_2408" data-name="Path 2408" d="M1265.881,179.952l.71,2.929v0l.818-2.9-.533.693.077-4.21-.49-.009-.077,4.206Z" transform="translate(-971.648 -135.445)" fill="#41fbff"/>
        <path id="Path_2409" data-name="Path 2409" d="M1267.213,107.521l.71,2.925v0l.818-2.9-.533.7.077-4.209-.49-.006-.077,4.206Z" transform="translate(-972.671 -79.847)" fill="#41fbff"/>
        <path id="Path_2410" data-name="Path 2410" d="M1266.547,143.738l.71,2.926v0l.817-2.9-.533.694.078-4.209-.49-.007-.077,4.2Z" transform="translate(-972.159 -107.647)" fill="#41fbff"/>
        <path id="Path_2411" data-name="Path 2411" d="M1263.65,280.107l.7,2.933v0l.831-2.9-.536.691.1-4.211-.49-.011-.1,4.208Z" transform="translate(-969.936 -212.32)" fill="#41fbff"/>
        <path id="Path_2412" data-name="Path 2412" d="M1265.3,207.633l.7,2.933v0l.83-2.9-.536.691.1-4.211-.49-.011-.1,4.208Z" transform="translate(-971.206 -156.692)" fill="#41fbff"/>
        <path id="Path_2413" data-name="Path 2413" d="M1264.477,243.872l.7,2.932v0l.831-2.9-.536.692.1-4.211-.49-.011-.1,4.208Z" transform="translate(-970.571 -184.507)" fill="#41fbff"/>
        <path id="Path_2414" data-name="Path 2414" d="M1261.218,380.13l.692,2.928v0l.835-2.891-.537.689.1-4.2-.49-.012-.1,4.2Z" transform="translate(-968.07 -289.1)" fill="#41fbff"/>
        <path id="Path_2415" data-name="Path 2415" d="M1262.993,307.8l.692,2.929v0l.835-2.891-.537.689.1-4.2-.49-.012-.1,4.2Z" transform="translate(-969.432 -233.584)" fill="#41fbff"/>
        <path id="Path_2416" data-name="Path 2416" d="M1262.105,343.968l.692,2.927v0l.835-2.891-.537.689.1-4.2-.49-.012-.1,4.2Z" transform="translate(-968.75 -261.343)" fill="#41fbff"/>
        <path id="Path_2417" data-name="Path 2417" d="M1258.673,480.1l.689,2.929v0l.838-2.89-.538.689.108-4.2-.489-.013-.108,4.2Z" transform="translate(-966.116 -365.834)" fill="#41fbff"/>
        <path id="Path_2418" data-name="Path 2418" d="M1260.524,407.775l.689,2.929v0l.838-2.89-.538.688.107-4.2-.489-.013-.108,4.2Z" transform="translate(-967.537 -310.321)" fill="#41fbff"/>
        <path id="Path_2419" data-name="Path 2419" d="M1259.6,443.94l.689,2.928v0l.838-2.89-.538.689.108-4.2-.49-.012-.108,4.2Z" transform="translate(-966.826 -338.079)" fill="#41fbff"/>
        <path id="Path_2420" data-name="Path 2420" d="M1256.883,580.105l.764,2.913v0l.764-2.908-.52.7v-4.2l-.49,0v4.2Z" transform="translate(-964.742 -442.585)" fill="#41fbff"/>
        <path id="Path_2421" data-name="Path 2421" d="M1257.954,507.748l.687,2.927v0l.84-2.891-.538.69.111-4.2-.489-.013-.111,4.2Z" transform="translate(-965.564 -387.055)" fill="#41fbff"/>
        <path id="Path_2422" data-name="Path 2422" d="M1257,543.924c.218.974.483,1.948.737,2.92v0c.256-.967.5-1.934.792-2.9l-.538.694.111-4.2-.49-.009-.11,4.2Z" transform="translate(-964.832 -414.819)" fill="#41fbff"/>
        <path id="Path_2423" data-name="Path 2423" d="M1281.909,664.953l2.912-.75h0l-2.907-.778.7.524-2.1-.01c-.7-.008-1.414.01-2.076-.042l-.05.487c.734.057,1.421.035,2.123.045l2.1.01Z" transform="translate(-981.25 -509.222)" fill="#41fbff"/>
        <path id="Path_2424" data-name="Path 2424" d="M1256.882,607.767l.143.544.071.272.036.136a.427.427,0,0,0,.018.061l.018.026c.018.008.016.124.023.2l.019.241c.014.16.031.319.049.477.039.316.083.628.138.938l0,.019,0-.01v-.006c.1-.3.219-.588.337-.875.061-.143.122-.285.185-.425l.1-.208a2.085,2.085,0,0,0,.111-.25l.018-.11a.749.749,0,0,1,.018-.075l.036-.135.071-.271.142-.542-.52.7v-4.2h-.49v4.2Z" transform="translate(-964.741 -463.818)" fill="#41fbff"/>
        <path id="Path_2425" data-name="Path 2425" d="M1258.131,644.034a5.906,5.906,0,0,0,1.2,1.147,4.3,4.3,0,0,0,1.418.647l.017.009-.008-.005.006,0-.011-.006a3.9,3.9,0,0,1-.847-1.154,4.729,4.729,0,0,1-.382-1.285,4.926,4.926,0,0,0-.147.806,7.932,7.932,0,0,1-1.034-3.893l-.489.021a11.248,11.248,0,0,0,.283,2.125,6.746,6.746,0,0,0,.824,2.007,5.835,5.835,0,0,1-.826-.421" transform="translate(-965.483 -491.475)" fill="#41fbff"/>
        <path id="Path_2426" data-name="Path 2426" d="M1381.957,665.83l2.917-.737h0l-2.9-.791.7.527-4.2-.039,0,.49,4.2.039Z" transform="translate(-1058.063 -509.895)" fill="#41fbff"/>
        <path id="Path_2427" data-name="Path 2427" d="M1309.613,665.154l2.918-.737h0l-2.9-.791.7.527-4.2-.039,0,.489,4.2.039Z" transform="translate(-1002.535 -509.376)" fill="#41fbff"/>
        <path id="Path_2428" data-name="Path 2428" d="M1345.787,665.492l2.916-.737h0l-2.9-.791.7.527-4.2-.039,0,.49,4.2.039Z" transform="translate(-1030.3 -509.636)" fill="#41fbff"/>
        <path id="Path_2429" data-name="Path 2429" d="M1471.213,645.278l2.922-.717h0l-2.9-.811.694.531-4.2-.067-.008.49,4.2.067Z" transform="translate(-1126.576 -494.12)" fill="#41fbff"/>
        <path id="Path_2430" data-name="Path 2430" d="M1409.615,666.11l1.46-.366.73-.183.367-.092c.13-.039.242-.083.361-.13l.018,0h-.016c-.122-.017-.251-.036-.364-.061l-.36-.1-.725-.2-1.451-.4.7.527-4.2-.045-.005.49,4.2.045Z" transform="translate(-1079.294 -510.11)" fill="#41fbff"/>
        <path id="Path_2431" data-name="Path 2431" d="M1445.31,649.688a4.842,4.842,0,0,0,.481-1.609,3.094,3.094,0,0,0,.028-.4,2.877,2.877,0,0,0-.005-.394c-.013-.106-.022-.207-.043-.335l-.025-.2-.012-.108a.2.2,0,0,1,0-.027l.017-.006.035-.011h0l-.056-.013c-.02-.005-.04-.012-.04.006l-.031.072-.065.161c-.043.112-.1.251-.156.384a2.482,2.482,0,0,1-.172.314,2.54,2.54,0,0,1-.193.292,3.667,3.667,0,0,1-.949.909,3.652,3.652,0,0,0,.779-.218,3.944,3.944,0,0,1-.593.794,4.767,4.767,0,0,1-.757.653,6.992,6.992,0,0,1-1.815.9l.156.464a7.489,7.489,0,0,0,1.939-.959,5.271,5.271,0,0,0,.831-.716,4.44,4.44,0,0,0,.661-.885,3.326,3.326,0,0,1,.016.461,3.717,3.717,0,0,1-.032.476" transform="translate(-1106.631 -496.292)" fill="#41fbff"/>
        <path id="Path_2432" data-name="Path 2432" d="M1571.2,646.878l2.922-.717h0l-2.9-.81.694.531-4.2-.067-.008.49,4.2.067Z" transform="translate(-1203.324 -495.349)" fill="#41fbff"/>
        <path id="Path_2433" data-name="Path 2433" d="M1498.865,645.721l2.922-.717h0l-2.9-.811.693.531-4.2-.067-.008.49,4.2.067Z" transform="translate(-1147.801 -494.46)" fill="#41fbff"/>
        <path id="Path_2434" data-name="Path 2434" d="M1535.035,646.3l2.921-.717h0l-2.9-.811.694.531-4.2-.067-.008.49,4.2.067Z" transform="translate(-1175.564 -494.904)" fill="#41fbff"/>
        <path id="Path_2435" data-name="Path 2435" d="M1667.391,618.043c.186-.51.323-.965.479-1.443l.464-1.431.01-.016-.006.008,0-.006-.007.01-1.107,1.019c-.368.337-.751.7-1.1,1,.264-.087.535-.179.811-.29a12.09,12.09,0,0,1-2.679,3.107l.309.38a12.362,12.362,0,0,0,1.532-1.5,13.782,13.782,0,0,0,1.252-1.73c.025.285.035.582.042.886" transform="translate(-1277.427 -472.171)" fill="#41fbff"/>
        <path id="Path_2436" data-name="Path 2436" d="M1598.853,647.321l2.923-.717h0l-2.9-.811.693.531-4.2-.067-.008.49,4.2.067Z" transform="translate(-1224.548 -495.688)" fill="#41fbff"/>
        <path id="Path_2437" data-name="Path 2437" d="M1635.157,643.511a13.388,13.388,0,0,0,2.446-1.874l.017-.01-.009,0,.005,0-.011.006a12.616,12.616,0,0,1-2.893.413c.261.1.533.2.806.277a14.691,14.691,0,0,1-4.035.834l.031.488a15.179,15.179,0,0,0,4.167-.861c-.163.248-.341.481-.524.725" transform="translate(-1252.273 -492.492)" fill="#41fbff"/>
        <path id="Path_2438" data-name="Path 2438" d="M1744.65,576.5l2.872-.886h0l-2.946-.64.728.49c-1.4.07-2.806.086-4.213.236l.05.487c1.382-.148,2.786-.165,4.18-.234Z" transform="translate(-1336.407 -441.33)" fill="#41fbff"/>
        <path id="Path_2439" data-name="Path 2439" d="M1683.851,596.824a17,17,0,0,1,1.488-2.545l.015-.011-.008.005,0,0-.01.008a17.761,17.761,0,0,0-2.645,1.547q.439-.1.866-.192a27.906,27.906,0,0,0-2.593,3.354l.407.273a27.361,27.361,0,0,1,2.544-3.292q-.04.436-.067.858" transform="translate(-1290.255 -456.141)" fill="#41fbff"/>
        <path id="Path_2440" data-name="Path 2440" d="M1709.793,581.42l.615-.388c.21-.124.427-.235.643-.355.431-.245.881-.451,1.337-.662l.019,0h-.01l.006,0-.013,0c-.5-.04-1.006-.083-1.514-.081-.255,0-.513-.012-.771-.007l-.776.038q.429.141.839.287a15.526,15.526,0,0,0-3.925,1.654l.253.419a15.02,15.02,0,0,1,3.8-1.6q-.261.352-.5.7" transform="translate(-1309.657 -445.13)" fill="#41fbff"/>
        <path id="Path_2441" data-name="Path 2441" d="M1844.726,576.78a9.8,9.8,0,0,0,2.716-1.516l.018-.008-.009,0,.006,0-.012,0a9.025,9.025,0,0,1-2.882,0,7.357,7.357,0,0,0,.732.414c-.168.032-.337.059-.505.082l-.253.03-.125.011-.062,0a.325.325,0,0,1-.045,0l-1.049-.037-2.1-.065-.014.49,2.1.065,1.05.037a2.819,2.819,0,0,0,.293-.018l.269-.031q.268-.035.532-.086a8.207,8.207,0,0,1-.657.625" transform="translate(-1413.198 -441.548)" fill="#41fbff"/>
        <path id="Path_2442" data-name="Path 2442" d="M1772.314,575.742l2.905-.769h0l-2.916-.759.706.517c-1.4,0-2.8.026-4.207.055l.011.49c1.4-.029,2.8-.051,4.2-.055Z" transform="translate(-1357.676 -440.746)" fill="#41fbff"/>
        <path id="Path_2443" data-name="Path 2443" d="M1808.482,575.964l2.922-.7h0l-2.9-.824.693.533q-2.1-.042-4.206-.059l0,.49q2.1.02,4.2.059Z" transform="translate(-1385.455 -440.917)" fill="#41fbff"/>
        <path id="Path_2444" data-name="Path 2444" d="M1886.337,515.639l3-.275.019,0-.01,0h.007l-.012,0-2.745-1.232.607.628-4.289-.715.2.53,4,.667Z" transform="translate(-1445.259 -394.564)" fill="#41fbff"/>
        <path id="Path_2445" data-name="Path 2445" d="M1871.36,558.179a7.032,7.032,0,0,0,.7-3.063l0-.018,0,.009V555.1l0,.012a6.24,6.24,0,0,1-1.885,2.1,6.212,6.212,0,0,0,.8-.22,7.009,7.009,0,0,1-3.078,2.563l.2.447a7.5,7.5,0,0,0,3.288-2.742,7.167,7.167,0,0,1-.024.915" transform="translate(-1433.736 -426.075)" fill="#41fbff"/>
        <path id="Path_2446" data-name="Path 2446" d="M1883.113,522.378l-1.515-2.6-.005-.019,0,.009,0-.006,0,.012.042,3.008.313-.816.563,2.025.035.126a.459.459,0,0,1,.022.1l.017.249.036.515c.015.343.006.686,0,1.028l.489.023c.005-.357.014-.715,0-1.071l-.037-.533-.019-.275a.718.718,0,0,0-.036-.16l-.035-.126-.562-2.023Z" transform="translate(-1444.248 -398.951)" fill="#41fbff"/>
        <path id="Path_2447" data-name="Path 2447" d="M1966.149,528.709l2.266-.4.014,0-.007,0h.005l-.009,0-2.014-1.11.431.6-3.092-.515-.081.483,3.09.515Z" transform="translate(-1507.242 -404.661)" fill="#41fbff"/>
        <path id="Path_2448" data-name="Path 2448" d="M1912.942,519.84l2.266-.4.014,0-.007,0h.005l-.01,0-2.014-1.11.43.6-3.091-.515-.081.483,3.089.515Z" transform="translate(-1466.402 -397.854)" fill="#41fbff"/>
        <path id="Path_2449" data-name="Path 2449" d="M1939.547,524.274l2.265-.4.014,0-.007,0h0l-.009,0-2.014-1.111.431.6-3.091-.515-.081.483,3.089.515Z" transform="translate(-1486.823 -401.257)" fill="#41fbff"/>
        <path id="Path_2450" data-name="Path 2450" d="M1438.964,122.742l.964,2.85,0,.019V125.6l.56-2.956-.47.737-.292-4.194-.489.034.292,4.191Z" transform="translate(-1104.501 -91.48)" fill="#41fbff"/>
        <path id="Path_2451" data-name="Path 2451" d="M1433.936,50.571l.964,2.851v0l.56-2.956-.47.736-.292-4.193-.488.034.292,4.191Z" transform="translate(-1100.642 -36.084)" fill="#41fbff"/>
        <path id="Path_2452" data-name="Path 2452" d="M1436.45,86.658l.964,2.849v0l.56-2.956-.47.737-.292-4.193-.488.034.292,4.19Z" transform="translate(-1102.572 -63.783)" fill="#41fbff"/>
        <path id="Path_2453" data-name="Path 2453" d="M1445.914,222.5l.964,2.85,0,.019v-.016l.56-2.956-.47.737-.292-4.194-.488.034.292,4.191Z" transform="translate(-1109.836 -168.051)" fill="#41fbff"/>
        <path id="Path_2454" data-name="Path 2454" d="M1440.886,150.329l.964,2.851v0l.56-2.956-.47.736-.292-4.193-.488.034.292,4.191Z" transform="translate(-1105.976 -112.655)" fill="#41fbff"/>
        <path id="Path_2455" data-name="Path 2455" d="M1443.4,186.416l.964,2.849v0l.56-2.956-.47.737-.292-4.193-.488.034.292,4.19Z" transform="translate(-1107.906 -140.354)" fill="#41fbff"/>
        <path id="Path_2456" data-name="Path 2456" d="M1452.863,322.259l.964,2.85v0l.56-2.956-.47.737-.292-4.194-.488.034.292,4.19Z" transform="translate(-1115.17 -244.622)" fill="#41fbff"/>
        <path id="Path_2457" data-name="Path 2457" d="M1447.835,250.087l.964,2.851v0l.56-2.956-.47.736-.292-4.193-.488.034.292,4.191Z" transform="translate(-1111.311 -189.226)" fill="#41fbff"/>
        <path id="Path_2458" data-name="Path 2458" d="M1450.349,286.175l.964,2.849v0l.56-2.956-.47.737-.292-4.193-.488.034.292,4.19Z" transform="translate(-1113.24 -216.926)" fill="#41fbff"/>
        <path id="Path_2459" data-name="Path 2459" d="M1459.813,422.017l.964,2.85,0,.019v-.016l.56-2.956-.47.737-.292-4.194-.488.034.292,4.19Z" transform="translate(-1120.504 -321.193)" fill="#41fbff"/>
        <path id="Path_2460" data-name="Path 2460" d="M1454.785,349.845l.964,2.851v0l.56-2.956-.47.736-.292-4.193-.488.034.292,4.19Z" transform="translate(-1116.645 -265.798)" fill="#41fbff"/>
        <path id="Path_2461" data-name="Path 2461" d="M1457.3,385.933l.964,2.849v0l.56-2.956-.47.737-.292-4.193-.488.034.292,4.19Z" transform="translate(-1118.574 -293.497)" fill="#41fbff"/>
        <path id="Path_2462" data-name="Path 2462" d="M1466.762,521.775l.964,2.85v0l.56-2.956-.47.737-.292-4.194-.488.034.292,4.191Z" transform="translate(-1125.838 -397.765)" fill="#41fbff"/>
        <path id="Path_2463" data-name="Path 2463" d="M1461.734,449.6l.964,2.851v0l.56-2.956-.47.736-.292-4.193-.488.034.292,4.191Z" transform="translate(-1121.979 -342.369)" fill="#41fbff"/>
        <path id="Path_2464" data-name="Path 2464" d="M1464.248,485.691l.964,2.849v0l.56-2.956-.47.737-.292-4.193-.488.034.292,4.19Z" transform="translate(-1123.908 -370.068)" fill="#41fbff"/>
        <path id="Path_2465" data-name="Path 2465" d="M1473.394,617.577l.954,2.7v0l.571-2.8-.473.7-.277-3.975-.488.034.277,3.971Z" transform="translate(-1130.928 -471.439)" fill="#41fbff"/>
        <path id="Path_2466" data-name="Path 2466" d="M1468.629,549.179l.954,2.7v0l.571-2.8-.473.7-.277-3.974-.488.034.277,3.971Z" transform="translate(-1127.271 -418.94)" fill="#41fbff"/>
        <path id="Path_2467" data-name="Path 2467" d="M1471.011,583.38l.954,2.7v0l.57-2.8-.472.7-.277-3.974-.489.034.277,3.971Z" transform="translate(-1129.1 -445.191)" fill="#41fbff"/>
        <path id="Path_2468" data-name="Path 2468" d="M2003.166,202.421l.13,3.006,0,.019,0-.01v.007l0-.012,1.363-2.682-.657.576.579-2.671-.43-1.534-.471.132.4,1.416-.552,2.549Z" transform="translate(-1537.564 -152.838)" fill="#41fbff"/>
        <path id="Path_2469" data-name="Path 2469" d="M1986.27,133.107l1.522,2.6.005.018,0-.01,0,.006,0-.012-.051-3.008-.311.816-1.136-4.047-.471.132,1.135,4.044Z" transform="translate(-1524.254 -99.374)" fill="#41fbff"/>
        <path id="Path_2470" data-name="Path 2470" d="M1996.047,167.936l1.522,2.595.005.019v-.009l0,.006,0-.012-.051-3.008-.311.817-1.136-4.047-.471.132,1.135,4.044Z" transform="translate(-1531.758 -126.107)" fill="#41fbff"/>
        <path id="Path_2471" data-name="Path 2471" d="M1965.138,297.335a4.076,4.076,0,0,1-1.226.531,8.071,8.071,0,0,1-1.449.217l-.019,0,.01,0h-.006l.012,0a6.255,6.255,0,0,0,3.09.725c-.156-.051-.306-.1-.449-.159s-.283-.13-.415-.2a5.178,5.178,0,0,0,1.073-.259,4.9,4.9,0,0,0,.986-.5,5.443,5.443,0,0,0,1.511-1.581l-.412-.265a4.953,4.953,0,0,1-1.371,1.438,4.418,4.418,0,0,1-.881.45,4.707,4.707,0,0,1-.965.233q.148-.156.278-.308c.084-.109.162-.218.233-.324" transform="translate(-1506.307 -227.082)" fill="#41fbff"/>
        <path id="Path_2472" data-name="Path 2472" d="M1997.311,229.422l.13,3.007,0,.018,0-.009v.007l0-.013,1.363-2.682-.657.576.89-4.108-.479-.1-.89,4.105Z" transform="translate(-1533.07 -173.557)" fill="#41fbff"/>
        <path id="Path_2473" data-name="Path 2473" d="M1989.649,264.778l.065,1.5.033.751a6.734,6.734,0,0,1,.012.746l-.006.018,0-.009v.006l0-.012a6.943,6.943,0,0,0,.362-.665l.341-.671.681-1.341-.657.576.89-4.108-.479-.1-.889,4.105Z" transform="translate(-1527.189 -200.695)" fill="#41fbff"/>
        <path id="Path_2474" data-name="Path 2474" d="M1875.465,300.966a3.98,3.98,0,0,0,.58,1.627c.29.438.536.847.8,1.277l.006.018,0-.01,0,.006,0-.012c-.02-.5-.036-1.022-.071-1.5a2.765,2.765,0,0,1,.207-1.242,1.952,1.952,0,0,0-.266.253,2.956,2.956,0,0,0-.23.332,2.305,2.305,0,0,1,.041-.937,1.251,1.251,0,0,1,.509-.7,2.216,2.216,0,0,1,.885-.312,4.9,4.9,0,0,1,1-.041l.025-.489a5.382,5.382,0,0,0-1.1.046,2.7,2.7,0,0,0-1.079.387,1.749,1.749,0,0,0-.707.962,2.774,2.774,0,0,0-.058,1.145,3.759,3.759,0,0,1-.293-.367,3.344,3.344,0,0,1-.245-.449" transform="translate(-1439.545 -229.682)" fill="#41fbff"/>
        <path id="Path_2475" data-name="Path 2475" d="M1937.917,300.42c-1,.172-1.987.355-2.97.556h-.019l.01,0h.006c.954.307,1.9.632,2.836.966l-.652-.575c1.392.111,2.784.245,4.157.464l.078-.483c-1.394-.222-2.794-.357-4.193-.469Z" transform="translate(-1485.187 -230.592)" fill="#41fbff"/>
        <path id="Path_2476" data-name="Path 2476" d="M1901.717,298.625q-1.468.35-2.926.726h-.005l-.014,0,.009,0h-.006l.011,0h0q1.454.387,2.894.8l-.69-.534q2.1.037,4.2.124l.021-.489q-2.1-.089-4.2-.124Z" transform="translate(-1457.435 -229.215)" fill="#41fbff"/>
        <path id="Path_2477" data-name="Path 2477" d="M1902.022,391.917a8.137,8.137,0,0,0,2.387,2.005l.014.013-.006-.008.005,0-.009-.009a7.356,7.356,0,0,1-1.015-2.675c-.068.274-.1.543-.147.832a9.6,9.6,0,0,1-.787-1.725c-.1-.3-.2-.6-.269-.913-.04-.153-.072-.309-.1-.463l-.043-.232-.019-.116-.018-.136-.1-.314-.469.142.084.276.014.1.02.124.045.246c.033.163.067.326.109.486.077.323.177.639.281.954a10.067,10.067,0,0,0,.827,1.812c-.263-.124-.546-.254-.806-.408" transform="translate(-1459.488 -297.954)" fill="#41fbff"/>
        <path id="Path_2478" data-name="Path 2478" d="M1880.951,322.594l1.577,2.563.005.018,0-.01,0,.006,0-.012-.114-3.006-.294.823-1.221-4.022-.468.142,1.22,4.019Z" transform="translate(-1443.358 -244.818)" fill="#41fbff"/>
        <path id="Path_2479" data-name="Path 2479" d="M1891.46,357.209l1.576,2.562.005.019v-.009l0,.006,0-.012-.114-3.007-.294.823-1.221-4.022-.468.142,1.22,4.019Z" transform="translate(-1451.424 -271.387)" fill="#41fbff"/>
        <path id="Path_2480" data-name="Path 2480" d="M1986.058,431.763l2.974-.222.019,0-.01,0h.006l-.012,0-2.692-1.28.587.64-4.089-.777-.092.481,4.088.777Z" transform="translate(-1521.893 -330.149)" fill="#41fbff"/>
        <path id="Path_2481" data-name="Path 2481" d="M1916.578,414.624c1.01,0,2-.047,3-.087l.018,0-.009,0h.007l-.012,0c-.882-.457-1.766-.913-2.618-1.394.178.223.357.45.542.67-.337-.078-.669-.168-1-.251a6.068,6.068,0,0,1-.951-.319,5.947,5.947,0,0,1-1.671-1.081l-.33.362a6.443,6.443,0,0,0,1.807,1.169,6.58,6.58,0,0,0,1.019.343c.338.084.676.175,1.014.253-.267.117-.535.225-.807.336" transform="translate(-1468.774 -316.362)" fill="#41fbff"/>
        <path id="Path_2482" data-name="Path 2482" d="M1950.9,424.8l2.977-.191.019,0-.009,0h.006l-.012,0L1951.2,423.3l.58.646c-1.36-.272-2.72-.544-4.077-.83l-.1.479c1.358.286,2.718.558,4.078.83Z" transform="translate(-1494.914 -324.774)" fill="#41fbff"/>
        <path id="Path_2483" data-name="Path 2483" d="M2010.121,434.664l.167-.746h0l.11-.757-.087.513-.041-.008-.089.482.041.007Z" transform="translate(-1542.903 -332.479)" fill="#41fbff"/>
        <path id="Path_2484" data-name="Path 2484" d="M2009.413,434.533l.167-.746h0l.11-.757-.087.513-.041-.008-.089.482.041.007Z" transform="translate(-1542.359 -332.378)" fill="#41fbff"/>
        <path id="Path_2485" data-name="Path 2485" d="M2009.767,434.6l.167-.746h0l.11-.757-.088.513-.041-.008-.089.482.041.008Z" transform="translate(-1542.631 -332.428)" fill="#41fbff"/>
        <path id="Path_2486" data-name="Path 2486" d="M1777.445,123.219l1.461,2.63,0,.019,0-.01,0,.006,0-.012.019-3.009-.33.809-1.042-4.073-.474.121,1.041,4.07Z" transform="translate(-1364.03 -91.785)" fill="#41fbff"/>
        <path id="Path_2487" data-name="Path 2487" d="M1759.516,53.129l1.462,2.63,0,.018v-.01l0,.006,0-.012.019-3.009-.33.809-1.042-4.072-.474.121,1.041,4.07Z" transform="translate(-1350.267 -37.987)" fill="#41fbff"/>
        <path id="Path_2488" data-name="Path 2488" d="M1768.481,88.176l1.461,2.629,0,.019v-.009l0,.006,0-.012.019-3.009-.33.809-1.042-4.072-.475.121,1.041,4.069Z" transform="translate(-1357.149 -64.887)" fill="#41fbff"/>
        <path id="Path_2489" data-name="Path 2489" d="M1802.229,220.1l1.461,2.63,0,.019v-.01l0,.006,0-.012.019-3.009-.33.809-1.042-4.073-.474.121,1.041,4.07Z" transform="translate(-1383.052 -166.147)" fill="#41fbff"/>
        <path id="Path_2490" data-name="Path 2490" d="M1784.3,150.009l1.462,2.63,0,.018v-.01l0,.006,0-.012.019-3.009-.33.809-1.042-4.072-.474.121,1.041,4.07Z" transform="translate(-1369.29 -112.349)" fill="#41fbff"/>
        <path id="Path_2491" data-name="Path 2491" d="M1793.264,185.056l1.461,2.629,0,.019v-.009l0,.006,0-.012.019-3.009-.33.809-1.042-4.072-.474.121,1.041,4.069Z" transform="translate(-1376.171 -139.249)" fill="#41fbff"/>
        <path id="Path_2492" data-name="Path 2492" d="M1827.012,316.979l1.461,2.63,0,.019,0-.01,0,.006,0-.012.019-3.009-.33.809-1.042-4.073-.474.121,1.041,4.07Z" transform="translate(-1402.075 -240.509)" fill="#41fbff"/>
        <path id="Path_2493" data-name="Path 2493" d="M1809.083,246.889l1.461,2.63,0,.018v-.01l0,.006,0-.012.019-3.009-.33.809-1.042-4.072-.474.121,1.041,4.07Z" transform="translate(-1388.313 -186.711)" fill="#41fbff"/>
        <path id="Path_2494" data-name="Path 2494" d="M1818.047,281.936l1.461,2.629,0,.019v-.009l0,.006,0-.012.019-3.009-.33.809-1.042-4.072-.474.121,1.041,4.069Z" transform="translate(-1395.194 -213.611)" fill="#41fbff"/>
        <path id="Path_2495" data-name="Path 2495" d="M1851.8,413.859l1.461,2.63,0,.019v-.01l0,.006,0-.012.019-3.009-.33.809-1.042-4.073-.474.121,1.041,4.07Z" transform="translate(-1421.098 -314.871)" fill="#41fbff"/>
        <path id="Path_2496" data-name="Path 2496" d="M1833.866,343.769l1.462,2.63,0,.018v-.01l0,.006,0-.012.019-3.009-.33.809-1.042-4.072-.474.121,1.041,4.07Z" transform="translate(-1407.336 -261.073)" fill="#41fbff"/>
        <path id="Path_2497" data-name="Path 2497" d="M1842.831,378.816l1.461,2.629,0,.019v-.009l0,.006,0-.012.019-3.009-.33.809-1.042-4.072-.474.121,1.041,4.069Z" transform="translate(-1414.217 -287.973)" fill="#41fbff"/>
        <path id="Path_2498" data-name="Path 2498" d="M1871.586,491.221l1.27,1.881,0,.014v0l0-.009.211-2.26-.376.629-.765-2.991-.474.121.764,2.989Z" transform="translate(-1436.465 -374.943)" fill="#41fbff"/>
        <path id="Path_2499" data-name="Path 2499" d="M1858.419,439.75l1.27,1.881,0,.013v-.007l0,0,0-.009.211-2.26-.376.628-.765-2.99-.474.121.764,2.989Z" transform="translate(-1426.359 -335.435)" fill="#41fbff"/>
        <path id="Path_2500" data-name="Path 2500" d="M1865,465.487l1.27,1.881,0,.014v-.007l0,0,0-.009.211-2.26-.376.629-.765-2.991-.474.121.764,2.988Z" transform="translate(-1431.412 -355.19)" fill="#41fbff"/>
        <path id="Path_2501" data-name="Path 2501" d="M1080.564.992l-2.9.8h0l2.917.724-.708-.51,4.2-.058-.007-.49-4.194.058Z" transform="translate(-827.168 -0.761)" fill="#41fbff"/>
        <path id="Path_2502" data-name="Path 2502" d="M1152.81,0l-2.9.8h0l2.916.724-.708-.51,4.2-.058-.007-.49-4.195.058Z" transform="translate(-882.622)" fill="#41fbff"/>
        <path id="Path_2503" data-name="Path 2503" d="M1116.686.5l-2.895.8h0l2.917.724-.708-.51,4.2-.058-.007-.49-4.194.057Z" transform="translate(-854.894 -0.381)" fill="#41fbff"/>
        <path id="Path_2504" data-name="Path 2504" d="M980.581,2.361l-2.9.8h0l2.92.724-.709-.51,4.2-.058-.007-.49-4.2.057Z" transform="translate(-750.422 -1.812)" fill="#41fbff"/>
        <path id="Path_2505" data-name="Path 2505" d="M1052.921,1.37l-2.9.8h0l2.92.724-.709-.51,4.2-.058-.007-.49-4.2.057Z" transform="translate(-805.947 -1.052)" fill="#41fbff"/>
        <path id="Path_2506" data-name="Path 2506" d="M1016.75,1.866l-2.9.8h0l2.92.724-.709-.51,4.2-.058-.007-.49-4.2.057Z" transform="translate(-778.185 -1.432)" fill="#41fbff"/>
        <path id="Path_2507" data-name="Path 2507" d="M880.587,3.725l-2.9.8h0l2.921.724-.709-.51,4.2-.057-.007-.489-4.2.057Z" transform="translate(-673.669 -2.859)" fill="#41fbff"/>
        <path id="Path_2508" data-name="Path 2508" d="M952.932,2.739l-2.9.8h0l2.92.724-.709-.51,4.2-.057-.007-.489-4.2.057Z" transform="translate(-729.199 -2.102)" fill="#41fbff"/>
        <path id="Path_2509" data-name="Path 2509" d="M916.758,3.232l-2.9.8h0l2.92.724-.709-.51,4.2-.057-.007-.489-4.2.057Z" transform="translate(-701.434 -2.481)" fill="#41fbff"/>
        <path id="Path_2510" data-name="Path 2510" d="M780.728,5.063l-.727.2-.364.1a.656.656,0,0,1-.278.053c-.483.019-1.008.017-1.5.069l-.019,0,.01,0h-.007l.012,0c.464.2.88.44,1.341.677a1.544,1.544,0,0,0,.441.156l.364.091.728.181-.7-.511,4.2-.056v-.49l-4.2.056Z" transform="translate(-597.042 -3.886)" fill="#41fbff"/>
        <path id="Path_2511" data-name="Path 2511" d="M852.94,4.1l-2.9.8h0l2.918.725-.708-.511,4.2-.056-.007-.49-4.2.056Z" transform="translate(-652.447 -3.145)" fill="#41fbff"/>
        <path id="Path_2512" data-name="Path 2512" d="M816.772,4.581l-2.9.8h0l2.914.725-.706-.511,4.2-.056,0-.49-4.2.056Z" transform="translate(-624.683 -3.516)" fill="#41fbff"/>
        <path id="Path_2513" data-name="Path 2513" d="M721.85,55.76q-.105,1.509-.183,3.01l-.006.018,0-.009,0,.006,0-.012q.807-1.27,1.631-2.522l-.715.5c.442-1.328.9-2.65,1.387-3.961l-.459-.171c-.489,1.316-.949,2.643-1.392,3.973Z" transform="translate(-553.923 -40.389)" fill="#41fbff"/>
        <path id="Path_2514" data-name="Path 2514" d="M754.455,4.846a7.5,7.5,0,0,0-2.246,2.193l-.014.012.008-.006,0,0,.01-.008a6.7,6.7,0,0,1,2.736-.746c-.125-.047-.256-.1-.389-.138s-.266-.07-.405-.1a6.273,6.273,0,0,1,1.939-.549,7.6,7.6,0,0,1,2.028.054l.076-.483a8.084,8.084,0,0,0-2.16-.057,6.766,6.766,0,0,0-2.087.59q.112-.193.236-.39c.086-.125.178-.247.273-.373" transform="translate(-577.36 -3.72)" fill="#41fbff"/>
        <path id="Path_2515" data-name="Path 2515" d="M734.147,22.767c-.2,1.007-.347,2-.473,3l-.007.018,0-.008,0,.006,0-.012c.6-.8,1.212-1.594,1.851-2.338-.253.132-.512.265-.764.407.29-.632.589-1.261.928-1.863.17-.3.345-.6.541-.88l.286-.43c.1-.139.208-.273.312-.41l-.387-.3c-.108.142-.219.282-.324.426l-.3.445c-.2.293-.384.6-.559.91-.348.619-.651,1.257-.945,1.9-.064-.287-.115-.574-.17-.866" transform="translate(-563.139 -15.317)" fill="#41fbff"/>
        <path id="Path_2516" data-name="Path 2516" d="M691.643,151.2a3.434,3.434,0,0,0-.13.926,1.793,1.793,0,0,0,.269.967,1.413,1.413,0,0,0,.717.553,2.657,2.657,0,0,0,.768.137l.018.006-.009,0h.007l-.012,0a2.479,2.479,0,0,1-.557-.455.819.819,0,0,1-.225-.529,1.415,1.415,0,0,1,.514-.9,2.441,2.441,0,0,0-.682.357,3.116,3.116,0,0,1,.532-1.106c.122-.174.256-.343.4-.507.07-.081.142-.162.217-.24l.119-.124.159-.154.4-1.549-.474-.123-.364,1.416-.081.079-.113.117q-.118.125-.231.256c-.15.174-.293.355-.427.545a3.579,3.579,0,0,0-.611,1.289,3.308,3.308,0,0,1-.2-.958" transform="translate(-530.783 -113.951)" fill="#41fbff"/>
        <path id="Path_2517" data-name="Path 2517" d="M713.728,82.035q-.055,1.508-.1,3.012l-.005.018,0-.009v.007l0-.012q.773-1.291,1.558-2.569l-.7.521c.4-1.342.815-2.678,1.236-4.013l-.466-.149c-.422,1.337-.839,2.675-1.238,4.019Z" transform="translate(-547.757 -60.515)" fill="#41fbff"/>
        <path id="Path_2518" data-name="Path 2518" d="M703.982,116.759l-.02,3.011,0,.019,0-.009v.006l0-.012,1.494-2.609-.687.54q.552-2.027,1.124-4.048l-.471-.134q-.574,2.022-1.124,4.05Z" transform="translate(-540.334 -87.137)" fill="#41fbff"/>
        <path id="Path_2519" data-name="Path 2519" d="M774.932,171.4l2.919-.736h0l-2.9-.792.7.527-4.208-.04,0,.49,4.2.04Z" transform="translate(-592.129 -130.39)" fill="#41fbff"/>
        <path id="Path_2520" data-name="Path 2520" d="M702.387,170.714l2.913-.736h0l-2.911-.792.7.527-2.1-.02a7.5,7.5,0,0,1-2.014-.226l-.139.47a7.957,7.957,0,0,0,2.151.246l2.1.02Z" transform="translate(-536.405 -129.86)" fill="#41fbff"/>
        <path id="Path_2521" data-name="Path 2521" d="M738.744,171.059l2.915-.736h0l-2.908-.792.7.527-4.207-.04,0,.49,4.2.04Z" transform="translate(-564.351 -130.125)" fill="#41fbff"/>
        <path id="Path_2522" data-name="Path 2522" d="M875.065,172.5l2.923-.731h0l-2.906-.8.7.528-4.211-.047-.006.49,4.207.047Z" transform="translate(-668.985 -131.23)" fill="#41fbff"/>
        <path id="Path_2523" data-name="Path 2523" d="M802.6,171.691l2.924-.731h0l-2.906-.8.7.528-4.21-.047-.006.49,4.207.047Z" transform="translate(-613.366 -130.611)" fill="#41fbff"/>
        <path id="Path_2524" data-name="Path 2524" d="M838.835,172.095l2.923-.731h0l-2.906-.8.7.528-4.21-.047-.006.49,4.207.047Z" transform="translate(-641.177 -130.92)" fill="#41fbff"/>
        <path id="Path_2525" data-name="Path 2525" d="M975.1,173.644l2.919-.731h0l-2.9-.8.7.528-4.2-.048-.006.49,4.2.048Z" transform="translate(-745.773 -132.109)" fill="#41fbff"/>
        <path id="Path_2526" data-name="Path 2526" d="M902.757,172.812l2.919-.731h0l-2.9-.8.7.528-4.2-.048-.006.49,4.2.048Z" transform="translate(-690.246 -131.471)" fill="#41fbff"/>
        <path id="Path_2527" data-name="Path 2527" d="M938.93,173.228l2.918-.731h0l-2.9-.8.7.528-4.2-.048-.005.49,4.2.048Z" transform="translate(-718.011 -131.79)" fill="#41fbff"/>
        <path id="Path_2528" data-name="Path 2528" d="M1068.345,178.513l.335,2.99,0,.019,0-.01v.007l0-.012,1.178-2.769-.616.62.586-4-.581-.007-.284.486.3,0-.5,3.444Z" transform="translate(-820.026 -134.592)" fill="#41fbff"/>
        <path id="Path_2529" data-name="Path 2529" d="M1002.752,173.964l2.919-.73h0l-2.9-.8.7.528-4.2-.049-.006.49,4.2.049Z" transform="translate(-766.999 -132.355)" fill="#41fbff"/>
        <path id="Path_2530" data-name="Path 2530" d="M1038.924,174.388l2.918-.73h0l-2.9-.8.7.528-4.2-.049-.006.49,4.2.049Z" transform="translate(-794.764 -132.68)" fill="#41fbff"/>
        <path id="Path_2531" data-name="Path 2531" d="M1111.851,229.717l2.915-.744h0l-2.9-.784.7.525-4.2-.029,0,.489,4.2.029Z" transform="translate(-850.737 -175.149)" fill="#41fbff"/>
        <path id="Path_2532" data-name="Path 2532" d="M1064.341,205.14l.335,2.991,0,.019,0-.01v.006l0-.013,1.177-2.768-.616.619.609-4.159-.484-.071-.608,4.156Z" transform="translate(-816.953 -154.86)" fill="#41fbff"/>
        <path id="Path_2533" data-name="Path 2533" d="M1075.68,229.471l2.915-.744h0l-2.9-.784.7.525-4.2-.029,0,.49,4.2.029Z" transform="translate(-822.974 -174.961)" fill="#41fbff"/>
        <path id="Path_2534" data-name="Path 2534" d="M1211.848,230.4l2.915-.744h0l-2.9-.784.7.525-4.2-.029,0,.49,4.2.029Z" transform="translate(-927.492 -175.672)" fill="#41fbff"/>
        <path id="Path_2535" data-name="Path 2535" d="M1139.5,229.906l2.916-.744h0l-2.9-.784.7.525-4.2-.029,0,.49,4.2.029Z" transform="translate(-871.963 -175.294)" fill="#41fbff"/>
        <path id="Path_2536" data-name="Path 2536" d="M1175.678,230.152l2.915-.744h0l-2.9-.784.7.525-4.2-.029,0,.49,4.2.029Z" transform="translate(-899.729 -175.483)" fill="#41fbff"/>
        <path id="Path_2537" data-name="Path 2537" d="M1255.338,230.635l.747-.759h0l-.737-.769.175.521-1.072-.007,0,.49,1.071.007Z" transform="translate(-962.874 -175.854)" fill="#41fbff"/>
        <path id="Path_2538" data-name="Path 2538" d="M1236.9,230.51l.747-.759h0l-.736-.769.175.521-1.071-.007,0,.49,1.071.007Z" transform="translate(-948.718 -175.757)" fill="#41fbff"/>
        <path id="Path_2539" data-name="Path 2539" d="M1246.117,230.572l.747-.759h0l-.736-.769.175.521-1.071-.007,0,.49,1.071.007Z" transform="translate(-955.796 -175.806)" fill="#41fbff"/>
        <path id="Path_2540" data-name="Path 2540" d="M718.285,252.955l-.059,3.008-.005.018,0-.009v.006l0-.012,1.529-2.591-.692.534,1.147-4.045-.471-.134-1.146,4.041Z" transform="translate(-551.283 -191.686)" fill="#41fbff"/>
        <path id="Path_2541" data-name="Path 2541" d="M738.023,183.354l-.059,3.009-.005.018,0-.009v.007l0-.012,1.529-2.591-.692.533,1.147-4.044-.471-.133-1.146,4.041Z" transform="translate(-566.433 -138.262)" fill="#41fbff"/>
        <path id="Path_2542" data-name="Path 2542" d="M728.154,218.156l-.059,3.007-.005.019,0-.009v.006l0-.012,1.529-2.591-.692.534,1.147-4.044-.471-.134-1.146,4.041Z" transform="translate(-558.858 -164.975)" fill="#41fbff"/>
        <path id="Path_2543" data-name="Path 2543" d="M691,349.162l-.059,3.008-.005.018,0-.009v.006l0-.012,1.529-2.591-.692.534,1.147-4.045-.471-.134-1.146,4.041Z" transform="translate(-530.341 -265.531)" fill="#41fbff"/>
        <path id="Path_2544" data-name="Path 2544" d="M710.741,279.56l-.059,3.009-.005.018,0-.009v.007l0-.012,1.529-2.591-.692.533,1.147-4.044-.471-.133-1.146,4.041Z" transform="translate(-545.492 -212.107)" fill="#41fbff"/>
        <path id="Path_2545" data-name="Path 2545" d="M700.871,314.363l-.059,3.007-.005.019,0-.009v.006l0-.012,1.529-2.591-.692.534,1.147-4.044-.471-.134-1.146,4.041Z" transform="translate(-537.917 -238.82)" fill="#41fbff"/>
        <path id="Path_2546" data-name="Path 2546" d="M670.464,444.466l2.944-.622h.019l-.01,0h-.006l-2.87-.9.676.553-2.447-.119.311-1.1-.471-.133-.479,1.688,3.059.148Z" transform="translate(-512.836 -339.376)" fill="#41fbff"/>
        <path id="Path_2547" data-name="Path 2547" d="M683.458,375.766l-.059,3.009-.005.018,0-.009v.007l0-.012,1.529-2.591-.692.533,1.147-4.044-.471-.133-1.146,4.041Z" transform="translate(-524.551 -285.952)" fill="#41fbff"/>
        <path id="Path_2548" data-name="Path 2548" d="M673.589,410.569l-.059,3.007-.005.019,0-.009v.006l0-.012,1.529-2.591-.692.534,1.147-4.044-.471-.134-1.146,4.041Z" transform="translate(-516.976 -312.665)" fill="#41fbff"/>
        <path id="Path_2549" data-name="Path 2549" d="M766.593,451.927l2.944-.622h.019l-.01,0h-.006l-2.87-.9.676.553-4.2-.2-.024.489,4.2.2Z" transform="translate(-585.749 -345.711)" fill="#41fbff"/>
        <path id="Path_2550" data-name="Path 2550" d="M694.331,448.425l2.944-.622h.019l-.009,0h-.006l-2.869-.9.676.553-4.2-.2-.024.489,4.2.2Z" transform="translate(-530.283 -343.023)" fill="#41fbff"/>
        <path id="Path_2551" data-name="Path 2551" d="M730.464,450.176l2.943-.622h.019l-.009,0h-.006l-2.87-.9.676.553-4.2-.2-.024.489,4.2.2Z" transform="translate(-558.018 -344.368)" fill="#41fbff"/>
        <path id="Path_2552" data-name="Path 2552" d="M866.476,456.767l2.944-.622h.019l-.01,0h-.006l-2.87-.9.676.553-4.2-.2-.024.489,4.2.2Z" transform="translate(-662.416 -349.426)" fill="#41fbff"/>
        <path id="Path_2553" data-name="Path 2553" d="M794.214,453.265l2.944-.622h.019l-.009,0h-.006l-2.869-.9.676.553-4.2-.2-.024.489,4.2.2Z" transform="translate(-606.95 -346.739)" fill="#41fbff"/>
        <path id="Path_2554" data-name="Path 2554" d="M830.347,455.016l2.943-.622h.019l-.009,0h-.006l-2.87-.9.676.553-4.2-.2-.024.489,4.195.2Z" transform="translate(-634.684 -348.083)" fill="#41fbff"/>
        <path id="Path_2555" data-name="Path 2555" d="M966.021,447.931l-.283-3,0-.019,0,.01v-.007l0,.012-1.225,2.749.627-.609-.3,1.813-1.928-.093-.024.489,2.364.115.367-2.241Z" transform="translate(-739.082 -341.503)" fill="#41fbff"/>
        <path id="Path_2556" data-name="Path 2556" d="M894.1,458.105l2.944-.622h.019l-.009,0h-.006l-2.869-.9.676.553-4.2-.2-.024.489,4.2.2Z" transform="translate(-683.617 -350.454)" fill="#41fbff"/>
        <path id="Path_2557" data-name="Path 2557" d="M930.23,459.856l2.943-.622h.019l-.009,0h-.006l-2.87-.9.676.553-4.2-.2-.024.489,4.2.2Z" transform="translate(-711.351 -351.798)" fill="#41fbff"/>
        <path id="Path_2558" data-name="Path 2558" d="M987.37,349.247l-.283-3,0-.019,0,.01v-.007l0,.012L985.861,349l.627-.609-.68,4.149.483.079.679-4.145Z" transform="translate(-756.674 -265.757)" fill="#41fbff"/>
        <path id="Path_2559" data-name="Path 2559" d="M975.673,420.644l-.283-3,0-.018,0,.009v-.007l0,.013-1.224,2.748.627-.609-.68,4.148.483.079.679-4.145Z" transform="translate(-747.695 -320.559)" fill="#41fbff"/>
        <path id="Path_2560" data-name="Path 2560" d="M981.522,384.944l-.284-2.995,0-.019,0,.009v-.007l0,.013-1.225,2.748.627-.609-.68,4.148.483.079.679-4.145Z" transform="translate(-752.185 -293.157)" fill="#41fbff"/>
        <path id="Path_2561" data-name="Path 2561" d="M1003.539,250.563l-.283-3,0-.019,0,.01v-.007l0,.012-1.225,2.749.627-.609-.68,4.149.483.079.679-4.145Z" transform="translate(-769.084 -190.01)" fill="#41fbff"/>
        <path id="Path_2562" data-name="Path 2562" d="M991.841,321.959l-.283-3,0-.018,0,.009v-.007l0,.013-1.224,2.748.627-.609-.68,4.148.483.079.679-4.145Z" transform="translate(-760.106 -244.812)" fill="#41fbff"/>
        <path id="Path_2563" data-name="Path 2563" d="M997.69,286.26l-.284-2.995,0-.019,0,.009v-.006l0,.013-1.225,2.748.627-.609-.68,4.148.483.079.679-4.145Z" transform="translate(-764.595 -217.41)" fill="#41fbff"/>
        <path id="Path_2564" data-name="Path 2564" d="M1039.116,227.5l1.929-.648h0l-1.837-.877.423.547-2.72-.165-.03.489,2.718.165Z" transform="translate(-795.878 -173.449)" fill="#41fbff"/>
        <path id="Path_2565" data-name="Path 2565" d="M1007.328,231.859l-.449-1.985,0-.012,0,.006v0l-1.059,1.738.587-.365-.44,2.689.483.079.44-2.687Z" transform="translate(-772.033 -176.434)" fill="#41fbff"/>
        <path id="Path_2566" data-name="Path 2566" d="M1015.748,226.081l1.928-.648h0l-1.836-.877.423.547-2.739-.166.009.491,2.7.163Z" transform="translate(-777.95 -172.36)" fill="#41fbff"/>
        <path id="Path_2567" data-name="Path 2567" d="M75.893,550.19l2.937-.655h0l-2.88-.872.682.546-4.2-.158-.018.489,4.2.158Z" transform="translate(-55.585 -421.134)" fill="#41fbff"/>
        <path id="Path_2568" data-name="Path 2568" d="M3.5,547.39l2.94-.645h0l-2.875-.882.679.549-2.1-.089L1.1,546.274l-.523-.026-.26-.015-.125-.008-.056,0-.028,0H.081l-.011.059L0,546.7c.209.022.371.027.551.039l.526.027,1.05.048,2.1.089Z" transform="translate(0 -418.986)" fill="#41fbff"/>
        <path id="Path_2569" data-name="Path 2569" d="M39.746,548.823l2.937-.653h0l-2.879-.874.682.546-4.2-.162-.019.489,4.2.162Z" transform="translate(-27.84 -420.085)" fill="#41fbff"/>
        <path id="Path_2570" data-name="Path 2570" d="M175.861,553.863l2.938-.657h0l-2.881-.87.683.546-4.2-.154-.018.489,4.2.154Z" transform="translate(-132.315 -423.953)" fill="#41fbff"/>
        <path id="Path_2571" data-name="Path 2571" d="M103.531,551.211l2.938-.657h0l-2.881-.87.683.546-4.2-.154-.018.489,4.2.154Z" transform="translate(-76.798 -421.918)" fill="#41fbff"/>
        <path id="Path_2572" data-name="Path 2572" d="M139.7,552.537l2.937-.657h0l-2.881-.87.683.546-4.2-.154-.018.489,4.2.154Z" transform="translate(-104.557 -422.935)" fill="#41fbff"/>
        <path id="Path_2573" data-name="Path 2573" d="M275.908,557.48l2.94-.659h.019l-.01,0h-.006l-2.885-.869.684.545-4.207-.152-.018.489,4.2.152Z" transform="translate(-209.105 -426.73)" fill="#41fbff"/>
        <path id="Path_2574" data-name="Path 2574" d="M203.511,554.868l2.94-.658h0l-2.885-.869.684.545-4.206-.152-.018.489,4.2.152Z" transform="translate(-153.536 -424.725)" fill="#41fbff"/>
        <path id="Path_2575" data-name="Path 2575" d="M239.711,556.174l2.939-.659h0l-2.885-.869.684.545-4.206-.152-.018.489,4.2.152Z" transform="translate(-181.322 -425.728)" fill="#41fbff"/>
        <path id="Path_2576" data-name="Path 2576" d="M375.983,561.064l2.94-.659h0l-2.885-.868.684.545-4.207-.151-.017.489,4.2.15Z" transform="translate(-285.919 -429.481)" fill="#41fbff"/>
        <path id="Path_2577" data-name="Path 2577" d="M303.581,558.474l2.94-.659h0l-2.885-.868.684.545-4.207-.151-.017.489,4.2.15Z" transform="translate(-230.346 -427.493)" fill="#41fbff"/>
        <path id="Path_2578" data-name="Path 2578" d="M339.784,559.769l2.939-.659h0l-2.885-.868.684.545-4.207-.151-.017.489,4.2.15Z" transform="translate(-258.134 -428.487)" fill="#41fbff"/>
        <path id="Path_2579" data-name="Path 2579" d="M475.955,564.622l2.935-.66h0l-2.881-.867.683.545-4.2-.149-.017.489,4.2.15Z" transform="translate(-362.658 -432.212)" fill="#41fbff"/>
        <path id="Path_2580" data-name="Path 2580" d="M403.653,562.051l2.936-.66h0l-2.881-.867.683.545-4.2-.149-.017.489,4.2.15Z" transform="translate(-307.162 -430.238)" fill="#41fbff"/>
        <path id="Path_2581" data-name="Path 2581" d="M439.806,563.336l2.935-.66h0l-2.881-.867.683.545-4.2-.149-.017.489,4.2.149Z" transform="translate(-334.911 -431.225)" fill="#41fbff"/>
        <path id="Path_2582" data-name="Path 2582" d="M575.892,568.164l2.935-.661h0l-2.881-.867.684.545-4.2-.149-.017.489,4.2.149Z" transform="translate(-439.366 -434.931)" fill="#41fbff"/>
        <path id="Path_2583" data-name="Path 2583" d="M503.591,565.6l2.936-.661h0l-2.881-.867.683.545-4.2-.149-.017.489,4.2.149Z" transform="translate(-383.871 -432.965)" fill="#41fbff"/>
        <path id="Path_2584" data-name="Path 2584" d="M539.743,566.884l2.935-.661h0l-2.881-.867.683.545-4.2-.149-.017.489,4.2.149Z" transform="translate(-411.62 -433.948)" fill="#41fbff"/>
        <path id="Path_2585" data-name="Path 2585" d="M675.833,571.694l2.935-.661h0l-2.881-.866.683.545-4.2-.148-.017.489,4.2.148Z" transform="translate(-516.078 -437.64)" fill="#41fbff"/>
        <path id="Path_2586" data-name="Path 2586" d="M603.529,569.142l2.936-.661h0l-2.881-.866.683.545-4.2-.148-.017.489,4.2.148Z" transform="translate(-460.579 -435.681)" fill="#41fbff"/>
        <path id="Path_2587" data-name="Path 2587" d="M639.683,570.418l2.935-.661h0l-2.881-.866.684.545-4.2-.148-.017.489,4.2.148Z" transform="translate(-488.33 -436.661)" fill="#41fbff"/>
        <path id="Path_2588" data-name="Path 2588" d="M775.775,575.214l2.935-.661h0l-2.882-.866.684.545-4.2-.148-.017.489,4.2.148Z" transform="translate(-592.789 -440.342)" fill="#41fbff"/>
        <path id="Path_2589" data-name="Path 2589" d="M703.471,572.669l2.936-.661h0l-2.881-.866.683.545-4.2-.148-.017.489,4.2.148Z" transform="translate(-537.292 -438.388)" fill="#41fbff"/>
        <path id="Path_2590" data-name="Path 2590" d="M739.625,573.942l2.934-.661h0l-2.882-.866.684.545-4.2-.148-.017.489,4.2.148Z" transform="translate(-565.042 -439.365)" fill="#41fbff"/>
        <path id="Path_2591" data-name="Path 2591" d="M875.717,578.725l2.935-.661h0l-2.882-.866.684.544-4.2-.147-.017.489,4.2.147Z" transform="translate(-669.501 -443.037)" fill="#41fbff"/>
        <path id="Path_2592" data-name="Path 2592" d="M803.412,576.186l2.936-.661h0l-2.881-.866.683.544-4.2-.147-.017.489,4.2.147Z" transform="translate(-614.004 -441.088)" fill="#41fbff"/>
        <path id="Path_2593" data-name="Path 2593" d="M839.566,577.456l2.935-.661h0l-2.881-.866.684.544-4.2-.147-.017.489,4.2.147Z" transform="translate(-641.754 -442.062)" fill="#41fbff"/>
        <path id="Path_2594" data-name="Path 2594" d="M963.168,548.057l-.373-2.986,0-.019,0,.01v-.007l0,.012-1.142,2.784.609-.627-.556,4.167.485.065.555-4.164Z" transform="translate(-738.132 -418.364)" fill="#41fbff"/>
        <path id="Path_2595" data-name="Path 2595" d="M903.354,579.694l2.936-.662h0l-2.881-.866.683.544-4.2-.147-.017.489,4.2.147Z" transform="translate(-690.715 -443.781)" fill="#41fbff"/>
        <path id="Path_2596" data-name="Path 2596" d="M939.507,580.961l1.22-.275.3-.069c.109-.023.182-.047.338-.068q.41-.065.694-.135-.018-.351-.047-.62l0-.019,0,.009v-.007l0,.013a2.848,2.848,0,0,1-.178.356,3.975,3.975,0,0,1-.513-.177,1.946,1.946,0,0,0-.265-.089l-.3-.09-1.2-.359.684.544-4.2-.147-.017.489,4.2.147Z" transform="translate(-718.465 -444.753)" fill="#41fbff"/>
        <path id="Path_2597" data-name="Path 2597" d="M974.385,465.586l-.439-2.486,0-.016,0,.008v0l-1.075,2.284.592-.507L973,468.32l.485.065.459-3.443Z" transform="translate(-746.742 -355.448)" fill="#41fbff"/>
        <path id="Path_2598" data-name="Path 2598" d="M966.478,524.889l-.439-2.487,0-.015,0,.008v0l-1.076,2.284.592-.506-.459,3.445.485.065.459-3.443Z" transform="translate(-740.673 -400.967)" fill="#41fbff"/>
        <path id="Path_2599" data-name="Path 2599" d="M970.431,495.237l-.439-2.486,0-.016,0,.007v.005l-1.076,2.284.593-.507-.46,3.445.485.065.459-3.443Z" transform="translate(-743.707 -378.208)" fill="#41fbff"/>
        <path id="Path_2600" data-name="Path 2600" d="M180.755,479.4l2.94-.641h0l-2.876-.886.68.549-4.2-.177-.021.489,4.2.177Z" transform="translate(-136.076 -366.796)" fill="#41fbff"/>
        <path id="Path_2601" data-name="Path 2601" d="M148.247,522.131l.467-2.974.007-.017,0,.008,0-.007-.005.012-1.866,2.358.758-.433c-.564,1.278-1.122,2.576-1.708,3.827l.438.219c.6-1.286,1.151-2.562,1.717-3.847Z" transform="translate(-111.986 -398.475)" fill="#41fbff"/>
        <path id="Path_2602" data-name="Path 2602" d="M162.8,488.947l.455-2.974.008-.018,0,.008,0-.006,0,.012-1.858,2.367.757-.437-1.674,3.856.449.2L162.6,488.1Z" transform="translate(-123.179 -373.003)" fill="#41fbff"/>
        <path id="Path_2603" data-name="Path 2603" d="M280.667,483.6l2.169-.473-.18-.271-.079.784-.007.018,0-.009,0,.007,0-.012.456-.648.125-.178-.306-.094-2.119-.653.68.549-4.2-.177-.021.489,4.2.177Z" transform="translate(-212.765 -370.025)" fill="#41fbff"/>
        <path id="Path_2604" data-name="Path 2604" d="M208.384,480.56l2.94-.641h0l-2.875-.886.679.549-4.2-.177-.02.489,4.2.177Z" transform="translate(-157.283 -367.689)" fill="#41fbff"/>
        <path id="Path_2605" data-name="Path 2605" d="M244.528,482.082l2.939-.641h0l-2.875-.886.68.549-4.2-.177-.021.489,4.2.177Z" transform="translate(-185.025 -368.857)" fill="#41fbff"/>
        <path id="Path_2606" data-name="Path 2606" d="M276.134,537.537l.013,2.154,0,.012,0-.006v0l0-.008,1.419-1.62-.657.274,1.016-2.726-.459-.171-1.015,2.724Z" transform="translate(-211.952 -410.994)" fill="#41fbff"/>
        <path id="Path_2607" data-name="Path 2607" d="M293.613,490.622l.013,2.154,0,.012,0-.006v0l0-.008,1.419-1.62-.657.274,1.016-2.726-.459-.171-1.015,2.724Z" transform="translate(-225.368 -374.983)" fill="#41fbff"/>
        <path id="Path_2608" data-name="Path 2608" d="M284.873,514.081l.013,2.154,0,.012,0-.006v0l0-.008,1.419-1.62-.657.274,1.015-2.726-.459-.171-1.015,2.723Z" transform="translate(-218.659 -392.99)" fill="#41fbff"/>
      </g>
    </g>
  </g>
</svg>
